<svg xmlns="http://www.w3.org/2000/svg" xmlns:xlink="http://www.w3.org/1999/xlink" x="0" y="0" width="662" height="156.65625" style="
        width:662px;
        height:156.65625px;
        background: transparent;
        fill: none;
">
        
        
        <svg xmlns="http://www.w3.org/2000/svg" class="role-diagram-draw-area"><g class="shapes-region" style="stroke: black; fill: none;"><g class="composite-shape" data-amt="diagram/shapes/plot" transform="matrix(1,0,0,1,117.33333333333334,-3.65625)"><g><g/><g><g class="test-plot-expression"><defs><clipPath id="cprjjm3bbi5"><rect x="1" y="1" width="426.9999999999999" height="191.33333333333326"/></clipPath></defs><g clip-path="url(#cprjjm3bbi5)"><path d=" M197.74,146.83 L197.85,146.51 L197.97,146.19 L198.09,145.87 L198.20,145.55 L198.32,145.23 L198.44,144.91 L198.55,144.59 L198.67,144.27 L198.79,143.96 L198.90,143.64 L199.02,143.32 L199.14,143.00 L199.25,142.69 L199.37,142.37 L199.49,142.06 L199.60,141.74 L199.72,141.43 L199.84,141.11 L199.95,140.80 L200.07,140.49 L200.19,140.17 L200.31,139.86 L200.42,139.55 L200.54,139.24 L200.66,138.92 L200.77,138.61 L200.89,138.30 L201.01,137.99 L201.12,137.68 L201.24,137.37 L201.36,137.06 L201.47,136.75 L201.59,136.44 L201.71,136.14 L201.82,135.83 L201.94,135.52 L202.06,135.21 L202.17,134.91 L202.29,134.60 L202.41,134.29 L202.52,133.99 L202.64,133.68 L202.76,133.38 L202.87,133.07 L202.99,132.77 L203.11,132.47 L203.22,132.16 L203.34,131.86 L203.46,131.56 L203.57,131.25 L203.69,130.95 L203.81,130.65 L203.93,130.35 L204.04,130.05 L204.16,129.75 L204.28,129.45 L204.39,129.15 L204.51,128.85 L204.63,128.55 L204.74,128.25 L204.86,127.95 L204.98,127.66 L205.09,127.36 L205.21,127.06 L205.33,126.76 L205.44,126.47 L205.56,126.17 L205.68,125.88 L205.79,125.58 L205.91,125.29 L206.03,124.99 L206.14,124.70 L206.26,124.40 L206.38,124.11 L206.49,123.82 L206.61,123.52 L206.73,123.23 L206.84,122.94 L206.96,122.65 L207.08,122.36 L207.20,122.07 L207.31,121.78 L207.43,121.49 L207.55,121.20 L207.66,120.91 L207.78,120.62 L207.90,120.33 L208.01,120.04 L208.13,119.76 L208.25,119.47 L208.36,119.18 L208.48,118.89 L208.60,118.61 L208.71,118.32 L208.83,118.04 L208.95,117.75 L209.06,117.47 L209.18,117.18 L209.30,116.90 L209.41,116.62 L209.53,116.33 L209.65,116.05 L209.76,115.77 L209.88,115.48 L210.00,115.20 L210.11,114.92 L210.23,114.64 L210.35,114.36 L210.46,114.08 L210.58,113.80 L210.70,113.52 L210.82,113.24 L210.93,112.96 L211.05,112.68 L211.17,112.41 L211.28,112.13 L211.40,111.85 L211.52,111.57 L211.63,111.30 L211.75,111.02 L211.87,110.75 L211.98,110.47 L212.10,110.20 L212.22,109.92 L212.33,109.65 L212.45,109.37 L212.57,109.10 L212.68,108.83 L212.80,108.55 L212.92,108.28 L213.03,108.01 L213.15,107.74 L213.27,107.47 L213.38,107.20 L213.50,106.93 L213.62,106.66 L213.73,106.39 L213.85,106.12 L213.97,105.85 L214.09,105.58 L214.20,105.31 L214.32,105.04 L214.44,104.77 L214.55,104.51 L214.67,104.24 L214.79,103.97 L214.90,103.71 L215.02,103.44 L215.14,103.18 L215.25,102.91 L215.37,102.65 L215.49,102.38 L215.60,102.12 L215.72,101.86 L215.84,101.59 L215.95,101.33 L216.07,101.07 L216.19,100.81 L216.30,100.55 L216.42,100.28 L216.54,100.02 L216.65,99.76 L216.77,99.50 L216.89,99.24 L217.00,98.98 L217.12,98.73 L217.24,98.47 L217.35,98.21 L217.47,97.95 L217.59,97.69 L217.71,97.44 L217.82,97.18 L217.94,96.92 L218.06,96.67 L218.17,96.41 L218.29,96.16 L218.41,95.90 L218.52,95.65 L218.64,95.39 L218.76,95.14 L218.87,94.89 L218.99,94.63 L219.11,94.38 L219.22,94.13 L219.34,93.88 L219.46,93.63 L219.57,93.38 L219.69,93.12 L219.81,92.87 L219.92,92.62 L220.04,92.38 L220.16,92.13 L220.27,91.88 L220.39,91.63 L220.51,91.38 L220.62,91.13 L220.74,90.89 L220.86,90.64 L220.97,90.39 L221.09,90.15 L221.21,89.90 L221.33,89.66 L221.44,89.41 L221.56,89.17 L221.68,88.92 L221.79,88.68 L221.91,88.43 L222.03,88.19 L222.14,87.95 L222.26,87.71 L222.38,87.46 L222.49,87.22 L222.61,86.98 L222.73,86.74 L222.84,86.50 L222.96,86.26 L223.08,86.02 L223.19,85.78 L223.31,85.54 L223.43,85.30 L223.54,85.06 L223.66,84.83 L223.78,84.59 L223.89,84.35 L224.01,84.11 L224.13,83.88 L224.24,83.64 L224.36,83.41 L224.48,83.17 L224.60,82.94 L224.71,82.70 L224.83,82.47 L224.95,82.23 L225.06,82.00 L225.18,81.77 L225.30,81.53 L225.41,81.30 L225.53,81.07 L225.65,80.84 L225.76,80.61 L225.88,80.38 L226.00,80.15 L226.11,79.92 L226.23,79.69 L226.35,79.46 L226.46,79.23 L226.58,79.00 L226.70,78.77 L226.81,78.54 L226.93,78.32 L227.05,78.09 L227.16,77.86 L227.28,77.64 L227.40,77.41 L227.51,77.18 L227.63,76.96 L227.75,76.73 L227.86,76.51 L227.98,76.29 L228.10,76.06 L228.22,75.84 L228.33,75.62 L228.45,75.39 L228.57,75.17 L228.68,74.95 L228.80,74.73 L228.92,74.51 L229.03,74.29 L229.15,74.07 L229.27,73.85 L229.38,73.63 L229.50,73.41 L229.62,73.19 L229.73,72.97 L229.85,72.75 L229.97,72.53 L230.08,72.32 L230.20,72.10 L230.32,71.88 L230.43,71.67 L230.55,71.45 L230.67,71.24 L230.78,71.02 L230.90,70.81 L231.02,70.59 L231.13,70.38 L231.25,70.16 L231.37,69.95 L231.49,69.74 L231.60,69.53 L231.72,69.31 L231.84,69.10 L231.95,68.89 L232.07,68.68 L232.19,68.47 L232.30,68.26 L232.42,68.05 L232.54,67.84 L232.65,67.63 L232.77,67.42 L232.89,67.21 L233.00,67.00 L233.12,66.80 L233.24,66.59 L233.35,66.38 L233.47,66.18 L233.59,65.97 L233.70,65.77 L233.82,65.56 L233.94,65.35 L234.05,65.15 L234.17,64.95 L234.29,64.74 L234.40,64.54 L234.52,64.34 L234.64,64.13 L234.75,63.93 L234.87,63.73 L234.99,63.53 L235.11,63.33 L235.22,63.12 L235.34,62.92 L235.46,62.72 L235.57,62.52 L235.69,62.33 L235.81,62.13 L235.92,61.93 L236.04,61.73 L236.16,61.53 L236.27,61.33 L236.39,61.14 L236.51,60.94 L236.62,60.74 L236.74,60.55 L236.86,60.35 L236.97,60.16 L237.09,59.96 L237.21,59.77 L237.32,59.57 L237.44,59.38 L237.56,59.19 L237.67,58.99 L237.79,58.80 L237.91,58.61 L238.02,58.42 L238.14,58.22 L238.26,58.03 L238.37,57.84 L238.49,57.65 L238.61,57.46 L238.73,57.27 L238.84,57.08 L238.96,56.89 L239.08,56.71 L239.19,56.52 L239.31,56.33 L239.43,56.14 L239.54,55.96 L239.66,55.77 L239.78,55.58 L239.89,55.40 L240.01,55.21 L240.13,55.03 L240.24,54.84 L240.36,54.66 L240.48,54.47 L240.59,54.29 L240.71,54.11 L240.83,53.92 L240.94,53.74 L241.06,53.56 L241.18,53.38 L241.29,53.20 L241.41,53.02 L241.53,52.83 L241.64,52.65 L241.76,52.47 L241.88,52.29 L242.00,52.12 L242.11,51.94 L242.23,51.76 L242.35,51.58 L242.46,51.40 L242.58,51.23 L242.70,51.05 L242.81,50.87 L242.93,50.70 L243.05,50.52 L243.16,50.34 L243.28,50.17 L243.40,50.00 L243.51,49.82 L243.63,49.65 L243.75,49.47 L243.86,49.30 L243.98,49.13 L244.10,48.96 L244.21,48.78 L244.33,48.61 L244.45,48.44 L244.56,48.27 L244.68,48.10 L244.80,47.93 L244.91,47.76 L245.03,47.59 L245.15,47.42 L245.26,47.25 L245.38,47.08 L245.50,46.92 L245.62,46.75 L245.73,46.58 L245.85,46.41 L245.97,46.25 L246.08,46.08 L246.20,45.92 L246.32,45.75 L246.43,45.59 L246.55,45.42 L246.67,45.26 L246.78,45.09 L246.90,44.93 L247.02,44.77 L247.13,44.60 L247.25,44.44 L247.37,44.28 L247.48,44.12 L247.60,43.96 L247.72,43.80 L247.83,43.64 L247.95,43.48 L248.07,43.32 L248.18,43.16 L248.30,43.00 L248.42,42.84 L248.53,42.68 L248.65,42.52 L248.77,42.37 L248.89,42.21 L249.00,42.05 L249.12,41.90 L249.24,41.74 L249.35,41.58 L249.47,41.43 L249.59,41.27 L249.70,41.12 L249.82,40.97 L249.94,40.81 L250.05,40.66 L250.17,40.51 L250.29,40.35 L250.40,40.20 L250.52,40.05 L250.64,39.90 L250.75,39.75 L250.87,39.60 L250.99,39.45 L251.10,39.30 L251.22,39.15 L251.34,39.00 L251.45,38.85 L251.57,38.70 L251.69,38.55 L251.80,38.40 L251.92,38.26 L252.04,38.11 L252.15,37.96 L252.27,37.82 L252.39,37.67 L252.51,37.53 L252.62,37.38 L252.74,37.24 L252.86,37.09 L252.97,36.95 L253.09,36.80 L253.21,36.66 L253.32,36.52 L253.44,36.38 L253.56,36.23 L253.67,36.09 L253.79,35.95 L253.91,35.81 L254.02,35.67 L254.14,35.53 L254.26,35.39 L254.37,35.25 L254.49,35.11 L254.61,34.97 L254.72,34.83 L254.84,34.70 L254.96,34.56 L255.07,34.42 L255.19,34.28 L255.31,34.15 L255.42,34.01 L255.54,33.88 L255.66,33.74 L255.78,33.61 L255.89,33.47 L256.01,33.34 L256.13,33.20 L256.24,33.07 L256.36,32.94 L256.48,32.80 L256.59,32.67 L256.71,32.54 L256.83,32.41 L256.94,32.28 L257.06,32.15 L257.18,32.01 L257.29,31.88 L257.41,31.76 L257.53,31.63 L257.64,31.50 L257.76,31.37 L257.88,31.24 L257.99,31.11 L258.11,30.98 L258.23,30.86 L258.34,30.73 L258.46,30.60 L258.58,30.48 L258.69,30.35 L258.81,30.23 L258.93,30.10 L259.04,29.98 L259.16,29.85 L259.28,29.73 L259.40,29.61 L259.51,29.48 L259.63,29.36 L259.75,29.24 L259.86,29.12 L259.98,29.00 L260.10,28.87 L260.21,28.75 L260.33,28.63 L260.45,28.51 L260.56,28.39 L260.68,28.27 L260.80,28.16 L260.91,28.04 L261.03,27.92 L261.15,27.80 L261.26,27.68 L261.38,27.57 L261.50,27.45 L261.61,27.33 L261.73,27.22 L261.85,27.10 L261.96,26.99 L262.08,26.87 L262.20,26.76 L262.31,26.64 L262.43,26.53 L262.55,26.42 L262.66,26.30 L262.78,26.19 L262.90,26.08 L263.02,25.97 L263.13,25.86 L263.25,25.75 L263.37,25.64 L263.48,25.53 L263.60,25.42 L263.72,25.31 L263.83,25.20 L263.95,25.09 L264.07,24.98 L264.18,24.87 L264.30,24.76 L264.42,24.66 L264.53,24.55 L264.65,24.44 L264.77,24.34 L264.88,24.23 L265.00,24.13 L265.12,24.02 L265.23,23.92 L265.35,23.81 L265.47,23.71 L265.58,23.60 L265.70,23.50 L265.82,23.40 L265.93,23.30 L266.05,23.19 L266.17,23.09 L266.29,22.99 L266.40,22.89 L266.52,22.79 L266.64,22.69 L266.75,22.59 L266.87,22.49 L266.99,22.39 L267.10,22.29 L267.22,22.19 L267.34,22.10 L267.45,22.00 L267.57,21.90 L267.69,21.81 L267.80,21.71 L267.92,21.61 L268.04,21.52 L268.15,21.42 L268.27,21.33 L268.39,21.23 L268.50,21.14 L268.62,21.04 L268.74,20.95 L268.85,20.86 L268.97,20.77 L269.09,20.67 L269.20,20.58 L269.32,20.49 L269.44,20.40 L269.55,20.31 L269.67,20.22 L269.79,20.13 L269.91,20.04 L270.02,19.95 L270.14,19.86 L270.26,19.77 L270.37,19.68 L270.49,19.60 L270.61,19.51 L270.72,19.42 L270.84,19.33 L270.96,19.25 L271.07,19.16 L271.19,19.08 L271.31,18.99 L271.42,18.91 L271.54,18.82 L271.66,18.74 L271.77,18.65 L271.89,18.57 L272.01,18.49 L272.12,18.41 L272.24,18.32 L272.36,18.24 L272.47,18.16 L272.59,18.08 L272.71,18.00 L272.82,17.92 L272.94,17.84 L273.06,17.76 L273.18,17.68 L273.29,17.60 L273.41,17.52 L273.53,17.44 L273.64,17.37 L273.76,17.29 L273.88,17.21 L273.99,17.14 L274.11,17.06 L274.23,16.98 L274.34,16.91 L274.46,16.83 L274.58,16.76 L274.69,16.68 L274.81,16.61 L274.93,16.54 L275.04,16.46 L275.16,16.39 L275.28,16.32 L275.39,16.25 L275.51,16.17 L275.63,16.10 L275.74,16.03 L275.86,15.96 L275.98,15.89 L276.09,15.82 L276.21,15.75 L276.33,15.68 L276.44,15.61 L276.56,15.55 L276.68,15.48 L276.80,15.41 L276.91,15.34 L277.03,15.28 L277.15,15.21 L277.26,15.14 L277.38,15.08 L277.50,15.01 L277.61,14.95 L277.73,14.88 L277.85,14.82 L277.96,14.76 L278.08,14.69 L278.20,14.63 L278.31,14.57 L278.43,14.50 L278.55,14.44 L278.66,14.38 L278.78,14.32 L278.90,14.26 L279.01,14.20 L279.13,14.14 L279.25,14.08 L279.36,14.02 L279.48,13.96 L279.60,13.90 L279.71,13.84 L279.83,13.78 L279.95,13.73 L280.06,13.67 L280.18,13.61 L280.30,13.56 L280.42,13.50 L280.53,13.45 L280.65,13.39 L280.77,13.34 L280.88,13.28 L281.00,13.23 L281.12,13.17 L281.23,13.12 L281.35,13.07 L281.47,13.01 L281.58,12.96 L281.70,12.91 L281.82,12.86 L281.93,12.81 L282.05,12.76 L282.17,12.71 L282.28,12.66 L282.40,12.61 L282.52,12.56 L282.63,12.51 L282.75,12.46 L282.87,12.41 L282.98,12.36 L283.10,12.32 L283.22,12.27 L283.33,12.22 L283.45,12.18 L283.57,12.13 L283.69,12.09 L283.80,12.04 L283.92,12.00 L284.04,11.95 L284.15,11.91 L284.27,11.86 L284.39,11.82 L284.50,11.78 L284.62,11.74 L284.74,11.69 L284.85,11.65 L284.97,11.61 L285.09,11.57 L285.20,11.53 L285.32,11.49 L285.44,11.45 L285.55,11.41 L285.67,11.37 L285.79,11.33 L285.90,11.29 L286.02,11.25 L286.14,11.22 L286.25,11.18 L286.37,11.14 L286.49,11.11 L286.60,11.07 L286.72,11.03 L286.84,11.00 L286.95,10.96 L287.07,10.93 L287.19,10.90 L287.31,10.86 L287.42,10.83 L287.54,10.79 L287.66,10.76 L287.77,10.73 L287.89,10.70 L288.01,10.67 L288.12,10.63 L288.24,10.60 L288.36,10.57 L288.47,10.54 L288.59,10.51 L288.71,10.48 L288.82,10.46 L288.94,10.43 L289.06,10.40 L289.17,10.37 L289.29,10.34 L289.41,10.32 L289.52,10.29 L289.64,10.26 L289.76,10.24 L289.87,10.21 L289.99,10.19 L290.11,10.16 L290.22,10.14 L290.34,10.11 L290.46,10.09 L290.58,10.06 L290.69,10.04 L290.81,10.02 L290.93,10.00 L291.04,9.97 L291.16,9.95 L291.28,9.93 L291.39,9.91 L291.51,9.89 L291.63,9.87 L291.74,9.85 L291.86,9.83 L291.98,9.81 L292.09,9.79 L292.21,9.78 L292.33,9.76 L292.44,9.74 L292.56,9.72 L292.68,9.71 L292.79,9.69 L292.91,9.68 L293.03,9.66 L293.14,9.64 L293.26,9.63 L293.38,9.62 L293.49,9.60 L293.61,9.59 L293.73,9.57 L293.84,9.56 L293.96,9.55 L294.08,9.54 L294.20,9.53 L294.31,9.51 L294.43,9.50 L294.55,9.49 L294.66,9.48 L294.78,9.47 L294.90,9.46 L295.01,9.45 L295.13,9.44 L295.25,9.44 L295.36,9.43 L295.48,9.42 L295.60,9.41 L295.71,9.41 L295.83,9.40 L295.95,9.39 L296.06,9.39 L296.18,9.38 L296.30,9.38 L296.41,9.37 L296.53,9.37 L296.65,9.36 L296.76,9.36 L296.88,9.36 L297.00,9.35 L297.11,9.35 L297.23,9.35 L297.35,9.35 L297.46,9.35 L297.58,9.35 L297.70,9.35 L297.82,9.35" style="stroke-width: 2; stroke: rgb(0, 0, 0); stroke-opacity: 1;"/><g><g class="arrow-line"><path class="vector-plot real" stroke-dasharray="" d="  M297.82,146.83 L297.82,9.35" style="stroke: rgb(0, 0, 0); stroke-opacity: 1; stroke-width: 1;"/></g></g><g><g class="arrow-line"><path class="vector-plot real" stroke-dasharray="" d="  M312.39,146.83 L312.39,9.35" style="stroke: rgb(0, 0, 0); stroke-opacity: 1; stroke-width: 1;"/><g stroke="rgb(0,0,0)" stroke-opacity="1" transform="matrix(3.061616997868383e-16,1,-1,3.061616997868383e-16,312.38568606373127,9.345225081805722)" style="stroke: rgb(0, 0, 0); stroke-width: 1;"><path d=" M0,5.59 L0,-5.59"/></g><g stroke="rgb(0,0,0)" stroke-opacity="1" transform="matrix(3.061616997868383e-16,1,-1,3.061616997868383e-16,312.3856860637312,146.82807118811075)" style="stroke: rgb(0, 0, 0); stroke-width: 1;"><path d=" M0,5.59 L0,-5.59"/></g></g></g><g><g class="arrow-line"><path class="vector-plot real" stroke-dasharray="" d="  M152.11,146.83 L348.81,146.83" style="stroke: rgb(0, 0, 0); stroke-opacity: 1; stroke-width: 2;"/></g></g><path d=" M202.72,133.14 L202.74,133.14 L202.76,133.15 L202.78,133.16 L202.80,133.17 L202.82,133.17 L202.84,133.18 L202.86,133.19 L202.88,133.19 L202.89,133.20 L202.91,133.21 L202.93,133.22 L202.95,133.22 L202.97,133.23 L202.99,133.24 L203.01,133.25 L203.03,133.25 L203.05,133.26 L203.07,133.27 L203.09,133.28 L203.11,133.28 L203.13,133.29 L203.15,133.30 L203.17,133.31 L203.18,133.31 L203.20,133.32 L203.22,133.33 L203.24,133.34 L203.26,133.35 L203.28,133.35 L203.30,133.36 L203.32,133.37 L203.34,133.38 L203.36,133.39 L203.38,133.39 L203.40,133.40 L203.42,133.41 L203.43,133.42 L203.45,133.43 L203.47,133.43 L203.49,133.44 L203.51,133.45 L203.53,133.46 L203.55,133.47 L203.57,133.48 L203.59,133.48 L203.61,133.49 L203.62,133.50 L203.64,133.51 L203.66,133.52 L203.68,133.53 L203.70,133.53 L203.72,133.54 L203.74,133.55 L203.76,133.56 L203.78,133.57 L203.80,133.58 L203.81,133.59 L203.83,133.59 L203.85,133.60 L203.87,133.61 L203.89,133.62 L203.91,133.63 L203.93,133.64 L203.95,133.65 L203.96,133.66 L203.98,133.67 L204.00,133.67 L204.02,133.68 L204.04,133.69 L204.06,133.70 L204.08,133.71 L204.10,133.72 L204.11,133.73 L204.13,133.74 L204.15,133.75 L204.17,133.76 L204.19,133.76 L204.21,133.77 L204.23,133.78 L204.25,133.79 L204.26,133.80 L204.28,133.81 L204.30,133.82 L204.32,133.83 L204.34,133.84 L204.36,133.85 L204.37,133.86 L204.39,133.87 L204.41,133.88 L204.43,133.89 L204.45,133.90 L204.47,133.91 L204.49,133.92 L204.50,133.92 L204.52,133.93 L204.54,133.94 L204.56,133.95 L204.58,133.96 L204.60,133.97 L204.61,133.98 L204.63,133.99 L204.65,134.00 L204.67,134.01 L204.69,134.02 L204.71,134.03 L204.72,134.04 L204.74,134.05 L204.76,134.06 L204.78,134.07 L204.80,134.08 L204.81,134.09 L204.83,134.10 L204.85,134.11 L204.87,134.12 L204.89,134.13 L204.91,134.14 L204.92,134.15 L204.94,134.16 L204.96,134.17 L204.98,134.18 L205.00,134.19 L205.01,134.21 L205.03,134.22 L205.05,134.23 L205.07,134.24 L205.09,134.25 L205.10,134.26 L205.12,134.27 L205.14,134.28 L205.16,134.29 L205.17,134.30 L205.19,134.31 L205.21,134.32 L205.23,134.33 L205.25,134.34 L205.26,134.35 L205.28,134.36 L205.30,134.37 L205.32,134.39 L205.33,134.40 L205.35,134.41 L205.37,134.42 L205.39,134.43 L205.41,134.44 L205.42,134.45 L205.44,134.46 L205.46,134.47 L205.48,134.48 L205.49,134.49 L205.51,134.51 L205.53,134.52 L205.55,134.53 L205.56,134.54 L205.58,134.55 L205.60,134.56 L205.62,134.57 L205.63,134.58 L205.65,134.60 L205.67,134.61 L205.69,134.62 L205.70,134.63 L205.72,134.64 L205.74,134.65 L205.76,134.66 L205.77,134.67 L205.79,134.69 L205.81,134.70 L205.82,134.71 L205.84,134.72 L205.86,134.73 L205.88,134.74 L205.89,134.76 L205.91,134.77 L205.93,134.78 L205.95,134.79 L205.96,134.80 L205.98,134.81 L206.00,134.83 L206.01,134.84 L206.03,134.85 L206.05,134.86 L206.07,134.87 L206.08,134.89 L206.10,134.90 L206.12,134.91 L206.13,134.92 L206.15,134.93 L206.17,134.94 L206.18,134.96 L206.20,134.97 L206.22,134.98 L206.23,134.99 L206.25,135.01 L206.27,135.02 L206.29,135.03 L206.30,135.04 L206.32,135.05 L206.34,135.07 L206.35,135.08 L206.37,135.09 L206.39,135.10 L206.40,135.12 L206.42,135.13 L206.44,135.14 L206.45,135.15 L206.47,135.17 L206.49,135.18 L206.50,135.19 L206.52,135.20 L206.54,135.22 L206.55,135.23 L206.57,135.24 L206.59,135.25 L206.60,135.27 L206.62,135.28 L206.63,135.29 L206.65,135.30 L206.67,135.32 L206.68,135.33 L206.70,135.34 L206.72,135.35 L206.73,135.37 L206.75,135.38 L206.77,135.39 L206.78,135.41 L206.80,135.42 L206.81,135.43 L206.83,135.44 L206.85,135.46 L206.86,135.47 L206.88,135.48 L206.90,135.50 L206.91,135.51 L206.93,135.52 L206.94,135.54 L206.96,135.55 L206.98,135.56 L206.99,135.58 L207.01,135.59 L207.02,135.60 L207.04,135.62 L207.06,135.63 L207.07,135.64 L207.09,135.66 L207.10,135.67 L207.12,135.68 L207.14,135.70 L207.15,135.71 L207.17,135.72 L207.18,135.74 L207.20,135.75 L207.21,135.76 L207.23,135.78 L207.25,135.79 L207.26,135.80 L207.28,135.82 L207.29,135.83 L207.31,135.84 L207.32,135.86 L207.34,135.87 L207.36,135.88 L207.37,135.90 L207.39,135.91 L207.40,135.93 L207.42,135.94 L207.43,135.95 L207.45,135.97 L207.46,135.98 L207.48,136.00 L207.50,136.01 L207.51,136.02 L207.53,136.04 L207.54,136.05 L207.56,136.07 L207.57,136.08 L207.59,136.09 L207.60,136.11 L207.62,136.12 L207.63,136.14 L207.65,136.15 L207.66,136.16 L207.68,136.18 L207.69,136.19 L207.71,136.21 L207.72,136.22 L207.74,136.23 L207.75,136.25 L207.77,136.26 L207.79,136.28 L207.80,136.29 L207.82,136.31 L207.83,136.32 L207.85,136.34 L207.86,136.35 L207.87,136.36 L207.89,136.38 L207.90,136.39 L207.92,136.41 L207.93,136.42 L207.95,136.44 L207.96,136.45 L207.98,136.47 L207.99,136.48 L208.01,136.49 L208.02,136.51 L208.04,136.52 L208.05,136.54 L208.07,136.55 L208.08,136.57 L208.10,136.58 L208.11,136.60 L208.13,136.61 L208.14,136.63 L208.15,136.64 L208.17,136.66 L208.18,136.67 L208.20,136.69 L208.21,136.70 L208.23,136.72 L208.24,136.73 L208.26,136.75 L208.27,136.76 L208.28,136.78 L208.30,136.79 L208.31,136.81 L208.33,136.82 L208.34,136.84 L208.36,136.85 L208.37,136.87 L208.38,136.88 L208.40,136.90 L208.41,136.91 L208.43,136.93 L208.44,136.94 L208.45,136.96 L208.47,136.97 L208.48,136.99 L208.50,137.00 L208.51,137.02 L208.52,137.04 L208.54,137.05 L208.55,137.07 L208.57,137.08 L208.58,137.10 L208.59,137.11 L208.61,137.13 L208.62,137.14 L208.64,137.16 L208.65,137.17 L208.66,137.19 L208.68,137.21 L208.69,137.22 L208.70,137.24 L208.72,137.25 L208.73,137.27 L208.75,137.28 L208.76,137.30 L208.77,137.32 L208.79,137.33 L208.80,137.35 L208.81,137.36 L208.83,137.38 L208.84,137.39 L208.85,137.41 L208.87,137.43 L208.88,137.44 L208.89,137.46 L208.91,137.47 L208.92,137.49 L208.93,137.51 L208.95,137.52 L208.96,137.54 L208.97,137.55 L208.99,137.57 L209.00,137.59 L209.01,137.60 L209.03,137.62 L209.04,137.63 L209.05,137.65 L209.07,137.67 L209.08,137.68 L209.09,137.70 L209.10,137.71 L209.12,137.73 L209.13,137.75 L209.14,137.76 L209.16,137.78 L209.17,137.80 L209.18,137.81 L209.19,137.83 L209.21,137.85 L209.22,137.86 L209.23,137.88 L209.25,137.89 L209.26,137.91 L209.27,137.93 L209.28,137.94 L209.30,137.96 L209.31,137.98 L209.32,137.99 L209.33,138.01 L209.35,138.03 L209.36,138.04 L209.37,138.06 L209.38,138.08 L209.40,138.09 L209.41,138.11 L209.42,138.13 L209.43,138.14 L209.45,138.16 L209.46,138.18 L209.47,138.19 L209.48,138.21 L209.50,138.23 L209.51,138.24 L209.52,138.26 L209.53,138.28 L209.54,138.29 L209.56,138.31 L209.57,138.33 L209.58,138.34 L209.59,138.36 L209.61,138.38 L209.62,138.39 L209.63,138.41 L209.64,138.43 L209.65,138.45 L209.67,138.46 L209.68,138.48 L209.69,138.50 L209.70,138.51 L209.71,138.53 L209.72,138.55 L209.74,138.56 L209.75,138.58 L209.76,138.60 L209.77,138.62 L209.78,138.63 L209.80,138.65 L209.81,138.67 L209.82,138.68 L209.83,138.70 L209.84,138.72 L209.85,138.74 L209.86,138.75 L209.88,138.77 L209.89,138.79 L209.90,138.81 L209.91,138.82 L209.92,138.84 L209.93,138.86 L209.94,138.88 L209.96,138.89 L209.97,138.91 L209.98,138.93 L209.99,138.95 L210.00,138.96 L210.01,138.98 L210.02,139.00 L210.03,139.02 L210.05,139.03 L210.06,139.05 L210.07,139.07 L210.08,139.09 L210.09,139.10 L210.10,139.12 L210.11,139.14 L210.12,139.16 L210.13,139.17 L210.14,139.19 L210.16,139.21 L210.17,139.23 L210.18,139.24 L210.19,139.26 L210.20,139.28 L210.21,139.30 L210.22,139.32 L210.23,139.33 L210.24,139.35 L210.25,139.37 L210.26,139.39 L210.27,139.40 L210.28,139.42 L210.29,139.44 L210.31,139.46 L210.32,139.48 L210.33,139.49 L210.34,139.51 L210.35,139.53 L210.36,139.55 L210.37,139.57 L210.38,139.58 L210.39,139.60 L210.40,139.62 L210.41,139.64 L210.42,139.66 L210.43,139.67 L210.44,139.69 L210.45,139.71 L210.46,139.73 L210.47,139.75 L210.48,139.76 L210.49,139.78 L210.50,139.80 L210.51,139.82 L210.52,139.84 L210.53,139.86 L210.54,139.87 L210.55,139.89 L210.56,139.91 L210.57,139.93 L210.58,139.95 L210.59,139.97 L210.60,139.98 L210.61,140.00 L210.62,140.02 L210.63,140.04 L210.64,140.06 L210.65,140.08 L210.66,140.09 L210.67,140.11 L210.68,140.13 L210.69,140.15 L210.70,140.17 L210.70,140.19 L210.71,140.21 L210.72,140.22 L210.73,140.24 L210.74,140.26 L210.75,140.28 L210.76,140.30 L210.77,140.32 L210.78,140.33 L210.79,140.35 L210.80,140.37 L210.81,140.39 L210.82,140.41 L210.83,140.43 L210.83,140.45 L210.84,140.47 L210.85,140.48 L210.86,140.50 L210.87,140.52 L210.88,140.54 L210.89,140.56 L210.90,140.58 L210.91,140.60 L210.92,140.62 L210.92,140.63 L210.93,140.65 L210.94,140.67 L210.95,140.69 L210.96,140.71 L210.97,140.73 L210.98,140.75 L210.99,140.77 L210.99,140.78 L211.00,140.80 L211.01,140.82 L211.02,140.84 L211.03,140.86 L211.04,140.88 L211.05,140.90 L211.05,140.92 L211.06,140.94 L211.07,140.96 L211.08,140.97 L211.09,140.99 L211.10,141.01 L211.10,141.03 L211.11,141.05 L211.12,141.07 L211.13,141.09 L211.14,141.11 L211.14,141.13 L211.15,141.15 L211.16,141.17 L211.17,141.18 L211.18,141.20 L211.19,141.22 L211.19,141.24 L211.20,141.26 L211.21,141.28 L211.22,141.30 L211.22,141.32 L211.23,141.34 L211.24,141.36 L211.25,141.38 L211.26,141.40 L211.26,141.42 L211.27,141.43 L211.28,141.45 L211.29,141.47 L211.29,141.49 L211.30,141.51 L211.31,141.53 L211.32,141.55 L211.32,141.57 L211.33,141.59 L211.34,141.61 L211.35,141.63 L211.35,141.65 L211.36,141.67 L211.37,141.69 L211.38,141.71 L211.38,141.73 L211.39,141.74 L211.40,141.76 L211.41,141.78 L211.41,141.80 L211.42,141.82 L211.43,141.84 L211.43,141.86 L211.44,141.88 L211.45,141.90 L211.45,141.92 L211.46,141.94 L211.47,141.96 L211.48,141.98 L211.48,142.00 L211.49,142.02 L211.50,142.04 L211.50,142.06 L211.51,142.08 L211.52,142.10 L211.52,142.12 L211.53,142.14 L211.54,142.16 L211.54,142.18 L211.55,142.19 L211.56,142.21 L211.56,142.23 L211.57,142.25 L211.58,142.27 L211.58,142.29 L211.59,142.31 L211.60,142.33 L211.60,142.35 L211.61,142.37 L211.61,142.39 L211.62,142.41 L211.63,142.43 L211.63,142.45 L211.64,142.47 L211.65,142.49 L211.65,142.51 L211.66,142.53 L211.66,142.55 L211.67,142.57 L211.68,142.59 L211.68,142.61 L211.69,142.63 L211.69,142.65 L211.70,142.67 L211.71,142.69 L211.71,142.71 L211.72,142.73 L211.72,142.75 L211.73,142.77 L211.74,142.79 L211.74,142.81 L211.75,142.83 L211.75,142.85 L211.76,142.87 L211.76,142.89 L211.77,142.91 L211.78,142.93 L211.78,142.95 L211.79,142.97 L211.79,142.99 L211.80,143.01 L211.80,143.03 L211.81,143.05 L211.81,143.07 L211.82,143.09 L211.82,143.11 L211.83,143.13 L211.83,143.15 L211.84,143.17 L211.84,143.19 L211.85,143.21 L211.86,143.23 L211.86,143.25 L211.87,143.27 L211.87,143.29 L211.88,143.31 L211.88,143.33 L211.89,143.35 L211.89,143.37 L211.90,143.39 L211.90,143.41 L211.91,143.43 L211.91,143.45 L211.91,143.47 L211.92,143.49 L211.92,143.51 L211.93,143.53 L211.93,143.55 L211.94,143.57 L211.94,143.59 L211.95,143.61 L211.95,143.63 L211.96,143.65 L211.96,143.68 L211.97,143.70 L211.97,143.72 L211.97,143.74 L211.98,143.76 L211.98,143.78 L211.99,143.80 L211.99,143.82 L212.00,143.84 L212.00,143.86 L212.00,143.88 L212.01,143.90 L212.01,143.92 L212.02,143.94 L212.02,143.96 L212.03,143.98 L212.03,144.00 L212.03,144.02 L212.04,144.04 L212.04,144.06 L212.05,144.08 L212.05,144.10 L212.05,144.12 L212.06,144.14 L212.06,144.16 L212.06,144.18 L212.07,144.20 L212.07,144.22 L212.08,144.25 L212.08,144.27 L212.08,144.29 L212.09,144.31 L212.09,144.33 L212.09,144.35 L212.10,144.37 L212.10,144.39 L212.10,144.41 L212.11,144.43 L212.11,144.45 L212.11,144.47 L212.12,144.49 L212.12,144.51 L212.12,144.53 L212.13,144.55 L212.13,144.57 L212.13,144.59 L212.14,144.61 L212.14,144.63 L212.14,144.66 L212.15,144.68 L212.15,144.70 L212.15,144.72 L212.16,144.74 L212.16,144.76 L212.16,144.78 L212.16,144.80 L212.17,144.82 L212.17,144.84 L212.17,144.86 L212.18,144.88 L212.18,144.90 L212.18,144.92 L212.18,144.94 L212.19,144.96 L212.19,144.98 L212.19,145.00 L212.19,145.03 L212.20,145.05 L212.20,145.07 L212.20,145.09 L212.20,145.11 L212.21,145.13 L212.21,145.15 L212.21,145.17 L212.21,145.19 L212.22,145.21 L212.22,145.23 L212.22,145.25 L212.22,145.27 L212.23,145.29 L212.23,145.31 L212.23,145.34 L212.23,145.36 L212.23,145.38 L212.24,145.40 L212.24,145.42 L212.24,145.44 L212.24,145.46 L212.24,145.48 L212.25,145.50 L212.25,145.52 L212.25,145.54 L212.25,145.56 L212.25,145.58 L212.25,145.60 L212.26,145.62 L212.26,145.65 L212.26,145.67 L212.26,145.69 L212.26,145.71 L212.26,145.73 L212.27,145.75 L212.27,145.77 L212.27,145.79 L212.27,145.81 L212.27,145.83 L212.27,145.85 L212.28,145.87 L212.28,145.89 L212.28,145.91 L212.28,145.94 L212.28,145.96 L212.28,145.98 L212.28,146.00 L212.28,146.02 L212.28,146.04 L212.29,146.06 L212.29,146.08 L212.29,146.10 L212.29,146.12 L212.29,146.14 L212.29,146.16 L212.29,146.18 L212.29,146.21 L212.29,146.23 L212.29,146.25 L212.30,146.27 L212.30,146.29 L212.30,146.31 L212.30,146.33 L212.30,146.35 L212.30,146.37 L212.30,146.39 L212.30,146.41 L212.30,146.43 L212.30,146.45 L212.30,146.47 L212.30,146.50 L212.30,146.52 L212.30,146.54 L212.30,146.56 L212.30,146.58 L212.30,146.60 L212.30,146.62 L212.31,146.64 L212.31,146.66 L212.31,146.68 L212.31,146.70 L212.31,146.72 L212.31,146.74 L212.31,146.77 L212.31,146.79 L212.31,146.81 L212.31,146.83" style="stroke-width: 1; stroke: rgb(0, 0, 0); stroke-opacity: 1;"/><g><g class="arrow-line"><path class="vector-plot real" stroke-dasharray="" d="  M197.74,146.83 L232.79,50.51" style="stroke: rgb(0, 0, 0); stroke-opacity: 1; stroke-width: 2;"/><g stroke="none" fill="rgb(0,0,0)" fill-opacity="1" transform="matrix(-0.34202014332566805,0.9396926207859086,-0.9396926207859086,-0.34202014332566805,234.16189639946674,46.74874377831864)" style="stroke: none; fill: rgb(0, 0, 0); stroke-width: 2;"><path d=" M15.6,-3.9 L0,0 L15.6,3.9 Z"/></g></g></g></g></g><rect class="real" x="1" y="1" width="426.9999999999999" height="191.33333333333326" style="fill: transparent; stroke: none;"/></g></g></g><g/></g><g/><g/><g/></svg>
        <svg xmlns="http://www.w3.org/2000/svg" xmlns:xlink="http://www.w3.org/1999/xlink" width="660" height="154.65625" style="width:660px;height:154.65625px;font-family:Asana-Math, Asana;background:transparent;"><g><g><g><g transform="matrix(1,0,0,1,435.828125,88.6640625)"><path transform="matrix(0.017,0,0,-0.017,0,0)" d="M221 385L263 613C270 652 277 658 314 661L356 664L359 692L335 692L245 689C229 689 211 689 168 690L104 692L101 664L148 662C172 661 183 653 183 635C183 621 179 590 174 559L100 125C83 33 82 32 42 28L1 25L-3 -3L39 -2C87 -1 110 0 129 0L226 -3L252 -3L255 25L206 28C179 30 170 37 170 58C170 67 171 74 174 93L216 340L277 341C339 342 381 343 400 343C419 343 460 342 523 341L584 340L544 125C535 76 528 48 523 42C519 34 508 30 486 28L436 25L432 -3L488 -2C532 -1 562 0 573 0C589 0 620 -1 663 -2L705 -3L708 25L650 28C624 29 614 37 614 58C614 67 615 76 618 93L710 613C717 652 723 657 761 661L797 664L800 692L784 692L693 689C678 689 657 689 613 690L550 692L547 664L595 662C619 661 630 653 630 635C630 621 626 589 621 559L591 385Z" stroke="rgb(0,0,0)" stroke-opacity="1" stroke-width="8" fill="rgb(0,0,0)" fill-opacity="1"></path></g></g></g></g><g><g><g><g transform="matrix(1,0,0,1,327.828125,48.6640625)"><path transform="matrix(0.017,0,0,-0.017,0,0)" d="M166 420C187 420 203 421 229 424C118 304 76 221 76 121C76 44 122 -11 186 -11C324 -11 477 236 477 384C477 441 451 482 415 482C402 482 390 478 382 470L332 423L343 404C352 410 361 413 370 413C397 413 413 390 413 350C413 202 316 39 228 39C179 39 148 81 148 146C148 251 187 342 285 464L275 482C255 473 242 470 214 470C186 470 144 472 115 475L103 476C97 477 92 477 91 477C79 477 70 475 59 470C45 443 34 407 21 352L43 352L60 394C67 411 87 422 111 422C144 422 128 420 166 420Z" stroke="rgb(0,0,0)" stroke-opacity="1" stroke-width="8" fill="rgb(0,0,0)" fill-opacity="1"></path></g></g></g></g><g><g><g><g transform="matrix(1,0,0,1,333.1640625,132.6640625)"><path transform="matrix(0.017,0,0,-0.017,0,0)" d="M237 -16C473 -16 572 316 576 504C578 618 546 702 419 702C159 702 72 412 69 199C67 80 101 -16 237 -16ZM401 676C536 676 506 491 485 381L169 381C194 485 272 676 401 676ZM253 13C102 13 147 261 163 349L479 349C454 237 396 13 253 13Z" stroke="rgb(0,0,0)" stroke-opacity="1" stroke-width="8" fill="rgb(0,0,0)" fill-opacity="1"></path></g></g></g></g></svg>
</svg>
