<?xml version="1.0" encoding="UTF-8"?>
<!DOCTYPE svg PUBLIC "-//W3C//DTD SVG 1.1//EN" "http://www.w3.org/Graphics/SVG/1.1/DTD/svg11.dtd">
<svg xmlns="http://www.w3.org/2000/svg" version="1.1" width="808px" height="1232px" style="shape-rendering:geometricPrecision; text-rendering:geometricPrecision; image-rendering:optimizeQuality; fill-rule:evenodd; clip-rule:evenodd" xmlns:xlink="http://www.w3.org/1999/xlink">
<g><path style="opacity:1" fill="#fefefe" d="M -0.5,-0.5 C 268.833,-0.5 538.167,-0.5 807.5,-0.5C 807.5,410.167 807.5,820.833 807.5,1231.5C 538.167,1231.5 268.833,1231.5 -0.5,1231.5C -0.5,820.833 -0.5,410.167 -0.5,-0.5 Z"/></g>
<g><path style="opacity:1" fill="#080808" d="M 432.5,15.5 C 447.603,13.3106 461.603,16.1439 474.5,24C 479.579,27.9902 482.745,33.1569 484,39.5C 484.5,117.166 484.667,194.833 484.5,272.5C 570.737,272.168 656.904,272.502 743,273.5C 743.333,235.5 743.667,197.5 744,159.5C 745.667,158.167 747.333,158.167 749,159.5C 749.667,504.167 749.667,848.833 749,1193.5C 747.749,1196.38 745.583,1198.21 742.5,1199C 519.5,1199.67 296.5,1199.67 73.5,1199C 69.6667,1197.83 67.1667,1195.33 66,1191.5C 65.3333,847.833 65.3333,504.167 66,160.5C 68,157.833 70,157.833 72,160.5C 72.5,197.832 72.6667,235.165 72.5,272.5C 158.5,272.5 244.5,272.5 330.5,272.5C 330.015,197.13 330.515,121.797 332,46.5C 342.173,23.5025 359.006,16.6692 382.5,26C 389.33,29.5806 395.997,33.4139 402.5,37.5C 410.017,26.6314 420.017,19.2981 432.5,15.5 Z"/></g>
<g><path style="opacity:1" fill="#f9f9f9" d="M 435.5,28.5 C 443.638,28.0756 451.638,28.909 459.5,31C 466.534,33.0054 470.034,37.5054 470,44.5C 460.993,53.3907 450.159,56.8907 437.5,55C 431.537,53.8523 425.87,51.8523 420.5,49C 414.727,47.6562 413.56,44.8229 417,40.5C 422.037,34.6056 428.204,30.6056 435.5,28.5 Z"/></g>
<g><path style="opacity:1" fill="#fefefe" d="M 469.5,62.5 C 470.499,132.331 470.833,202.331 470.5,272.5C 428.167,272.5 385.833,272.5 343.5,272.5C 343.333,199.499 343.5,126.499 344,53.5C 347.555,40.9143 355.722,35.081 368.5,36C 374.132,37.2107 379.466,39.2107 384.5,42C 397.41,51.2885 411.077,59.2885 425.5,66C 440.631,70.1608 455.298,68.9941 469.5,62.5 Z"/></g>
<g><path style="opacity:1" fill="#3d3d3d" d="M 469.5,62.5 C 469.56,61.9569 469.893,61.6236 470.5,61.5C 471.832,131.999 471.832,202.332 470.5,272.5C 470.833,202.331 470.499,132.331 469.5,62.5 Z"/></g>
<g><path style="opacity:1" fill="#595959" d="M 173.5,286.5 C 153.66,286.17 133.993,286.503 114.5,287.5C 113.957,287.44 113.624,287.107 113.5,286.5C 133.663,285.172 153.663,285.172 173.5,286.5 Z"/></g>
<g><path style="opacity:1" fill="#5b5b5b" d="M 238.5,286.5 C 218.993,286.17 199.659,286.503 180.5,287.5C 179.957,287.44 179.624,287.107 179.5,286.5C 199.329,285.172 218.996,285.172 238.5,286.5 Z"/></g>
<g><path style="opacity:1" fill="#595959" d="M 330.5,286.5 C 323.978,286.177 317.645,286.51 311.5,287.5C 310.957,287.44 310.624,287.107 310.5,286.5C 317.322,285.182 323.989,285.182 330.5,286.5 Z"/></g>
<g><path style="opacity:1" fill="#5b5b5b" d="M 566.5,286.5 C 546.993,286.17 527.659,286.503 508.5,287.5C 507.957,287.44 507.624,287.107 507.5,286.5C 527.329,285.172 546.996,285.172 566.5,286.5 Z"/></g>
<g><path style="opacity:1" fill="#5b5b5b" d="M 735.5,286.5 C 725.319,286.173 715.319,286.506 705.5,287.5C 704.957,287.44 704.624,287.107 704.5,286.5C 714.993,285.177 725.326,285.177 735.5,286.5 Z"/></g>
<g><path style="opacity:1" fill="#fdfdfd" d="M 79.5,286.5 C 89.1896,286.168 98.8563,286.502 108.5,287.5C 134.04,332.082 159.707,376.582 185.5,421C 165.833,421.667 146.167,421.667 126.5,421C 110.622,394.746 95.1216,368.246 80,341.5C 79.5001,323.17 79.3334,304.836 79.5,286.5 Z"/></g>
<g><path style="opacity:1" fill="#fdfdfd" d="M 173.5,286.5 C 199.167,331.167 224.833,375.833 250.5,420.5C 231.341,421.497 212.007,421.83 192.5,421.5C 166.136,377.115 140.136,332.448 114.5,287.5C 133.993,286.503 153.66,286.17 173.5,286.5 Z"/></g>
<g><path style="opacity:1" fill="#fdfdfd" d="M 238.5,286.5 C 264.864,330.885 290.864,375.552 316.5,420.5C 297.007,421.497 277.34,421.83 257.5,421.5C 231.833,376.833 206.167,332.167 180.5,287.5C 199.659,286.503 218.993,286.17 238.5,286.5 Z"/></g>
<g><path style="opacity:1" fill="#fdfdfd" d="M 245.5,287.5 C 264.996,286.338 284.662,286.171 304.5,287C 330.752,331.503 356.752,376.169 382.5,421C 362.492,421.833 342.492,421.666 322.5,420.5C 297.059,375.94 271.392,331.607 245.5,287.5 Z"/></g>
<g><path style="opacity:1" fill="#fdfdfd" d="M 330.5,286.5 C 344.079,286.177 357.579,286.51 371,287.5C 396.512,331.861 422.012,376.194 447.5,420.5C 428.341,421.497 409.007,421.83 389.5,421.5C 363.136,377.115 337.136,332.448 311.5,287.5C 317.645,286.51 323.978,286.177 330.5,286.5 Z"/></g>
<g><path style="opacity:1" fill="#fdfdfd" d="M 513.5,420.5 C 494.007,421.497 474.34,421.83 454.5,421.5C 428.727,376.554 402.727,331.721 376.5,287C 396.508,286.167 416.508,286.334 436.5,287.5C 461.926,332.024 487.592,376.358 513.5,420.5 Z"/></g>
<g><path style="opacity:1" fill="#fdfdfd" d="M 442.5,287.5 C 461.996,286.338 481.662,286.171 501.5,287C 527.752,331.503 553.752,376.169 579.5,421C 559.492,421.833 539.492,421.666 519.5,420.5C 494.059,375.94 468.392,331.607 442.5,287.5 Z"/></g>
<g><path style="opacity:1" fill="#fdfdfd" d="M 566.5,286.5 C 592.99,330.803 618.99,375.47 644.5,420.5C 625.341,421.497 606.007,421.83 586.5,421.5C 560.01,377.197 534.01,332.53 508.5,287.5C 527.659,286.503 546.993,286.17 566.5,286.5 Z"/></g>
<g><path style="opacity:1" fill="#fdfdfd" d="M 710.5,420.5 C 691.007,421.497 671.34,421.83 651.5,421.5C 625.385,376.776 599.385,331.943 573.5,287C 593.508,286.167 613.508,286.334 633.5,287.5C 658.926,332.024 684.592,376.358 710.5,420.5 Z"/></g>
<g><path style="opacity:1" fill="#fdfdfd" d="M 639.5,286.5 C 659.409,286.174 679.243,286.507 699,287.5C 711,308.167 723,328.833 735,349.5C 735.5,373.498 735.667,397.498 735.5,421.5C 729.132,421.83 722.798,421.496 716.5,420.5C 690.778,375.799 665.111,331.132 639.5,286.5 Z"/></g>
<g><path style="opacity:1" fill="#fafafa" d="M 735.5,286.5 C 735.667,303.837 735.5,321.17 735,338.5C 724.65,321.8 714.816,304.8 705.5,287.5C 715.319,286.506 725.319,286.173 735.5,286.5 Z"/></g>
<g><path style="opacity:1" fill="#adadad" d="M 81.5,354.5 C 80.5026,376.66 80.1692,398.994 80.5,421.5C 79.337,398.67 79.1703,375.67 80,352.5C 80.7172,353.044 81.2172,353.711 81.5,354.5 Z"/></g>
<g><path style="opacity:1" fill="#fdfdfd" d="M 81.5,354.5 C 94.1667,376.5 106.833,398.5 119.5,420.5C 106.677,421.495 93.6774,421.829 80.5,421.5C 80.1692,398.994 80.5026,376.66 81.5,354.5 Z"/></g>
<g><path style="opacity:1" fill="#3c3c3c" d="M 119.5,420.5 C 120.043,420.56 120.376,420.893 120.5,421.5C 107.006,422.825 93.6726,422.825 80.5,421.5C 93.6774,421.829 106.677,421.495 119.5,420.5 Z"/></g>
<g><path style="opacity:1" fill="#3e3e3e" d="M 250.5,420.5 C 251.043,420.56 251.376,420.893 251.5,421.5C 231.671,422.828 212.004,422.828 192.5,421.5C 212.007,421.83 231.341,421.497 250.5,420.5 Z"/></g>
<g><path style="opacity:1" fill="#3c3c3c" d="M 316.5,420.5 C 317.043,420.56 317.376,420.893 317.5,421.5C 297.337,422.828 277.337,422.828 257.5,421.5C 277.34,421.83 297.007,421.497 316.5,420.5 Z"/></g>
<g><path style="opacity:1" fill="#3d3d3d" d="M 447.5,420.5 C 448.043,420.56 448.376,420.893 448.5,421.5C 428.671,422.828 409.004,422.828 389.5,421.5C 409.007,421.83 428.341,421.497 447.5,420.5 Z"/></g>
<g><path style="opacity:1" fill="#3c3c3c" d="M 513.5,420.5 C 514.043,420.56 514.376,420.893 514.5,421.5C 494.337,422.828 474.337,422.828 454.5,421.5C 474.34,421.83 494.007,421.497 513.5,420.5 Z"/></g>
<g><path style="opacity:1" fill="#3d3d3d" d="M 644.5,420.5 C 645.043,420.56 645.376,420.893 645.5,421.5C 625.671,422.828 606.004,422.828 586.5,421.5C 606.007,421.83 625.341,421.497 644.5,420.5 Z"/></g>
<g><path style="opacity:1" fill="#3b3b3b" d="M 710.5,420.5 C 711.043,420.56 711.376,420.893 711.5,421.5C 691.337,422.828 671.337,422.828 651.5,421.5C 671.34,421.83 691.007,421.497 710.5,420.5 Z"/></g>
<g><path style="opacity:1" fill="#fefefe" d="M 742.5,434.5 C 743.666,686.333 743.833,938.333 743,1190.5C 742.5,1191 742,1191.5 741.5,1192C 519.167,1192.67 296.833,1192.67 74.5,1192C 74,1191.5 73.5,1191 73,1190.5C 72.5,938.834 72.3333,687.167 72.5,435.5C 296.001,435.833 519.334,435.5 742.5,434.5 Z"/></g>
<g><path style="opacity:1" fill="#040404" d="M 481.5,441.5 C 478.195,466.003 474.195,490.669 469.5,515.5C 466.045,513.689 462.545,512.022 459,510.5C 456.501,513.998 454.668,517.832 453.5,522C 460.313,534.083 457.647,543.416 445.5,550C 432.58,551.542 425.246,545.875 423.5,533C 425.344,522.99 431.344,517.157 441.5,515.5C 442.695,512.276 444.029,509.109 445.5,506C 445.355,505.228 445.022,504.561 444.5,504C 441.044,502.519 437.711,500.852 434.5,499C 450.379,479.959 466.046,460.793 481.5,441.5 Z"/></g>
<g><path style="opacity:1" fill="#040404" d="M 116.5,544.5 C 134.54,560.943 152.707,577.276 171,593.5C 171.617,594.449 171.451,595.282 170.5,596C 167.228,597.608 164.228,599.608 161.5,602C 163.587,605.508 165.92,608.842 168.5,612C 182.722,612.321 189.222,619.487 188,633.5C 182.403,645.367 173.57,648.534 161.5,643C 153.985,636.342 152.652,628.675 157.5,620C 155.377,616.049 152.711,612.549 149.5,609.5C 145.905,611.102 142.571,613.102 139.5,615.5C 131.626,591.878 123.959,568.211 116.5,544.5 Z"/></g>
<g><path style="opacity:1" fill="#040404" d="M 541.5,557.5 C 542.139,558.097 542.472,558.93 542.5,560C 538.553,583.514 534.553,607.014 530.5,630.5C 526.952,628.559 523.286,626.893 519.5,625.5C 517.561,629.044 515.895,632.711 514.5,636.5C 521.087,647.566 519.087,656.732 508.5,664C 494.824,667.476 486.824,662.31 484.5,648.5C 485.886,638.613 491.553,632.779 501.5,631C 503.43,627.806 505.097,624.473 506.5,621C 506.355,620.228 506.022,619.561 505.5,619C 502.044,617.519 498.711,615.852 495.5,614C 511.046,595.293 526.379,576.459 541.5,557.5 Z"/></g>
<g><path style="opacity:1" fill="#050505" d="M 329.5,599.5 C 344.159,598.993 351.326,605.993 351,620.5C 349.697,622.94 348.53,625.44 347.5,628C 349.213,631.925 351.046,635.758 353,639.5C 356.702,636.618 360.702,635.284 365,635.5C 369.658,659.446 373.658,683.446 377,707.5C 361.286,688.574 345.452,669.741 329.5,651C 333.167,648.833 336.833,646.667 340.5,644.5C 338.833,641.167 337.167,637.833 335.5,634.5C 318.138,630.118 313.638,620.118 322,604.5C 324.479,602.686 326.979,601.019 329.5,599.5 Z"/></g>
<g><path style="opacity:1" fill="#060606" d="M 613.5,608.5 C 620.659,632.593 627.326,656.926 633.5,681.5C 629.5,681.5 625.5,681.5 621.5,681.5C 621.173,686.544 621.506,691.544 622.5,696.5C 632.756,703.877 634.09,712.711 626.5,723C 615.759,730.249 606.593,728.749 599,718.5C 595.166,708.513 597.832,700.847 607,695.5C 607.499,690.845 607.666,686.179 607.5,681.5C 603.167,681.5 598.833,681.5 594.5,681.5C 600.993,657.194 607.326,632.86 613.5,608.5 Z"/></g>
<g><path style="opacity:1" fill="#030303" d="M 330.5,695.5 C 325.887,718.988 320.72,742.655 315,766.5C 314.439,767.022 313.772,767.355 313,767.5C 310.01,765.85 307.01,764.183 304,762.5C 301.443,766.446 299.277,770.613 297.5,775C 302.462,784.405 301.129,792.738 293.5,800C 283.318,805.011 275.151,802.844 269,793.5C 264.986,779.196 270.319,770.863 285,768.5C 287.421,764.66 289.588,760.66 291.5,756.5C 287.833,754.333 284.167,752.167 280.5,750C 297.373,731.963 314.039,713.796 330.5,695.5 Z"/></g>
<g><path style="opacity:1" fill="#050505" d="M 141.5,713.5 C 148.597,737.552 154.93,761.885 160.5,786.5C 156.5,786.5 152.5,786.5 148.5,786.5C 148.334,791.179 148.501,795.845 149,800.5C 160.618,809.397 161.451,819.23 151.5,830C 139.287,835.881 130.454,832.714 125,820.5C 123.551,811.398 126.884,804.731 135,800.5C 135.499,795.845 135.666,791.179 135.5,786.5C 131.167,786.5 126.833,786.5 122.5,786.5C 128.452,762.075 134.785,737.742 141.5,713.5 Z"/></g>
<g><path style="opacity:1" fill="#050505" d="M 406.5,787.5 C 407.167,791.5 407.833,795.5 408.5,799.5C 412.846,799.666 417.179,799.499 421.5,799C 426.231,790.803 433.231,787.803 442.5,790C 453.691,795.639 456.525,804.139 451,815.5C 444.315,822.854 436.482,824.354 427.5,820C 425.126,817.961 423.126,815.628 421.5,813C 417.179,812.501 412.846,812.334 408.5,812.5C 408.5,816.833 408.5,821.167 408.5,825.5C 383.901,819.768 359.567,813.268 335.5,806C 359.203,799.805 382.87,793.639 406.5,787.5 Z"/></g>
<g><path style="opacity:1" fill="#555555" d="M 406.5,787.5 C 406.56,786.957 406.893,786.624 407.5,786.5C 408.492,790.783 408.826,795.116 408.5,799.5C 407.833,795.5 407.167,791.5 406.5,787.5 Z"/></g>
<g><path style="opacity:1" fill="#020202" d="M 640.5,786.5 C 664.453,792.989 688.453,799.489 712.5,806C 689.153,812.17 665.82,818.337 642.5,824.5C 640.577,820.971 639.911,816.971 640.5,812.5C 635.305,812.179 630.305,812.513 625.5,813.5C 620.603,821.275 613.603,824.109 604.5,822C 593.683,816.216 590.85,807.716 596,796.5C 601.786,789.498 608.953,787.665 617.5,791C 620.692,793.028 623.359,795.528 625.5,798.5C 630.305,799.487 635.305,799.821 640.5,799.5C 640.5,795.167 640.5,790.833 640.5,786.5 Z"/></g>
<g><path style="opacity:1" fill="#aeaeae" d="M 640.5,786.5 C 640.5,790.833 640.5,795.167 640.5,799.5C 635.305,799.821 630.305,799.487 625.5,798.5C 630.167,798.5 634.833,798.5 639.5,798.5C 639.183,794.298 639.517,790.298 640.5,786.5 Z"/></g>
<g><path style="opacity:1" fill="#878787" d="M 625.5,813.5 C 630.305,812.513 635.305,812.179 640.5,812.5C 639.911,816.971 640.577,820.971 642.5,824.5C 641.791,825.404 640.791,825.737 639.5,825.5C 639.5,821.5 639.5,817.5 639.5,813.5C 634.833,813.5 630.167,813.5 625.5,813.5 Z"/></g>
<g><path style="opacity:1" fill="#040404" d="M 570.5,877.5 C 586.329,875.833 593.829,882.833 593,898.5C 592.227,901.211 591.06,903.711 589.5,906C 591.111,910.537 593.278,914.703 596,918.5C 599.606,916.465 603.439,915.132 607.5,914.5C 610.846,938.811 613.679,963.144 616,987.5C 600.924,968.347 586.091,949.014 571.5,929.5C 574.972,927.262 578.638,925.262 582.5,923.5C 580.57,919.542 578.737,915.542 577,911.5C 560.953,907.072 556.619,897.406 564,882.5C 566.326,880.934 568.492,879.268 570.5,877.5 Z"/></g>
<g><path style="opacity:1" fill="#050505" d="M 161.5,932.5 C 179.596,932.092 186.263,940.592 181.5,958C 184.318,962.156 187.152,966.323 190,970.5C 193.158,967.92 196.492,965.587 200,963.5C 200.333,963.833 200.667,964.167 201,964.5C 209.434,987.806 217.434,1011.14 225,1034.5C 206.26,1017.88 187.427,1001.38 168.5,985C 171.833,982.667 175.167,980.333 178.5,978C 175.833,974 173.167,970 170.5,966C 154.727,965.983 148.227,958.15 151,942.5C 153.738,938.26 157.238,934.926 161.5,932.5 Z"/></g>
<g><path style="opacity:1" fill="#040404" d="M 495.5,947.5 C 496.139,948.097 496.472,948.93 496.5,950C 492.358,973.162 488.358,996.328 484.5,1019.5C 480.866,1018.6 477.366,1017.27 474,1015.5C 467.414,1020.64 466.414,1026.64 471,1033.5C 471.815,1049.35 464.315,1056.18 448.5,1054C 440.101,1049.7 436.601,1042.87 438,1033.5C 440.796,1025.37 446.462,1021.03 455,1020.5C 456.833,1016.83 458.667,1013.17 460.5,1009.5C 457.377,1007.46 454.044,1005.79 450.5,1004.5C 449.417,1003.64 449.251,1002.64 450,1001.5C 465.377,983.627 480.544,965.627 495.5,947.5 Z"/></g>
<g><path style="opacity:1" fill="#030303" d="M 318.5,1096.5 C 317.833,1099.17 317.167,1101.83 316.5,1104.5C 305.513,1083.19 294.513,1061.86 283.5,1040.5C 286.981,1038.87 290.648,1037.87 294.5,1037.5C 294.469,1032.38 293.636,1027.38 292,1022.5C 281.529,1018.9 277.196,1011.57 279,1000.5C 284.811,988.348 293.644,985.515 305.5,992C 311.115,996.968 312.948,1003.14 311,1010.5C 309.763,1014.22 307.93,1017.55 305.5,1020.5C 306.074,1024.62 307.074,1028.62 308.5,1032.5C 312.204,1033.37 315.871,1033.03 319.5,1031.5C 319.833,1035.67 320.167,1039.83 320.5,1044C 319.536,1061.49 318.869,1078.99 318.5,1096.5 Z"/></g>
<g><path style="opacity:1" fill="#050505" d="M 555.5,1057.5 C 565.021,1055.94 572.187,1059.28 577,1067.5C 580.215,1081.39 574.715,1089.39 560.5,1091.5C 558.226,1095.71 556.226,1100.05 554.5,1104.5C 557.554,1106.69 560.888,1108.36 564.5,1109.5C 565.521,1110 565.688,1110.67 565,1111.5C 549.667,1130.17 534.333,1148.83 519,1167.5C 521.446,1142.82 525.613,1118.49 531.5,1094.5C 534.945,1096.99 538.611,1097.99 542.5,1097.5C 544.5,1093.5 546.5,1089.5 548.5,1085.5C 541.466,1073.73 543.8,1064.39 555.5,1057.5 Z"/></g>
<g><path style="opacity:1" fill="#020202" d="M 179.5,1086.5 C 202.551,1092.63 225.551,1098.96 248.5,1105.5C 225.649,1112.3 202.649,1118.63 179.5,1124.5C 178.833,1120.5 178.167,1116.5 177.5,1112.5C 173.154,1112.33 168.821,1112.5 164.5,1113C 159.153,1122.17 151.487,1124.83 141.5,1121C 134.194,1116.09 131.361,1109.26 133,1100.5C 139.58,1088.83 148.746,1086.33 160.5,1093C 161.965,1094.77 163.298,1096.61 164.5,1098.5C 168.97,1099.49 173.637,1099.82 178.5,1099.5C 178.182,1094.97 178.515,1090.63 179.5,1086.5 Z"/></g>
<g><path style="opacity:1" fill="#7f7f7f" d="M 179.5,1086.5 C 178.515,1090.63 178.182,1094.97 178.5,1099.5C 173.637,1099.82 168.97,1099.49 164.5,1098.5C 168.833,1098.5 173.167,1098.5 177.5,1098.5C 177.174,1094.12 177.508,1089.78 178.5,1085.5C 179.107,1085.62 179.44,1085.96 179.5,1086.5 Z"/></g>
<g><path style="opacity:1" fill="#626262" d="M 318.5,1096.5 C 318.665,1099.85 318.498,1103.18 318,1106.5C 317.283,1105.96 316.783,1105.29 316.5,1104.5C 317.167,1101.83 317.833,1099.17 318.5,1096.5 Z"/></g>
<g><path style="opacity:1" fill="#050505" d="M 435.5,1102.5 C 438.97,1102.71 438.97,1103.88 435.5,1106C 417.98,1121.02 400.313,1135.85 382.5,1150.5C 380.074,1147.99 378.408,1144.99 377.5,1141.5C 376.635,1140.42 375.635,1140.25 374.5,1141C 371.5,1142.5 368.5,1144 365.5,1145.5C 361.863,1161.64 352.53,1166.48 337.5,1160C 327.959,1150.32 328.292,1140.99 338.5,1132C 345.646,1128.36 352.479,1128.86 359,1133.5C 363.054,1131.89 366.887,1129.89 370.5,1127.5C 368.64,1123.92 366.973,1120.25 365.5,1116.5C 388.873,1111.48 412.206,1106.82 435.5,1102.5 Z"/></g>
<g><path style="opacity:1" fill="#797979" d="M 177.5,1112.5 C 178.167,1116.5 178.833,1120.5 179.5,1124.5C 179.44,1125.04 179.107,1125.38 178.5,1125.5C 177.508,1121.22 177.174,1116.88 177.5,1112.5 Z"/></g>
</svg>
