<svg xmlns="http://www.w3.org/2000/svg" xmlns:xlink="http://www.w3.org/1999/xlink" x="0" y="0" width="662" height="302" style="
        width:662px;
        height:302px;
        background: transparent;
        fill: none;
">
        
        
        <svg xmlns="http://www.w3.org/2000/svg" class="role-diagram-draw-area"><g class="shapes-region" style="stroke: black; fill: none; --darkreader-inline-stroke: #e8e6e3; --darkreader-inline-fill: none;" data-darkreader-inline-stroke="" data-darkreader-inline-fill=""><g class="composite-shape"><path class="real" d=" M79.49,150.06 C79.49,138.98 88.47,130 99.54,130 C110.62,130 119.6,138.98 119.6,150.06 C119.6,161.13 110.62,170.11 99.54,170.11 C88.47,170.11 79.49,161.13 79.49,150.06 Z" style="stroke-width: 1; stroke: rgb(0, 0, 0); fill: none; fill-opacity: 1; --darkreader-inline-stroke: #e8e6e3; --darkreader-inline-fill: none;" data-darkreader-inline-stroke="" data-darkreader-inline-fill=""/></g><g class="composite-shape"><path class="real" d=" M93.38,64.41 C93.38,61.01 96.14,58.26 99.54,58.26 C102.95,58.26 105.7,61.01 105.7,64.41 C105.7,67.82 102.95,70.57 99.54,70.57 C96.14,70.57 93.38,67.82 93.38,64.41 Z" style="stroke-width: 1; stroke: rgb(0, 0, 0); fill: none; fill-opacity: 1; --darkreader-inline-stroke: #e8e6e3; --darkreader-inline-fill: none;" data-darkreader-inline-stroke="" data-darkreader-inline-fill=""/></g><g class="composite-shape"><path class="real" d=" M614.11,150.06 C614.11,141.39 621.13,134.37 629.8,134.37 C638.47,134.37 645.49,141.39 645.49,150.06 C645.49,158.72 638.47,165.75 629.8,165.75 C621.13,165.75 614.11,158.72 614.11,150.06 Z" style="stroke-width: 1; stroke: rgb(0, 0, 0); fill: none; fill-opacity: 1; --darkreader-inline-stroke: #e8e6e3; --darkreader-inline-fill: none;" data-darkreader-inline-stroke="" data-darkreader-inline-fill=""/></g><g class="arrow-line"><path class="connection real" stroke-dasharray="" d="  M59.54,70.57 L59.54,150.06" style="stroke: rgb(0, 0, 0); stroke-width: 1; fill: none; fill-opacity: 1; --darkreader-inline-stroke: #e8e6e3; --darkreader-inline-fill: none;" data-darkreader-inline-stroke="" data-darkreader-inline-fill=""/><g stroke="#000" transform="matrix(-1.8369701987210297e-16,-1,1,-1.8369701987210297e-16,59.543489583333326,150.0565104166666)" style="stroke: rgb(0, 0, 0); stroke-width: 1; --darkreader-inline-stroke: #e8e6e3;" data-darkreader-inline-stroke=""><path d=" M0,5.59 L0,-5.59"/></g><g stroke="#000" transform="matrix(-1.8369701987210297e-16,-1,1,-1.8369701987210297e-16,59.543489583333326,70.57395833333321)" style="stroke: rgb(0, 0, 0); stroke-width: 1; --darkreader-inline-stroke: #e8e6e3;" data-darkreader-inline-stroke=""><path d=" M0,5.59 L0,-5.59"/></g></g><g class="composite-shape"><path class="real" d=" M93.38,235.7 C93.38,232.3 96.14,229.54 99.54,229.54 C102.95,229.54 105.7,232.3 105.7,235.7 C105.7,239.1 102.95,241.86 99.54,241.86 C96.14,241.86 93.38,239.1 93.38,235.7 Z" style="stroke-width: 1; stroke: rgb(0, 0, 0); fill: none; fill-opacity: 1; --darkreader-inline-stroke: #e8e6e3; --darkreader-inline-fill: none;" data-darkreader-inline-stroke="" data-darkreader-inline-fill=""/></g><g class="arrow-line"><path class="connection real" stroke-dasharray="" d="  M99.54,150.06 L629.8,150.06" style="stroke: rgb(0, 0, 0); stroke-width: 1; fill: none; fill-opacity: 1; --darkreader-inline-stroke: #e8e6e3; --darkreader-inline-fill: none;" data-darkreader-inline-stroke="" data-darkreader-inline-fill=""/></g><g class="arrow-line"><path class="connection real" stroke-dasharray="" d="  M99.54,64.41 L629.8,150.06" style="stroke: rgb(0, 0, 0); stroke-width: 1; fill: none; fill-opacity: 1; --darkreader-inline-stroke: #e8e6e3; --darkreader-inline-fill: none;" data-darkreader-inline-stroke="" data-darkreader-inline-fill=""/></g><g class="arrow-line"><path class="connection real" stroke-dasharray="" d="  M99.54,64.41 L99.54,235.7" style="stroke: rgb(0, 0, 0); stroke-width: 1; fill: none; fill-opacity: 1; --darkreader-inline-stroke: #e8e6e3; --darkreader-inline-fill: none;" data-darkreader-inline-stroke="" data-darkreader-inline-fill=""/></g><g class="arrow-line"><path class="connection real" stroke-dasharray="" d="  M99.54,235.7 L629.8,150.06" style="stroke: rgb(0, 0, 0); stroke-width: 1; fill: none; fill-opacity: 1; --darkreader-inline-stroke: #e8e6e3; --darkreader-inline-fill: none;" data-darkreader-inline-stroke="" data-darkreader-inline-fill=""/></g><g class="composite-shape"><path class="real" d=" M575,149.98 C575,146.98 575.25,144.03 575.72,141.16 L629.8,150.06 Z" style="stroke-width: 1; stroke: none; fill: none; fill-opacity: 1; --darkreader-inline-stroke: none; --darkreader-inline-fill: none;" data-darkreader-inline-stroke="" data-darkreader-inline-fill=""/><path class="real" d=" M575,149.98 C575,146.98 575.25,144.03 575.72,141.16" style="stroke-width: 1; stroke: rgb(0, 0, 0); fill: none; fill-opacity: 1; --darkreader-inline-stroke: #e8e6e3; --darkreader-inline-fill: none;" data-darkreader-inline-stroke="" data-darkreader-inline-fill=""/></g><g/></g><g/><g/><g/></svg>
        <svg xmlns="http://www.w3.org/2000/svg" xmlns:xlink="http://www.w3.org/1999/xlink" width="660" height="300" style="width:660px;height:300px;font-family:Asana-Math, Asana;background:transparent;"><g><g><g><g transform="matrix(1,0,0,1,15.296875,114.796875)"><path transform="matrix(0.017,0,0,-0.017,0,0)" d="M418 -3L418 27L366 30C311 33 301 44 301 96L301 700L60 598L67 548L217 614L217 96C217 44 206 33 152 30L96 27L96 -3C250 0 250 0 261 0C292 0 402 -3 418 -3Z" stroke="rgb(0,0,0)" stroke-opacity="1" stroke-width="8" fill="rgb(0,0,0)" fill-opacity="1"></path></g></g><g><g transform="matrix(1,0,0,1,28.015625,114.796875)"><path transform="matrix(0.017,0,0,-0.017,0,0)" d="M408 700L376 700L106 79C94 50 74 32 52 30L15 27L15 -3C108 0 108 0 124 0C137 0 137 0 245 -3L245 27L208 30C173 33 160 40 160 56L223 229L511 229L557 114C574 72 578 59 578 50C578 39 562 32 537 30L490 27L490 -3C613 0 613 0 629 0C648 0 648 0 756 -3L756 27L722 30C696 34 685 51 650 132ZM240 269L367 567L493 269ZM1155 -20C1363 -20 1441 69 1441 280L1441 569C1441 647 1446 656 1492 659L1536 662L1536 692C1431 689 1431 689 1416 689C1399 689 1399 689 1300 692L1300 662L1344 659C1390 656 1395 647 1395 569L1395 249C1395 108 1327 42 1182 42C1043 42 983 97 983 225L983 569C983 648 988 656 1034 659L1082 662L1082 692C1009 689 987 689 935 689C885 689 861 690 789 692L789 662L837 659C883 656 888 648 888 569L888 214C888 42 978 -20 1155 -20Z" stroke="rgb(0,0,0)" stroke-opacity="1" stroke-width="8" fill="rgb(0,0,0)" fill-opacity="1"></path></g></g></g></g><g><g><g><g transform="matrix(1,0,0,1,502.5,142.9765625)"><path transform="matrix(0.017,0,0,-0.017,0,0)" d="M176 -11C232 -11 347 62 390 125C431 186 465 296 465 371C465 438 442 482 406 482C364 482 311 456 259 409C218 374 198 348 162 289L186 408C189 425 191 440 191 452C191 471 183 482 169 482C148 482 110 461 36 408L8 388L15 368L47 389C75 407 86 412 95 412C105 412 112 403 112 389C112 381 110 361 108 351L50 8C40 -52 21 -143 1 -233L-7 -270L0 -276C21 -269 41 -264 73 -259L115 3C136 -4 158 -11 176 -11ZM143 165C165 293 272 424 355 424C381 424 393 402 393 356C393 275 353 156 300 80C280 51 248 36 207 36C176 36 151 43 125 59Z" stroke="rgb(0,0,0)" stroke-opacity="1" stroke-width="8" fill="rgb(0,0,0)" fill-opacity="1"></path></g></g></g></g><g><g><g><text x="55.828125" y="250.828125" style="white-space:pre;stroke:none;fill:rgb(0,0,0);fill-opacity:1;font-size:15px;font-family:Arial, Helvetica, sans-serif;font-weight:400;font-style:normal;dominant-baseline:text-before-edge;text-decoration:none solid rgb(0, 0, 0);">Earth</text></g></g></g><g><g><g><text x="610.5" y="172.828125" style="white-space:pre;stroke:none;fill:rgb(0,0,0);fill-opacity:1;font-size:15px;font-family:Arial, Helvetica, sans-serif;font-weight:400;font-style:normal;dominant-baseline:text-before-edge;text-decoration:none solid rgb(0, 0, 0);">Sirius</text></g></g></g><g><g><g><text x="58.5" y="167.1640625" style="white-space:pre;stroke:none;fill:rgb(0,0,0);fill-opacity:1;font-size:15px;font-family:Arial, Helvetica, sans-serif;font-weight:400;font-style:normal;dominant-baseline:text-before-edge;text-decoration:none solid rgb(0, 0, 0);">Sun</text></g></g></g></svg>
</svg>
