<svg xmlns="http://www.w3.org/2000/svg" xmlns:xlink="http://www.w3.org/1999/xlink" x="0" y="0" width="662" height="343.3203125" style="
        width:662px;
        height:343.3203125px;
        background: transparent;
        fill: none;
">
        
        
        <svg xmlns="http://www.w3.org/2000/svg" class="role-diagram-draw-area"><g class="shapes-region" style="stroke: black; fill: none; --darkreader-inline-stroke: #e8e6e3; --darkreader-inline-fill: none;" data-darkreader-inline-stroke="" data-darkreader-inline-fill=""><g class="composite-shape"><path class="real" d=" M558.41,11.88 C589.67,83.88 607,163.33 607,246.83 C607,246.9 607,246.97 607,247.04 L16.5,246.83 Z" style="stroke-width: 1; stroke: none; fill: none; fill-opacity: 1; --darkreader-inline-stroke: none; --darkreader-inline-fill: none;" data-darkreader-inline-stroke="" data-darkreader-inline-fill=""/><path class="real" d=" M558.41,11.88 C589.67,83.88 607,163.33 607,246.83 C607,246.9 607,246.97 607,247.04" style="stroke-width: 1; stroke: rgb(0, 0, 0); fill: none; fill-opacity: 1; --darkreader-inline-stroke: #e8e6e3; --darkreader-inline-fill: none;" data-darkreader-inline-stroke="" data-darkreader-inline-fill=""/></g><g class="composite-shape"><path class="real" d=" M16.5,246.83 L607,246.83 L607,11.67" style="stroke-width: 1; stroke: rgb(0, 0, 0); fill: none; fill-opacity: 1; --darkreader-inline-stroke: #e8e6e3; --darkreader-inline-fill: none;" data-darkreader-inline-stroke="" data-darkreader-inline-fill=""/></g><g class="arrow-line"><path class="connection real" stroke-dasharray="" d="  M558.41,11.88 L16.5,246.83" style="stroke: rgb(0, 0, 0); stroke-width: 1; fill: none; fill-opacity: 1; --darkreader-inline-stroke: #e8e6e3; --darkreader-inline-fill: none;" data-darkreader-inline-stroke="" data-darkreader-inline-fill=""/></g><g class="composite-shape"><path class="real" d=" M558,11.67 L607,11.67 L607,95.87" style="stroke-width: 1; stroke: rgb(0, 0, 0); fill: none; fill-opacity: 1; --darkreader-inline-stroke: #e8e6e3; --darkreader-inline-fill: none;" data-darkreader-inline-stroke="" data-darkreader-inline-fill=""/></g><g class="composite-shape"><path class="real" d=" M43.8,234.38 C45.53,238.17 46.5,242.39 46.5,246.83 L16.5,246.83 Z" style="stroke-width: 1; stroke: none; fill: none; fill-opacity: 1; --darkreader-inline-stroke: none; --darkreader-inline-fill: none;" data-darkreader-inline-stroke="" data-darkreader-inline-fill=""/><path class="real" d=" M43.8,234.38 C45.53,238.17 46.5,242.39 46.5,246.83" style="stroke-width: 1; stroke: rgb(0, 0, 0); fill: none; fill-opacity: 1; --darkreader-inline-stroke: #e8e6e3; --darkreader-inline-fill: none;" data-darkreader-inline-stroke="" data-darkreader-inline-fill=""/></g><g class="arrow-line"><path class="connection real" stroke-dasharray="" d="  M558.41,11.88 L607,247.04" style="stroke: rgb(0, 0, 0); stroke-width: 1; fill: none; fill-opacity: 1; --darkreader-inline-stroke: #e8e6e3; --darkreader-inline-fill: none;" data-darkreader-inline-stroke="" data-darkreader-inline-fill=""/></g><g class="composite-shape"><path class="real" d=" M596.02,192.93 C599.57,192.21 603.24,191.83 607,191.83 C607,191.83 607,191.83 607,191.83 L607,246.83 Z" style="stroke-width: 1; stroke: none; fill: none; fill-opacity: 1; --darkreader-inline-stroke: none; --darkreader-inline-fill: none;" data-darkreader-inline-stroke="" data-darkreader-inline-fill=""/><path class="real" d=" M596.02,192.93 C599.57,192.21 603.24,191.83 607,191.83 C607,191.83 607,191.83 607,191.83" style="stroke-width: 1; stroke: rgb(0, 0, 0); fill: none; fill-opacity: 1; --darkreader-inline-stroke: #e8e6e3; --darkreader-inline-fill: none;" data-darkreader-inline-stroke="" data-darkreader-inline-fill=""/></g><g class="composite-shape"><path class="real" d=" M577.01,247.58 C577,247.33 577,247.08 577,246.83 C577,232.33 587.29,220.23 600.97,217.44 L607,246.83 Z" style="stroke-width: 1; stroke: none; fill: none; fill-opacity: 1; --darkreader-inline-stroke: none; --darkreader-inline-fill: none;" data-darkreader-inline-stroke="" data-darkreader-inline-fill=""/><path class="real" d=" M577.01,247.58 C577,247.33 577,247.08 577,246.83 C577,232.33 587.29,220.23 600.97,217.44" style="stroke-width: 1; stroke: rgb(0, 0, 0); fill: none; fill-opacity: 1; --darkreader-inline-stroke: #e8e6e3; --darkreader-inline-fill: none;" data-darkreader-inline-stroke="" data-darkreader-inline-fill=""/></g><g class="arrow-line"><path class="connection real" stroke-dasharray="" d="  M266.08,247.04 L525.17,25.45" style="stroke: rgb(0, 0, 0); stroke-width: 1; fill: none; fill-opacity: 1;"/></g><g class="composite-shape"><path class="real" d=" M525.17,25.45 C576.17,85.03 606.99,162.4 607,246.98 L266.08,247.04 Z" style="stroke-width: 1; stroke: none; fill: none; fill-opacity: 1;"/><path class="real" d=" M525.17,25.45 C576.17,85.03 606.99,162.4 607,246.98" style="stroke-width: 1; stroke: rgb(0, 0, 0); fill: none; fill-opacity: 1;"/></g><g class="composite-shape"><path class="real" d=" M288.99,227.67 C293.42,232.9 296.08,239.66 296.08,247.04 L266.08,247.04 Z" style="stroke-width: 1; stroke: none; fill: none; fill-opacity: 1;"/><path class="real" d=" M288.99,227.67 C293.42,232.9 296.08,239.66 296.08,247.04" style="stroke-width: 1; stroke: rgb(0, 0, 0); fill: none; fill-opacity: 1;"/></g><g class="arrow-line"><path class="connection real" stroke-dasharray="" d="  M16.5,286.83 L607,286.83" style="stroke: rgb(0, 0, 0); stroke-width: 1; fill: none; fill-opacity: 1;"/><g stroke="#000" transform="matrix(-1,3.6739403974420594e-16,-3.6739403974420594e-16,-1,606.9999999999999,286.83333333333326)" style="stroke: rgb(0, 0, 0); stroke-width: 1;"><path d=" M0,5.59 L0,-5.59"/></g><g stroke="#000" transform="matrix(-1,3.6739403974420594e-16,-3.6739403974420594e-16,-1,16.50000000000017,286.83333333333337)" style="stroke: rgb(0, 0, 0); stroke-width: 1;"><path d=" M0,5.59 L0,-5.59"/></g></g><g class="arrow-line"><path class="connection real" stroke-dasharray="" d="  M266.08,274.04 L607,274.04" style="stroke: rgb(0, 0, 0); stroke-width: 1; fill: none; fill-opacity: 1;"/><g stroke="#000" transform="matrix(-1,1.2246467991473532e-16,-1.2246467991473532e-16,-1,606.9999647953285,274.0394567140774)" style="stroke: rgb(0, 0, 0); stroke-width: 1;"><path d=" M0,5.59 L0,-5.59"/></g><g stroke="#000" transform="matrix(-1,1.2246467991473532e-16,-1.2246467991473532e-16,-1,266.0832981286621,274.0394567140759)" style="stroke: rgb(0, 0, 0); stroke-width: 1;"><path d=" M0,5.59 L0,-5.59"/></g></g><g/></g><g/><g/><g/></svg>
        <svg xmlns="http://www.w3.org/2000/svg" xmlns:xlink="http://www.w3.org/1999/xlink" width="660" height="341.3203125" style="width:660px;height:341.3203125px;font-family:Asana-Math, Asana;background:transparent;"><g><g><g><g transform="matrix(1,0,0,1,62.7109375,242.96875)"><path transform="matrix(0.017,0,0,-0.017,0,0)" d="M237 -16C473 -16 572 316 576 504C578 618 546 702 419 702C159 702 72 412 69 199C67 80 101 -16 237 -16ZM401 676C536 676 506 491 485 381L169 381C194 485 272 676 401 676ZM253 13C102 13 147 261 163 349L479 349C454 237 396 13 253 13Z" stroke="rgb(0,0,0)" stroke-opacity="1" stroke-width="8" fill="rgb(0,0,0)" fill-opacity="1"></path></g></g></g></g><g><g><g><g transform="matrix(1,0,0,1,526.5,226.8671875)"><path transform="matrix(0.017,0,0,-0.017,0,0)" d="M96 -20C207 16 255 39 309 85C406 168 457 283 457 417C457 586 376 689 244 689C116 689 20 589 20 455C20 340 95 256 199 256C233 256 272 267 290 282L360 340C352 172 243 49 62 5L62 -3ZM240 656C285 656 318 637 340 597C358 565 370 516 370 471C370 379 317 317 240 317C160 317 106 388 106 492C106 593 158 656 240 656ZM762 689C607 689 528 566 528 324C528 207 549 106 584 57C619 8 675 -20 737 -20C888 -20 964 110 964 366C964 585 899 689 762 689ZM744 654C841 654 880 556 880 316C880 103 842 15 750 15C653 15 612 116 612 360C612 571 649 654 744 654Z" stroke="rgb(0,0,0)" stroke-opacity="1" stroke-width="8" fill="rgb(0,0,0)" fill-opacity="1"></path></g></g><g><g transform="matrix(1,0,0,1,546.8671875,226.8671875)"><path transform="matrix(0.017,0,0,-0.017,0,0)" d="M555 243L555 299L51 299L51 243Z" stroke="rgb(0,0,0)" stroke-opacity="1" stroke-width="8" fill="rgb(0,0,0)" fill-opacity="1"></path></g></g><g><g><g><g><g transform="matrix(1,0,0,1,562.25,214.46875)"><path transform="matrix(0.017,0,0,-0.017,0,0)" d="M237 -16C473 -16 572 316 576 504C578 618 546 702 419 702C159 702 72 412 69 199C67 80 101 -16 237 -16ZM401 676C536 676 506 491 485 381L169 381C194 485 272 676 401 676ZM253 13C102 13 147 261 163 349L479 349C454 237 396 13 253 13Z" stroke="rgb(0,0,0)" stroke-opacity="1" stroke-width="8" fill="rgb(0,0,0)" fill-opacity="1"></path></g></g></g></g><g><g><g><g transform="matrix(1,0,0,1,563.21875,240.265625)"><path transform="matrix(0.017,0,0,-0.017,0,0)" d="M16 23L16 -3C203 -3 203 0 239 0C275 0 275 -3 468 -3L468 82C353 77 307 81 122 77L304 270C401 373 431 428 431 503C431 618 353 689 226 689C154 689 105 669 56 619L39 483L68 483L81 529C97 587 133 612 200 612C286 612 341 558 341 473C341 398 299 324 186 204Z" stroke="rgb(0,0,0)" stroke-opacity="1" stroke-width="8" fill="rgb(0,0,0)" fill-opacity="1"></path></g></g></g></g><line style="fill:none;stroke-width:1px;stroke:rgb(0, 0, 0);" x1="562.25" y1="222.6171875" x2="572.671875" y2="222.6171875"></line></g></g></g><g><g><g><g><g><g><g transform="matrix(1,0,0,1,615.1953125,159.328125)"><path transform="matrix(0.017,0,0,-0.017,0,0)" d="M237 -16C473 -16 572 316 576 504C578 618 546 702 419 702C159 702 72 412 69 199C67 80 101 -16 237 -16ZM401 676C536 676 506 491 485 381L169 381C194 485 272 676 401 676ZM253 13C102 13 147 261 163 349L479 349C454 237 396 13 253 13Z" stroke="rgb(0,0,0)" stroke-opacity="1" stroke-width="8" fill="rgb(0,0,0)" fill-opacity="1"></path></g></g></g></g><g><g><g><g transform="matrix(1,0,0,1,616.1640625,185.125)"><path transform="matrix(0.017,0,0,-0.017,0,0)" d="M16 23L16 -3C203 -3 203 0 239 0C275 0 275 -3 468 -3L468 82C353 77 307 81 122 77L304 270C401 373 431 428 431 503C431 618 353 689 226 689C154 689 105 669 56 619L39 483L68 483L81 529C97 587 133 612 200 612C286 612 341 558 341 473C341 398 299 324 186 204Z" stroke="rgb(0,0,0)" stroke-opacity="1" stroke-width="8" fill="rgb(0,0,0)" fill-opacity="1"></path></g></g></g></g><line style="fill:none;stroke-width:1px;stroke:rgb(0, 0, 0);" x1="615.1953125" y1="167.4765625" x2="625.6171875" y2="167.4765625"></line></g></g></g><g><g><g><g transform="matrix(1,0,0,1,302.046875,238.3046875)"><path transform="matrix(0.017,0,0,-0.017,0,0)" d="M622 285C624 428 505 474 382 473C398 548 407 624 432 699L432 705C418 700 404 693 389 684L354 473C184 474 30 367 27 185C24 37 142 -8 268 -16L229 -289C249 -282 267 -274 282 -261C283 -179 288 -98 299 -16C481 -3 618 87 622 285ZM539 273C537 130 451 11 301 6L377 449C487 447 541 380 539 273ZM349 449L270 5C155 14 106 73 108 187C111 336 196 444 349 449Z" stroke="rgb(0,0,0)" stroke-opacity="1" stroke-width="8" fill="rgb(0,0,0)" fill-opacity="1"></path></g></g></g></g><g><g><g><g><g><g><g transform="matrix(1,0,0,1,615.5234375,80.6640625)"><path transform="matrix(0.017,0,0,-0.017,0,0)" d="M622 285C624 428 505 474 382 473C398 548 407 624 432 699L432 705C418 700 404 693 389 684L354 473C184 474 30 367 27 185C24 37 142 -8 268 -16L229 -289C249 -282 267 -274 282 -261C283 -179 288 -98 299 -16C481 -3 618 87 622 285ZM539 273C537 130 451 11 301 6L377 449C487 447 541 380 539 273ZM349 449L270 5C155 14 106 73 108 187C111 336 196 444 349 449Z" stroke="rgb(0,0,0)" stroke-opacity="1" stroke-width="8" fill="rgb(0,0,0)" fill-opacity="1"></path></g></g></g></g><g><g><g><g transform="matrix(1,0,0,1,616.9375,106.4609375)"><path transform="matrix(0.017,0,0,-0.017,0,0)" d="M16 23L16 -3C203 -3 203 0 239 0C275 0 275 -3 468 -3L468 82C353 77 307 81 122 77L304 270C401 373 431 428 431 503C431 618 353 689 226 689C154 689 105 669 56 619L39 483L68 483L81 529C97 587 133 612 200 612C286 612 341 558 341 473C341 398 299 324 186 204Z" stroke="rgb(0,0,0)" stroke-opacity="1" stroke-width="8" fill="rgb(0,0,0)" fill-opacity="1"></path></g></g></g></g><line style="fill:none;stroke-width:1px;stroke:rgb(0, 0, 0);" x1="615.5234375" y1="88.8125" x2="626.8359375" y2="88.8125"></line></g></g></g><g><g><g><g transform="matrix(1,0,0,1,507.1640625,182.8671875)"><path transform="matrix(0.017,0,0,-0.017,0,0)" d="M96 -20C207 16 255 39 309 85C406 168 457 283 457 417C457 586 376 689 244 689C116 689 20 589 20 455C20 340 95 256 199 256C233 256 272 267 290 282L360 340C352 172 243 49 62 5L62 -3ZM240 656C285 656 318 637 340 597C358 565 370 516 370 471C370 379 317 317 240 317C160 317 106 388 106 492C106 593 158 656 240 656ZM762 689C607 689 528 566 528 324C528 207 549 106 584 57C619 8 675 -20 737 -20C888 -20 964 110 964 366C964 585 899 689 762 689ZM744 654C841 654 880 556 880 316C880 103 842 15 750 15C653 15 612 116 612 360C612 571 649 654 744 654Z" stroke="rgb(0,0,0)" stroke-opacity="1" stroke-width="8" fill="rgb(0,0,0)" fill-opacity="1"></path></g></g><g><g transform="matrix(1,0,0,1,527.53125,182.8671875)"><path transform="matrix(0.017,0,0,-0.017,0,0)" d="M555 243L555 299L51 299L51 243Z" stroke="rgb(0,0,0)" stroke-opacity="1" stroke-width="8" fill="rgb(0,0,0)" fill-opacity="1"></path></g></g><g><g><g><g><g transform="matrix(1,0,0,1,542.9140625,170.46875)"><path transform="matrix(0.017,0,0,-0.017,0,0)" d="M622 285C624 428 505 474 382 473C398 548 407 624 432 699L432 705C418 700 404 693 389 684L354 473C184 474 30 367 27 185C24 37 142 -8 268 -16L229 -289C249 -282 267 -274 282 -261C283 -179 288 -98 299 -16C481 -3 618 87 622 285ZM539 273C537 130 451 11 301 6L377 449C487 447 541 380 539 273ZM349 449L270 5C155 14 106 73 108 187C111 336 196 444 349 449Z" stroke="rgb(0,0,0)" stroke-opacity="1" stroke-width="8" fill="rgb(0,0,0)" fill-opacity="1"></path></g></g></g></g><g><g><g><g transform="matrix(1,0,0,1,544.328125,196.265625)"><path transform="matrix(0.017,0,0,-0.017,0,0)" d="M16 23L16 -3C203 -3 203 0 239 0C275 0 275 -3 468 -3L468 82C353 77 307 81 122 77L304 270C401 373 431 428 431 503C431 618 353 689 226 689C154 689 105 669 56 619L39 483L68 483L81 529C97 587 133 612 200 612C286 612 341 558 341 473C341 398 299 324 186 204Z" stroke="rgb(0,0,0)" stroke-opacity="1" stroke-width="8" fill="rgb(0,0,0)" fill-opacity="1"></path></g></g></g></g><line style="fill:none;stroke-width:1px;stroke:rgb(0, 0, 0);" x1="542.9140625" y1="178.6171875" x2="554.2265625" y2="178.6171875"></line></g></g></g><g><g><g><g transform="matrix(1,0,0,1,430.5,267)"><path transform="matrix(0.017,0,0,-0.017,0,0)" d="M105 664L161 662C185 661 196 653 196 635C196 621 192 589 187 559L112 125C96 34 94 32 54 28L13 25L9 -3L51 -2C98 0 117 0 141 0L238 -3L264 -3L267 25L218 28C191 30 182 38 182 58C182 67 183 76 186 93L287 648C316 654 336 656 363 656C450 656 496 617 496 543C496 448 418 378 314 378L270 378L267 367C401 172 432 124 507 -3C507 -3 592 0 592 0C593 0 607 -1 626 -3L639 -3L639 24C599 29 588 37 559 79L375 354C430 364 459 376 495 402C553 444 584 499 584 560C584 646 520 693 409 691L108 691Z" stroke="rgb(0,0,0)" stroke-opacity="1" stroke-width="8" fill="rgb(0,0,0)" fill-opacity="1"></path></g></g><g><g><g><g><g transform="matrix(1,0,0,1,442.3359375,270.5015625)"><path transform="matrix(0.0119,0,0,-0.0119,0,0)" d="M342 330L365 330C373 395 380 432 389 458C365 473 330 482 293 482C248 483 175 463 118 400C64 352 25 241 25 136C25 40 67 -11 147 -11C201 -11 249 9 304 54L354 95L346 115L331 105C259 57 221 40 186 40C130 40 101 80 101 159C101 267 136 371 185 409C206 425 230 433 261 433C306 433 342 414 342 390Z" stroke="rgb(0,0,0)" stroke-opacity="1" stroke-width="8" fill="rgb(0,0,0)" fill-opacity="1"></path></g></g></g></g></g></g></g><g><g><g><g transform="matrix(1,0,0,1,287.828125,306.6640625)"><path transform="matrix(0.017,0,0,-0.017,0,0)" d="M368 365C371 403 376 435 384 476C373 481 369 482 364 482C333 482 302 458 266 407C227 351 188 291 172 256L204 408C208 425 210 438 210 450C210 470 202 482 187 482C166 482 128 461 54 408L26 388L33 368L65 389C93 407 104 412 113 412C123 412 130 403 130 390C130 332 87 126 47 -2L57 -9C72 -4 88 -1 111 4L124 6L150 126C168 209 191 262 235 319C269 363 296 384 318 384C333 384 343 379 354 365Z" stroke="rgb(0,0,0)" stroke-opacity="1" stroke-width="8" fill="rgb(0,0,0)" fill-opacity="1"></path></g></g><g><g><g><g><g transform="matrix(1,0,0,1,294.9375,310.165625)"><path transform="matrix(0.0119,0,0,-0.0119,0,0)" d="M271 204L242 77C238 60 236 42 236 26C236 4 245 -9 260 -9C283 -9 324 17 406 85L399 106C375 86 346 59 324 59C315 59 309 68 309 82C309 87 309 90 310 93L402 472L392 481L359 463C318 478 301 482 274 482C246 482 226 477 199 464C137 433 104 403 79 354C35 265 4 145 4 67C4 23 19 -11 38 -11C75 -11 155 41 271 204ZM319 414C297 305 278 253 244 201C187 117 126 59 94 59C82 59 76 72 76 99C76 163 104 280 139 360C163 415 186 433 234 433C257 433 275 429 319 414Z" stroke="rgb(0,0,0)" stroke-opacity="1" stroke-width="8" fill="rgb(0,0,0)" fill-opacity="1"></path></g></g></g></g></g></g></g></svg>
</svg>
