<svg xmlns="http://www.w3.org/2000/svg" xmlns:xlink="http://www.w3.org/1999/xlink" x="0" y="0" width="662" height="302" style="
        width:662px;
        height:302px;
        background: transparent;
        fill: none;
">
        
        
        <svg xmlns="http://www.w3.org/2000/svg" class="role-diagram-draw-area"><g class="shapes-region" style="stroke: black; fill: none;"><g class="composite-shape"><path class="real" d=" M189.83,48 C217.36,48 239.67,70.31 239.67,97.83 C239.67,108.8 236.12,118.94 230.12,127.17 C221.06,114.74 206.39,106.67 189.83,106.67 C173.28,106.67 158.61,114.74 149.54,127.17 C143.54,118.94 140,108.8 140,97.83 C140,70.31 162.31,48 189.83,48 Z" style="stroke-width: 1; stroke: rgb(0, 0, 0); fill: none; fill-opacity: 1;"/></g><g class="composite-shape"><path class="real" d=" M140.17,134.67 C141.77,134.67 143.35,134.74 144.92,134.89 C141.77,141.43 140,148.76 140,156.5 C140,182.42 159.79,203.72 185.08,206.11 C177.03,222.81 159.95,234.33 140.17,234.33 C112.64,234.33 90.33,212.02 90.33,184.5 C90.33,156.98 112.64,134.67 140.17,134.67 Z" style="stroke-width: 1; stroke: rgb(0, 0, 0); fill: none; fill-opacity: 1;"/></g><g class="composite-shape"><path class="real" d=" M239.83,134.67 C267.36,134.67 289.67,156.98 289.67,184.5 C289.67,212.02 267.36,234.33 239.83,234.33 C220.04,234.33 202.94,222.8 194.9,206.08 C220.04,203.54 239.67,182.31 239.67,156.5 C239.67,148.77 237.91,141.45 234.77,134.92 C236.43,134.75 238.12,134.67 239.83,134.67 Z" style="stroke-width: 1; stroke: rgb(0, 0, 0); fill: none; fill-opacity: 1;"/></g><g class="composite-shape"><path class="real" d=" M470.5,60 C498.02,60 520.33,82.31 520.33,109.83 C520.33,119.34 517.67,128.23 513.05,135.79 C497.9,137.85 484.92,146.72 477.29,159.21 C475.07,159.51 472.8,159.67 470.5,159.67 C467.82,159.67 465.18,159.45 462.61,159.05 C455.15,146.95 442.66,138.28 428.05,135.95 C423.37,128.36 420.67,119.41 420.67,109.83 C420.67,82.31 442.98,60 470.5,60 Z" style="stroke-width: 1; stroke: rgb(0, 0, 0); fill: none; fill-opacity: 1;"/></g><g class="composite-shape"><path class="real" d=" M470,185.17 C470,203.37 479.76,219.3 494.34,227.99 C487.14,232.03 478.84,234.33 470,234.33 C461.16,234.33 452.86,232.03 445.66,227.99 C460.24,219.3 470,203.37 470,185.17 C470,182.39 469.77,179.66 469.33,177 L470.67,177 C470.23,179.66 470,182.39 470,185.17 Z" style="stroke-width: 1; stroke: rgb(0, 0, 0); fill: none; fill-opacity: 1;"/></g><g class="composite-shape"><path class="real" d=" M370.33,185.17 C370.33,157.64 392.64,135.33 420.17,135.33 C447.69,135.33 470,157.64 470,185.17 C470,212.69 447.69,235 420.17,235 C392.64,235 370.33,212.69 370.33,185.17 Z" style="stroke-width: 1; stroke: rgb(0, 0, 0); fill: none; fill-opacity: 1;"/></g><g class="composite-shape"><path class="real" d=" M470,185.17 C470,157.64 492.31,135.33 519.83,135.33 C547.36,135.33 569.67,157.64 569.67,185.17 C569.67,212.69 547.36,235 519.83,235 C492.31,235 470,212.69 470,185.17 Z" style="stroke-width: 1; stroke: rgb(0, 0, 0); fill: none; fill-opacity: 1;"/></g><g class="composite-shape"><path class="real" d=" M140,156.5 C140,128.98 162.31,106.67 189.83,106.67 C217.36,106.67 239.67,128.98 239.67,156.5 C239.67,184.02 217.36,206.33 189.83,206.33 C162.31,206.33 140,184.02 140,156.5 Z" style="stroke-width: 1; stroke: rgb(0, 0, 0); fill: none; fill-opacity: 1;"/></g><g class="composite-shape"><path class="real" d=" M90.33,184.5 C90.33,156.98 112.64,134.67 140.17,134.67 C167.69,134.67 190,156.98 190,184.5 C190,212.02 167.69,234.33 140.17,234.33 C112.64,234.33 90.33,212.02 90.33,184.5 Z" style="stroke-width: 1; stroke: rgb(0, 0, 0); fill: none; fill-opacity: 1; stroke-dasharray: 6, 6;"/></g><g class="composite-shape"><path class="real" d=" M140,97.83 C140,70.31 162.31,48 189.83,48 C217.36,48 239.67,70.31 239.67,97.83 C239.67,125.36 217.36,147.67 189.83,147.67 C162.31,147.67 140,125.36 140,97.83 Z" style="stroke-width: 1; stroke: rgb(0, 0, 0); fill: none; fill-opacity: 1; stroke-dasharray: 6, 6;"/></g><g class="composite-shape"><path class="real" d=" M190,184.5 C190,156.98 212.31,134.67 239.83,134.67 C267.36,134.67 289.67,156.98 289.67,184.5 C289.67,212.02 267.36,234.33 239.83,234.33 C212.31,234.33 190,212.02 190,184.5 Z" style="stroke-width: 1; stroke: rgb(0, 0, 0); fill: none; fill-opacity: 1; stroke-dasharray: 6, 6;"/></g><g/></g><g/><g/><g/></svg>
        <svg xmlns="http://www.w3.org/2000/svg" xmlns:xlink="http://www.w3.org/1999/xlink" width="660" height="300" style="width:660px;height:300px;font-family:Asana-Math, Asana;background:transparent;"><g><g><g><text x="160.5" y="246" style="white-space:pre;stroke:none;fill:rgb(0,0,0);fill-opacity:1;font-size:15px;font-family:Arial, Helvetica, sans-serif;font-weight:400;font-style:normal;dominant-baseline:text-before-edge;text-decoration:none solid rgb(0, 0, 0);">Top View</text></g></g></g><g><g><g><text x="418" y="247" style="white-space:pre;stroke:none;fill:rgb(0,0,0);fill-opacity:1;font-size:15px;font-family:Arial, Helvetica, sans-serif;font-weight:400;font-style:normal;dominant-baseline:text-before-edge;text-decoration:none solid rgb(0, 0, 0);">Horizontal View</text></g></g></g></svg>
</svg>
