<svg xmlns="http://www.w3.org/2000/svg" xmlns:xlink="http://www.w3.org/1999/xlink" x="0" y="0" width="662" height="253.328125" style="
        width:662px;
        height:253.328125px;
        background: transparent;
        fill: none;
">
        
        
        <svg xmlns="http://www.w3.org/2000/svg" class="role-diagram-draw-area"><g class="shapes-region" style="stroke: black; fill: none;"><g class="composite-shape" data-amt="diagram/shapes/plot" transform="matrix(1,0,0,1,127.50000000000003,1.8333333333332007)"><g><g/><g><g class="test-plot-expression"><defs><clipPath id="cpktia7br6x"><rect x="1" y="1" width="405.5" height="239.50000000000006"/></clipPath></defs><g clip-path="url(#cpktia7br6x)"><path d=" M71.66,104.51 L71.98,97.62 L72.30,94.77 L72.63,92.59 L72.95,90.75 L73.27,89.14 L73.59,87.68 L73.92,86.34 L74.24,85.10 L74.56,83.94 L74.88,82.84 L75.20,81.79 L75.53,80.80 L75.85,79.84 L76.17,78.93 L76.49,78.05 L76.82,77.20 L77.14,76.37 L77.46,75.58 L77.78,74.80 L78.10,74.05 L78.43,73.32 L78.75,72.60 L79.07,71.91 L79.39,71.23 L79.72,70.56 L80.04,69.91 L80.36,69.28 L80.68,68.65 L81.01,68.04 L81.33,67.44 L81.65,66.85 L81.97,66.28 L82.29,65.71 L82.62,65.15 L82.94,64.60 L83.26,64.06 L83.58,63.53 L83.91,63.00 L84.23,62.49 L84.55,61.98 L84.87,61.48 L85.19,60.99 L85.52,60.50 L85.84,60.02 L86.16,59.55 L86.48,59.08 L86.81,58.62 L87.13,58.16 L87.45,57.71 L87.77,57.27 L88.09,56.83 L88.42,56.40 L88.74,55.97 L89.06,55.55 L89.38,55.13 L89.71,54.71 L90.03,54.30 L90.35,53.90 L90.67,53.50 L90.99,53.10 L91.32,52.71 L91.64,52.32 L91.96,51.94 L92.28,51.56 L92.61,51.18 L92.93,50.81 L93.25,50.44 L93.57,50.07 L93.89,49.71 L94.22,49.35 L94.54,49.00 L94.86,48.64 L95.18,48.30 L95.51,47.95 L95.83,47.61 L96.15,47.27 L96.47,46.93 L96.80,46.60 L97.12,46.27 L97.44,45.94 L97.76,45.62 L98.08,45.29 L98.41,44.98 L98.73,44.66 L99.05,44.35 L99.37,44.03 L99.70,43.72 L100.02,43.42 L100.34,43.11 L100.66,42.81 L100.98,42.51 L101.31,42.22 L101.63,41.92 L101.95,41.63 L102.27,41.34 L102.60,41.05 L102.92,40.77 L103.24,40.49 L103.56,40.21 L103.88,39.93 L104.21,39.65 L104.53,39.38 L104.85,39.10 L105.17,38.83 L105.50,38.56 L105.82,38.30 L106.14,38.03 L106.46,37.77 L106.78,37.51 L107.11,37.25 L107.43,36.99 L107.75,36.74 L108.07,36.49 L108.40,36.23 L108.72,35.98 L109.04,35.74 L109.36,35.49 L109.69,35.25 L110.01,35.00 L110.33,34.76 L110.65,34.52 L110.97,34.28 L111.30,34.05 L111.62,33.81 L111.94,33.58 L112.26,33.35 L112.59,33.12 L112.91,32.89 L113.23,32.66 L113.55,32.44 L113.87,32.21 L114.20,31.99 L114.52,31.77 L114.84,31.55 L115.16,31.33 L115.49,31.12 L115.81,30.90 L116.13,30.69 L116.45,30.48 L116.77,30.27 L117.10,30.06 L117.42,29.85 L117.74,29.64 L118.06,29.44 L118.39,29.23 L118.71,29.03 L119.03,28.83 L119.35,28.63 L119.67,28.43 L120.00,28.23 L120.32,28.04 L120.64,27.84 L120.96,27.65 L121.29,27.46 L121.61,27.26 L121.93,27.07 L122.25,26.89 L122.57,26.70 L122.90,26.51 L123.22,26.33 L123.54,26.14 L123.86,25.96 L124.19,25.78 L124.51,25.60 L124.83,25.42 L125.15,25.24 L125.48,25.06 L125.80,24.89 L126.12,24.71 L126.44,24.54 L126.76,24.37 L127.09,24.19 L127.41,24.02 L127.73,23.86 L128.05,23.69 L128.38,23.52 L128.70,23.35 L129.02,23.19 L129.34,23.02 L129.66,22.86 L129.99,22.70 L130.31,22.54 L130.63,22.38 L130.95,22.22 L131.28,22.06 L131.60,21.91 L131.92,21.75 L132.24,21.60 L132.56,21.44 L132.89,21.29 L133.21,21.14 L133.53,20.99 L133.85,20.84 L134.18,20.69 L134.50,20.54 L134.82,20.39 L135.14,20.25 L135.46,20.10 L135.79,19.96 L136.11,19.81 L136.43,19.67 L136.75,19.53 L137.08,19.39 L137.40,19.25 L137.72,19.11 L138.04,18.97 L138.36,18.84 L138.69,18.70 L139.01,18.57 L139.33,18.43 L139.65,18.30 L139.98,18.17 L140.30,18.03 L140.62,17.90 L140.94,17.77 L141.27,17.65 L141.59,17.52 L141.91,17.39 L142.23,17.26 L142.55,17.14 L142.88,17.01 L143.20,16.89 L143.52,16.77 L143.84,16.65 L144.17,16.52 L144.49,16.40 L144.81,16.28 L145.13,16.17 L145.45,16.05 L145.78,15.93 L146.10,15.81 L146.42,15.70 L146.74,15.58 L147.07,15.47 L147.39,15.36 L147.71,15.24 L148.03,15.13 L148.35,15.02 L148.68,14.91 L149.00,14.80 L149.32,14.69 L149.64,14.59 L149.97,14.48 L150.29,14.37 L150.61,14.27 L150.93,14.16 L151.25,14.06 L151.58,13.96 L151.90,13.86 L152.22,13.75 L152.54,13.65 L152.87,13.55 L153.19,13.45 L153.51,13.36 L153.83,13.26 L154.16,13.16 L154.48,13.07 L154.80,12.97 L155.12,12.88 L155.44,12.78 L155.77,12.69 L156.09,12.60 L156.41,12.50 L156.73,12.41 L157.06,12.32 L157.38,12.23 L157.70,12.14 L158.02,12.06 L158.34,11.97 L158.67,11.88 L158.99,11.80 L159.31,11.71 L159.63,11.63 L159.96,11.54 L160.28,11.46 L160.60,11.38 L160.92,11.29 L161.24,11.21 L161.57,11.13 L161.89,11.05 L162.21,10.97 L162.53,10.90 L162.86,10.82 L163.18,10.74 L163.50,10.66 L163.82,10.59 L164.14,10.51 L164.47,10.44 L164.79,10.37 L165.11,10.29 L165.43,10.22 L165.76,10.15 L166.08,10.08 L166.40,10.01 L166.72,9.94 L167.04,9.87 L167.37,9.80 L167.69,9.73 L168.01,9.67 L168.33,9.60 L168.66,9.54 L168.98,9.47 L169.30,9.41 L169.62,9.34 L169.95,9.28 L170.27,9.22 L170.59,9.16 L170.91,9.10 L171.23,9.04 L171.56,8.98 L171.88,8.92 L172.20,8.86 L172.52,8.80 L172.85,8.74 L173.17,8.69 L173.49,8.63 L173.81,8.58 L174.13,8.52 L174.46,8.47 L174.78,8.41 L175.10,8.36 L175.42,8.31 L175.75,8.26 L176.07,8.21 L176.39,8.16 L176.71,8.11 L177.03,8.06 L177.36,8.01 L177.68,7.96 L178.00,7.92 L178.32,7.87 L178.65,7.83 L178.97,7.78 L179.29,7.74 L179.61,7.69 L179.93,7.65 L180.26,7.61 L180.58,7.57 L180.90,7.52 L181.22,7.48 L181.55,7.44 L181.87,7.40 L182.19,7.37 L182.51,7.33 L182.84,7.29 L183.16,7.25 L183.48,7.22 L183.80,7.18 L184.12,7.15 L184.45,7.11 L184.77,7.08 L185.09,7.04 L185.41,7.01 L185.74,6.98 L186.06,6.95 L186.38,6.92 L186.70,6.89 L187.02,6.86 L187.35,6.83 L187.67,6.80 L187.99,6.77 L188.31,6.74 L188.64,6.72 L188.96,6.69 L189.28,6.67 L189.60,6.64 L189.92,6.62 L190.25,6.59 L190.57,6.57 L190.89,6.55 L191.21,6.53 L191.54,6.51 L191.86,6.49 L192.18,6.47 L192.50,6.45 L192.82,6.43 L193.15,6.41 L193.47,6.39 L193.79,6.37 L194.11,6.36 L194.44,6.34 L194.76,6.33 L195.08,6.31 L195.40,6.30 L195.72,6.29 L196.05,6.27 L196.37,6.26 L196.69,6.25 L197.01,6.24 L197.34,6.23 L197.66,6.22 L197.98,6.21 L198.30,6.20 L198.63,6.19 L198.95,6.18 L199.27,6.18 L199.59,6.17 L199.91,6.17 L200.24,6.16 L200.56,6.16 L200.88,6.15 L201.20,6.15 L201.53,6.15 L201.85,6.14 L202.17,6.14 L202.49,6.14 L202.81,6.14 L203.14,6.14 L203.46,6.14 L203.78,6.14 L204.10,6.15 L204.43,6.15 L204.75,6.15 L205.07,6.16 L205.39,6.16 L205.71,6.17 L206.04,6.17 L206.36,6.18 L206.68,6.18 L207.00,6.19 L207.33,6.20 L207.65,6.21 L207.97,6.22 L208.29,6.23 L208.61,6.24 L208.94,6.25 L209.26,6.26 L209.58,6.27 L209.90,6.29 L210.23,6.30 L210.55,6.31 L210.87,6.33 L211.19,6.34 L211.51,6.36 L211.84,6.37 L212.16,6.39 L212.48,6.41 L212.80,6.43 L213.13,6.45 L213.45,6.47 L213.77,6.49 L214.09,6.51 L214.42,6.53 L214.74,6.55 L215.06,6.57 L215.38,6.59 L215.70,6.62 L216.03,6.64 L216.35,6.67 L216.67,6.69 L216.99,6.72 L217.32,6.74 L217.64,6.77 L217.96,6.80 L218.28,6.83 L218.60,6.86 L218.93,6.89 L219.25,6.92 L219.57,6.95 L219.89,6.98 L220.22,7.01 L220.54,7.04 L220.86,7.08 L221.18,7.11 L221.50,7.15 L221.83,7.18 L222.15,7.22 L222.47,7.25 L222.79,7.29 L223.12,7.33 L223.44,7.37 L223.76,7.40 L224.08,7.44 L224.40,7.48 L224.73,7.52 L225.05,7.57 L225.37,7.61 L225.69,7.65 L226.02,7.69 L226.34,7.74 L226.66,7.78 L226.98,7.83 L227.31,7.87 L227.63,7.92 L227.95,7.96 L228.27,8.01 L228.59,8.06 L228.92,8.11 L229.24,8.16 L229.56,8.21 L229.88,8.26 L230.21,8.31 L230.53,8.36 L230.85,8.41 L231.17,8.47 L231.49,8.52 L231.82,8.58 L232.14,8.63 L232.46,8.69 L232.78,8.74 L233.11,8.80 L233.43,8.86 L233.75,8.92 L234.07,8.98 L234.39,9.04 L234.72,9.10 L235.04,9.16 L235.36,9.22 L235.68,9.28 L236.01,9.34 L236.33,9.41 L236.65,9.47 L236.97,9.54 L237.29,9.60 L237.62,9.67 L237.94,9.73 L238.26,9.80 L238.58,9.87 L238.91,9.94 L239.23,10.01 L239.55,10.08 L239.87,10.15 L240.19,10.22 L240.52,10.29 L240.84,10.37 L241.16,10.44 L241.48,10.51 L241.81,10.59 L242.13,10.66 L242.45,10.74 L242.77,10.82 L243.10,10.90 L243.42,10.97 L243.74,11.05 L244.06,11.13 L244.38,11.21 L244.71,11.29 L245.03,11.38 L245.35,11.46 L245.67,11.54 L246.00,11.63 L246.32,11.71 L246.64,11.80 L246.96,11.88 L247.28,11.97 L247.61,12.06 L247.93,12.14 L248.25,12.23 L248.57,12.32 L248.90,12.41 L249.22,12.50 L249.54,12.60 L249.86,12.69 L250.18,12.78 L250.51,12.88 L250.83,12.97 L251.15,13.07 L251.47,13.16 L251.80,13.26 L252.12,13.36 L252.44,13.45 L252.76,13.55 L253.08,13.65 L253.41,13.75 L253.73,13.86 L254.05,13.96 L254.37,14.06 L254.70,14.16 L255.02,14.27 L255.34,14.37 L255.66,14.48 L255.99,14.59 L256.31,14.69 L256.63,14.80 L256.95,14.91 L257.27,15.02 L257.60,15.13 L257.92,15.24 L258.24,15.36 L258.56,15.47 L258.89,15.58 L259.21,15.70 L259.53,15.81 L259.85,15.93 L260.17,16.05 L260.50,16.17 L260.82,16.28 L261.14,16.40 L261.46,16.52 L261.79,16.65 L262.11,16.77 L262.43,16.89 L262.75,17.01 L263.07,17.14 L263.40,17.26 L263.72,17.39 L264.04,17.52 L264.36,17.65 L264.69,17.77 L265.01,17.90 L265.33,18.03 L265.65,18.17 L265.97,18.30 L266.30,18.43 L266.62,18.57 L266.94,18.70 L267.26,18.84 L267.59,18.97 L267.91,19.11 L268.23,19.25 L268.55,19.39 L268.87,19.53 L269.20,19.67 L269.52,19.81 L269.84,19.96 L270.16,20.10 L270.49,20.25 L270.81,20.39 L271.13,20.54 L271.45,20.69 L271.78,20.84 L272.10,20.99 L272.42,21.14 L272.74,21.29 L273.06,21.44 L273.39,21.60 L273.71,21.75 L274.03,21.91 L274.35,22.06 L274.68,22.22 L275.00,22.38 L275.32,22.54 L275.64,22.70 L275.96,22.86 L276.29,23.02 L276.61,23.19 L276.93,23.35 L277.25,23.52 L277.58,23.69 L277.90,23.86 L278.22,24.02 L278.54,24.19 L278.86,24.37 L279.19,24.54 L279.51,24.71 L279.83,24.89 L280.15,25.06 L280.48,25.24 L280.80,25.42 L281.12,25.60 L281.44,25.78 L281.76,25.96 L282.09,26.14 L282.41,26.33 L282.73,26.51 L283.05,26.70 L283.38,26.89 L283.70,27.07 L284.02,27.26 L284.34,27.46 L284.66,27.65 L284.99,27.84 L285.31,28.04 L285.63,28.23 L285.95,28.43 L286.28,28.63 L286.60,28.83 L286.92,29.03 L287.24,29.23 L287.57,29.44 L287.89,29.64 L288.21,29.85 L288.53,30.06 L288.85,30.27 L289.18,30.48 L289.50,30.69 L289.82,30.90 L290.14,31.12 L290.47,31.33 L290.79,31.55 L291.11,31.77 L291.43,31.99 L291.75,32.21 L292.08,32.44 L292.40,32.66 L292.72,32.89 L293.04,33.12 L293.37,33.35 L293.69,33.58 L294.01,33.81 L294.33,34.05 L294.65,34.28 L294.98,34.52 L295.30,34.76 L295.62,35.00 L295.94,35.25 L296.27,35.49 L296.59,35.74 L296.91,35.98 L297.23,36.23 L297.55,36.49 L297.88,36.74 L298.20,36.99 L298.52,37.25 L298.84,37.51 L299.17,37.77 L299.49,38.03 L299.81,38.30 L300.13,38.56 L300.46,38.83 L300.78,39.10 L301.10,39.38 L301.42,39.65 L301.74,39.93 L302.07,40.21 L302.39,40.49 L302.71,40.77 L303.03,41.05 L303.36,41.34 L303.68,41.63 L304.00,41.92 L304.32,42.22 L304.64,42.51 L304.97,42.81 L305.29,43.11 L305.61,43.42 L305.93,43.72 L306.26,44.03 L306.58,44.35 L306.90,44.66 L307.22,44.98 L307.54,45.29 L307.87,45.62 L308.19,45.94 L308.51,46.27 L308.83,46.60 L309.16,46.93 L309.48,47.27 L309.80,47.61 L310.12,47.95 L310.44,48.30 L310.77,48.64 L311.09,49.00 L311.41,49.35 L311.73,49.71 L312.06,50.07 L312.38,50.44 L312.70,50.81 L313.02,51.18 L313.34,51.56 L313.67,51.94 L313.99,52.32 L314.31,52.71 L314.63,53.10 L314.96,53.50 L315.28,53.90 L315.60,54.30 L315.92,54.71 L316.25,55.13 L316.57,55.55 L316.89,55.97 L317.21,56.40 L317.53,56.83 L317.86,57.27 L318.18,57.71 L318.50,58.16 L318.82,58.62 L319.15,59.08 L319.47,59.55 L319.79,60.02 L320.11,60.50 L320.43,60.99 L320.76,61.48 L321.08,61.98 L321.40,62.49 L321.72,63.00 L322.05,63.53 L322.37,64.06 L322.69,64.60 L323.01,65.15 L323.33,65.71 L323.66,66.28 L323.98,66.85 L324.30,67.44 L324.62,68.04 L324.95,68.65 L325.27,69.28 L325.59,69.91 L325.91,70.56 L326.23,71.23 L326.56,71.91 L326.88,72.60 L327.20,73.32 L327.52,74.05 L327.85,74.80 L328.17,75.58 L328.49,76.37 L328.81,77.20 L329.14,78.05 L329.46,78.93 L329.78,79.84 L330.10,80.80 L330.42,81.79 L330.75,82.84 L331.07,83.94 L331.39,85.10 L331.71,86.34 L332.04,87.68 L332.36,89.14 L332.68,90.75 L333.00,92.59 L333.32,94.77 L333.65,97.62 L333.97,104.51" style="stroke-width: 2; stroke: rgb(0, 0, 0); stroke-opacity: 1;"/><path d=" M71.66,104.51 L71.98,111.40 L72.30,114.25 L72.63,116.43 L72.95,118.26 L73.27,119.88 L73.59,121.34 L73.92,122.67 L74.24,123.91 L74.56,125.08 L74.88,126.18 L75.20,127.22 L75.53,128.22 L75.85,129.17 L76.17,130.08 L76.49,130.97 L76.82,131.82 L77.14,132.64 L77.46,133.44 L77.78,134.21 L78.10,134.96 L78.43,135.70 L78.75,136.41 L79.07,137.11 L79.39,137.79 L79.72,138.45 L80.04,139.10 L80.36,139.74 L80.68,140.36 L81.01,140.97 L81.33,141.57 L81.65,142.16 L81.97,142.74 L82.29,143.31 L82.62,143.87 L82.94,144.41 L83.26,144.95 L83.58,145.49 L83.91,146.01 L84.23,146.52 L84.55,147.03 L84.87,147.53 L85.19,148.03 L85.52,148.51 L85.84,148.99 L86.16,149.47 L86.48,149.93 L86.81,150.39 L87.13,150.85 L87.45,151.30 L87.77,151.74 L88.09,152.18 L88.42,152.62 L88.74,153.04 L89.06,153.47 L89.38,153.89 L89.71,154.30 L90.03,154.71 L90.35,155.12 L90.67,155.52 L90.99,155.91 L91.32,156.31 L91.64,156.69 L91.96,157.08 L92.28,157.46 L92.61,157.83 L92.93,158.21 L93.25,158.58 L93.57,158.94 L93.89,159.30 L94.22,159.66 L94.54,160.02 L94.86,160.37 L95.18,160.72 L95.51,161.06 L95.83,161.41 L96.15,161.75 L96.47,162.08 L96.80,162.41 L97.12,162.75 L97.44,163.07 L97.76,163.40 L98.08,163.72 L98.41,164.04 L98.73,164.36 L99.05,164.67 L99.37,164.98 L99.70,165.29 L100.02,165.60 L100.34,165.90 L100.66,166.20 L100.98,166.50 L101.31,166.80 L101.63,167.09 L101.95,167.38 L102.27,167.67 L102.60,167.96 L102.92,168.24 L103.24,168.53 L103.56,168.81 L103.88,169.09 L104.21,169.36 L104.53,169.64 L104.85,169.91 L105.17,170.18 L105.50,170.45 L105.82,170.72 L106.14,170.98 L106.46,171.24 L106.78,171.50 L107.11,171.76 L107.43,172.02 L107.75,172.28 L108.07,172.53 L108.40,172.78 L108.72,173.03 L109.04,173.28 L109.36,173.52 L109.69,173.77 L110.01,174.01 L110.33,174.25 L110.65,174.49 L110.97,174.73 L111.30,174.97 L111.62,175.20 L111.94,175.43 L112.26,175.67 L112.59,175.90 L112.91,176.12 L113.23,176.35 L113.55,176.58 L113.87,176.80 L114.20,177.02 L114.52,177.24 L114.84,177.46 L115.16,177.68 L115.49,177.90 L115.81,178.11 L116.13,178.33 L116.45,178.54 L116.77,178.75 L117.10,178.96 L117.42,179.17 L117.74,179.37 L118.06,179.58 L118.39,179.78 L118.71,179.98 L119.03,180.19 L119.35,180.39 L119.67,180.58 L120.00,180.78 L120.32,180.98 L120.64,181.17 L120.96,181.37 L121.29,181.56 L121.61,181.75 L121.93,181.94 L122.25,182.13 L122.57,182.32 L122.90,182.50 L123.22,182.69 L123.54,182.87 L123.86,183.05 L124.19,183.24 L124.51,183.42 L124.83,183.60 L125.15,183.77 L125.48,183.95 L125.80,184.13 L126.12,184.30 L126.44,184.48 L126.76,184.65 L127.09,184.82 L127.41,184.99 L127.73,185.16 L128.05,185.33 L128.38,185.49 L128.70,185.66 L129.02,185.83 L129.34,185.99 L129.66,186.15 L129.99,186.31 L130.31,186.48 L130.63,186.63 L130.95,186.79 L131.28,186.95 L131.60,187.11 L131.92,187.26 L132.24,187.42 L132.56,187.57 L132.89,187.73 L133.21,187.88 L133.53,188.03 L133.85,188.18 L134.18,188.33 L134.50,188.47 L134.82,188.62 L135.14,188.77 L135.46,188.91 L135.79,189.06 L136.11,189.20 L136.43,189.34 L136.75,189.48 L137.08,189.62 L137.40,189.76 L137.72,189.90 L138.04,190.04 L138.36,190.18 L138.69,190.31 L139.01,190.45 L139.33,190.58 L139.65,190.72 L139.98,190.85 L140.30,190.98 L140.62,191.11 L140.94,191.24 L141.27,191.37 L141.59,191.50 L141.91,191.62 L142.23,191.75 L142.55,191.88 L142.88,192.00 L143.20,192.12 L143.52,192.25 L143.84,192.37 L144.17,192.49 L144.49,192.61 L144.81,192.73 L145.13,192.85 L145.45,192.97 L145.78,193.08 L146.10,193.20 L146.42,193.32 L146.74,193.43 L147.07,193.54 L147.39,193.66 L147.71,193.77 L148.03,193.88 L148.35,193.99 L148.68,194.10 L149.00,194.21 L149.32,194.32 L149.64,194.43 L149.97,194.53 L150.29,194.64 L150.61,194.75 L150.93,194.85 L151.25,194.95 L151.58,195.06 L151.90,195.16 L152.22,195.26 L152.54,195.36 L152.87,195.46 L153.19,195.56 L153.51,195.66 L153.83,195.76 L154.16,195.85 L154.48,195.95 L154.80,196.04 L155.12,196.14 L155.44,196.23 L155.77,196.33 L156.09,196.42 L156.41,196.51 L156.73,196.60 L157.06,196.69 L157.38,196.78 L157.70,196.87 L158.02,196.96 L158.34,197.05 L158.67,197.13 L158.99,197.22 L159.31,197.30 L159.63,197.39 L159.96,197.47 L160.28,197.56 L160.60,197.64 L160.92,197.72 L161.24,197.80 L161.57,197.88 L161.89,197.96 L162.21,198.04 L162.53,198.12 L162.86,198.20 L163.18,198.27 L163.50,198.35 L163.82,198.43 L164.14,198.50 L164.47,198.57 L164.79,198.65 L165.11,198.72 L165.43,198.79 L165.76,198.86 L166.08,198.94 L166.40,199.01 L166.72,199.08 L167.04,199.14 L167.37,199.21 L167.69,199.28 L168.01,199.35 L168.33,199.41 L168.66,199.48 L168.98,199.54 L169.30,199.61 L169.62,199.67 L169.95,199.73 L170.27,199.80 L170.59,199.86 L170.91,199.92 L171.23,199.98 L171.56,200.04 L171.88,200.10 L172.20,200.16 L172.52,200.21 L172.85,200.27 L173.17,200.33 L173.49,200.38 L173.81,200.44 L174.13,200.49 L174.46,200.55 L174.78,200.60 L175.10,200.65 L175.42,200.70 L175.75,200.76 L176.07,200.81 L176.39,200.86 L176.71,200.91 L177.03,200.95 L177.36,201.00 L177.68,201.05 L178.00,201.10 L178.32,201.14 L178.65,201.19 L178.97,201.23 L179.29,201.28 L179.61,201.32 L179.93,201.36 L180.26,201.41 L180.58,201.45 L180.90,201.49 L181.22,201.53 L181.55,201.57 L181.87,201.61 L182.19,201.65 L182.51,201.69 L182.84,201.72 L183.16,201.76 L183.48,201.80 L183.80,201.83 L184.12,201.87 L184.45,201.90 L184.77,201.94 L185.09,201.97 L185.41,202.00 L185.74,202.04 L186.06,202.07 L186.38,202.10 L186.70,202.13 L187.02,202.16 L187.35,202.19 L187.67,202.21 L187.99,202.24 L188.31,202.27 L188.64,202.30 L188.96,202.32 L189.28,202.35 L189.60,202.37 L189.92,202.40 L190.25,202.42 L190.57,202.44 L190.89,202.47 L191.21,202.49 L191.54,202.51 L191.86,202.53 L192.18,202.55 L192.50,202.57 L192.82,202.59 L193.15,202.61 L193.47,202.62 L193.79,202.64 L194.11,202.66 L194.44,202.67 L194.76,202.69 L195.08,202.70 L195.40,202.72 L195.72,202.73 L196.05,202.74 L196.37,202.75 L196.69,202.77 L197.01,202.78 L197.34,202.79 L197.66,202.80 L197.98,202.81 L198.30,202.81 L198.63,202.82 L198.95,202.83 L199.27,202.84 L199.59,202.84 L199.91,202.85 L200.24,202.85 L200.56,202.86 L200.88,202.86 L201.20,202.87 L201.53,202.87 L201.85,202.87 L202.17,202.87 L202.49,202.87 L202.81,202.87 L203.14,202.87 L203.46,202.87 L203.78,202.87 L204.10,202.87 L204.43,202.87 L204.75,202.86 L205.07,202.86 L205.39,202.85 L205.71,202.85 L206.04,202.84 L206.36,202.84 L206.68,202.83 L207.00,202.82 L207.33,202.81 L207.65,202.81 L207.97,202.80 L208.29,202.79 L208.61,202.78 L208.94,202.77 L209.26,202.75 L209.58,202.74 L209.90,202.73 L210.23,202.72 L210.55,202.70 L210.87,202.69 L211.19,202.67 L211.51,202.66 L211.84,202.64 L212.16,202.62 L212.48,202.61 L212.80,202.59 L213.13,202.57 L213.45,202.55 L213.77,202.53 L214.09,202.51 L214.42,202.49 L214.74,202.47 L215.06,202.44 L215.38,202.42 L215.70,202.40 L216.03,202.37 L216.35,202.35 L216.67,202.32 L216.99,202.30 L217.32,202.27 L217.64,202.24 L217.96,202.21 L218.28,202.19 L218.60,202.16 L218.93,202.13 L219.25,202.10 L219.57,202.07 L219.89,202.04 L220.22,202.00 L220.54,201.97 L220.86,201.94 L221.18,201.90 L221.50,201.87 L221.83,201.83 L222.15,201.80 L222.47,201.76 L222.79,201.72 L223.12,201.69 L223.44,201.65 L223.76,201.61 L224.08,201.57 L224.40,201.53 L224.73,201.49 L225.05,201.45 L225.37,201.41 L225.69,201.36 L226.02,201.32 L226.34,201.28 L226.66,201.23 L226.98,201.19 L227.31,201.14 L227.63,201.10 L227.95,201.05 L228.27,201.00 L228.59,200.95 L228.92,200.91 L229.24,200.86 L229.56,200.81 L229.88,200.76 L230.21,200.70 L230.53,200.65 L230.85,200.60 L231.17,200.55 L231.49,200.49 L231.82,200.44 L232.14,200.38 L232.46,200.33 L232.78,200.27 L233.11,200.21 L233.43,200.16 L233.75,200.10 L234.07,200.04 L234.39,199.98 L234.72,199.92 L235.04,199.86 L235.36,199.80 L235.68,199.73 L236.01,199.67 L236.33,199.61 L236.65,199.54 L236.97,199.48 L237.29,199.41 L237.62,199.35 L237.94,199.28 L238.26,199.21 L238.58,199.14 L238.91,199.08 L239.23,199.01 L239.55,198.94 L239.87,198.86 L240.19,198.79 L240.52,198.72 L240.84,198.65 L241.16,198.57 L241.48,198.50 L241.81,198.43 L242.13,198.35 L242.45,198.27 L242.77,198.20 L243.10,198.12 L243.42,198.04 L243.74,197.96 L244.06,197.88 L244.38,197.80 L244.71,197.72 L245.03,197.64 L245.35,197.56 L245.67,197.47 L246.00,197.39 L246.32,197.30 L246.64,197.22 L246.96,197.13 L247.28,197.05 L247.61,196.96 L247.93,196.87 L248.25,196.78 L248.57,196.69 L248.90,196.60 L249.22,196.51 L249.54,196.42 L249.86,196.33 L250.18,196.23 L250.51,196.14 L250.83,196.04 L251.15,195.95 L251.47,195.85 L251.80,195.76 L252.12,195.66 L252.44,195.56 L252.76,195.46 L253.08,195.36 L253.41,195.26 L253.73,195.16 L254.05,195.06 L254.37,194.95 L254.70,194.85 L255.02,194.75 L255.34,194.64 L255.66,194.53 L255.99,194.43 L256.31,194.32 L256.63,194.21 L256.95,194.10 L257.27,193.99 L257.60,193.88 L257.92,193.77 L258.24,193.66 L258.56,193.54 L258.89,193.43 L259.21,193.32 L259.53,193.20 L259.85,193.08 L260.17,192.97 L260.50,192.85 L260.82,192.73 L261.14,192.61 L261.46,192.49 L261.79,192.37 L262.11,192.25 L262.43,192.12 L262.75,192.00 L263.07,191.88 L263.40,191.75 L263.72,191.62 L264.04,191.50 L264.36,191.37 L264.69,191.24 L265.01,191.11 L265.33,190.98 L265.65,190.85 L265.97,190.72 L266.30,190.58 L266.62,190.45 L266.94,190.31 L267.26,190.18 L267.59,190.04 L267.91,189.90 L268.23,189.76 L268.55,189.62 L268.87,189.48 L269.20,189.34 L269.52,189.20 L269.84,189.06 L270.16,188.91 L270.49,188.77 L270.81,188.62 L271.13,188.47 L271.45,188.33 L271.78,188.18 L272.10,188.03 L272.42,187.88 L272.74,187.73 L273.06,187.57 L273.39,187.42 L273.71,187.26 L274.03,187.11 L274.35,186.95 L274.68,186.79 L275.00,186.63 L275.32,186.48 L275.64,186.31 L275.96,186.15 L276.29,185.99 L276.61,185.83 L276.93,185.66 L277.25,185.49 L277.58,185.33 L277.90,185.16 L278.22,184.99 L278.54,184.82 L278.86,184.65 L279.19,184.48 L279.51,184.30 L279.83,184.13 L280.15,183.95 L280.48,183.77 L280.80,183.60 L281.12,183.42 L281.44,183.24 L281.76,183.05 L282.09,182.87 L282.41,182.69 L282.73,182.50 L283.05,182.32 L283.38,182.13 L283.70,181.94 L284.02,181.75 L284.34,181.56 L284.66,181.37 L284.99,181.17 L285.31,180.98 L285.63,180.78 L285.95,180.58 L286.28,180.39 L286.60,180.19 L286.92,179.98 L287.24,179.78 L287.57,179.58 L287.89,179.37 L288.21,179.17 L288.53,178.96 L288.85,178.75 L289.18,178.54 L289.50,178.33 L289.82,178.11 L290.14,177.90 L290.47,177.68 L290.79,177.46 L291.11,177.24 L291.43,177.02 L291.75,176.80 L292.08,176.58 L292.40,176.35 L292.72,176.12 L293.04,175.90 L293.37,175.67 L293.69,175.43 L294.01,175.20 L294.33,174.97 L294.65,174.73 L294.98,174.49 L295.30,174.25 L295.62,174.01 L295.94,173.77 L296.27,173.52 L296.59,173.28 L296.91,173.03 L297.23,172.78 L297.55,172.53 L297.88,172.28 L298.20,172.02 L298.52,171.76 L298.84,171.50 L299.17,171.24 L299.49,170.98 L299.81,170.72 L300.13,170.45 L300.46,170.18 L300.78,169.91 L301.10,169.64 L301.42,169.36 L301.74,169.09 L302.07,168.81 L302.39,168.53 L302.71,168.24 L303.03,167.96 L303.36,167.67 L303.68,167.38 L304.00,167.09 L304.32,166.80 L304.64,166.50 L304.97,166.20 L305.29,165.90 L305.61,165.60 L305.93,165.29 L306.26,164.98 L306.58,164.67 L306.90,164.36 L307.22,164.04 L307.54,163.72 L307.87,163.40 L308.19,163.07 L308.51,162.75 L308.83,162.41 L309.16,162.08 L309.48,161.75 L309.80,161.41 L310.12,161.06 L310.44,160.72 L310.77,160.37 L311.09,160.02 L311.41,159.66 L311.73,159.30 L312.06,158.94 L312.38,158.58 L312.70,158.21 L313.02,157.83 L313.34,157.46 L313.67,157.08 L313.99,156.69 L314.31,156.31 L314.63,155.91 L314.96,155.52 L315.28,155.12 L315.60,154.71 L315.92,154.30 L316.25,153.89 L316.57,153.47 L316.89,153.04 L317.21,152.62 L317.53,152.18 L317.86,151.74 L318.18,151.30 L318.50,150.85 L318.82,150.39 L319.15,149.93 L319.47,149.47 L319.79,148.99 L320.11,148.51 L320.43,148.03 L320.76,147.53 L321.08,147.03 L321.40,146.52 L321.72,146.01 L322.05,145.49 L322.37,144.95 L322.69,144.41 L323.01,143.87 L323.33,143.31 L323.66,142.74 L323.98,142.16 L324.30,141.57 L324.62,140.97 L324.95,140.36 L325.27,139.74 L325.59,139.10 L325.91,138.45 L326.23,137.79 L326.56,137.11 L326.88,136.41 L327.20,135.70 L327.52,134.96 L327.85,134.21 L328.17,133.44 L328.49,132.64 L328.81,131.82 L329.14,130.97 L329.46,130.08 L329.78,129.17 L330.10,128.22 L330.42,127.22 L330.75,126.18 L331.07,125.08 L331.39,123.91 L331.71,122.67 L332.04,121.34 L332.36,119.88 L332.68,118.26 L333.00,116.43 L333.32,114.25 L333.65,111.40 L333.97,104.51" style="stroke-width: 2; stroke: rgb(0, 0, 0); stroke-opacity: 1;"/><g><circle cx="289.9500376803398" cy="104.50715186754925" r="2.5" style="stroke-width: 3; stroke: rgb(0, 0, 0); stroke-opacity: 1; fill: rgb(245, 130, 49); fill-opacity: 0.15;"/><circle cx="115.67860679826586" cy="104.50715186754925" r="2.5" style="stroke-width: 3; stroke: rgb(0, 0, 0); stroke-opacity: 1; fill: rgb(245, 130, 49); fill-opacity: 0.15;"/></g><g><g class="arrow-line"><path class="vector-plot real" stroke-dasharray="" d="  M289.95,104.51 L202.81,6.14" style="stroke: rgb(0, 0, 0); stroke-opacity: 1; stroke-width: 2;"/></g></g><g><g class="arrow-line"><path class="vector-plot real" stroke-dasharray="" d="  M115.68,104.51 L202.81,6.14" style="stroke: rgb(0, 0, 0); stroke-opacity: 1; stroke-width: 2;"/></g></g><g><g class="arrow-line"><path class="vector-plot real" stroke-dasharray="" d="  M71.66,104.51 L333.97,104.51" style="stroke: rgb(0, 0, 0); stroke-opacity: 1; stroke-width: 2;"/></g></g><g><g class="arrow-line"><path class="vector-plot real" stroke-dasharray="" d="  M202.81,202.87 L202.81,6.14" style="stroke: rgb(0, 0, 0); stroke-opacity: 1; stroke-width: 2;"/></g></g><g><g class="arrow-line"><path class="vector-plot real" stroke-dasharray="" d="  M119.68,219.27 L329.97,219.27" style="stroke: rgb(0, 0, 0); stroke-opacity: 1; stroke-width: 2;"/><g stroke="none" fill="rgb(0,0,0)" fill-opacity="1" transform="matrix(-1,1.2246467991473532e-16,-1.2246467991473532e-16,-1,333.96873870746754,219.26726627719336)" style="stroke: none; fill: rgb(0, 0, 0); stroke-width: 2;"><path d=" M15.6,-3.9 L0,0 L15.6,3.9 Z"/></g><g stroke="none" fill="rgb(0,0,0)" fill-opacity="1" transform="matrix(1,0,0,1,115.67860679826586,219.2672662771934)" style="stroke: none; fill: rgb(0, 0, 0); stroke-width: 2;"><path d=" M15.6,-3.9 L0,0 L15.6,3.9 Z"/></g></g></g><g><g class="arrow-line"><path class="vector-plot real" stroke-dasharray="" d="  M75.66,219.27 L111.68,219.27" style="stroke: rgb(0, 0, 0); stroke-opacity: 1; stroke-width: 2;"/><g stroke="none" fill="rgb(0,0,0)" fill-opacity="1" transform="matrix(-1,1.2246467991473532e-16,-1.2246467991473532e-16,-1,115.67860679826586,219.2672662771934)" style="stroke: none; fill: rgb(0, 0, 0); stroke-width: 2;"><path d=" M15.6,-3.9 L0,0 L15.6,3.9 Z"/></g><g stroke="none" fill="rgb(0,0,0)" fill-opacity="1" transform="matrix(1,0,0,1,71.65990577113809,219.2672662771934)" style="stroke: none; fill: rgb(0, 0, 0); stroke-width: 2;"><path d=" M15.6,-3.9 L0,0 L15.6,3.9 Z"/></g></g></g><g><g class="arrow-line"><path class="vector-plot real" stroke-dasharray="" d="  M71.66,104.51 L71.66,235.66" style="stroke: rgb(0, 0, 0); stroke-opacity: 1; stroke-width: 1;"/></g></g><g><g class="arrow-line"><path class="vector-plot real" stroke-dasharray="" d="  M115.68,104.51 L115.68,235.66" style="stroke: rgb(0, 0, 0); stroke-opacity: 1; stroke-width: 1;"/></g></g><g><g class="arrow-line"><path class="vector-plot real" stroke-dasharray="" d="  M333.97,104.51 L333.97,235.66" style="stroke: rgb(0, 0, 0); stroke-opacity: 1; stroke-width: 1;"/></g></g></g></g><rect class="real" x="1" y="1" width="405.5" height="239.50000000000006" style="fill: transparent; stroke: none;"/></g></g></g><g/></g><g/><g/><g/></svg>
        <svg xmlns="http://www.w3.org/2000/svg" xmlns:xlink="http://www.w3.org/1999/xlink" width="660" height="251.328125" style="width:660px;height:251.328125px;font-family:Asana-Math, Asana;background:transparent;"><g><g><g><g transform="matrix(1,0,0,1,214.5,238.328125)"><path transform="matrix(0.017,0,0,-0.017,0,0)" d="M368 365C371 403 376 435 384 476C373 481 369 482 364 482C333 482 302 458 266 407C227 351 188 291 172 256L204 408C208 425 210 438 210 450C210 470 202 482 187 482C166 482 128 461 54 408L26 388L33 368L65 389C93 407 104 412 113 412C123 412 130 403 130 390C130 332 87 126 47 -2L57 -9C72 -4 88 -1 111 4L124 6L150 126C168 209 191 262 235 319C269 363 296 384 318 384C333 384 343 379 354 365Z" stroke="rgb(0,0,0)" stroke-opacity="1" stroke-width="8" fill="rgb(0,0,0)" fill-opacity="1"></path></g></g><g><g><g><g><g transform="matrix(1,0,0,1,221.609375,241.8296875)"><path transform="matrix(0.0119,0,0,-0.0119,0,0)" d="M176 -11C232 -11 347 62 390 125C431 186 465 296 465 371C465 438 442 482 406 482C364 482 311 456 259 409C218 374 198 348 162 289L186 408C189 425 191 440 191 452C191 471 183 482 169 482C148 482 110 461 36 408L8 388L15 368L47 389C75 407 86 412 95 412C105 412 112 403 112 389C112 381 110 361 108 351L50 8C40 -52 21 -143 1 -233L-7 -270L0 -276C21 -269 41 -264 73 -259L115 3C136 -4 158 -11 176 -11ZM143 165C165 293 272 424 355 424C381 424 393 402 393 356C393 275 353 156 300 80C280 51 248 36 207 36C176 36 151 43 125 59Z" stroke="rgb(0,0,0)" stroke-opacity="1" stroke-width="8" fill="rgb(0,0,0)" fill-opacity="1"></path></g></g></g></g></g></g></g><g><g><g><g transform="matrix(1,0,0,1,345.1640625,237)"><path transform="matrix(0.017,0,0,-0.017,0,0)" d="M368 365C371 403 376 435 384 476C373 481 369 482 364 482C333 482 302 458 266 407C227 351 188 291 172 256L204 408C208 425 210 438 210 450C210 470 202 482 187 482C166 482 128 461 54 408L26 388L33 368L65 389C93 407 104 412 113 412C123 412 130 403 130 390C130 332 87 126 47 -2L57 -9C72 -4 88 -1 111 4L124 6L150 126C168 209 191 262 235 319C269 363 296 384 318 384C333 384 343 379 354 365Z" stroke="rgb(0,0,0)" stroke-opacity="1" stroke-width="8" fill="rgb(0,0,0)" fill-opacity="1"></path></g></g><g><g><g><g><g transform="matrix(1,0,0,1,352.2734375,240.5015625)"><path transform="matrix(0.0119,0,0,-0.0119,0,0)" d="M271 204L242 77C238 60 236 42 236 26C236 4 245 -9 260 -9C283 -9 324 17 406 85L399 106C375 86 346 59 324 59C315 59 309 68 309 82C309 87 309 90 310 93L402 472L392 481L359 463C318 478 301 482 274 482C246 482 226 477 199 464C137 433 104 403 79 354C35 265 4 145 4 67C4 23 19 -11 38 -11C75 -11 155 41 271 204ZM319 414C297 305 278 253 244 201C187 117 126 59 94 59C82 59 76 72 76 99C76 163 104 280 139 360C163 415 186 433 234 433C257 433 275 429 319 414Z" stroke="rgb(0,0,0)" stroke-opacity="1" stroke-width="8" fill="rgb(0,0,0)" fill-opacity="1"></path></g></g></g></g></g></g></g><g><g><g><g transform="matrix(1,0,0,1,269.1640625,56.6640625)"><path transform="matrix(0.017,0,0,-0.017,0,0)" d="M271 204L242 77C238 60 236 42 236 26C236 4 245 -9 260 -9C283 -9 324 17 406 85L399 106C375 86 346 59 324 59C315 59 309 68 309 82C309 87 309 90 310 93L402 472L392 481L359 463C318 478 301 482 274 482C246 482 226 477 199 464C137 433 104 403 79 354C35 265 4 145 4 67C4 23 19 -11 38 -11C75 -11 155 41 271 204ZM319 414C297 305 278 253 244 201C187 117 126 59 94 59C82 59 76 72 76 99C76 163 104 280 139 360C163 415 186 433 234 433C257 433 275 429 319 414Z" stroke="rgb(0,0,0)" stroke-opacity="1" stroke-width="8" fill="rgb(0,0,0)" fill-opacity="1"></path></g></g></g></g><g><g><g><g transform="matrix(1,0,0,1,291.828125,102)"><path transform="matrix(0.017,0,0,-0.017,0,0)" d="M342 330L365 330C373 395 380 432 389 458C365 473 330 482 293 482C248 483 175 463 118 400C64 352 25 241 25 136C25 40 67 -11 147 -11C201 -11 249 9 304 54L354 95L346 115L331 105C259 57 221 40 186 40C130 40 101 80 101 159C101 267 136 371 185 409C206 425 230 433 261 433C306 433 342 414 342 390Z" stroke="rgb(0,0,0)" stroke-opacity="1" stroke-width="8" fill="rgb(0,0,0)" fill-opacity="1"></path></g></g></g></g><g><g><g><g transform="matrix(1,0,0,1,333.1640625,72)"><path transform="matrix(0.017,0,0,-0.017,0,0)" d="M235 722L223 733C171 707 135 698 63 691L59 670L107 670C131 670 141 663 141 646C141 639 140 628 139 622L38 71C37 68 37 64 37 61C37 22 85 -11 140 -11C177 -11 228 8 271 39C367 107 433 244 433 376C433 414 424 453 412 468C405 477 392 482 377 482C353 482 323 474 295 460C244 433 211 403 149 324ZM322 424C348 424 361 401 361 352C361 288 340 202 310 137C277 68 237 36 183 36C137 36 112 59 112 101C112 135 127 276 208 361C241 395 293 424 322 424Z" stroke="rgb(0,0,0)" stroke-opacity="1" stroke-width="8" fill="rgb(0,0,0)" fill-opacity="1"></path></g></g></g></g></svg>
</svg>
