<svg xmlns="http://www.w3.org/2000/svg" xmlns:xlink="http://www.w3.org/1999/xlink" x="0" y="0" width="662" height="244" style="
        width:662px;
        height:244px;
        background: transparent;
        fill: none;
">
        
        
        <svg xmlns="http://www.w3.org/2000/svg" class="role-diagram-draw-area"><g class="shapes-region" style="stroke: black; fill: none;"><g class="grouped-shape"><g class="composite-shape" data-amt="diagram/shapes/plot" transform="matrix(1,0,0,1,43.99999999999993,6.041666666666671)"><g><g/><g><g class="test-plot-expression"><defs><clipPath id="cpb3chcfmcm"><rect x="1" y="1" width="609.0000000000001" height="207.33333333333337"/></clipPath></defs><g clip-path="url(#cpb3chcfmcm)"><g><g class="arrow-line"><path class="vector-plot real" stroke-dasharray="" d="  M50.39,190.75 L580.23,190.75" style="stroke: rgb(0, 0, 0); stroke-opacity: 1; stroke-width: 2;"/><g stroke="none" fill="rgb(0,0,0)" fill-opacity="1" transform="matrix(-1,1.2246467991473532e-16,-1.2246467991473532e-16,-1,584.2348844520258,190.75218833741124)" style="stroke: none; fill: rgb(0, 0, 0); stroke-width: 2;"><path d=" M11.61,-5.58 L0,0 L11.61,5.58 Z"/></g></g></g><g><g class="arrow-line"><path class="vector-plot real" stroke-dasharray="" d="  M378.91,178.84 L378.91,202.66" style="stroke: rgb(0, 0, 0); stroke-opacity: 1; stroke-width: 1;"/></g></g><g><g class="arrow-line"><path class="vector-plot real" stroke-dasharray="" d="  M543.17,178.84 L543.17,202.66" style="stroke: rgb(0, 0, 0); stroke-opacity: 1; stroke-width: 1;"/></g></g><g><circle cx="50.391814337898" cy="190.75218833741127" r="4" style="stroke-width: 3; stroke: rgb(0, 0, 0); stroke-opacity: 1; fill: rgb(0, 0, 0); fill-opacity: 1;"/><circle cx="378.9106267158228" cy="131.20815359391236" r="4" style="stroke-width: 3; stroke: rgb(0, 0, 0); stroke-opacity: 1; fill: rgb(0, 0, 0); fill-opacity: 1;"/><circle cx="543.1700329047851" cy="71.66411885041347" r="4" style="stroke-width: 3; stroke: rgb(0, 0, 0); stroke-opacity: 1; fill: rgb(0, 0, 0); fill-opacity: 1;"/></g><path d=" M50.39,190.75 L50.86,190.72 L51.33,190.70 L51.79,190.67 L52.26,190.64 L52.73,190.61 L53.19,190.58 L53.66,190.55 L54.13,190.52 L54.60,190.49 L55.06,190.46 L55.53,190.43 L56.00,190.40 L56.46,190.37 L56.93,190.34 L57.40,190.31 L57.86,190.28 L58.33,190.25 L58.80,190.22 L59.27,190.19 L59.73,190.16 L60.20,190.12 L60.67,190.09 L61.13,190.06 L61.60,190.03 L62.07,190.00 L62.54,189.96 L63.00,189.93 L63.47,189.90 L63.94,189.87 L64.40,189.83 L64.87,189.80 L65.34,189.77 L65.81,189.73 L66.27,189.70 L66.74,189.67 L67.21,189.63 L67.67,189.60 L68.14,189.56 L68.61,189.53 L69.07,189.50 L69.54,189.46 L70.01,189.43 L70.48,189.39 L70.94,189.36 L71.41,189.32 L71.88,189.28 L72.34,189.25 L72.81,189.21 L73.28,189.18 L73.75,189.14 L74.21,189.10 L74.68,189.07 L75.15,189.03 L75.61,188.99 L76.08,188.96 L76.55,188.92 L77.01,188.88 L77.48,188.85 L77.95,188.81 L78.42,188.77 L78.88,188.73 L79.35,188.69 L79.82,188.66 L80.28,188.62 L80.75,188.58 L81.22,188.54 L81.69,188.50 L82.15,188.46 L82.62,188.42 L83.09,188.38 L83.55,188.34 L84.02,188.30 L84.49,188.26 L84.96,188.22 L85.42,188.18 L85.89,188.14 L86.36,188.10 L86.82,188.06 L87.29,188.02 L87.76,187.98 L88.22,187.94 L88.69,187.90 L89.16,187.86 L89.63,187.82 L90.09,187.77 L90.56,187.73 L91.03,187.69 L91.49,187.65 L91.96,187.61 L92.43,187.56 L92.90,187.52 L93.36,187.48 L93.83,187.43 L94.30,187.39 L94.76,187.35 L95.23,187.30 L95.70,187.26 L96.16,187.22 L96.63,187.17 L97.10,187.13 L97.57,187.08 L98.03,187.04 L98.50,186.99 L98.97,186.95 L99.43,186.90 L99.90,186.86 L100.37,186.81 L100.84,186.77 L101.30,186.72 L101.77,186.68 L102.24,186.63 L102.70,186.59 L103.17,186.54 L103.64,186.49 L104.10,186.45 L104.57,186.40 L105.04,186.35 L105.51,186.31 L105.97,186.26 L106.44,186.21 L106.91,186.16 L107.37,186.12 L107.84,186.07 L108.31,186.02 L108.78,185.97 L109.24,185.92 L109.71,185.87 L110.18,185.83 L110.64,185.78 L111.11,185.73 L111.58,185.68 L112.05,185.63 L112.51,185.58 L112.98,185.53 L113.45,185.48 L113.91,185.43 L114.38,185.38 L114.85,185.33 L115.31,185.28 L115.78,185.23 L116.25,185.18 L116.72,185.13 L117.18,185.08 L117.65,185.02 L118.12,184.97 L118.58,184.92 L119.05,184.87 L119.52,184.82 L119.99,184.77 L120.45,184.71 L120.92,184.66 L121.39,184.61 L121.85,184.56 L122.32,184.50 L122.79,184.45 L123.25,184.40 L123.72,184.34 L124.19,184.29 L124.66,184.24 L125.12,184.18 L125.59,184.13 L126.06,184.07 L126.52,184.02 L126.99,183.97 L127.46,183.91 L127.93,183.86 L128.39,183.80 L128.86,183.75 L129.33,183.69 L129.79,183.64 L130.26,183.58 L130.73,183.52 L131.20,183.47 L131.66,183.41 L132.13,183.36 L132.60,183.30 L133.06,183.24 L133.53,183.19 L134.00,183.13 L134.46,183.07 L134.93,183.02 L135.40,182.96 L135.87,182.90 L136.33,182.84 L136.80,182.79 L137.27,182.73 L137.73,182.67 L138.20,182.61 L138.67,182.55 L139.14,182.49 L139.60,182.44 L140.07,182.38 L140.54,182.32 L141.00,182.26 L141.47,182.20 L141.94,182.14 L142.40,182.08 L142.87,182.02 L143.34,181.96 L143.81,181.90 L144.27,181.84 L144.74,181.78 L145.21,181.72 L145.67,181.66 L146.14,181.60 L146.61,181.53 L147.08,181.47 L147.54,181.41 L148.01,181.35 L148.48,181.29 L148.94,181.23 L149.41,181.16 L149.88,181.10 L150.34,181.04 L150.81,180.98 L151.28,180.91 L151.75,180.85 L152.21,180.79 L152.68,180.72 L153.15,180.66 L153.61,180.60 L154.08,180.53 L154.55,180.47 L155.02,180.41 L155.48,180.34 L155.95,180.28 L156.42,180.21 L156.88,180.15 L157.35,180.08 L157.82,180.02 L158.29,179.95 L158.75,179.89 L159.22,179.82 L159.69,179.76 L160.15,179.69 L160.62,179.62 L161.09,179.56 L161.55,179.49 L162.02,179.42 L162.49,179.36 L162.96,179.29 L163.42,179.22 L163.89,179.16 L164.36,179.09 L164.82,179.02 L165.29,178.95 L165.76,178.89 L166.23,178.82 L166.69,178.75 L167.16,178.68 L167.63,178.61 L168.09,178.55 L168.56,178.48 L169.03,178.41 L169.49,178.34 L169.96,178.27 L170.43,178.20 L170.90,178.13 L171.36,178.06 L171.83,177.99 L172.30,177.92 L172.76,177.85 L173.23,177.78 L173.70,177.71 L174.17,177.64 L174.63,177.57 L175.10,177.50 L175.57,177.43 L176.03,177.36 L176.50,177.28 L176.97,177.21 L177.44,177.14 L177.90,177.07 L178.37,177.00 L178.84,176.92 L179.30,176.85 L179.77,176.78 L180.24,176.71 L180.70,176.63 L181.17,176.56 L181.64,176.49 L182.11,176.41 L182.57,176.34 L183.04,176.27 L183.51,176.19 L183.97,176.12 L184.44,176.04 L184.91,175.97 L185.38,175.90 L185.84,175.82 L186.31,175.75 L186.78,175.67 L187.24,175.60 L187.71,175.52 L188.18,175.44 L188.64,175.37 L189.11,175.29 L189.58,175.22 L190.05,175.14 L190.51,175.06 L190.98,174.99 L191.45,174.91 L191.91,174.84 L192.38,174.76 L192.85,174.68 L193.32,174.60 L193.78,174.53 L194.25,174.45 L194.72,174.37 L195.18,174.29 L195.65,174.22 L196.12,174.14 L196.58,174.06 L197.05,173.98 L197.52,173.90 L197.99,173.82 L198.45,173.74 L198.92,173.66 L199.39,173.59 L199.85,173.51 L200.32,173.43 L200.79,173.35 L201.26,173.27 L201.72,173.19 L202.19,173.11 L202.66,173.03 L203.12,172.94 L203.59,172.86 L204.06,172.78 L204.53,172.70 L204.99,172.62 L205.46,172.54 L205.93,172.46 L206.39,172.38 L206.86,172.29 L207.33,172.21 L207.79,172.13 L208.26,172.05 L208.73,171.96 L209.20,171.88 L209.66,171.80 L210.13,171.72 L210.60,171.63 L211.06,171.55 L211.53,171.47 L212.00,171.38 L212.47,171.30 L212.93,171.21 L213.40,171.13 L213.87,171.05 L214.33,170.96 L214.80,170.88 L215.27,170.79 L215.73,170.71 L216.20,170.62 L216.67,170.54 L217.14,170.45 L217.60,170.37 L218.07,170.28 L218.54,170.19 L219.00,170.11 L219.47,170.02 L219.94,169.94 L220.41,169.85 L220.87,169.76 L221.34,169.68 L221.81,169.59 L222.27,169.50 L222.74,169.41 L223.21,169.33 L223.68,169.24 L224.14,169.15 L224.61,169.06 L225.08,168.97 L225.54,168.89 L226.01,168.80 L226.48,168.71 L226.94,168.62 L227.41,168.53 L227.88,168.44 L228.35,168.35 L228.81,168.26 L229.28,168.17 L229.75,168.08 L230.21,167.99 L230.68,167.90 L231.15,167.81 L231.62,167.72 L232.08,167.63 L232.55,167.54 L233.02,167.45 L233.48,167.36 L233.95,167.27 L234.42,167.18 L234.88,167.09 L235.35,166.99 L235.82,166.90 L236.29,166.81 L236.75,166.72 L237.22,166.63 L237.69,166.53 L238.15,166.44 L238.62,166.35 L239.09,166.26 L239.56,166.16 L240.02,166.07 L240.49,165.98 L240.96,165.88 L241.42,165.79 L241.89,165.69 L242.36,165.60 L242.82,165.51 L243.29,165.41 L243.76,165.32 L244.23,165.22 L244.69,165.13 L245.16,165.03 L245.63,164.94 L246.09,164.84 L246.56,164.75 L247.03,164.65 L247.50,164.55 L247.96,164.46 L248.43,164.36 L248.90,164.27 L249.36,164.17 L249.83,164.07 L250.30,163.98 L250.77,163.88 L251.23,163.78 L251.70,163.68 L252.17,163.59 L252.63,163.49 L253.10,163.39 L253.57,163.29 L254.03,163.20 L254.50,163.10 L254.97,163.00 L255.44,162.90 L255.90,162.80 L256.37,162.70 L256.84,162.60 L257.30,162.50 L257.77,162.40 L258.24,162.31 L258.71,162.21 L259.17,162.11 L259.64,162.01 L260.11,161.91 L260.57,161.81 L261.04,161.70 L261.51,161.60 L261.97,161.50 L262.44,161.40 L262.91,161.30 L263.38,161.20 L263.84,161.10 L264.31,161.00 L264.78,160.89 L265.24,160.79 L265.71,160.69 L266.18,160.59 L266.65,160.49 L267.11,160.38 L267.58,160.28 L268.05,160.18 L268.51,160.07 L268.98,159.97 L269.45,159.87 L269.92,159.76 L270.38,159.66 L270.85,159.56 L271.32,159.45 L271.78,159.35 L272.25,159.24 L272.72,159.14 L273.18,159.03 L273.65,158.93 L274.12,158.82 L274.59,158.72 L275.05,158.61 L275.52,158.51 L275.99,158.40 L276.45,158.30 L276.92,158.19 L277.39,158.09 L277.86,157.98 L278.32,157.87 L278.79,157.77 L279.26,157.66 L279.72,157.55 L280.19,157.45 L280.66,157.34 L281.12,157.23 L281.59,157.12 L282.06,157.02 L282.53,156.91 L282.99,156.80 L283.46,156.69 L283.93,156.58 L284.39,156.47 L284.86,156.37 L285.33,156.26 L285.80,156.15 L286.26,156.04 L286.73,155.93 L287.20,155.82 L287.66,155.71 L288.13,155.60 L288.60,155.49 L289.06,155.38 L289.53,155.27 L290.00,155.16 L290.47,155.05 L290.93,154.94 L291.40,154.83 L291.87,154.72 L292.33,154.60 L292.80,154.49 L293.27,154.38 L293.74,154.27 L294.20,154.16 L294.67,154.05 L295.14,153.93 L295.60,153.82 L296.07,153.71 L296.54,153.60 L297.01,153.48 L297.47,153.37 L297.94,153.26 L298.41,153.14 L298.87,153.03 L299.34,152.92 L299.81,152.80 L300.27,152.69 L300.74,152.57 L301.21,152.46 L301.68,152.35 L302.14,152.23 L302.61,152.12 L303.08,152.00 L303.54,151.89 L304.01,151.77 L304.48,151.66 L304.95,151.54 L305.41,151.42 L305.88,151.31 L306.35,151.19 L306.81,151.08 L307.28,150.96 L307.75,150.84 L308.21,150.73 L308.68,150.61 L309.15,150.49 L309.62,150.37 L310.08,150.26 L310.55,150.14 L311.02,150.02 L311.48,149.90 L311.95,149.79 L312.42,149.67 L312.89,149.55 L313.35,149.43 L313.82,149.31 L314.29,149.19 L314.75,149.07 L315.22,148.96 L315.69,148.84 L316.16,148.72 L316.62,148.60 L317.09,148.48 L317.56,148.36 L318.02,148.24 L318.49,148.12 L318.96,148.00 L319.42,147.88 L319.89,147.76 L320.36,147.63 L320.83,147.51 L321.29,147.39 L321.76,147.27 L322.23,147.15 L322.69,147.03 L323.16,146.91 L323.63,146.78 L324.10,146.66 L324.56,146.54 L325.03,146.42 L325.50,146.29 L325.96,146.17 L326.43,146.05 L326.90,145.93 L327.36,145.80 L327.83,145.68 L328.30,145.55 L328.77,145.43 L329.23,145.31 L329.70,145.18 L330.17,145.06 L330.63,144.93 L331.10,144.81 L331.57,144.69 L332.04,144.56 L332.50,144.44 L332.97,144.31 L333.44,144.18 L333.90,144.06 L334.37,143.93 L334.84,143.81 L335.30,143.68 L335.77,143.56 L336.24,143.43 L336.71,143.30 L337.17,143.18 L337.64,143.05 L338.11,142.92 L338.57,142.79 L339.04,142.67 L339.51,142.54 L339.98,142.41 L340.44,142.28 L340.91,142.16 L341.38,142.03 L341.84,141.90 L342.31,141.77 L342.78,141.64 L343.25,141.51 L343.71,141.39 L344.18,141.26 L344.65,141.13 L345.11,141.00 L345.58,140.87 L346.05,140.74 L346.51,140.61 L346.98,140.48 L347.45,140.35 L347.92,140.22 L348.38,140.09 L348.85,139.96 L349.32,139.83 L349.78,139.69 L350.25,139.56 L350.72,139.43 L351.19,139.30 L351.65,139.17 L352.12,139.04 L352.59,138.91 L353.05,138.77 L353.52,138.64 L353.99,138.51 L354.45,138.38 L354.92,138.24 L355.39,138.11 L355.86,137.98 L356.32,137.84 L356.79,137.71 L357.26,137.58 L357.72,137.44 L358.19,137.31 L358.66,137.18 L359.13,137.04 L359.59,136.91 L360.06,136.77 L360.53,136.64 L360.99,136.50 L361.46,136.37 L361.93,136.23 L362.40,136.10 L362.86,135.96 L363.33,135.83 L363.80,135.69 L364.26,135.55 L364.73,135.42 L365.20,135.28 L365.66,135.15 L366.13,135.01 L366.60,134.87 L367.07,134.73 L367.53,134.60 L368.00,134.46 L368.47,134.32 L368.93,134.19 L369.40,134.05 L369.87,133.91 L370.34,133.77 L370.80,133.63 L371.27,133.49 L371.74,133.36 L372.20,133.22 L372.67,133.08 L373.14,132.94 L373.60,132.80 L374.07,132.66 L374.54,132.52 L375.01,132.38 L375.47,132.24 L375.94,132.10 L376.41,131.96 L376.87,131.82 L377.34,131.68 L377.81,131.54 L378.28,131.40 L378.74,131.26 L379.21,131.12 L379.68,130.98 L380.14,130.84 L380.61,130.69 L381.08,130.55 L381.54,130.41 L382.01,130.27 L382.48,130.13 L382.95,129.98 L383.41,129.84 L383.88,129.70 L384.35,129.55 L384.81,129.41 L385.28,129.27 L385.75,129.13 L386.22,128.98 L386.68,128.84 L387.15,128.69 L387.62,128.55 L388.08,128.41 L388.55,128.26 L389.02,128.12 L389.49,127.97 L389.95,127.83 L390.42,127.68 L390.89,127.54 L391.35,127.39 L391.82,127.25 L392.29,127.10 L392.75,126.96 L393.22,126.81 L393.69,126.66 L394.16,126.52 L394.62,126.37 L395.09,126.22 L395.56,126.08 L396.02,125.93 L396.49,125.78 L396.96,125.64 L397.43,125.49 L397.89,125.34 L398.36,125.19 L398.83,125.05 L399.29,124.90 L399.76,124.75 L400.23,124.60 L400.69,124.45 L401.16,124.30 L401.63,124.16 L402.10,124.01 L402.56,123.86 L403.03,123.71 L403.50,123.56 L403.96,123.41 L404.43,123.26 L404.90,123.11 L405.37,122.96 L405.83,122.81 L406.30,122.66 L406.77,122.51 L407.23,122.36 L407.70,122.21 L408.17,122.06 L408.64,121.90 L409.10,121.75 L409.57,121.60 L410.04,121.45 L410.50,121.30 L410.97,121.15 L411.44,120.99 L411.90,120.84 L412.37,120.69 L412.84,120.54 L413.31,120.38 L413.77,120.23 L414.24,120.08 L414.71,119.92 L415.17,119.77 L415.64,119.62 L416.11,119.46 L416.58,119.31 L417.04,119.15 L417.51,119.00 L417.98,118.85 L418.44,118.69 L418.91,118.54 L419.38,118.38 L419.84,118.23 L420.31,118.07 L420.78,117.92 L421.25,117.76 L421.71,117.60 L422.18,117.45 L422.65,117.29 L423.11,117.14 L423.58,116.98 L424.05,116.82 L424.52,116.67 L424.98,116.51 L425.45,116.35 L425.92,116.20 L426.38,116.04 L426.85,115.88 L427.32,115.72 L427.78,115.57 L428.25,115.41 L428.72,115.25 L429.19,115.09 L429.65,114.93 L430.12,114.77 L430.59,114.62 L431.05,114.46 L431.52,114.30 L431.99,114.14 L432.46,113.98 L432.92,113.82 L433.39,113.66 L433.86,113.50 L434.32,113.34 L434.79,113.18 L435.26,113.02 L435.73,112.86 L436.19,112.70 L436.66,112.54 L437.13,112.38 L437.59,112.21 L438.06,112.05 L438.53,111.89 L438.99,111.73 L439.46,111.57 L439.93,111.41 L440.40,111.24 L440.86,111.08 L441.33,110.92 L441.80,110.76 L442.26,110.59 L442.73,110.43 L443.20,110.27 L443.67,110.10 L444.13,109.94 L444.60,109.78 L445.07,109.61 L445.53,109.45 L446.00,109.29 L446.47,109.12 L446.93,108.96 L447.40,108.79 L447.87,108.63 L448.34,108.46 L448.80,108.30 L449.27,108.13 L449.74,107.97 L450.20,107.80 L450.67,107.64 L451.14,107.47 L451.61,107.30 L452.07,107.14 L452.54,106.97 L453.01,106.81 L453.47,106.64 L453.94,106.47 L454.41,106.31 L454.87,106.14 L455.34,105.97 L455.81,105.80 L456.28,105.64 L456.74,105.47 L457.21,105.30 L457.68,105.13 L458.14,104.96 L458.61,104.80 L459.08,104.63 L459.55,104.46 L460.01,104.29 L460.48,104.12 L460.95,103.95 L461.41,103.78 L461.88,103.61 L462.35,103.44 L462.82,103.27 L463.28,103.10 L463.75,102.93 L464.22,102.76 L464.68,102.59 L465.15,102.42 L465.62,102.25 L466.08,102.08 L466.55,101.91 L467.02,101.74 L467.49,101.57 L467.95,101.39 L468.42,101.22 L468.89,101.05 L469.35,100.88 L469.82,100.71 L470.29,100.53 L470.76,100.36 L471.22,100.19 L471.69,100.02 L472.16,99.84 L472.62,99.67 L473.09,99.50 L473.56,99.32 L474.02,99.15 L474.49,98.97 L474.96,98.80 L475.43,98.63 L475.89,98.45 L476.36,98.28 L476.83,98.10 L477.29,97.93 L477.76,97.75 L478.23,97.58 L478.70,97.40 L479.16,97.23 L479.63,97.05 L480.10,96.88 L480.56,96.70 L481.03,96.52 L481.50,96.35 L481.97,96.17 L482.43,95.99 L482.90,95.82 L483.37,95.64 L483.83,95.46 L484.30,95.29 L484.77,95.11 L485.23,94.93 L485.70,94.75 L486.17,94.58 L486.64,94.40 L487.10,94.22 L487.57,94.04 L488.04,93.86 L488.50,93.68 L488.97,93.51 L489.44,93.33 L489.91,93.15 L490.37,92.97 L490.84,92.79 L491.31,92.61 L491.77,92.43 L492.24,92.25 L492.71,92.07 L493.17,91.89 L493.64,91.71 L494.11,91.53 L494.58,91.35 L495.04,91.17 L495.51,90.98 L495.98,90.80 L496.44,90.62 L496.91,90.44 L497.38,90.26 L497.85,90.08 L498.31,89.89 L498.78,89.71 L499.25,89.53 L499.71,89.35 L500.18,89.17 L500.65,88.98 L501.11,88.80 L501.58,88.62 L502.05,88.43 L502.52,88.25 L502.98,88.07 L503.45,87.88 L503.92,87.70 L504.38,87.51 L504.85,87.33 L505.32,87.15 L505.79,86.96 L506.25,86.78 L506.72,86.59 L507.19,86.41 L507.65,86.22 L508.12,86.04 L508.59,85.85 L509.06,85.66 L509.52,85.48 L509.99,85.29 L510.46,85.11 L510.92,84.92 L511.39,84.73 L511.86,84.55 L512.32,84.36 L512.79,84.17 L513.26,83.98 L513.73,83.80 L514.19,83.61 L514.66,83.42 L515.13,83.23 L515.59,83.05 L516.06,82.86 L516.53,82.67 L517.00,82.48 L517.46,82.29 L517.93,82.10 L518.40,81.92 L518.86,81.73 L519.33,81.54 L519.80,81.35 L520.26,81.16 L520.73,80.97 L521.20,80.78 L521.67,80.59 L522.13,80.40 L522.60,80.21 L523.07,80.02 L523.53,79.83 L524.00,79.64 L524.47,79.44 L524.94,79.25 L525.40,79.06 L525.87,78.87 L526.34,78.68 L526.80,78.49 L527.27,78.30 L527.74,78.10 L528.21,77.91 L528.67,77.72 L529.14,77.53 L529.61,77.33 L530.07,77.14 L530.54,76.95 L531.01,76.75 L531.47,76.56 L531.94,76.37 L532.41,76.17 L532.88,75.98 L533.34,75.78 L533.81,75.59 L534.28,75.40 L534.74,75.20 L535.21,75.01 L535.68,74.81 L536.15,74.62 L536.61,74.42 L537.08,74.23 L537.55,74.03 L538.01,73.84 L538.48,73.64 L538.95,73.44 L539.41,73.25 L539.88,73.05 L540.35,72.85 L540.82,72.66 L541.28,72.46 L541.75,72.26 L542.22,72.07 L542.68,71.87 L543.15,71.67 L543.62,71.47 L544.09,71.28 L544.55,71.08 L545.02,70.88 L545.49,70.68 L545.95,70.48 L546.42,70.29 L546.89,70.09 L547.35,69.89 L547.82,69.69 L548.29,69.49 L548.76,69.29 L549.22,69.09 L549.69,68.89 L550.16,68.69 L550.62,68.49 L551.09,68.29 L551.56,68.09 L552.03,67.89 L552.49,67.69 L552.96,67.49 L553.43,67.29 L553.89,67.09 L554.36,66.89 L554.83,66.68 L555.30,66.48 L555.76,66.28 L556.23,66.08 L556.70,65.88 L557.16,65.67 L557.63,65.47 L558.10,65.27 L558.56,65.07 L559.03,64.86 L559.50,64.66 L559.97,64.46 L560.43,64.25 L560.90,64.05 L561.37,63.85 L561.83,63.64 L562.30,63.44 L562.77,63.23 L563.24,63.03 L563.70,62.83" style="stroke-width: 2; stroke: rgb(0, 0, 0); stroke-opacity: 1;"/><g><g class="arrow-line"><path class="vector-plot real" stroke-dasharray="" d="  M50.39,190.75 L50.39,16.12" style="stroke: rgb(0, 0, 0); stroke-opacity: 1; stroke-width: 2;"/><g stroke="none" fill="rgb(0,0,0)" fill-opacity="1" transform="matrix(3.061616997868383e-16,1,-1,3.061616997868383e-16,50.391814337898,12.120084106914646)" style="stroke: none; fill: rgb(0, 0, 0); stroke-width: 2;"><path d=" M11.61,-5.58 L0,0 L11.61,5.58 Z"/></g></g></g><g><g class="arrow-line"><path class="vector-plot real" stroke-dasharray="" d="  M50.39,178.84 L50.39,202.66" style="stroke: rgb(0, 0, 0); stroke-opacity: 1; stroke-width: 1;"/></g></g><g><g class="arrow-line"><path class="vector-plot real" stroke-dasharray="" d="  M378.91,190.75 L378.91,131.21" style="stroke: rgb(0, 0, 0); stroke-opacity: 1; stroke-width: 1; stroke-dasharray: 6, 6;"/></g></g><g><g class="arrow-line"><path class="vector-plot real" stroke-dasharray="" d="  M543.17,190.75 L543.17,71.66" style="stroke: rgb(0, 0, 0); stroke-opacity: 1; stroke-width: 1; stroke-dasharray: 6, 6;"/></g></g><g><g class="arrow-line"><path class="vector-plot real" stroke-dasharray="" d="  M50.39,131.21 L378.91,131.21" style="stroke: rgb(0, 0, 0); stroke-opacity: 1; stroke-width: 1; stroke-dasharray: 6, 6;"/></g></g><g><g class="arrow-line"><path class="vector-plot real" stroke-dasharray="" d="  M36.02,131.21 L64.76,131.21" style="stroke: rgb(0, 0, 0); stroke-opacity: 1; stroke-width: 1;"/></g></g><g><g class="arrow-line"><path class="vector-plot real" stroke-dasharray="" d="  M36.02,71.66 L64.76,71.66" style="stroke: rgb(0, 0, 0); stroke-opacity: 1; stroke-width: 1;"/></g></g><g><g class="arrow-line"><path class="vector-plot real" stroke-dasharray="" d="  M50.39,71.66 L543.17,71.66" style="stroke: rgb(0, 0, 0); stroke-opacity: 1; stroke-width: 1; stroke-dasharray: 6, 6;"/></g></g></g></g><rect class="real" x="1" y="1" width="609.0000000000001" height="207.33333333333337" style="fill: transparent; stroke: none;"/></g></g></g></g><g/></g><g/><g/><g/></svg>
        <svg xmlns="http://www.w3.org/2000/svg" xmlns:xlink="http://www.w3.org/1999/xlink" width="660" height="242" style="width:660px;height:242px;font-family:Asana-Math, Asana;background:transparent;"><g><g><g><g transform="matrix(1,0,0,1,60.5,145)"><path transform="matrix(0.017,0,0,-0.017,0,0)" d="M418 -3L418 27L366 30C311 33 301 44 301 96L301 700L60 598L67 548L217 614L217 96C217 44 206 33 152 30L96 27L96 -3C250 0 250 0 261 0C292 0 402 -3 418 -3Z" stroke="rgb(0,0,0)" stroke-opacity="1" stroke-width="8" fill="rgb(0,0,0)" fill-opacity="1"></path></g></g></g></g><g><g><g><g transform="matrix(1,0,0,1,61.1640625,85.328125)"><path transform="matrix(0.017,0,0,-0.017,0,0)" d="M16 23L16 -3C203 -3 203 0 239 0C275 0 275 -3 468 -3L468 82C353 77 307 81 122 77L304 270C401 373 431 428 431 503C431 618 353 689 226 689C154 689 105 669 56 619L39 483L68 483L81 529C97 587 133 612 200 612C286 612 341 558 341 473C341 398 299 324 186 204Z" stroke="rgb(0,0,0)" stroke-opacity="1" stroke-width="8" fill="rgb(0,0,0)" fill-opacity="1"></path></g></g></g></g><g><g><g><g transform="matrix(1,0,0,1,10.5,28.328125)"><path transform="matrix(0.017,0,0,-0.017,0,0)" d="M9 1C24 -7 40 -11 52 -11C85 -11 124 18 155 65L231 182L242 113C255 28 278 -11 314 -11C336 -11 368 6 400 35L449 79L440 98C404 68 379 53 363 53C348 53 335 63 325 83C316 102 305 139 300 168L282 269L317 318C364 383 391 406 422 406C438 406 450 398 455 383L469 387L484 472C472 479 463 482 454 482C414 482 374 446 312 354L275 299L269 347C257 446 230 482 171 482C145 482 123 474 114 461L56 378L73 368C103 402 123 416 142 416C175 416 197 375 214 277L225 215L185 153C142 86 108 54 80 54C65 54 54 58 52 63L41 91L21 88C21 53 13 27 9 1Z" stroke="rgb(0,0,0)" stroke-opacity="1" stroke-width="8" fill="rgb(0,0,0)" fill-opacity="1"></path></g></g><g><g transform="matrix(1,0,0,1,23.21875,28.828125)"><path transform="matrix(0.017,0,0,-0.017,0,0)" d="M146 266C146 526 243 632 301 700L282 726C225 675 60 542 60 266C60 159 85 58 133 -32C168 -99 200 -138 282 -215L301 -194C255 -137 146 -15 146 266Z" stroke="rgb(0,0,0)" stroke-opacity="1" stroke-width="8" fill="rgb(0,0,0)" fill-opacity="1"></path></g></g><g><g transform="matrix(1,0,0,1,28.8671875,28.328125)"><path transform="matrix(0.017,0,0,-0.017,0,0)" d="M263 689C108 689 29 566 29 324C29 207 50 106 85 57C120 8 176 -20 238 -20C389 -20 465 110 465 366C465 585 400 689 263 689ZM245 654C342 654 381 556 381 316C381 103 343 15 251 15C154 15 113 116 113 360C113 571 150 654 245 654ZM623 111C593 111 566 83 566 53C566 23 593 -5 622 -5C654 -5 682 22 682 53C682 83 654 111 623 111ZM1166 -3L1166 27L1114 30C1059 33 1049 44 1049 96L1049 700L808 598L815 548L965 614L965 96C965 44 954 33 900 30L844 27L844 -3C998 0 998 0 1009 0C1040 0 1150 -3 1166 -3ZM2226 103L2200 86C2171 67 2149 56 2139 56C2132 56 2126 65 2126 76C2126 86 2128 95 2133 116L2208 413C2212 430 2215 446 2215 454C2215 471 2205 482 2189 482C2160 482 2122 464 2061 421C1998 376 1963 341 1914 272L1944 409C1948 429 1951 444 1951 451C1951 470 1941 482 1925 482C1895 482 1849 460 1794 418C1750 384 1730 363 1665 275L1698 408C1702 424 1704 439 1704 451C1704 470 1695 482 1681 482C1660 482 1622 461 1548 408L1520 388L1527 368C1564 391 1599 414 1606 414C1617 414 1624 404 1624 389C1624 338 1583 145 1542 2L1545 -9L1613 6L1635 108C1659 219 1686 278 1741 338C1783 384 1828 414 1856 414C1863 414 1867 406 1867 393C1867 358 1845 244 1804 69L1788 2L1793 -9L1862 6L1883 113C1899 194 1933 269 1977 318C2032 379 2082 414 2114 414C2122 414 2127 405 2127 389C2127 365 2124 351 2102 264C2062 105 2046 84 2046 31C2046 6 2057 -9 2076 -9C2102 -9 2138 12 2236 85ZM2307 388L2314 368L2346 389C2383 412 2386 414 2393 414C2403 414 2411 404 2411 391C2411 384 2407 361 2403 347L2337 107C2329 76 2324 49 2324 30C2324 6 2335 -9 2354 -9C2380 -9 2416 12 2514 85L2504 103L2478 86C2449 67 2426 56 2417 56C2410 56 2404 66 2404 76C2404 86 2406 95 2411 116L2488 420C2492 437 2494 448 2494 456C2494 473 2485 482 2469 482C2447 482 2410 461 2335 408ZM2501 712C2472 712 2443 679 2443 645C2443 620 2458 604 2482 604C2513 604 2537 633 2537 671C2537 695 2522 712 2501 712ZM2801 722L2789 733C2737 707 2701 698 2629 691L2625 670L2673 670C2697 670 2707 663 2707 648C2707 645 2707 640 2704 622C2693 567 2620 182 2605 132C2592 82 2586 52 2586 31C2586 6 2597 -9 2616 -9C2642 -9 2678 12 2776 85L2766 103L2740 86C2711 67 2689 56 2679 56C2672 56 2666 66 2666 76C2666 82 2667 89 2670 104ZM3155 111L3131 94C3078 56 3030 36 2994 36C2947 36 2918 73 2918 133C2918 158 2921 185 2926 214C2943 218 3052 248 3077 259C3162 296 3201 342 3201 404C3201 451 3167 482 3117 482C3049 496 2939 423 2902 349C2872 299 2842 180 2842 113C2842 35 2886 -11 2958 -11C3015 -11 3071 17 3163 92ZM2940 274C2957 343 2977 386 3006 412C3024 428 3055 440 3079 440C3108 440 3127 420 3127 388C3127 344 3092 297 3040 272C3012 258 2976 247 2931 237Z" stroke="rgb(0,0,0)" stroke-opacity="1" stroke-width="8" fill="rgb(0,0,0)" fill-opacity="1"></path></g></g><g><g transform="matrix(1,0,0,1,83.5234375,28.828125)"><path transform="matrix(0.017,0,0,-0.017,0,0)" d="M51 726L32 700C87 636 187 526 187 266C187 -10 83 -131 32 -194L51 -215C104 -165 273 -23 273 265C273 542 108 675 51 726Z" stroke="rgb(0,0,0)" stroke-opacity="1" stroke-width="8" fill="rgb(0,0,0)" fill-opacity="1"></path></g></g></g></g><g><g><g><g transform="matrix(1,0,0,1,613.828125,223)"><path transform="matrix(0.017,0,0,-0.017,0,0)" d="M125 390L69 107C68 99 56 61 56 31C56 6 67 -9 86 -9C121 -9 156 11 234 74L265 99L255 117L210 86C181 66 161 56 150 56C141 56 136 64 136 76C136 102 150 183 179 328L192 390L299 390L310 440C272 436 238 434 200 434C216 528 227 577 245 631L234 646C214 634 187 622 156 610L131 440C87 419 61 408 43 403L41 390Z" stroke="rgb(0,0,0)" stroke-opacity="1" stroke-width="8" fill="rgb(0,0,0)" fill-opacity="1"></path></g></g><g><g transform="matrix(1,0,0,1,623.7109375,223.5)"><path transform="matrix(0.017,0,0,-0.017,0,0)" d="M146 266C146 526 243 632 301 700L282 726C225 675 60 542 60 266C60 159 85 58 133 -32C168 -99 200 -138 282 -215L301 -194C255 -137 146 -15 146 266Z" stroke="rgb(0,0,0)" stroke-opacity="1" stroke-width="8" fill="rgb(0,0,0)" fill-opacity="1"></path></g></g><g><g transform="matrix(1,0,0,1,629.359375,223)"><path transform="matrix(0.017,0,0,-0.017,0,0)" d="M31 148C26 97 20 62 9 16C47 -2 81 -11 116 -11C165 -11 211 7 262 47C313 87 334 124 334 174C334 228 302 257 228 271L185 279C125 290 106 307 106 348C106 401 151 442 208 442C249 442 287 424 303 397L303 342L326 342C330 377 334 404 345 455C306 474 278 482 245 482C193 482 132 452 84 404C58 377 47 352 47 316C47 260 78 228 144 215L207 203C251 195 267 177 267 138C267 73 221 29 150 29C115 29 84 40 56 64L56 148Z" stroke="rgb(0,0,0)" stroke-opacity="1" stroke-width="8" fill="rgb(0,0,0)" fill-opacity="1"></path></g></g><g><g transform="matrix(1,0,0,1,635.9609375,223.5)"><path transform="matrix(0.017,0,0,-0.017,0,0)" d="M51 726L32 700C87 636 187 526 187 266C187 -10 83 -131 32 -194L51 -215C104 -165 273 -23 273 265C273 542 108 675 51 726Z" stroke="rgb(0,0,0)" stroke-opacity="1" stroke-width="8" fill="rgb(0,0,0)" fill-opacity="1"></path></g></g></g></g><g><g><g><g transform="matrix(1,0,0,1,414.5,230.6640625)"><path transform="matrix(0.017,0,0,-0.017,0,0)" d="M418 -3L418 27L366 30C311 33 301 44 301 96L301 700L60 598L67 548L217 614L217 96C217 44 206 33 152 30L96 27L96 -3C250 0 250 0 261 0C292 0 402 -3 418 -3ZM630 331C651 512 740 611 920 665L878 689C782 657 741 637 690 593C587 506 531 384 531 247C531 82 611 -20 740 -20C870 -20 967 83 967 219C967 334 898 409 792 409C715 409 683 370 630 331ZM754 349C830 349 881 283 881 184C881 80 830 13 753 13C668 13 622 86 622 220C622 255 626 274 637 291C659 325 706 349 754 349Z" stroke="rgb(0,0,0)" stroke-opacity="1" stroke-width="8" fill="rgb(0,0,0)" fill-opacity="1"></path></g></g></g></g><g><g><g><g transform="matrix(1,0,0,1,578.5,232)"><path transform="matrix(0.017,0,0,-0.017,0,0)" d="M16 23L16 -3C203 -3 203 0 239 0C275 0 275 -3 468 -3L468 82C353 77 307 81 122 77L304 270C401 373 431 428 431 503C431 618 353 689 226 689C154 689 105 669 56 619L39 483L68 483L81 529C97 587 133 612 200 612C286 612 341 558 341 473C341 398 299 324 186 204ZM779 181L779 106C779 46 768 32 719 30L657 27L657 -3C790 0 790 0 814 0C838 0 838 0 971 -3L971 27L923 30C874 33 863 46 863 106L863 181C922 181 943 180 971 177L971 248L863 245L864 697L784 667L501 204L501 181ZM779 245L564 245L779 597Z" stroke="rgb(0,0,0)" stroke-opacity="1" stroke-width="8" fill="rgb(0,0,0)" fill-opacity="1"></path></g></g></g></g></svg>
</svg>
