<svg xmlns="http://www.w3.org/2000/svg" xmlns:xlink="http://www.w3.org/1999/xlink" x="0" y="0" width="662" height="302" style="
        width:662px;
        height:302px;
        background: transparent;
        fill: none;
">
        
        
        <svg xmlns="http://www.w3.org/2000/svg" class="role-diagram-draw-area"><g class="shapes-region" style="stroke: black; fill: none;"><g class="composite-shape"><path class="real" d=" M450.75,113.62 C450.75,113.91 450.75,114.21 450.75,114.5 C450.75,180.5 396.86,234 330.38,234 C263.89,234 210,180.5 210,114.5 C210,114.28 210,114.07 210,113.85 L330.38,114.5 Z" style="stroke-width: 1; stroke: none; fill: none; fill-opacity: 1;"/><path class="real" d=" M450.75,113.62 C450.75,113.91 450.75,114.21 450.75,114.5 C450.75,180.5 396.86,234 330.38,234 C263.89,234 210,180.5 210,114.5 C210,114.28 210,114.07 210,113.85" style="stroke-width: 1; stroke: rgb(0, 0, 0); fill: none; fill-opacity: 1;"/></g><g class="composite-shape"><path class="real" d=" M206.5,113.85 C206.5,111.92 208.07,110.35 210,110.35 C211.93,110.35 213.5,111.92 213.5,113.85 C213.5,115.78 211.93,117.35 210,117.35 C208.07,117.35 206.5,115.78 206.5,113.85 Z" style="stroke-width: 1; stroke: rgb(0, 0, 0); fill: rgb(0, 0, 0); fill-opacity: 1;"/></g><g class="composite-shape"><path class="real" d=" M275.75,214 C275.75,208.75 280,204.5 285.25,204.5 C290.5,204.5 294.75,208.75 294.75,214 C294.75,219.25 290.5,223.5 285.25,223.5 C280,223.5 275.75,219.25 275.75,214 Z" style="stroke-width: 1; stroke: rgb(0, 0, 0); fill: none; fill-opacity: 1;"/></g><g class="arrow-line"><path class="connection real" stroke-dasharray="" d="  M210,113.85 L279.75,207" style="stroke: rgb(0, 0, 0); stroke-width: 1; fill: none; fill-opacity: 1;"/></g><g class="arrow-line"><path class="connection real" stroke-dasharray="6 6" d="  M210,113.85 L450.75,113.62" style="stroke: rgb(0, 0, 0); stroke-width: 1; fill: none; fill-opacity: 1;"/></g><g/></g><g/><g/><g/></svg>
        <svg xmlns="http://www.w3.org/2000/svg" xmlns:xlink="http://www.w3.org/1999/xlink" width="660" height="300" style="width:660px;height:300px;font-family:Asana-Math, Asana;background:transparent;"><g><g><g><text x="299" y="93" style="white-space:pre;stroke:none;fill:rgb(0,0,0);fill-opacity:1;font-size:15px;font-family:Arial, Helvetica, sans-serif;font-weight:400;font-style:normal;dominant-baseline:text-before-edge;text-decoration:none solid rgb(0, 0, 0);">horizontal</text></g></g></g></svg>
</svg>
