<svg xmlns="http://www.w3.org/2000/svg" xmlns:xlink="http://www.w3.org/1999/xlink" x="0" y="0" width="662" height="239" style="
        width:662px;
        height:239px;
        background: transparent;
        fill: none;
">
        
        
        <svg xmlns="http://www.w3.org/2000/svg" class="role-diagram-draw-area"><g class="shapes-region" style="stroke: black; fill: none;"><g class="composite-shape"><path class="real" d=" M258.83,20.5 C286.36,20.5 308.67,42.81 308.67,70.33 C308.67,81.3 305.12,91.44 299.12,99.67 C290.06,87.24 275.39,79.17 258.83,79.17 C242.28,79.17 227.61,87.24 218.54,99.67 C212.54,91.44 209,81.3 209,70.33 C209,42.81 231.31,20.5 258.83,20.5 Z" style="stroke-width: 1; stroke: rgb(0, 0, 0); fill: none; fill-opacity: 1;"/></g><g class="composite-shape"><path class="real" d=" M209.17,107.17 C210.77,107.17 212.35,107.24 213.92,107.39 C210.77,113.93 209,121.26 209,129 C209,154.92 228.79,176.22 254.08,178.61 C246.03,195.31 228.95,206.83 209.17,206.83 C181.64,206.83 159.33,184.52 159.33,157 C159.33,129.48 181.64,107.17 209.17,107.17 Z" style="stroke-width: 1; stroke: rgb(0, 0, 0); fill: none; fill-opacity: 1;"/></g><g class="composite-shape"><path class="real" d=" M308.83,107.17 C336.36,107.17 358.67,129.48 358.67,157 C358.67,184.52 336.36,206.83 308.83,206.83 C289.04,206.83 271.94,195.3 263.9,178.58 C289.04,176.04 308.67,154.81 308.67,129 C308.67,121.27 306.91,113.95 303.77,107.42 C305.43,107.25 307.12,107.17 308.83,107.17 Z" style="stroke-width: 1; stroke: rgb(0, 0, 0); fill: none; fill-opacity: 1;"/></g><g class="composite-shape"><path class="real" d=" M209,129 C209,101.48 231.31,79.17 258.83,79.17 C286.36,79.17 308.67,101.48 308.67,129 C308.67,156.52 286.36,178.83 258.83,178.83 C231.31,178.83 209,156.52 209,129 Z" style="stroke-width: 1; stroke: rgb(0, 0, 0); fill: none; fill-opacity: 1;"/></g><g class="composite-shape"><path class="real" d=" M159.33,157 C159.33,129.48 181.64,107.17 209.17,107.17 C236.69,107.17 259,129.48 259,157 C259,184.52 236.69,206.83 209.17,206.83 C181.64,206.83 159.33,184.52 159.33,157 Z" style="stroke-width: 1; stroke: rgb(0, 0, 0); fill: none; fill-opacity: 1; stroke-dasharray: 6, 6;"/></g><g class="composite-shape"><path class="real" d=" M209,70.33 C209,42.81 231.31,20.5 258.83,20.5 C286.36,20.5 308.67,42.81 308.67,70.33 C308.67,97.86 286.36,120.17 258.83,120.17 C231.31,120.17 209,97.86 209,70.33 Z" style="stroke-width: 1; stroke: rgb(0, 0, 0); fill: none; fill-opacity: 1; stroke-dasharray: 6, 6;"/></g><g class="composite-shape"><path class="real" d=" M259,157 C259,129.48 281.31,107.17 308.83,107.17 C336.36,107.17 358.67,129.48 358.67,157 C358.67,184.52 336.36,206.83 308.83,206.83 C281.31,206.83 259,184.52 259,157 Z" style="stroke-width: 1; stroke: rgb(0, 0, 0); fill: none; fill-opacity: 1; stroke-dasharray: 6, 6;"/></g><g class="arrow-line"><path class="connection real" stroke-dasharray="" d="  M258.67,79 L258.83,129" style="stroke: rgb(0, 0, 0); stroke-width: 1; fill: none; fill-opacity: 1;"/></g><g class="arrow-line"><path class="connection real" stroke-dasharray="" d="  M258.67,128.83 L302.06,153.96" style="stroke: rgb(0, 0, 0); stroke-width: 1; fill: none; fill-opacity: 1;"/></g><g class="arrow-line"><path class="connection real" stroke-dasharray="" d="  M258.83,129 L215.61,153.96" style="stroke: rgb(0, 0, 0); stroke-width: 1; fill: none; fill-opacity: 1;"/></g><g class="composite-shape"><path class="real" d=" M388.5,157.5 C388.5,129.98 410.81,107.67 438.33,107.67 C465.86,107.67 488.17,129.98 488.17,157.5 C488.17,185.02 465.86,207.33 438.33,207.33 C410.81,207.33 388.5,185.02 388.5,157.5 Z" style="stroke-width: 1; stroke: rgb(0, 0, 0); fill: none; fill-opacity: 1;"/></g><g class="composite-shape"><path class="real" d=" M464.35,115.01 C470.11,118.47 475.11,123.05 479.04,128.44 L438.5,157.5 Z" style="stroke-width: 1; stroke: none; fill: none; fill-opacity: 1;"/><path class="real" d=" M464.35,115.01 C470.11,118.47 475.11,123.05 479.04,128.44" style="stroke-width: 1; stroke: rgb(0, 0, 0); fill: none; fill-opacity: 1;"/></g><g class="arrow-line"><path class="connection real" stroke-dasharray="" d="  M438.5,157.5 L479.04,128.44" style="stroke: rgb(0, 0, 0); stroke-width: 1; fill: none; fill-opacity: 1;"/></g><g class="arrow-line"><path class="connection real" stroke-dasharray="" d="  M438.5,157.5 L464.35,115.01" style="stroke: rgb(0, 0, 0); stroke-width: 1; fill: none; fill-opacity: 1;"/></g><g class="arrow-line"><path class="connection real" stroke-dasharray="" d="  M215.61,153.96 L302.06,153.96" style="stroke: rgb(0, 0, 0); stroke-width: 1; fill: none; fill-opacity: 1;"/></g><g class="arrow-line"><path class="connection real" stroke-dasharray="" d="  M464.35,115.01 L479.04,128.44" style="stroke: rgb(0, 0, 0); stroke-width: 1; fill: none; fill-opacity: 1;"/></g><g class="composite-shape"><path class="real" d=" M232.49,143.57 C234.46,146.57 235.61,150.14 235.61,153.96 C235.61,154.06 235.61,154.15 235.6,154.25 L215.61,153.96 Z" style="stroke-width: 1; stroke: none; fill: none; fill-opacity: 1;"/><path class="real" d=" M232.49,143.57 C234.46,146.57 235.61,150.14 235.61,153.96 C235.61,154.06 235.61,154.15 235.6,154.25" style="stroke-width: 1; stroke: rgb(0, 0, 0); fill: none; fill-opacity: 1;"/></g><g class="composite-shape"><path class="real" d=" M464.39,115.26 L479.04,115.26 L479.04,128.44" style="stroke-width: 1; stroke: rgb(0, 0, 0); fill: none; fill-opacity: 1;"/></g><g class="arrow-line"><path class="connection real" stroke-dasharray="" d="  M438.5,157.5 L488.17,157.5" style="stroke: rgb(0, 0, 0); stroke-width: 1; fill: none; fill-opacity: 1;"/></g><g class="composite-shape"><path class="real" d=" M446.49,144.35 C451.04,147.02 454.08,151.91 454.08,157.5 C454.08,157.59 454.08,157.67 454.08,157.76 L438.5,157.5 Z" style="stroke-width: 1; stroke: none; fill: none; fill-opacity: 1;"/><path class="real" d=" M446.49,144.35 C451.04,147.02 454.08,151.91 454.08,157.5 C454.08,157.59 454.08,157.67 454.08,157.76" style="stroke-width: 1; stroke: rgb(0, 0, 0); fill: none; fill-opacity: 1;"/></g><g class="composite-shape"><path class="real" d=" M472.46,121.7 C474.19,120.26 476.49,119.39 479,119.38 L479.04,128.44 Z" style="stroke-width: 1; stroke: none; fill: none; fill-opacity: 1;"/><path class="real" d=" M472.46,121.7 C474.19,120.26 476.49,119.39 479,119.38" style="stroke-width: 1; stroke: rgb(0, 0, 0); fill: none; fill-opacity: 1;"/></g><g/></g><g/><g/><g/></svg>
        <svg xmlns="http://www.w3.org/2000/svg" xmlns:xlink="http://www.w3.org/1999/xlink" width="660" height="237" style="width:660px;height:237px;font-family:Asana-Math, Asana;background:transparent;"><g><g><g><g transform="matrix(1,0,0,1,485,128.2578125)"><path transform="matrix(0.017,0,0,-0.017,0,0)" d="M-33 6L-28 -4C79 0 185 0 292 0C393 0 494 -1 594 -4L602 6C560 116 534 238 504 354C475 466 442 580 424 697L399 697C336 587 53 127 -33 6ZM482 37L50 37C148 215 249 389 356 564L363 564C408 391 449 215 482 37ZM719 148C714 97 708 62 697 16C735 -2 769 -11 804 -11C853 -11 899 7 950 47C1001 87 1022 124 1022 174C1022 228 990 257 916 271L873 279C813 290 794 307 794 348C794 401 839 442 896 442C937 442 975 424 991 397L991 342L1014 342C1018 377 1022 404 1033 455C994 474 966 482 933 482C881 482 820 452 772 404C746 377 735 352 735 316C735 260 766 228 832 215L895 203C939 195 955 177 955 138C955 73 909 29 838 29C803 29 772 40 744 64L744 148Z" stroke="rgb(0,0,0)" stroke-opacity="1" stroke-width="8" fill="rgb(0,0,0)" fill-opacity="1"></path></g></g></g></g><g><g><g><g transform="matrix(1,0,0,1,231,169)"><path transform="matrix(0.017,0,0,-0.017,0,0)" d="M462 224C462 345 355 366 308 374C388 436 418 482 418 541C418 630 344 689 233 689C165 689 120 670 72 622L43 498L74 498L92 554C103 588 166 622 218 622C283 622 336 569 336 506C336 431 277 368 206 368C198 368 187 369 174 370L159 371L147 318L154 312C192 329 211 334 238 334C321 334 369 281 369 190C369 88 308 21 215 21C169 21 128 36 98 64C74 86 61 109 42 163L15 153C36 92 44 56 50 6C103 -12 147 -20 184 -20C307 -20 462 87 462 224ZM762 689C607 689 528 566 528 324C528 207 549 106 584 57C619 8 675 -20 737 -20C888 -20 964 110 964 366C964 585 899 689 762 689ZM744 654C841 654 880 556 880 316C880 103 842 15 750 15C653 15 612 116 612 360C612 571 649 654 744 654ZM1197 689C1115 689 1048 622 1048 539C1048 456 1115 389 1198 389C1279 389 1348 457 1348 537C1348 621 1281 689 1197 689ZM1197 649C1258 649 1308 599 1308 537C1308 479 1258 429 1198 429C1137 429 1088 478 1088 539C1088 600 1137 649 1197 649Z" stroke="rgb(0,0,0)" stroke-opacity="1" stroke-width="8" fill="rgb(0,0,0)" fill-opacity="1"></path></g></g></g></g><g><g><g><g transform="matrix(1,0,0,1,465,153.5)"><path transform="matrix(0.017,0,0,-0.017,0,0)" d="M237 -16C473 -16 572 316 576 504C578 618 546 702 419 702C159 702 72 412 69 199C67 80 101 -16 237 -16ZM401 676C536 676 506 491 485 381L169 381C194 485 272 676 401 676ZM253 13C102 13 147 261 163 349L479 349C454 237 396 13 253 13Z" stroke="rgb(0,0,0)" stroke-opacity="1" stroke-width="8" fill="rgb(0,0,0)" fill-opacity="1"></path></g></g></g></g><g><g><g><g transform="matrix(1,0,0,1,474,107)"><path transform="matrix(0.017,0,0,-0.017,0,0)" d="M237 -16C473 -16 572 316 576 504C578 618 546 702 419 702C159 702 72 412 69 199C67 80 101 -16 237 -16ZM401 676C536 676 506 491 485 381L169 381C194 485 272 676 401 676ZM253 13C102 13 147 261 163 349L479 349C454 237 396 13 253 13Z" stroke="rgb(0,0,0)" stroke-opacity="1" stroke-width="8" fill="rgb(0,0,0)" fill-opacity="1"></path></g></g></g></g></svg>
</svg>
