<svg xmlns="http://www.w3.org/2000/svg" xmlns:xlink="http://www.w3.org/1999/xlink" x="0" y="0" width="662" height="263.328125" style="
        width:662px;
        height:263.328125px;
        background: transparent;
        fill: none;
">
        
        
        <svg xmlns="http://www.w3.org/2000/svg" class="role-diagram-draw-area"><g class="shapes-region" style="stroke: black; fill: none;"><g class="composite-shape"><path class="real" d=" M80.67,195.53 L552.33,195.53 L552.33,-0.47" style="stroke-width: 2; stroke: rgb(0, 0, 0); fill: none; fill-opacity: 1;"/></g><g class="composite-shape"><path class="real" d=" M512.33,22.86 L552.33,5.67 L552.33,75.67 Z" style="stroke-width: 2; stroke: rgb(0, 0, 0); fill: none; fill-opacity: 1;"/></g><g class="composite-shape"><path class="real" d=" M512.33,162.2 L552.33,111 L552.33,181 Z" style="stroke-width: 2; stroke: rgb(0, 0, 0); fill: none; fill-opacity: 1;"/></g><g class="composite-shape"><path class="real" d=" M497.4,22.86 C497.4,14.62 504.09,7.93 512.33,7.93 C520.58,7.93 527.27,14.62 527.27,22.86 C527.27,31.11 520.58,37.8 512.33,37.8 C504.09,37.8 497.4,31.11 497.4,22.86 Z" style="stroke-width: 2; stroke: rgb(0, 0, 0); fill: none; fill-opacity: 1;"/></g><g class="composite-shape"><path class="real" d=" M497.4,162.2 C497.4,153.95 504.09,147.27 512.33,147.27 C520.58,147.27 527.27,153.95 527.27,162.2 C527.27,170.44 520.58,177.13 512.33,177.13 C504.09,177.13 497.4,170.44 497.4,162.2 Z" style="stroke-width: 2; stroke: rgb(0, 0, 0); fill: none; fill-opacity: 1;"/></g><g class="composite-shape"><defs><!-- react-text: 23295 --> <!-- /react-text --><pattern id="_pgfvdxwt6fzl" x="0" y="0" width="55.57859300126263" height="55.57859300126263" patternTransform="rotate(-45,0,0)" patternUnits="userSpaceOnUse"><path d="M0,0 L0,55.57859300126263" style="stroke: rgb(0, 0, 0); stroke-opacity: 1; stroke-width: 2; fill: none;"/><path d="M27.789296500631316,0 L27.789296500631316,55.57859300126263" style="stroke: rgb(0, 0, 0); stroke-opacity: 1; stroke-width: 2; fill: none;"/><path d="M55.57859300126263,0 L55.57859300126263,55.57859300126263" style="stroke: rgb(0, 0, 0); stroke-opacity: 1; stroke-width: 2; fill: none;"/></pattern></defs><path class="real" d=" M583,0.2 L553,0.2 L553,195.53 L80.67,195.53 L80.67,225.53 L583,225.53 Z" style="stroke-width: 1; stroke: none; fill: url(&quot;#_pgfvdxwt6fzl&quot;); fill-opacity: 1; stroke-opacity: 1;"/></g><g class="composite-shape"><defs><!-- react-text: 34466 --> <!-- /react-text --><pattern id="_pgfltqhjg4i2" x="0" y="0" width="26.58721497261419" height="26.58721497261419" patternTransform="rotate(45,0,0)" patternUnits="userSpaceOnUse"><path d="M0,0 L0,26.58721497261419" style="stroke: rgb(0, 0, 0); stroke-opacity: 1; stroke-width: 2; fill: none;"/><path d="M13.293607486307096,0 L13.293607486307096,26.58721497261419" style="stroke: rgb(0, 0, 0); stroke-opacity: 1; stroke-width: 2; fill: none;"/><path d="M26.58721497261419,0 L26.58721497261419,26.58721497261419" style="stroke: rgb(0, 0, 0); stroke-opacity: 1; stroke-width: 2; fill: none;"/></pattern></defs><path class="real" d=" M80.67,49.53 L117.41,49.53 L117.41,163.53 L229.67,163.53 L229.67,194.86 L80.67,194.86 Z" style="stroke-width: 2; stroke: rgb(0, 0, 0); fill: url(&quot;#_pgfltqhjg4i2&quot;); fill-opacity: 1;"/></g><g class="composite-shape"><path class="real" d=" M157.51,22.86 L118.64,49.53 L80.67,49.53 Z" style="stroke-width: 2; stroke: rgb(0, 0, 0); fill: none; fill-opacity: 1;"/></g><g class="composite-shape"><path class="real" d=" M142.58,22.86 C142.58,14.62 149.26,7.93 157.51,7.93 C165.76,7.93 172.44,14.62 172.44,22.86 C172.44,31.11 165.76,37.8 157.51,37.8 C149.26,37.8 142.58,31.11 142.58,22.86 Z" style="stroke-width: 2; stroke: rgb(0, 0, 0); fill: none; fill-opacity: 1;"/></g><g class="arrow-line"><path class="connection real" stroke-dasharray="" d="  M157.51,7.93 L512.33,7.93" style="stroke: rgb(0, 0, 0); stroke-width: 2; fill: none; fill-opacity: 1;"/></g><g class="arrow-line"><path class="connection real" stroke-dasharray="" d="  M229.51,177.13 L512.33,177.13" style="stroke: rgb(0, 0, 0); stroke-width: 2; fill: none; fill-opacity: 1;"/></g><g class="arrow-line"><path class="connection real" stroke-dasharray="" d="  M527.27,162.2 L527.27,22.86" style="stroke: rgb(0, 0, 0); stroke-width: 2; fill: none; fill-opacity: 1;"/></g><g class="arrow-line"><path class="connection real" stroke-dasharray="" d="  M142.58,68.2 L142.58,22.86" style="stroke: rgb(0, 0, 0); stroke-width: 2; fill: none; fill-opacity: 1;"/></g><g class="composite-shape"><path class="real" d=" M117.33,69.67 L167.67,69.67 L167.67,108.86 L117.33,108.86 Z" style="stroke-width: 2; stroke: rgb(0, 0, 0); fill: none; fill-opacity: 1;"/></g><g class="arrow-line"><path class="connection real" stroke-dasharray="" d="  M177.67,110.86 L177.67,161.06" style="stroke: rgb(0, 0, 0); stroke-width: 1; fill: none; fill-opacity: 1;"/><g stroke="none" transform="matrix(-1.8369701987210297e-16,-1,1,-1.8369701987210297e-16,177.66666666666669,163.0625000000007)" style="stroke: none; stroke-width: 1; fill: rgb(0, 0, 0);" fill="#000"><path d=" M12,-3 L0,0 L12,3 Z"/></g><g stroke="none" fill="#000" transform="matrix(6.123233995736766e-17,1,-1,6.123233995736766e-17,177.66666666666669,108.86458333333394)" style="stroke: none; fill: rgb(0, 0, 0); stroke-width: 1;"><path d=" M12,-3 L0,0 L12,3 Z"/></g></g><g class="arrow-line"><path class="connection real" stroke-dasharray="" d="  M172.67,108.86 L185,108.86" style="stroke: rgb(0, 0, 0); stroke-width: 1; fill: none; fill-opacity: 1;"/></g><g/></g><g/><g><g><rect rx="0" ry="0" x="90.33333333333331" y="162.66666666666652" width="23" height="23" style="stroke: none; stroke-width: 1; fill: rgb(255, 255, 255); fill-opacity: 1; stroke-opacity: 1;"/></g><g><rect rx="0" ry="0" x="132.99999999999997" y="76.66666666666697" width="20" height="23" style="stroke: none; stroke-opacity: 1; stroke-width: 1; fill: none; fill-opacity: 1;"/></g><g><rect rx="0" ry="0" x="168.99999999999994" y="124" width="17" height="23" style="stroke: none; stroke-opacity: 1; stroke-width: 1; fill: rgb(255, 255, 255); fill-opacity: 1;"/></g></g><g/></svg>
        <svg xmlns="http://www.w3.org/2000/svg" xmlns:xlink="http://www.w3.org/1999/xlink" width="660" height="261.328125" style="width:660px;height:261.328125px;font-family:Asana-Math, Asana;background:transparent;"><g><g><g><g transform="matrix(1,0,0,1,93.828125,180.6640625)"><path transform="matrix(0.017,0,0,-0.017,0,0)" d="M937 664L950 695C922 699 775 701 773 692L688 536L442 114L292 692C269 686 146 690 125 692L122 664L148 662C200 658 218 648 218 622C218 616 72 100 70 93C54 41 39 28 -16 23L-19 -3L20 -2C54 -1 79 0 93 0C107 0 133 -1 168 -2L203 -3L206 25L168 28C136 30 119 40 119 55C119 65 121 78 126 96L250 560L399 -18L422 -18L479 86L718 500L770 587L733 67C729 39 717 32 666 28L635 25L632 -3L679 -2C721 -1 751 0 766 0C782 0 812 -1 853 -2L899 -3L902 25L865 28C829 31 811 42 811 63L812 100L853 631C855 650 870 660 899 662Z" stroke="rgb(0,0,0)" stroke-opacity="1" stroke-width="8" fill="rgb(0,0,0)" fill-opacity="1"></path></g></g></g></g><g><g><g><g transform="matrix(1,0,0,1,136.5,94.6640625)"><path transform="matrix(0.017,0,0,-0.017,0,0)" d="M730 103L704 86C675 67 653 56 643 56C636 56 630 65 630 76C630 86 632 95 637 116L712 413C716 430 719 446 719 454C719 471 709 482 693 482C664 482 626 464 565 421C502 376 467 341 418 272L448 409C452 429 455 444 455 451C455 470 445 482 429 482C399 482 353 460 298 418C254 384 234 363 169 275L202 408C206 424 208 439 208 451C208 470 199 482 185 482C164 482 126 461 52 408L24 388L31 368C68 391 103 414 110 414C121 414 128 404 128 389C128 338 87 145 46 2L49 -9L117 6L139 108C163 219 190 278 245 338C287 384 332 414 360 414C367 414 371 406 371 393C371 358 349 244 308 69L292 2L297 -9L366 6L387 113C403 194 437 269 481 318C536 379 586 414 618 414C626 414 631 405 631 389C631 365 628 351 606 264C566 105 550 84 550 31C550 6 561 -9 580 -9C606 -9 642 12 740 85Z" stroke="rgb(0,0,0)" stroke-opacity="1" stroke-width="8" fill="rgb(0,0,0)" fill-opacity="1"></path></g></g></g></g><g><g><g><text x="290.5" y="235.1640625" style="white-space:pre;stroke:none;fill:rgb(0,0,0);fill-opacity:1;font-size:18px;font-family:Arial, Helvetica, sans-serif;font-weight:400;font-style:normal;dominant-baseline:text-before-edge;text-decoration:none solid rgb(0, 0, 0);">Figure 5-9</text></g></g></g><g><g><g><g transform="matrix(1,0,0,1,172.5,142)"><path transform="matrix(0.017,0,0,-0.017,0,0)" d="M483 722L471 733C419 707 383 698 311 691L307 670L355 670C379 670 389 663 389 646C389 638 388 629 387 622L359 468C329 477 302 482 277 482C208 482 114 410 68 323C37 265 17 170 17 86C17 21 32 -11 61 -11C88 -11 125 6 159 33C213 77 246 116 313 217L290 126C279 82 274 50 274 24C274 3 283 -9 300 -9C317 -9 341 3 375 28L456 88L446 107L402 76C388 66 372 59 363 59C355 59 349 68 349 82C349 90 350 99 357 128ZM114 59C98 59 89 73 89 98C89 224 135 380 184 418C197 428 216 433 243 433C287 433 316 427 349 410L337 351C300 171 159 59 114 59Z" stroke="rgb(0,0,0)" stroke-opacity="1" stroke-width="8" fill="rgb(0,0,0)" fill-opacity="1"></path></g></g></g></g></svg>
</svg>
