<svg xmlns="http://www.w3.org/2000/svg" xmlns:xlink="http://www.w3.org/1999/xlink" x="0" y="0" width="662" height="302" style="
        width:662px;
        height:302px;
        background: transparent;
        fill: none;
">
        
        
        <svg xmlns="http://www.w3.org/2000/svg" class="role-diagram-draw-area"><g class="shapes-region" style="stroke: black; fill: none;"><g class="composite-shape"><path class="real" d=" M614.5,255.27 L183,255.27 L183,255.5 L113,255.5 L113,232.77 L129.5,232.77 L129.5,73.59 L132.88,77.36 L137.31,67.35 L614.5,255.27 Z" style="stroke-width: 1; stroke: rgb(0, 0, 0); fill: none; fill-opacity: 1;"/></g><g class="composite-shape"><path class="real" d=" M112.38,54.52 C107.52,49.1 105.76,39.8 108.44,33.73 L108.44,33.73 C111.13,27.66 117.24,27.13 122.1,32.55 L142.5,55.27 C142.5,55.27 142.5,55.27 142.5,55.27 L132.78,77.24 C132.78,77.24 132.78,77.24 132.78,77.24 Z" style="stroke-width: 1; stroke: rgb(0, 0, 0); fill: none; fill-opacity: 1;"/></g><g class="composite-shape"><path class="real" d=" M90.5,40.5 C90.5,26.69 101.69,15.5 115.5,15.5 C129.31,15.5 140.5,26.69 140.5,40.5 C140.5,54.31 129.31,65.5 115.5,65.5 C101.69,65.5 90.5,54.31 90.5,40.5 Z" style="stroke-width: 1; stroke: rgb(0, 0, 0); fill: none; fill-opacity: 1;"/></g><g class="arrow-line"><path class="connection real" stroke-dasharray="" d="  M90.5,40.5 L91,133.77" style="stroke: rgb(0, 0, 0); stroke-width: 1; fill: none; fill-opacity: 1;"/></g><g class="composite-shape"><path class="real" d=" M68.75,156.02 C68.75,143.74 78.71,133.77 91,133.77 C103.29,133.77 113.25,143.74 113.25,156.02 C113.25,168.31 103.29,178.27 91,178.27 C78.71,178.27 68.75,168.31 68.75,156.02 Z" style="stroke-width: 1; stroke: rgb(0, 0, 0); fill: none; fill-opacity: 1;"/></g><g class="arrow-line"><path class="connection real" stroke-dasharray="" d="  M113.5,153.77 L113,232.77" style="stroke: rgb(0, 0, 0); stroke-width: 1; fill: none; fill-opacity: 1;"/></g><g class="composite-shape"><path class="real" d=" M88.36,156.02 C88.36,154.57 89.54,153.39 91,153.39 C92.46,153.39 93.64,154.57 93.64,156.02 C93.64,157.48 92.46,158.66 91,158.66 C89.54,158.66 88.36,157.48 88.36,156.02 Z" style="stroke-width: 1; stroke: rgb(0, 0, 0); fill: none; fill-opacity: 1;"/></g><g class="composite-shape"><path class="real" d=" M112.86,40.5 C112.86,39.04 114.04,37.86 115.5,37.86 C116.96,37.86 118.14,39.04 118.14,40.5 C118.14,41.96 116.96,43.14 115.5,43.14 C114.04,43.14 112.86,41.96 112.86,40.5 Z" style="stroke-width: 1; stroke: rgb(0, 0, 0); fill: none; fill-opacity: 1;"/></g><g class="arrow-line"><path class="connection real" stroke-dasharray="" d="  M68.75,156.02 L68.25,249.02" style="stroke: rgb(0, 0, 0); stroke-width: 1; fill: none; fill-opacity: 1;"/></g><g class="composite-shape"><path class="real" d=" M45.5,249.5 L91,249.5 L91,282.77 L45.5,282.77 Z" style="stroke-width: 1; stroke: rgb(0, 0, 0); fill: none; fill-opacity: 1;"/></g><g class="composite-shape"><path class="real" d=" M327.23,123.41 C327.23,114.5 334.45,107.27 343.36,107.27 C352.28,107.27 359.5,114.5 359.5,123.41 C359.5,132.32 352.28,139.55 343.36,139.55 C334.45,139.55 327.23,132.32 327.23,123.41 Z" style="stroke-width: 1; stroke: rgb(0, 0, 0); fill: none; fill-opacity: 1;"/></g><g class="arrow-line"><path class="connection real" stroke-dasharray="" d="  M140.5,60 L339.5,139.27" style="stroke: rgb(0, 0, 0); stroke-width: 1; fill: none; fill-opacity: 1;"/></g><g class="arrow-line"><path class="connection real" stroke-dasharray="" d="  M122.5,16.5 L350.5,108.77" style="stroke: rgb(0, 0, 0); stroke-width: 1; fill: none; fill-opacity: 1;"/></g><g class="composite-shape"><path class="real" d=" M401.21,114.61 L466.38,140.15 L451.79,177.39 L386.62,151.85 Z" style="stroke-width: 1; stroke: rgb(0, 0, 0); fill: none; fill-opacity: 1;"/></g><g class="composite-shape"><path class="real" d=" M340.73,123.41 C340.73,121.95 341.91,120.77 343.36,120.77 C344.82,120.77 346,121.95 346,123.41 C346,124.87 344.82,126.05 343.36,126.05 C341.91,126.05 340.73,124.87 340.73,123.41 Z" style="stroke-width: 1; stroke: rgb(0, 0, 0); fill: none; fill-opacity: 1;"/></g><g class="arrow-line"><path class="connection real" stroke-dasharray="" d="  M343.36,123.41 L390,142.27" style="stroke: rgb(0, 0, 0); stroke-width: 1; fill: none; fill-opacity: 1;"/></g><g class="composite-shape"><path class="real" d=" M391.75,163.33 C391.75,159.77 394.63,156.89 398.19,156.89 C401.75,156.89 404.64,159.77 404.64,163.33 C404.64,166.89 401.75,169.77 398.19,169.77 C394.63,169.77 391.75,166.89 391.75,163.33 Z" style="stroke-width: 1; stroke: rgb(0, 0, 0); fill: none; fill-opacity: 1;"/></g><g class="composite-shape"><path class="real" d=" M430.25,178.33 C430.25,174.77 433.13,171.89 436.69,171.89 C440.25,171.89 443.14,174.77 443.14,178.33 C443.14,181.89 440.25,184.77 436.69,184.77 C433.13,184.77 430.25,181.89 430.25,178.33 Z" style="stroke-width: 1; stroke: rgb(0, 0, 0); fill: none; fill-opacity: 1;"/></g><g class="composite-shape"><path class="real" d=" M584.5,255.79 C584.5,255.62 584.5,255.45 584.5,255.27 C584.5,251.5 585.2,247.89 586.47,244.57 L614.5,255.27 Z" style="stroke-width: 1; stroke: none; fill: none; fill-opacity: 1;"/><path class="real" d=" M584.5,255.79 C584.5,255.62 584.5,255.45 584.5,255.27 C584.5,251.5 585.2,247.89 586.47,244.57" style="stroke-width: 1; stroke: rgb(0, 0, 0); fill: none; fill-opacity: 1;"/></g><g/></g><g/><g/><g/></svg>
        <svg xmlns="http://www.w3.org/2000/svg" xmlns:xlink="http://www.w3.org/1999/xlink" width="660" height="300" style="width:660px;height:300px;font-family:Asana-Math, Asana;background:transparent;"><g><g><g><g transform="matrix(1,0,0,1,62,271.5)"><path transform="matrix(0.017,0,0,-0.017,0,0)" d="M167 420C188 420 201 421 226 424C171 350 72 266 72 126C72 44 107 -11 160 -11C224 -11 276 44 350 187C341 143 338 118 338 95C338 32 367 -11 412 -11C546 -11 699 238 699 384C699 441 673 482 637 482C624 482 612 478 604 470L554 423L565 404C574 410 583 413 592 413C619 413 635 390 635 350C635 205 538 39 453 39C424 39 403 79 403 134C403 181 412 247 424 290L476 474L469 482L395 460L366 311C354 249 340 209 311 155C271 80 233 39 203 39C168 39 145 78 145 136C145 255 186 352 285 464L275 482C255 473 242 470 214 470C186 470 144 472 115 475L103 476C97 477 92 477 91 477C79 477 70 475 59 470C45 443 34 407 21 352L43 352L60 394C67 411 87 422 111 422C145 422 128 420 167 420Z" stroke="rgb(0,0,0)" stroke-opacity="1" stroke-width="8" fill="rgb(0,0,0)" fill-opacity="1"></path></g></g></g></g><g><g><g><g transform="matrix(1,0,0,1,419,153)"><path transform="matrix(0.017,0,0,-0.017,0,0)" d="M303 692L264 691C226 689 202 689 182 689C170 689 148 690 110 691L71 692L71 664L89 662C130 656 138 645 142 588L174 158C179 92 181 44 182 -8L232 -8C246 27 264 66 282 102L506 546L618 154C633 102 644 53 657 -8L708 -8L715 18C725 58 733 85 746 124L917 631C923 648 938 660 960 662L980 664L980 692L948 691C919 690 897 689 883 689C870 689 848 690 818 691L785 692L780 664L819 662C848 661 860 653 860 639C860 626 857 608 851 590L704 128L546 700L528 700C516 673 494 624 476 588L252 132L221 616C221 646 234 660 266 662L303 664Z" stroke="rgb(0,0,0)" stroke-opacity="1" stroke-width="8" fill="rgb(0,0,0)" fill-opacity="1"></path></g></g></g></g><g><g><g><g transform="matrix(1,0,0,1,556,251)"><path transform="matrix(0.017,0,0,-0.017,0,0)" d="M237 -16C473 -16 572 316 576 504C578 618 546 702 419 702C159 702 72 412 69 199C67 80 101 -16 237 -16ZM401 676C536 676 506 491 485 381L169 381C194 485 272 676 401 676ZM253 13C102 13 147 261 163 349L479 349C454 237 396 13 253 13Z" stroke="rgb(0,0,0)" stroke-opacity="1" stroke-width="8" fill="rgb(0,0,0)" fill-opacity="1"></path></g></g></g></g><g><g><g><text x="242.5" y="39.828125" style="white-space:pre;stroke:none;fill:rgb(0,0,0);fill-opacity:1;font-size:15px;font-family:Arial, Helvetica, sans-serif;font-weight:400;font-style:normal;dominant-baseline:text-before-edge;text-decoration:none solid rgb(0, 0, 0);">string 1</text></g></g></g><g><g><g><text x="17.1640625" y="189.1640625" style="white-space:pre;stroke:none;fill:rgb(0,0,0);fill-opacity:1;font-size:15px;font-family:Arial, Helvetica, sans-serif;font-weight:400;font-style:normal;dominant-baseline:text-before-edge;text-decoration:none solid rgb(0, 0, 0);">string 2</text></g></g></g></svg>
</svg>
