<svg xmlns="http://www.w3.org/2000/svg" xmlns:xlink="http://www.w3.org/1999/xlink" x="0" y="0" width="662" height="498.96875" style="
        width:662px;
        height:498.96875px;
        background: transparent;
        fill: none;
">
        
        
        <svg xmlns="http://www.w3.org/2000/svg" class="role-diagram-draw-area"><g class="shapes-region" style="stroke: black; fill: none;"><g class="composite-shape"><path class="real" d=" M210.91,19.83 L350.41,19.83 L350.41,100.93" style="stroke-width: 5; stroke: rgb(0, 0, 0); fill: none; fill-opacity: 1;"/></g><g class="arrow-line"><path class="connection real" stroke-dasharray="" d="  M210.91,19.83 L488.4,19.83" style="stroke: rgb(0, 0, 0); stroke-width: 5; fill: none; fill-opacity: 1;"/></g><g class="composite-shape"><path class="real" d=" M285.99,105.38 C285.99,69.56 314.83,40.52 350.41,40.52 C385.99,40.52 414.83,69.56 414.83,105.38 C414.83,141.21 385.99,170.25 350.41,170.25 C314.83,170.25 285.99,141.21 285.99,105.38 Z" style="stroke-width: 5; stroke: rgb(0, 0, 0); fill: none; fill-opacity: 1;"/></g><g class="composite-shape"><path class="real" d=" M345.98,105.38 C345.98,102.92 347.96,100.93 350.41,100.93 C352.85,100.93 354.83,102.92 354.83,105.38 C354.83,107.84 352.85,109.84 350.41,109.84 C347.96,109.84 345.98,107.84 345.98,105.38 Z" style="stroke-width: 5; stroke: rgb(0, 0, 0); fill: none; fill-opacity: 1;"/></g><g class="composite-shape"><path class="real" d=" M415.2,105.38 L414.83,105.38 L414.83,412.64" style="stroke-width: 5; stroke: rgb(0, 0, 0); fill: none; fill-opacity: 1;"/></g><g class="composite-shape"><path class="real" d=" M285.61,105.38 L285.99,105.38 L285.99,200" style="stroke-width: 5; stroke: rgb(0, 0, 0); fill: none; fill-opacity: 1;"/></g><g class="composite-shape"><path class="real" d=" M260.79,200 L310.28,200 L310.28,238.96 L260.79,238.96 Z" style="stroke-width: 5; stroke: rgb(0, 0, 0); fill: none; fill-opacity: 1;"/></g><g class="composite-shape"><path class="real" d=" M238.89,191.69 L267.99,191.69 L267.99,200 L238.89,200 Z" style="stroke-width: 5; stroke: rgb(0, 0, 0); fill: none; fill-opacity: 1;"/></g><g class="composite-shape"><path class="real" d=" M303.08,191.69 L332.18,191.69 L332.18,200 L303.08,200 Z" style="stroke-width: 5; stroke: rgb(0, 0, 0); fill: none; fill-opacity: 1;"/></g><g class="composite-shape"><path class="real" d=" M260.79,238.96 L286.21,238.96 L286.21,357.67" style="stroke-width: 5; stroke: rgb(0, 0, 0); fill: none; fill-opacity: 1; stroke-dasharray: 12, 6;"/></g><g class="composite-shape"><path class="real" d=" M261.39,360.09 L310.88,360.09 L310.88,399.05 L261.39,399.05 Z" style="stroke-width: 5; stroke: rgb(0, 0, 0); fill: none; fill-opacity: 1; stroke-dasharray: 12, 6;"/></g><g class="composite-shape"><path class="real" d=" M239.49,293.79 L268.59,293.79 L268.59,302.09 L239.49,302.09 Z" style="stroke-width: 5; stroke: rgb(0, 0, 0); fill: none; fill-opacity: 1; stroke-dasharray: 12, 6;"/></g><g class="composite-shape"><path class="real" d=" M303.68,293.79 L332.78,293.79 L332.78,302.09 L303.68,302.09 Z" style="stroke-width: 5; stroke: rgb(0, 0, 0); fill: none; fill-opacity: 1; stroke-dasharray: 12, 6;"/></g><g class="composite-shape"><defs><!-- react-text: 11968 --> <!-- /react-text --><pattern id="_pgf5xptx3t7r" x="0" y="0" width="20.08183258569795" height="20.08183258569795" patternTransform="rotate(45,0,0)" patternUnits="userSpaceOnUse"><path d="M0,0 L0,20.08183258569795" style="stroke: rgb(0, 0, 0); stroke-opacity: 1; stroke-width: 5; fill: none;"/><path d="M10.040916292848975,0 L10.040916292848975,20.08183258569795" style="stroke: rgb(0, 0, 0); stroke-opacity: 1; stroke-width: 5; fill: none;"/><path d="M20.08183258569795,0 L20.08183258569795,20.08183258569795" style="stroke: rgb(0, 0, 0); stroke-opacity: 1; stroke-width: 5; fill: none;"/></pattern></defs><path class="real" d=" M239.49,302.09 L257.79,302.09 L257.79,312.66 L239.49,312.66 Z" style="stroke-width: 5; stroke: rgb(0, 0, 0); fill: url(&quot;#_pgf5xptx3t7r&quot;); fill-opacity: 1;"/></g><g class="composite-shape"><defs><!-- react-text: 12409 --> <!-- /react-text --><pattern id="_pgfso9oaik9u" x="0" y="0" width="20.08183258569795" height="20.08183258569795" patternTransform="rotate(45,0,0)" patternUnits="userSpaceOnUse"><path d="M0,0 L0,20.08183258569795" style="stroke: rgb(0, 0, 0); stroke-opacity: 1; stroke-width: 5; fill: none;"/><path d="M10.040916292848975,0 L10.040916292848975,20.08183258569795" style="stroke: rgb(0, 0, 0); stroke-opacity: 1; stroke-width: 5; fill: none;"/><path d="M20.08183258569795,0 L20.08183258569795,20.08183258569795" style="stroke: rgb(0, 0, 0); stroke-opacity: 1; stroke-width: 5; fill: none;"/></pattern></defs><path class="real" d=" M315.08,302.09 L333.38,302.09 L333.38,312.66 L315.08,312.66 Z" style="stroke-width: 5; stroke: rgb(0, 0, 0); fill: url(&quot;#_pgfso9oaik9u&quot;); fill-opacity: 1;"/></g><g class="composite-shape"><defs><!-- react-text: 13387 --> <!-- /react-text --><pattern id="_pgf1dbe8uum2" x="0" y="0" width="49.780317395532954" height="49.780317395532954" patternTransform="rotate(45,0,0)" patternUnits="userSpaceOnUse"><path d="M0,0 L0,49.780317395532954" style="stroke: rgb(0, 0, 0); stroke-opacity: 1; stroke-width: 5; fill: none;"/><path d="M24.890158697766477,0 L24.890158697766477,49.780317395532954" style="stroke: rgb(0, 0, 0); stroke-opacity: 1; stroke-width: 5; fill: none;"/><path d="M49.780317395532954,0 L49.780317395532954,49.780317395532954" style="stroke: rgb(0, 0, 0); stroke-opacity: 1; stroke-width: 5; fill: none;"/></pattern></defs><path class="real" d=" M210.91,8.5 L489,8.5 L489,19.83 L210.91,19.83 Z" style="stroke-width: 1; stroke: none; fill: url(&quot;#_pgf1dbe8uum2&quot;); fill-opacity: 1; stroke-opacity: 1;"/></g><g class="composite-shape"><path class="real" d=" M390.38,413.25 L439.88,413.25 L439.88,452.21 L390.38,452.21 Z" style="stroke-width: 5; stroke: rgb(0, 0, 0); fill: none; fill-opacity: 1;"/></g><g class="composite-shape"><path class="real" d=" M171.17,200 L203.41,200 L203.41,200.6" style="stroke-width: 5; stroke: rgb(0, 0, 0); fill: none; fill-opacity: 1;"/></g><g class="composite-shape"><path class="real" d=" M222.01,200 L203.41,200 L203.41,199.4" style="stroke-width: 5; stroke: rgb(0, 0, 0); fill: none; fill-opacity: 1;"/></g><g class="composite-shape"><path class="real" d=" M171.62,302.7 L220.81,302.7 L220.81,302.7" style="stroke-width: 5; stroke: rgb(0, 0, 0); fill: none; fill-opacity: 1;"/></g><g class="arrow-line"><path class="connection real" stroke-dasharray="" d="  M203.41,210 L203.41,292.09" style="stroke: rgb(0, 0, 0); stroke-width: 5; fill: none; fill-opacity: 1;"/><g stroke="none" fill="#000" transform="matrix(-1.8369701987210297e-16,-1,1,-1.8369701987210297e-16,203.41497561742966,302.09196676061106)" style="stroke: none; fill: rgb(0, 0, 0); stroke-width: 5;"><path d=" M27.6,-6.9 L0,0 L27.6,6.9 Z"/></g><g stroke="none" fill="#000" transform="matrix(6.123233995736766e-17,1,-1,6.123233995736766e-17,203.4149756174297,199.99928696113935)" style="stroke: none; fill: rgb(0, 0, 0); stroke-width: 5;"><path d=" M27.6,-6.9 L0,0 L27.6,6.9 Z"/></g></g><g/></g><g/><g/><g/></svg>
        <svg xmlns="http://www.w3.org/2000/svg" xmlns:xlink="http://www.w3.org/1999/xlink" width="660" height="496.96875" style="width:660px;height:496.96875px;font-family:Asana-Math, Asana;background:transparent;"><g><g><g><g transform="matrix(1,0,0,1,275.09375,227.11875)"><path transform="matrix(0.020399999999999998,0,0,-0.020399999999999998,0,0)" d="M937 664L950 695C922 699 775 701 773 692L688 536L442 114L292 692C269 686 146 690 125 692L122 664L148 662C200 658 218 648 218 622C218 616 72 100 70 93C54 41 39 28 -16 23L-19 -3L20 -2C54 -1 79 0 93 0C107 0 133 -1 168 -2L203 -3L206 25L168 28C136 30 119 40 119 55C119 65 121 78 126 96L250 560L399 -18L422 -18L479 86L718 500L770 587L733 67C729 39 717 32 666 28L635 25L632 -3L679 -2C721 -1 751 0 766 0C782 0 812 -1 853 -2L899 -3L902 25L865 28C829 31 811 42 811 63L812 100L853 631C855 650 870 660 899 662Z" stroke="rgb(0,0,0)" stroke-opacity="1" stroke-width="8" fill="rgb(0,0,0)" fill-opacity="1"></path></g></g></g></g><g><g><g><g transform="matrix(1,0,0,1,403.484375,440.9703125)"><path transform="matrix(0.020399999999999998,0,0,-0.020399999999999998,0,0)" d="M937 664L950 695C922 699 775 701 773 692L688 536L442 114L292 692C269 686 146 690 125 692L122 664L148 662C200 658 218 648 218 622C218 616 72 100 70 93C54 41 39 28 -16 23L-19 -3L20 -2C54 -1 79 0 93 0C107 0 133 -1 168 -2L203 -3L206 25L168 28C136 30 119 40 119 55C119 65 121 78 126 96L250 560L399 -18L422 -18L479 86L718 500L770 587L733 67C729 39 717 32 666 28L635 25L632 -3L679 -2C721 -1 751 0 766 0C782 0 812 -1 853 -2L899 -3L902 25L865 28C829 31 811 42 811 63L812 100L853 631C855 650 870 660 899 662Z" stroke="rgb(0,0,0)" stroke-opacity="1" stroke-width="8" fill="rgb(0,0,0)" fill-opacity="1"></path></g></g></g></g><g><g><g><g transform="matrix(1,0,0,1,276.2890625,387.2125)"><path transform="matrix(0.020399999999999998,0,0,-0.020399999999999998,0,0)" d="M937 664L950 695C922 699 775 701 773 692L688 536L442 114L292 692C269 686 146 690 125 692L122 664L148 662C200 658 218 648 218 622C218 616 72 100 70 93C54 41 39 28 -16 23L-19 -3L20 -2C54 -1 79 0 93 0C107 0 133 -1 168 -2L203 -3L206 25L168 28C136 30 119 40 119 55C119 65 121 78 126 96L250 560L399 -18L422 -18L479 86L718 500L770 587L733 67C729 39 717 32 666 28L635 25L632 -3L679 -2C721 -1 751 0 766 0C782 0 812 -1 853 -2L899 -3L902 25L865 28C829 31 811 42 811 63L812 100L853 631C855 650 870 660 899 662Z" stroke="rgb(0,0,0)" stroke-opacity="1" stroke-width="8" fill="rgb(0,0,0)" fill-opacity="1"></path></g></g></g></g><g><g><g><g transform="matrix(1,0,0,1,316.734375,184.228125)"><path transform="matrix(0.020399999999999998,0,0,-0.020399999999999998,0,0)" d="M730 103L704 86C675 67 653 56 643 56C636 56 630 65 630 76C630 86 632 95 637 116L712 413C716 430 719 446 719 454C719 471 709 482 693 482C664 482 626 464 565 421C502 376 467 341 418 272L448 409C452 429 455 444 455 451C455 470 445 482 429 482C399 482 353 460 298 418C254 384 234 363 169 275L202 408C206 424 208 439 208 451C208 470 199 482 185 482C164 482 126 461 52 408L24 388L31 368C68 391 103 414 110 414C121 414 128 404 128 389C128 338 87 145 46 2L49 -9L117 6L139 108C163 219 190 278 245 338C287 384 332 414 360 414C367 414 371 406 371 393C371 358 349 244 308 69L292 2L297 -9L366 6L387 113C403 194 437 269 481 318C536 379 586 414 618 414C626 414 631 405 631 389C631 365 628 351 606 264C566 105 550 84 550 31C550 6 561 -9 580 -9C606 -9 642 12 740 85Z" stroke="rgb(0,0,0)" stroke-opacity="1" stroke-width="8" fill="rgb(0,0,0)" fill-opacity="1"></path></g></g></g></g><g><g><g><g transform="matrix(1,0,0,1,367.984375,117.1734375)"><path transform="matrix(0.020399999999999998,0,0,-0.020399999999999998,0,0)" d="M105 664L160 662C184 661 195 653 195 635L112 125C95 34 94 31 54 28L13 25L9 -3L51 -2C92 -1 123 0 141 0C158 0 187 -1 227 -2L280 -3L283 25L218 28C192 29 182 37 182 58C182 67 183 74 186 93L284 648C320 654 336 656 355 656C457 656 506 612 506 519C506 411 434 323 346 323C324 323 304 328 267 342L269 311C306 293 326 288 355 288C484 288 594 405 594 541C594 642 531 695 412 692L108 692Z" stroke="rgb(0,0,0)" stroke-opacity="1" stroke-width="8" fill="rgb(0,0,0)" fill-opacity="1"></path></g></g></g></g><g><g><g><g transform="matrix(1,0,0,1,373.3828125,40.4546875)"><path transform="matrix(0.020399999999999998,0,0,-0.020399999999999998,0,0)" d="M390 646L463 646C541 646 577 641 580 629C583 621 585 602 584 592L580 528L608 528L635 692L544 691C456 690 388 689 353 689C316 689 252 690 166 691L71 692L53 528L82 528L97 588C102 610 109 626 115 633C121 640 159 646 196 646L308 646L222 125C206 34 204 31 164 28L113 25L109 -3L166 -2C206 -1 235 0 251 0C270 0 301 -1 340 -2L384 -3L387 25L328 28C302 29 292 37 292 58C292 67 293 74 296 93Z" stroke="rgb(0,0,0)" stroke-opacity="1" stroke-width="8" fill="rgb(0,0,0)" fill-opacity="1"></path></g></g></g></g><g><g><g><g transform="matrix(1,0,0,1,429.0859375,192.6890625)"><path transform="matrix(0.020399999999999998,0,0,-0.020399999999999998,0,0)" d="M45 284C45 90 152 -18 343 -18C439 -18 510 5 600 67C600 67 610 103 610 103C610 103 600 110 600 110C506 53 454 35 376 35C219 35 133 131 133 309C133 447 190 653 418 653C489 653 541 639 597 603L597 519L624 519C629 576 637 619 651 665C575 694 518 706 456 706C276 706 45 578 45 284Z" stroke="rgb(0,0,0)" stroke-opacity="1" stroke-width="8" fill="rgb(0,0,0)" fill-opacity="1"></path></g></g></g></g><g><g><g><g transform="matrix(1,0,0,1,184.546875,255.5171875)"><path transform="matrix(0.020399999999999998,0,0,-0.020399999999999998,0,0)" d="M236 722L224 733C179 711 138 697 64 691L60 670L108 670C126 670 142 667 142 647C142 641 142 632 140 622L98 388C78 272 36 80 10 2L17 -9L86 7C94 64 108 164 148 236C193 317 296 414 338 414C349 414 360 407 360 393C360 375 355 342 345 303L294 107C288 85 281 55 281 31C281 6 291 -9 312 -9C344 -9 412 41 471 85L461 103L435 86C412 71 386 56 374 56C367 56 361 65 361 76C361 88 364 101 368 116L432 372C438 398 443 423 443 447C443 464 437 482 411 482C376 482 299 437 231 374C198 343 172 308 144 273L140 275Z" stroke="rgb(0,0,0)" stroke-opacity="1" stroke-width="8" fill="rgb(0,0,0)" fill-opacity="1"></path></g></g></g></g><g><g><g><text x="302.953125" y="462.6171875" style="white-space:pre;stroke:none;fill:rgb(0,0,0);fill-opacity:1;font-size:18px;font-family:&quot;Times New Roman&quot;, Times, serif;font-weight:400;font-style:normal;dominant-baseline:text-before-edge;text-decoration:none solid rgb(0, 0, 0);">Fig. 5-7</text></g></g></g></svg>
</svg>
