<svg xmlns="http://www.w3.org/2000/svg" xmlns:xlink="http://www.w3.org/1999/xlink" x="0" y="0" width="662" height="302" style="
        width:662px;
        height:302px;
        background: transparent;
        fill: none;
">
        
        
        <svg xmlns="http://www.w3.org/2000/svg" class="role-diagram-draw-area"><g class="shapes-region" style="stroke: black; fill: none;"><g class="composite-shape" data-amt="diagram/shapes/plot" transform="matrix(1,0,0,1,92.33333333333331,-6.999999999999773)"><g><g/><g><g class="test-plot-expression"><defs><clipPath id="cpg3khwb27d"><rect x="1" y="1" width="475.3333333333334" height="303.33333333333326"/></clipPath></defs><g clip-path="url(#cpg3khwb27d)"><path d="" style="stroke-width: 2; stroke: rgb(74, 144, 226); stroke-opacity: 0.8;"/><g><g class="arrow-line"><path class="vector-plot real" stroke-dasharray="" d="  M133.66,151.18 L374.75,151.18" style="stroke: rgb(0, 0, 0); stroke-opacity: 1; stroke-width: 2;"/><g stroke="none" fill="rgb(0,0,0)" fill-opacity="1" transform="matrix(-1,1.2246467991473532e-16,-1.2246467991473532e-16,-1,378.75018481755706,151.18312649746176)" style="stroke: none; fill: rgb(0, 0, 0); stroke-width: 2;"><path d=" M15.6,-3.9 L0,0 L15.6,3.9 Z"/></g></g></g><g><g class="arrow-line"><path class="vector-plot real" stroke-dasharray="" d="  M151.17,291.23 L151.17,15.13" style="stroke: rgb(0, 0, 0); stroke-opacity: 1; stroke-width: 2;"/><g stroke="none" fill="rgb(0,0,0)" fill-opacity="1" transform="matrix(3.061616997868383e-16,1,-1,3.061616997868383e-16,151.16996760647265,11.133762059871401)" style="stroke: none; fill: rgb(0, 0, 0); stroke-width: 2;"><path d=" M15.6,-3.9 L0,0 L15.6,3.9 Z"/></g></g></g><g><g class="arrow-line"><path class="vector-plot real" stroke-dasharray="" d="  M151.17,151.18 L186.18,46.15" style="stroke: rgb(0, 0, 0); stroke-opacity: 1; stroke-width: 2;"/></g></g><g><g class="arrow-line"><path class="vector-plot real" stroke-dasharray="" d="  M186.18,46.15 L341.97,279.83" style="stroke: rgb(0, 0, 0); stroke-opacity: 1; stroke-width: 2;"/></g></g><g><g class="arrow-line"><path class="vector-plot real" stroke-dasharray="" d="  M341.97,279.83 L341.97,151.18" style="stroke: rgb(0, 0, 0); stroke-opacity: 1; stroke-width: 1; stroke-dasharray: 6, 6;"/></g></g><g><g class="arrow-line"><path class="vector-plot real" stroke-dasharray="" d="  M151.17,279.83 L341.97,279.83" style="stroke: rgb(0, 0, 0); stroke-opacity: 1; stroke-width: 1; stroke-dasharray: 6, 6;"/></g></g><g><g class="arrow-line"><path class="vector-plot real" stroke-dasharray="" d="  M341.97,142.43 L341.97,159.94" style="stroke: rgb(0, 0, 0); stroke-opacity: 1; stroke-width: 1;"/></g></g><g><g class="arrow-line"><path class="vector-plot real" stroke-dasharray="" d="  M151.17,46.15 L186.18,46.15" style="stroke: rgb(0, 0, 0); stroke-opacity: 1; stroke-width: 1; stroke-dasharray: 6, 6;"/></g></g><g><g class="arrow-line"><path class="vector-plot real" stroke-dasharray="" d="  M186.18,46.15 L186.18,151.18" style="stroke: rgb(0, 128, 128); stroke-opacity: 1; stroke-width: 1; stroke-dasharray: 6, 6;"/></g></g><g><g class="arrow-line"><path class="vector-plot real" stroke-dasharray="" d="  M186.18,142.43 L186.18,159.94" style="stroke: rgb(0, 0, 0); stroke-opacity: 1; stroke-width: 1;"/></g></g><g><g class="arrow-line"><path class="vector-plot real" stroke-dasharray="" d="  M256.21,142.43 L256.21,159.94" style="stroke: rgb(0, 0, 0); stroke-opacity: 1; stroke-width: 1;"/></g></g></g></g><rect class="real" x="1" y="1" width="475.3333333333334" height="303.33333333333326" style="fill: transparent; stroke: none;"/></g></g></g><g/></g><g/><g/><g/></svg>
        <svg xmlns="http://www.w3.org/2000/svg" xmlns:xlink="http://www.w3.org/1999/xlink" width="660" height="300" style="width:660px;height:300px;font-family:Asana-Math, Asana;background:transparent;"><g><g><g><g transform="matrix(1,0,0,1,270.5,176.328125)"><path transform="matrix(0.017,0,0,-0.017,0,0)" d="M459 253C459 366 378 446 264 446C216 446 180 443 127 396L127 605L432 604L432 689L75 690L75 322L95 316C142 363 169 377 218 377C314 377 374 309 374 201C374 90 310 25 201 25C147 25 97 43 83 69L37 151L13 137C36 80 48 48 62 4C90 -11 130 -20 173 -20C301 -20 459 89 459 253ZM762 689C607 689 528 566 528 324C528 207 549 106 584 57C619 8 675 -20 737 -20C888 -20 964 110 964 366C964 585 899 689 762 689ZM744 654C841 654 880 556 880 316C880 103 842 15 750 15C653 15 612 116 612 360C612 571 649 654 744 654Z" stroke="rgb(0,0,0)" stroke-opacity="1" stroke-width="8" fill="rgb(0,0,0)" fill-opacity="1"></path></g></g></g></g><g><g><g><g transform="matrix(1,0,0,1,475.1640625,148)"><path transform="matrix(0.017,0,0,-0.017,0,0)" d="M125 390L69 107C68 99 56 61 56 31C56 6 67 -9 86 -9C121 -9 156 11 234 74L265 99L255 117L210 86C181 66 161 56 150 56C141 56 136 64 136 76C136 102 150 183 179 328L192 390L299 390L310 440C272 436 238 434 200 434C216 528 227 577 245 631L234 646C214 634 187 622 156 610L131 440C87 419 61 408 43 403L41 390Z" stroke="rgb(0,0,0)" stroke-opacity="1" stroke-width="8" fill="rgb(0,0,0)" fill-opacity="1"></path></g></g><g><g transform="matrix(1,0,0,1,485.046875,148.5)"><path transform="matrix(0.017,0,0,-0.017,0,0)" d="M146 266C146 526 243 632 301 700L282 726C225 675 60 542 60 266C60 159 85 58 133 -32C168 -99 200 -138 282 -215L301 -194C255 -137 146 -15 146 266Z" stroke="rgb(0,0,0)" stroke-opacity="1" stroke-width="8" fill="rgb(0,0,0)" fill-opacity="1"></path></g></g><g><g transform="matrix(1,0,0,1,490.6953125,148)"><path transform="matrix(0.017,0,0,-0.017,0,0)" d="M31 148C26 97 20 62 9 16C47 -2 81 -11 116 -11C165 -11 211 7 262 47C313 87 334 124 334 174C334 228 302 257 228 271L185 279C125 290 106 307 106 348C106 401 151 442 208 442C249 442 287 424 303 397L303 342L326 342C330 377 334 404 345 455C306 474 278 482 245 482C193 482 132 452 84 404C58 377 47 352 47 316C47 260 78 228 144 215L207 203C251 195 267 177 267 138C267 73 221 29 150 29C115 29 84 40 56 64L56 148ZM716 111L692 94C639 56 591 36 555 36C508 36 479 73 479 133C479 158 482 185 487 214C504 218 613 248 638 259C723 296 762 342 762 404C762 451 728 482 678 482C610 496 500 423 463 349C433 299 403 180 403 113C403 35 447 -11 519 -11C576 -11 632 17 724 92ZM501 274C518 343 538 386 567 412C585 428 616 440 640 440C669 440 688 420 688 388C688 344 653 297 601 272C573 258 537 247 492 237ZM1118 330L1141 330C1149 395 1156 432 1165 458C1141 473 1106 482 1069 482C1024 483 951 463 894 400C840 352 801 241 801 136C801 40 843 -11 923 -11C977 -11 1025 9 1080 54L1130 95L1122 115L1107 105C1035 57 997 40 962 40C906 40 877 80 877 159C877 267 912 371 961 409C982 425 1006 433 1037 433C1082 433 1118 414 1118 390Z" stroke="rgb(0,0,0)" stroke-opacity="1" stroke-width="8" fill="rgb(0,0,0)" fill-opacity="1"></path></g></g><g><g transform="matrix(1,0,0,1,510.796875,148.5)"><path transform="matrix(0.017,0,0,-0.017,0,0)" d="M51 726L32 700C87 636 187 526 187 266C187 -10 83 -131 32 -194L51 -215C104 -165 273 -23 273 265C273 542 108 675 51 726Z" stroke="rgb(0,0,0)" stroke-opacity="1" stroke-width="8" fill="rgb(0,0,0)" fill-opacity="1"></path></g></g></g></g><g><g><g><g transform="matrix(1,0,0,1,168.5,18.6640625)"><path transform="matrix(0.017,0,0,-0.017,0,0)" d="M166 420C187 420 203 421 229 424C118 304 76 221 76 121C76 44 122 -11 186 -11C324 -11 477 236 477 384C477 441 451 482 415 482C402 482 390 478 382 470L332 423L343 404C352 410 361 413 370 413C397 413 413 390 413 350C413 202 316 39 228 39C179 39 148 81 148 146C148 251 187 342 285 464L275 482C255 473 242 470 214 470C186 470 144 472 115 475L103 476C97 477 92 477 91 477C79 477 70 475 59 470C45 443 34 407 21 352L43 352L60 394C67 411 87 422 111 422C144 422 128 420 166 420Z" stroke="rgb(0,0,0)" stroke-opacity="1" stroke-width="8" fill="rgb(0,0,0)" fill-opacity="1"></path></g></g><g><g transform="matrix(1,0,0,1,181.21875,19.1640625)"><path transform="matrix(0.017,0,0,-0.017,0,0)" d="M146 266C146 526 243 632 301 700L282 726C225 675 60 542 60 266C60 159 85 58 133 -32C168 -99 200 -138 282 -215L301 -194C255 -137 146 -15 146 266Z" stroke="rgb(0,0,0)" stroke-opacity="1" stroke-width="8" fill="rgb(0,0,0)" fill-opacity="1"></path></g></g><g><g transform="matrix(1,0,0,1,186.8671875,18.6640625)"><path transform="matrix(0.017,0,0,-0.017,0,0)" d="M730 103L704 86C675 67 653 56 643 56C636 56 630 65 630 76C630 86 632 95 637 116L712 413C716 430 719 446 719 454C719 471 709 482 693 482C664 482 626 464 565 421C502 376 467 341 418 272L448 409C452 429 455 444 455 451C455 470 445 482 429 482C399 482 353 460 298 418C254 384 234 363 169 275L202 408C206 424 208 439 208 451C208 470 199 482 185 482C164 482 126 461 52 408L24 388L31 368C68 391 103 414 110 414C121 414 128 404 128 389C128 338 87 145 46 2L49 -9L117 6L139 108C163 219 190 278 245 338C287 384 332 414 360 414C367 414 371 406 371 393C371 358 349 244 308 69L292 2L297 -9L366 6L387 113C403 194 437 269 481 318C536 379 586 414 618 414C626 414 631 405 631 389C631 365 628 351 606 264C566 105 550 84 550 31C550 6 561 -9 580 -9C606 -9 642 12 740 85Z" stroke="rgb(0,0,0)" stroke-opacity="1" stroke-width="8" fill="rgb(0,0,0)" fill-opacity="1"></path></g></g><g><g transform="matrix(1,0,0,1,203.4765625,18.6640625)"><path transform="matrix(0.017,0,0,-0.017,0,0)" d="M297 714L242 714L-37 -169L18 -169Z" stroke="rgb(0,0,0)" stroke-opacity="1" stroke-width="8" fill="rgb(0,0,0)" fill-opacity="1"></path></g></g><g><g transform="matrix(1,0,0,1,211.7421875,18.6640625)"><path transform="matrix(0.017,0,0,-0.017,0,0)" d="M31 148C26 97 20 62 9 16C47 -2 81 -11 116 -11C165 -11 211 7 262 47C313 87 334 124 334 174C334 228 302 257 228 271L185 279C125 290 106 307 106 348C106 401 151 442 208 442C249 442 287 424 303 397L303 342L326 342C330 377 334 404 345 455C306 474 278 482 245 482C193 482 132 452 84 404C58 377 47 352 47 316C47 260 78 228 144 215L207 203C251 195 267 177 267 138C267 73 221 29 150 29C115 29 84 40 56 64L56 148Z" stroke="rgb(0,0,0)" stroke-opacity="1" stroke-width="8" fill="rgb(0,0,0)" fill-opacity="1"></path></g></g><g><g transform="matrix(1,0,0,1,218.34375,19.1640625)"><path transform="matrix(0.017,0,0,-0.017,0,0)" d="M51 726L32 700C87 636 187 526 187 266C187 -10 83 -131 32 -194L51 -215C104 -165 273 -23 273 265C273 542 108 675 51 726Z" stroke="rgb(0,0,0)" stroke-opacity="1" stroke-width="8" fill="rgb(0,0,0)" fill-opacity="1"></path></g></g></g></g><g><g><g><g transform="matrix(1,0,0,1,200.5,46.328125)"><path transform="matrix(0.017,0,0,-0.017,0,0)" d="M418 -3L418 27L366 30C311 33 301 44 301 96L301 700L60 598L67 548L217 614L217 96C217 44 206 33 152 30L96 27L96 -3C250 0 250 0 261 0C292 0 402 -3 418 -3ZM762 689C607 689 528 566 528 324C528 207 549 106 584 57C619 8 675 -20 737 -20C888 -20 964 110 964 366C964 585 899 689 762 689ZM744 654C841 654 880 556 880 316C880 103 842 15 750 15C653 15 612 116 612 360C612 571 649 654 744 654ZM1261 689C1106 689 1027 566 1027 324C1027 207 1048 106 1083 57C1118 8 1174 -20 1236 -20C1387 -20 1463 110 1463 366C1463 585 1398 689 1261 689ZM1243 654C1340 654 1379 556 1379 316C1379 103 1341 15 1249 15C1152 15 1111 116 1111 360C1111 571 1148 654 1243 654ZM1772 482C1705 482 1552 419 1552 259C1552 182 1597 136 1674 136C1682 136 1693 136 1704 137L1663 99C1647 84 1636 66 1636 52C1636 42 1643 31 1657 19C1588 -4 1460 -48 1460 -159C1460 -230 1530 -276 1639 -276C1768 -276 1881 -204 1881 -121C1881 -85 1860 -49 1817 -14L1757 35C1723 62 1710 81 1710 100C1710 114 1725 128 1737 146C1835 170 1906 253 1906 342C1906 357 1903 376 1902 380C1919 378 1927 378 1936 378C1953 378 1963 379 1986 382L1995 427L1992 433C1964 426 1944 424 1890 424C1890 425 1866 482 1772 482ZM1673 1L1750 -58C1796 -94 1815 -121 1815 -154C1815 -206 1746 -248 1663 -248C1581 -248 1524 -206 1524 -145C1524 -43 1634 -11 1673 1ZM1747 448C1805 448 1834 412 1834 341C1834 238 1786 168 1716 168C1655 168 1623 209 1623 288C1623 383 1674 448 1747 448Z" stroke="rgb(0,0,0)" stroke-opacity="1" stroke-width="8" fill="rgb(0,0,0)" fill-opacity="1"></path></g></g></g></g><g><g><g><g transform="matrix(1,0,0,1,180.5,280.328125)"><path transform="matrix(0.017,0,0,-0.017,0,0)" d="M418 -3L418 27L366 30C311 33 301 44 301 96L301 700L60 598L67 548L217 614L217 96C217 44 206 33 152 30L96 27L96 -3C250 0 250 0 261 0C292 0 402 -3 418 -3ZM515 23L515 -3C702 -3 702 0 738 0C774 0 774 -3 967 -3L967 82C852 77 806 81 621 77L803 270C900 373 930 428 930 503C930 618 852 689 725 689C653 689 604 669 555 619L538 483L567 483L580 529C596 587 632 612 699 612C785 612 840 558 840 473C840 398 798 324 685 204ZM1014 23L1014 -3C1201 -3 1201 0 1237 0C1273 0 1273 -3 1466 -3L1466 82C1351 77 1305 81 1120 77L1302 270C1399 373 1429 428 1429 503C1429 618 1351 689 1224 689C1152 689 1103 669 1054 619L1037 483L1066 483L1079 529C1095 587 1131 612 1198 612C1284 612 1339 558 1339 473C1339 398 1297 324 1184 204ZM1621 111C1591 111 1564 83 1564 53C1564 23 1591 -5 1620 -5C1652 -5 1680 22 1680 53C1680 83 1652 111 1621 111ZM2026 181L2026 106C2026 46 2015 32 1966 30L1904 27L1904 -3C2037 0 2037 0 2061 0C2085 0 2085 0 2218 -3L2218 27L2170 30C2121 33 2110 46 2110 106L2110 181C2169 181 2190 180 2218 177L2218 248L2110 245L2111 697L2031 667L1748 204L1748 181ZM2026 245L1811 245L2026 597ZM2654 603L2292 -1L2402 -1L2742 659L2742 689L2289 689L2289 477L2319 477L2326 533C2334 595 2341 603 2387 603ZM3019 482C2952 482 2799 419 2799 259C2799 182 2844 136 2921 136C2929 136 2940 136 2951 137L2910 99C2894 84 2883 66 2883 52C2883 42 2890 31 2904 19C2835 -4 2707 -48 2707 -159C2707 -230 2777 -276 2886 -276C3015 -276 3128 -204 3128 -121C3128 -85 3107 -49 3064 -14L3004 35C2970 62 2957 81 2957 100C2957 114 2972 128 2984 146C3082 170 3153 253 3153 342C3153 357 3150 376 3149 380C3166 378 3174 378 3183 378C3200 378 3210 379 3233 382L3242 427L3239 433C3211 426 3191 424 3137 424C3137 425 3113 482 3019 482ZM2920 1L2997 -58C3043 -94 3062 -121 3062 -154C3062 -206 2993 -248 2910 -248C2828 -248 2771 -206 2771 -145C2771 -43 2881 -11 2920 1ZM2994 448C3052 448 3081 412 3081 341C3081 238 3033 168 2963 168C2902 168 2870 209 2870 288C2870 383 2921 448 2994 448Z" stroke="rgb(0,0,0)" stroke-opacity="1" stroke-width="8" fill="rgb(0,0,0)" fill-opacity="1"></path></g></g></g></g><g><g><g><g transform="matrix(1,0,0,1,409.828125,128.328125)"><path transform="matrix(0.017,0,0,-0.017,0,0)" d="M16 23L16 -3C203 -3 203 0 239 0C275 0 275 -3 468 -3L468 82C353 77 307 81 122 77L304 270C401 373 431 428 431 503C431 618 353 689 226 689C154 689 105 669 56 619L39 483L68 483L81 529C97 587 133 612 200 612C286 612 341 558 341 473C341 398 299 324 186 204ZM908 603L546 -1L656 -1L996 659L996 689L543 689L543 477L573 477L580 533C588 595 595 603 641 603ZM1014 23L1014 -3C1201 -3 1201 0 1237 0C1273 0 1273 -3 1466 -3L1466 82C1351 77 1305 81 1120 77L1302 270C1399 373 1429 428 1429 503C1429 618 1351 689 1224 689C1152 689 1103 669 1054 619L1037 483L1066 483L1079 529C1095 587 1131 612 1198 612C1284 612 1339 558 1339 473C1339 398 1297 324 1184 204ZM1621 111C1591 111 1564 83 1564 53C1564 23 1591 -5 1620 -5C1652 -5 1680 22 1680 53C1680 83 1652 111 1621 111ZM2026 181L2026 106C2026 46 2015 32 1966 30L1904 27L1904 -3C2037 0 2037 0 2061 0C2085 0 2085 0 2218 -3L2218 27L2170 30C2121 33 2110 46 2110 106L2110 181C2169 181 2190 180 2218 177L2218 248L2110 245L2111 697L2031 667L1748 204L1748 181ZM2026 245L1811 245L2026 597ZM2654 603L2292 -1L2402 -1L2742 659L2742 689L2289 689L2289 477L2319 477L2326 533C2334 595 2341 603 2387 603Z" stroke="rgb(0,0,0)" stroke-opacity="1" stroke-width="8" fill="rgb(0,0,0)" fill-opacity="1"></path></g></g></g></g><g><g><g><g transform="matrix(1,0,0,1,335.828125,177)"><path transform="matrix(0.017,0,0,-0.017,0,0)" d="M418 -3L418 27L366 30C311 33 301 44 301 96L301 700L60 598L67 548L217 614L217 96C217 44 206 33 152 30L96 27L96 -3C250 0 250 0 261 0C292 0 402 -3 418 -3ZM958 253C958 366 877 446 763 446C715 446 679 443 626 396L626 605L931 604L931 689L574 690L574 322L594 316C641 363 668 377 717 377C813 377 873 309 873 201C873 90 809 25 700 25C646 25 596 43 582 69L536 151L512 137C535 80 547 48 561 4C589 -11 629 -20 672 -20C800 -20 958 89 958 253ZM1261 689C1106 689 1027 566 1027 324C1027 207 1048 106 1083 57C1118 8 1174 -20 1236 -20C1387 -20 1463 110 1463 366C1463 585 1398 689 1261 689ZM1243 654C1340 654 1379 556 1379 316C1379 103 1341 15 1249 15C1152 15 1111 116 1111 360C1111 571 1148 654 1243 654Z" stroke="rgb(0,0,0)" stroke-opacity="1" stroke-width="8" fill="rgb(0,0,0)" fill-opacity="1"></path></g></g></g></g></svg>
</svg>
