<svg xmlns="http://www.w3.org/2000/svg" xmlns:xlink="http://www.w3.org/1999/xlink" x="0" y="0" width="662" height="220" style="
        width:662px;
        height:220px;
        background: transparent;
        fill: none;
">
        
        
        <svg xmlns="http://www.w3.org/2000/svg" class="role-diagram-draw-area"><g class="shapes-region" style="stroke: black; fill: none;"><g class="arrow-line"><path class="connection real" stroke-dasharray="" d="  M197.67,203.86 L519,203.86" style="stroke: rgb(0, 0, 0); stroke-width: 1; fill: none; fill-opacity: 1;"/></g><g class="composite-shape"><path class="real" d=" M508.05,120.7 L197.67,203.86 L144,3.6" style="stroke-width: 1; stroke: rgb(0, 0, 0); fill: none; fill-opacity: 1;"/></g><g class="composite-shape"><path class="real" d=" M226.78,196.58 C227.36,198.92 227.67,201.35 227.67,203.86 C227.67,203.86 227.67,203.86 227.67,203.86 L197.67,203.86 Z" style="stroke-width: 1; stroke: none; fill: none; fill-opacity: 1;"/><path class="real" d=" M226.78,196.58 C227.36,198.92 227.67,201.35 227.67,203.86 C227.67,203.86 227.67,203.86 227.67,203.86" style="stroke-width: 1; stroke: rgb(0, 0, 0); fill: none; fill-opacity: 1;"/></g><g class="composite-shape"><path class="real" d=" M187.14,160.77 C187.14,141.57 202.7,126 221.9,126 C241.1,126 256.67,141.57 256.67,160.77 C256.67,179.97 241.1,195.53 221.9,195.53 C202.7,195.53 187.14,179.97 187.14,160.77 Z" style="stroke-width: 1; stroke: rgb(0, 0, 0); fill: none; fill-opacity: 1;"/></g><g class="composite-shape"><path class="real" d=" M254.47,142.77 C254.47,123.57 270.03,108 289.23,108 C308.43,108 324,123.57 324,142.77 C324,161.97 308.43,177.53 289.23,177.53 C270.03,177.53 254.47,161.97 254.47,142.77 Z" style="stroke-width: 1; stroke: rgb(0, 0, 0); fill: none; fill-opacity: 1;"/></g><g class="composite-shape"><path class="real" d=" M205.14,93.43 C205.14,74.23 220.7,58.67 239.9,58.67 C259.1,58.67 274.67,74.23 274.67,93.43 C274.67,112.63 259.1,128.2 239.9,128.2 C220.7,128.2 205.14,112.63 205.14,93.43 Z" style="stroke-width: 1; stroke: rgb(0, 0, 0); fill: none; fill-opacity: 1;"/></g><g class="composite-shape"><path class="real" d=" M239.93,93.42 L289.23,142.77 L221.91,160.8 Z" style="stroke-width: 1; stroke: rgb(0, 0, 0); fill: none; fill-opacity: 1;"/></g><g class="composite-shape axis2d" style="stroke-width: 1; stroke: rgb(0, 0, 0);"><path class="real" d=" M176.61,112.63 L318.13,150.54 M254.11,40.96 L215.63,184.58"/><path d=" M312.66,143.9 L318.13,150.54 L310.08,153.56"/><path d=" M247.46,46.43 L254.11,40.96 L257.12,49.02"/></g><g class="composite-shape axis2d" style="stroke-width: 1; stroke: rgb(0, 0, 0);"><path class="real" d=" M304.86,158.37 L201.26,54.78 M304.05,79.56 L239.1,144.51"/><path d=" M209.75,56.19 L201.26,54.78 L202.68,63.26"/><path d=" M302.64,88.04 L304.05,79.56 L295.57,80.97"/></g><g/></g><g/><g/><g/></svg>
        <svg xmlns="http://www.w3.org/2000/svg" xmlns:xlink="http://www.w3.org/1999/xlink" width="660" height="218" style="width:660px;height:218px;font-family:Asana-Math, Asana;background:transparent;"><g><g><g><g transform="matrix(1,0,0,1,278.5,201)"><path transform="matrix(0.017,0,0,-0.017,0,0)" d="M237 -16C473 -16 572 316 576 504C578 618 546 702 419 702C159 702 72 412 69 199C67 80 101 -16 237 -16ZM401 676C536 676 506 491 485 381L169 381C194 485 272 676 401 676ZM253 13C102 13 147 261 163 349L479 349C454 237 396 13 253 13Z" stroke="rgb(0,0,0)" stroke-opacity="1" stroke-width="8" fill="rgb(0,0,0)" fill-opacity="1"></path></g></g></g></g></svg>
</svg>
