<svg xmlns="http://www.w3.org/2000/svg" xmlns:xlink="http://www.w3.org/1999/xlink" x="0" y="0" width="662" height="432.4921875" style="
        width:662px;
        height:432.4921875px;
        background: transparent;
        fill: none;
">
        
        
        <svg xmlns="http://www.w3.org/2000/svg" class="role-diagram-draw-area"><g class="shapes-region" style="stroke: black; fill: none;"><g class="composite-shape" data-amt="diagram/shapes/plot" transform="matrix(1,0,0,1,185.5333333333333,34.671875)"><g><g/><g><g class="test-xti" style="font-family: Asana-Math, Asana;"><line x1="0" y1="150.616985504226" x2="329.66666666666674" y2="150.616985504226" fill="none" stroke="rgb(0,0,0)" stroke-opacity="1" stroke-width="1"/><line x1="7.727442701193362" y1="146.616985504226" x2="7.727442701193362" y2="154.616985504226" fill="none" stroke="rgb(0,0,0)" stroke-opacity="1" stroke-width="1"/><line x1="50.44557226467892" y1="146.616985504226" x2="50.44557226467892" y2="154.616985504226" fill="none" stroke="rgb(0,0,0)" stroke-opacity="1" stroke-width="1"/><line x1="135.88183139165002" y1="146.616985504226" x2="135.88183139165002" y2="154.616985504226" fill="none" stroke="rgb(0,0,0)" stroke-opacity="1" stroke-width="1"/><line x1="178.59996095513557" y1="146.616985504226" x2="178.59996095513557" y2="154.616985504226" fill="none" stroke="rgb(0,0,0)" stroke-opacity="1" stroke-width="1"/><line x1="221.31809051862115" y1="146.616985504226" x2="221.31809051862115" y2="154.616985504226" fill="none" stroke="rgb(0,0,0)" stroke-opacity="1" stroke-width="1"/><line x1="264.0362200821067" y1="146.616985504226" x2="264.0362200821067" y2="154.616985504226" fill="none" stroke="rgb(0,0,0)" stroke-opacity="1" stroke-width="1"/><line x1="306.75434964559224" y1="146.616985504226" x2="306.75434964559224" y2="154.616985504226" fill="none" stroke="rgb(0,0,0)" stroke-opacity="1" stroke-width="1"/><path d="M324.66666666666674,147.016985504226 L332.66666666666674,150.616985504226 L324.66666666666674,154.216985504226 Z" stroke="none" stroke-width="1" fill="rgb(0,0,0)" fill-opacity="1"/></g><g class="test-yti" style="font-family: Asana-Math, Asana;"><line x1="93.16370182816448" y1="4" x2="93.16370182816448" y2="320.9" fill="none" stroke="rgb(0,0,0)" stroke-opacity="1" stroke-width="1"/><line x1="89.16370182816448" y1="278.77137419468266" x2="97.16370182816448" y2="278.77137419468266" fill="none" stroke="rgb(0,0,0)" stroke-opacity="1" stroke-width="1"/><line x1="89.16370182816448" y1="236.0532446311971" x2="97.16370182816448" y2="236.0532446311971" fill="none" stroke="rgb(0,0,0)" stroke-opacity="1" stroke-width="1"/><line x1="89.16370182816448" y1="193.33511506771154" x2="97.16370182816448" y2="193.33511506771154" fill="none" stroke="rgb(0,0,0)" stroke-opacity="1" stroke-width="1"/><line x1="89.16370182816448" y1="107.89885594074042" x2="97.16370182816448" y2="107.89885594074042" fill="none" stroke="rgb(0,0,0)" stroke-opacity="1" stroke-width="1"/><line x1="89.16370182816448" y1="65.18072637725487" x2="97.16370182816448" y2="65.18072637725487" fill="none" stroke="rgb(0,0,0)" stroke-opacity="1" stroke-width="1"/><line x1="89.16370182816448" y1="22.462596813769323" x2="97.16370182816448" y2="22.462596813769323" fill="none" stroke="rgb(0,0,0)" stroke-opacity="1" stroke-width="1"/><path d="M89.56370182816448,9 L93.16370182816448,1 L96.76370182816447,9 Z" stroke="none" stroke-width="1" fill="rgb(0,0,0)" fill-opacity="1"/></g><g class="test-plot-expression"><defs><clipPath id="cp7ug23mzip"><rect x="1" y="1" width="331.66666666666674" height="318.9"/></clipPath></defs><g clip-path="url(#cp7ug23mzip)"><g><circle cx="93.16370182816448" cy="150.616985504226" r="1.5" style="stroke-width: 3; stroke: rgb(0, 0, 0); stroke-opacity: 1; fill: rgb(0, 0, 0); fill-opacity: 1;"/></g><path d=" M47.53,78.66 L42.12,85.83 L39.98,89.08 L38.43,91.64 L37.19,93.84 L36.13,95.81 L35.22,97.62 L34.40,99.30 L33.67,100.89 L33.01,102.39 L32.41,103.82 L31.85,105.20 L31.34,106.52 L30.87,107.80 L30.42,109.04 L30.01,110.25 L29.62,111.42 L29.26,112.57 L28.92,113.68 L28.61,114.78 L28.31,115.85 L28.02,116.90 L27.76,117.93 L27.51,118.94 L27.27,119.93 L27.05,120.91 L26.84,121.88 L26.64,122.83 L26.46,123.76 L26.28,124.68 L26.12,125.59 L25.96,126.49 L25.81,127.38 L25.68,128.26 L25.55,129.12 L25.43,129.98 L25.32,130.83 L25.21,131.67 L25.11,132.50 L25.02,133.32 L24.94,134.13 L24.86,134.94 L24.79,135.73 L24.73,136.53 L24.67,137.31 L24.62,138.09 L24.57,138.86 L24.53,139.62 L24.49,140.38 L24.46,141.13 L24.43,141.88 L24.41,142.62 L24.39,143.35 L24.38,144.08 L24.37,144.80 L24.36,145.52 L24.36,146.24 L24.37,146.95 L24.38,147.65 L24.39,148.35 L24.40,149.04 L24.42,149.73 L24.45,150.42 L24.47,151.10 L24.50,151.78 L24.54,152.45 L24.57,153.12 L24.61,153.79 L24.66,154.45 L24.70,155.11 L24.75,155.76 L24.81,156.41 L24.86,157.06 L24.92,157.71 L24.98,158.35 L25.05,158.98 L25.11,159.62 L25.18,160.25 L25.25,160.88 L25.33,161.50 L25.41,162.12 L25.49,162.74 L25.57,163.35 L25.66,163.97 L25.74,164.58 L25.83,165.18 L25.92,165.79 L26.02,166.39 L26.12,166.98 L26.22,167.58 L26.32,168.17 L26.42,168.76 L26.53,169.35 L26.63,169.94 L26.74,170.52 L26.86,171.10 L26.97,171.68 L27.09,172.25 L27.20,172.82 L27.32,173.39 L27.45,173.96 L27.57,174.53 L27.70,175.09 L27.82,175.65 L27.95,176.21 L28.09,176.77 L28.22,177.32 L28.35,177.88 L28.49,178.43 L28.63,178.98 L28.77,179.52 L28.91,180.07 L29.06,180.61 L29.20,181.15 L29.35,181.69 L29.50,182.23 L29.65,182.76 L29.80,183.29 L29.95,183.82 L30.11,184.35 L30.26,184.88 L30.42,185.40 L30.58,185.93 L30.74,186.45 L30.90,186.97 L31.07,187.49 L31.23,188.00 L31.40,188.52 L31.57,189.03 L31.74,189.54 L31.91,190.05 L32.08,190.56 L32.26,191.07 L32.43,191.57 L32.61,192.07 L32.79,192.57 L32.97,193.07 L33.15,193.57 L33.33,194.07 L33.52,194.56 L33.70,195.06 L33.89,195.55 L34.07,196.04 L34.26,196.53 L34.45,197.01 L34.64,197.50 L34.84,197.98 L35.03,198.47 L35.22,198.95 L35.42,199.43 L35.62,199.91 L35.82,200.38 L36.02,200.86 L36.22,201.33 L36.42,201.81 L36.62,202.28 L36.83,202.75 L37.03,203.22 L37.24,203.68 L37.45,204.15 L37.66,204.61 L37.87,205.08 L38.08,205.54 L38.29,206.00 L38.50,206.46 L38.72,206.92 L38.93,207.37 L39.15,207.83 L39.37,208.28 L39.59,208.74 L39.81,209.19 L40.03,209.64 L40.25,210.09 L40.47,210.53 L40.70,210.98 L40.92,211.43 L41.15,211.87 L41.38,212.31 L41.60,212.76 L41.83,213.20 L42.06,213.63 L42.30,214.07 L42.53,214.51 L42.76,214.95 L42.99,215.38 L43.23,215.81 L43.47,216.25 L43.70,216.68 L43.94,217.11 L44.18,217.54 L44.42,217.96 L44.66,218.39 L44.90,218.82 L45.15,219.24 L45.39,219.66 L45.63,220.08 L45.88,220.51 L46.13,220.93 L46.37,221.34 L46.62,221.76 L46.87,222.18 L47.12,222.59 L47.37,223.01 L47.63,223.42 L47.88,223.83 L48.13,224.24 L48.39,224.65 L48.64,225.06 L48.90,225.47 L49.16,225.88 L49.41,226.28 L49.67,226.69 L49.93,227.09 L50.19,227.50 L50.46,227.90 L50.72,228.30 L50.98,228.70 L51.25,229.10 L51.51,229.49 L51.78,229.89 L52.04,230.29 L52.31,230.68 L52.58,231.08 L52.85,231.47 L53.12,231.86 L53.39,232.25 L53.66,232.64 L53.93,233.03 L54.21,233.42 L54.48,233.80 L54.76,234.19 L55.03,234.57 L55.31,234.96 L55.59,235.34 L55.87,235.72 L56.15,236.10 L56.43,236.48 L56.71,236.86 L56.99,237.24 L57.27,237.62 L57.55,238.00 L57.84,238.37 L58.12,238.74 L58.41,239.12 L58.69,239.49 L58.98,239.86 L59.27,240.23 L59.56,240.60 L59.85,240.97 L60.14,241.34 L60.43,241.71 L60.72,242.07 L61.01,242.44 L61.30,242.80 L61.60,243.16 L61.89,243.53 L62.19,243.89 L62.49,244.25 L62.78,244.61 L63.08,244.97 L63.38,245.33 L63.68,245.68 L63.98,246.04 L64.28,246.39 L64.58,246.75 L64.88,247.10 L65.19,247.45 L65.49,247.81 L65.79,248.16 L66.10,248.51 L66.41,248.85 L66.71,249.20 L67.02,249.55 L67.33,249.90 L67.64,250.24 L67.95,250.59 L68.26,250.93 L68.57,251.27 L68.88,251.61 L69.19,251.96 L69.51,252.30 L69.82,252.64 L70.13,252.97 L70.45,253.31 L70.77,253.65 L71.08,253.98 L71.40,254.32 L71.72,254.65 L72.04,254.99 L72.36,255.32 L72.68,255.65 L73.00,255.98 L73.32,256.31 L73.65,256.64 L73.97,256.97 L74.29,257.30 L74.62,257.62 L74.94,257.95 L75.27,258.27 L75.60,258.60 L75.92,258.92 L76.25,259.24 L76.58,259.56 L76.91,259.88 L77.24,260.20 L77.57,260.52 L77.91,260.84 L78.24,261.16 L78.57,261.47 L78.91,261.79 L79.24,262.10 L79.58,262.42 L79.91,262.73 L80.25,263.04 L80.59,263.35 L80.93,263.66 L81.26,263.97 L81.60,264.28 L81.94,264.59 L82.29,264.90 L82.63,265.20 L82.97,265.51 L83.31,265.81 L83.66,266.12 L84.00,266.42 L84.35,266.72 L84.69,267.02 L85.04,267.32 L85.39,267.62 L85.74,267.92 L86.08,268.22 L86.43,268.52 L86.78,268.81 L87.14,269.11 L87.49,269.40 L87.84,269.70 L88.19,269.99 L88.55,270.28 L88.90,270.57 L89.26,270.86 L89.61,271.15 L89.97,271.44 L90.33,271.73 L90.68,272.02 L91.04,272.30 L91.40,272.59 L91.76,272.87 L92.12,273.16 L92.48,273.44 L92.85,273.72 L93.21,274.00 L93.57,274.28 L93.94,274.56 L94.30,274.84 L94.67,275.12 L95.03,275.40 L95.40,275.67 L95.77,275.95 L96.14,276.22 L96.51,276.50 L96.88,276.77 L97.25,277.04 L97.62,277.31 L97.99,277.58 L98.36,277.85 L98.74,278.12 L99.11,278.39 L99.48,278.66 L99.86,278.92 L100.24,279.19 L100.61,279.45 L100.99,279.72 L101.37,279.98 L101.75,280.24 L102.13,280.50 L102.51,280.76 L102.89,281.02 L103.27,281.28 L103.65,281.54 L104.04,281.79 L104.42,282.05 L104.81,282.30 L105.19,282.56 L105.58,282.81 L105.97,283.06 L106.35,283.32 L106.74,283.57 L107.13,283.82 L107.52,284.07 L107.91,284.31 L108.30,284.56 L108.70,284.81 L109.09,285.05 L109.48,285.30 L109.88,285.54 L110.27,285.78 L110.67,286.03 L111.06,286.27 L111.46,286.51 L111.86,286.75 L112.26,286.98 L112.66,287.22 L113.06,287.46 L113.46,287.69 L113.86,287.93 L114.26,288.16 L114.67,288.40 L115.07,288.63 L115.48,288.86 L115.88,289.09 L116.29,289.32 L116.69,289.55 L117.10,289.78 L117.51,290.00 L117.92,290.23 L118.33,290.45 L118.74,290.68 L119.15,290.90 L119.56,291.12 L119.98,291.34 L120.39,291.56 L120.81,291.78 L121.22,292.00 L121.64,292.22 L122.06,292.44 L122.47,292.65 L122.89,292.87 L123.31,293.08 L123.73,293.29 L124.15,293.51 L124.57,293.72 L125.00,293.93 L125.42,294.14 L125.84,294.34 L126.27,294.55 L126.70,294.76 L127.12,294.96 L127.55,295.17 L127.98,295.37 L128.41,295.57 L128.84,295.77 L129.27,295.97 L129.70,296.17 L130.13,296.37 L130.56,296.57 L131.00,296.76 L131.43,296.96 L131.87,297.15 L132.31,297.35 L132.74,297.54 L133.18,297.73 L133.62,297.92 L134.06,298.11 L134.50,298.30 L134.94,298.49 L135.39,298.67 L135.83,298.86 L136.27,299.04 L136.72,299.23 L137.16,299.41 L137.61,299.59 L138.06,299.77 L138.51,299.95 L138.96,300.12 L139.41,300.30 L139.86,300.48 L140.31,300.65 L140.77,300.83 L141.22,301.00 L141.67,301.17 L142.13,301.34 L142.59,301.51 L143.04,301.68 L143.50,301.84 L143.96,302.01 L144.42,302.17 L144.89,302.34 L145.35,302.50 L145.81,302.66 L146.28,302.82 L146.74,302.98 L147.21,303.14 L147.67,303.30 L148.14,303.45 L148.61,303.61 L149.08,303.76 L149.55,303.91 L150.03,304.06 L150.50,304.21 L150.97,304.36 L151.45,304.51 L151.93,304.65 L152.40,304.80 L152.88,304.94 L153.36,305.08 L153.84,305.23 L154.32,305.36 L154.80,305.50 L155.29,305.64 L155.77,305.78 L156.26,305.91 L156.75,306.05 L157.23,306.18 L157.72,306.31 L158.21,306.44 L158.70,306.57 L159.20,306.69 L159.69,306.82 L160.18,306.94 L160.68,307.07 L161.18,307.19 L161.67,307.31 L162.17,307.43 L162.67,307.54 L163.18,307.66 L163.68,307.77 L164.18,307.89 L164.69,308.00 L165.19,308.11 L165.70,308.22 L166.21,308.33 L166.72,308.43 L167.23,308.54 L167.74,308.64 L168.26,308.74 L168.77,308.84 L169.29,308.94 L169.80,309.04 L170.32,309.13 L170.84,309.23 L171.37,309.32 L171.89,309.41 L172.41,309.50 L172.94,309.59 L173.46,309.67 L173.99,309.76 L174.52,309.84 L175.05,309.92 L175.59,310.00 L176.12,310.07 L176.65,310.15 L177.19,310.22 L177.73,310.30 L178.27,310.37 L178.81,310.44 L179.35,310.50 L179.90,310.57 L180.44,310.63 L180.99,310.69 L181.54,310.75 L182.09,310.81 L182.64,310.87 L183.20,310.92 L183.75,310.97 L184.31,311.02 L184.87,311.07 L185.43,311.12 L185.99,311.16 L186.55,311.20 L187.12,311.24 L187.68,311.28 L188.25,311.31 L188.82,311.35 L189.40,311.38 L189.97,311.41 L190.55,311.43 L191.13,311.46 L191.71,311.48 L192.29,311.50 L192.87,311.52 L193.46,311.53 L194.05,311.55 L194.64,311.56 L195.23,311.57 L195.82,311.57 L196.42,311.57 L197.02,311.57 L197.62,311.57 L198.22,311.57 L198.83,311.56 L199.43,311.55 L200.04,311.54 L200.66,311.52 L201.27,311.50 L201.89,311.48 L202.51,311.46 L203.13,311.43 L203.75,311.40 L204.38,311.37 L205.01,311.33 L205.64,311.29 L206.28,311.25 L206.91,311.20 L207.55,311.15 L208.20,311.10 L208.84,311.04 L209.49,310.98 L210.14,310.92 L210.80,310.85 L211.46,310.78 L212.12,310.70 L212.78,310.63 L213.45,310.54 L214.12,310.46 L214.80,310.37 L215.48,310.27 L216.16,310.17 L216.85,310.07 L217.54,309.96 L218.23,309.85 L218.93,309.73 L219.63,309.61 L220.33,309.48 L221.04,309.35 L221.76,309.21 L222.48,309.07 L223.20,308.92 L223.93,308.76 L224.66,308.60 L225.40,308.44 L226.14,308.26 L226.89,308.09 L227.65,307.90 L228.41,307.71 L229.17,307.51 L229.94,307.30 L230.72,307.09 L231.51,306.87 L232.30,306.64 L233.09,306.40 L233.90,306.16 L234.71,305.90 L235.53,305.64 L236.36,305.37 L237.20,305.08 L238.04,304.79 L238.90,304.48 L239.76,304.17 L240.64,303.84 L241.52,303.50 L242.42,303.14 L243.33,302.77 L244.25,302.39 L245.18,301.99 L246.13,301.57 L247.09,301.14 L248.07,300.68 L249.07,300.21 L250.08,299.72 L251.12,299.20 L252.18,298.65 L253.26,298.08 L254.36,297.47 L255.50,296.83 L256.67,296.15 L257.87,295.43 L259.11,294.67 L260.40,293.84 L261.74,292.96 L263.15,291.99 L264.64,290.93 L266.22,289.76 L267.93,288.44 L269.80,286.92 L271.94,285.09 L274.52,282.72 L278.34,278.88 L281.83,274.96" style="stroke-width: 1; stroke: rgb(0, 0, 0); stroke-opacity: 1;"/><path d=" M48.03,78.06 L54.15,71.49 L56.99,68.82 L59.24,66.85 L61.19,65.24 L62.95,63.86 L64.57,62.64 L66.08,61.55 L67.51,60.56 L68.88,59.65 L70.18,58.80 L71.44,58.02 L72.66,57.28 L73.84,56.59 L74.98,55.94 L76.10,55.32 L77.18,54.74 L78.25,54.19 L79.29,53.66 L80.31,53.15 L81.31,52.67 L82.30,52.21 L83.27,51.77 L84.22,51.35 L85.16,50.95 L86.09,50.56 L87.00,50.18 L87.90,49.82 L88.79,49.48 L89.67,49.14 L90.53,48.82 L91.39,48.51 L92.24,48.22 L93.08,47.93 L93.91,47.65 L94.73,47.39 L95.55,47.13 L96.36,46.88 L97.16,46.64 L97.95,46.41 L98.74,46.18 L99.52,45.97 L100.29,45.76 L101.06,45.56 L101.82,45.36 L102.58,45.18 L103.33,45.00 L104.07,44.82 L104.81,44.65 L105.55,44.49 L106.27,44.34 L107.00,44.19 L107.72,44.04 L108.44,43.90 L109.15,43.77 L109.85,43.64 L110.56,43.51 L111.26,43.40 L111.95,43.28 L112.64,43.17 L113.33,43.07 L114.01,42.96 L114.69,42.87 L115.37,42.78 L116.04,42.69 L116.71,42.60 L117.38,42.52 L118.04,42.45 L118.70,42.38 L119.36,42.31 L120.01,42.24 L120.66,42.18 L121.31,42.12 L121.95,42.07 L122.59,42.02 L123.23,41.97 L123.87,41.93 L124.50,41.89 L125.13,41.85 L125.76,41.81 L126.38,41.78 L127.00,41.75 L127.62,41.73 L128.24,41.71 L128.86,41.69 L129.47,41.67 L130.08,41.66 L130.69,41.65 L131.29,41.64 L131.90,41.63 L132.50,41.63 L133.10,41.63 L133.70,41.63 L134.29,41.64 L134.88,41.64 L135.47,41.65 L136.06,41.66 L136.65,41.68 L137.23,41.70 L137.82,41.71 L138.40,41.74 L138.98,41.76 L139.55,41.79 L140.13,41.81 L140.70,41.84 L141.27,41.88 L141.84,41.91 L142.41,41.95 L142.98,41.99 L143.54,42.03 L144.10,42.07 L144.66,42.12 L145.22,42.17 L145.78,42.21 L146.34,42.27 L146.89,42.32 L147.44,42.37 L147.99,42.43 L148.54,42.49 L149.09,42.55 L149.64,42.61 L150.18,42.68 L150.73,42.74 L151.27,42.81 L151.81,42.88 L152.35,42.95 L152.88,43.03 L153.42,43.10 L153.95,43.18 L154.49,43.26 L155.02,43.34 L155.55,43.42 L156.08,43.50 L156.60,43.59 L157.13,43.68 L157.65,43.76 L158.18,43.85 L158.70,43.95 L159.22,44.04 L159.74,44.13 L160.26,44.23 L160.77,44.33 L161.29,44.43 L161.80,44.53 L162.32,44.63 L162.83,44.74 L163.34,44.84 L163.85,44.95 L164.36,45.06 L164.86,45.17 L165.37,45.28 L165.87,45.39 L166.37,45.50 L166.88,45.62 L167.38,45.74 L167.88,45.86 L168.38,45.98 L168.87,46.10 L169.37,46.22 L169.86,46.34 L170.36,46.47 L170.85,46.59 L171.34,46.72 L171.83,46.85 L172.32,46.98 L172.81,47.11 L173.30,47.25 L173.78,47.38 L174.27,47.52 L174.75,47.65 L175.23,47.79 L175.72,47.93 L176.20,48.07 L176.68,48.21 L177.16,48.36 L177.63,48.50 L178.11,48.65 L178.59,48.79 L179.06,48.94 L179.53,49.09 L180.01,49.24 L180.48,49.39 L180.95,49.55 L181.42,49.70 L181.89,49.86 L182.35,50.01 L182.82,50.17 L183.29,50.33 L183.75,50.49 L184.22,50.65 L184.68,50.81 L185.14,50.97 L185.60,51.14 L186.06,51.30 L186.52,51.47 L186.98,51.64 L187.43,51.81 L187.89,51.98 L188.35,52.15 L188.80,52.32 L189.25,52.49 L189.71,52.67 L190.16,52.84 L190.61,53.02 L191.06,53.20 L191.51,53.38 L191.96,53.55 L192.40,53.74 L192.85,53.92 L193.30,54.10 L193.74,54.28 L194.18,54.47 L194.63,54.65 L195.07,54.84 L195.51,55.03 L195.95,55.22 L196.39,55.41 L196.83,55.60 L197.27,55.79 L197.70,55.98 L198.14,56.18 L198.57,56.37 L199.01,56.57 L199.44,56.77 L199.87,56.96 L200.31,57.16 L200.74,57.36 L201.17,57.56 L201.60,57.77 L202.03,57.97 L202.45,58.17 L202.88,58.38 L203.31,58.58 L203.73,58.79 L204.16,59.00 L204.58,59.21 L205.00,59.42 L205.42,59.63 L205.85,59.84 L206.27,60.05 L206.69,60.27 L207.10,60.48 L207.52,60.70 L207.94,60.91 L208.36,61.13 L208.77,61.35 L209.19,61.57 L209.60,61.79 L210.02,62.01 L210.43,62.23 L210.84,62.45 L211.25,62.68 L211.66,62.90 L212.07,63.13 L212.48,63.35 L212.89,63.58 L213.29,63.81 L213.70,64.04 L214.11,64.27 L214.51,64.50 L214.92,64.73 L215.32,64.96 L215.72,65.20 L216.12,65.43 L216.53,65.67 L216.93,65.90 L217.33,66.14 L217.73,66.38 L218.12,66.62 L218.52,66.86 L218.92,67.10 L219.31,67.34 L219.71,67.58 L220.10,67.83 L220.50,68.07 L220.89,68.31 L221.28,68.56 L221.67,68.81 L222.07,69.06 L222.46,69.30 L222.85,69.55 L223.23,69.80 L223.62,70.06 L224.01,70.31 L224.40,70.56 L224.78,70.81 L225.17,71.07 L225.55,71.32 L225.93,71.58 L226.32,71.84 L226.70,72.10 L227.08,72.36 L227.46,72.61 L227.84,72.88 L228.22,73.14 L228.60,73.40 L228.98,73.66 L229.36,73.93 L229.73,74.19 L230.11,74.46 L230.48,74.72 L230.86,74.99 L231.23,75.26 L231.60,75.53 L231.98,75.80 L232.35,76.07 L232.72,76.34 L233.09,76.61 L233.46,76.89 L233.83,77.16 L234.19,77.44 L234.56,77.71 L234.93,77.99 L235.29,78.27 L235.66,78.55 L236.02,78.83 L236.39,79.11 L236.75,79.39 L237.11,79.67 L237.48,79.95 L237.84,80.23 L238.20,80.52 L238.56,80.80 L238.91,81.09 L239.27,81.38 L239.63,81.66 L239.99,81.95 L240.34,82.24 L240.70,82.53 L241.05,82.82 L241.41,83.11 L241.76,83.41 L242.11,83.70 L242.46,84.00 L242.82,84.29 L243.17,84.59 L243.52,84.88 L243.87,85.18 L244.21,85.48 L244.56,85.78 L244.91,86.08 L245.25,86.38 L245.60,86.68 L245.95,86.98 L246.29,87.29 L246.63,87.59 L246.98,87.90 L247.32,88.20 L247.66,88.51 L248.00,88.82 L248.34,89.13 L248.68,89.44 L249.02,89.75 L249.36,90.06 L249.69,90.37 L250.03,90.68 L250.36,90.99 L250.70,91.31 L251.03,91.62 L251.37,91.94 L251.70,92.26 L252.03,92.57 L252.36,92.89 L252.70,93.21 L253.03,93.53 L253.35,93.85 L253.68,94.18 L254.01,94.50 L254.34,94.82 L254.66,95.15 L254.99,95.47 L255.32,95.80 L255.64,96.13 L255.96,96.45 L256.29,96.78 L256.61,97.11 L256.93,97.44 L257.25,97.77 L257.57,98.11 L257.89,98.44 L258.21,98.77 L258.53,99.11 L258.84,99.44 L259.16,99.78 L259.48,100.12 L259.79,100.46 L260.11,100.79 L260.42,101.13 L260.73,101.47 L261.05,101.82 L261.36,102.16 L261.67,102.50 L261.98,102.85 L262.29,103.19 L262.60,103.54 L262.90,103.88 L263.21,104.23 L263.52,104.58 L263.82,104.93 L264.13,105.28 L264.43,105.63 L264.73,105.98 L265.04,106.34 L265.34,106.69 L265.64,107.05 L265.94,107.40 L266.24,107.76 L266.54,108.12 L266.84,108.47 L267.13,108.83 L267.43,109.19 L267.73,109.56 L268.02,109.92 L268.31,110.28 L268.61,110.64 L268.90,111.01 L269.19,111.38 L269.48,111.74 L269.77,112.11 L270.06,112.48 L270.35,112.85 L270.64,113.22 L270.93,113.59 L271.21,113.96 L271.50,114.33 L271.79,114.71 L272.07,115.08 L272.35,115.46 L272.64,115.84 L272.92,116.21 L273.20,116.59 L273.48,116.97 L273.76,117.35 L274.04,117.73 L274.31,118.12 L274.59,118.50 L274.87,118.89 L275.14,119.27 L275.42,119.66 L275.69,120.04 L275.96,120.43 L276.24,120.82 L276.51,121.21 L276.78,121.60 L277.05,122.00 L277.32,122.39 L277.58,122.78 L277.85,123.18 L278.12,123.58 L278.38,123.97 L278.65,124.37 L278.91,124.77 L279.17,125.17 L279.44,125.57 L279.70,125.98 L279.96,126.38 L280.22,126.78 L280.48,127.19 L280.73,127.60 L280.99,128.00 L281.25,128.41 L281.50,128.82 L281.75,129.23 L282.01,129.64 L282.26,130.06 L282.51,130.47 L282.76,130.89 L283.01,131.30 L283.26,131.72 L283.51,132.14 L283.75,132.56 L284.00,132.98 L284.25,133.40 L284.49,133.82 L284.73,134.25 L284.98,134.67 L285.22,135.10 L285.46,135.53 L285.70,135.95 L285.93,136.38 L286.17,136.81 L286.41,137.25 L286.64,137.68 L286.88,138.11 L287.11,138.55 L287.34,138.98 L287.58,139.42 L287.81,139.86 L288.04,140.30 L288.26,140.74 L288.49,141.19 L288.72,141.63 L288.94,142.07 L289.17,142.52 L289.39,142.97 L289.61,143.42 L289.84,143.87 L290.06,144.32 L290.28,144.77 L290.49,145.22 L290.71,145.68 L290.93,146.13 L291.14,146.59 L291.36,147.05 L291.57,147.51 L291.78,147.97 L291.99,148.43 L292.20,148.90 L292.41,149.36 L292.62,149.83 L292.82,150.30 L293.03,150.77 L293.23,151.24 L293.43,151.71 L293.63,152.19 L293.83,152.66 L294.03,153.14 L294.23,153.62 L294.43,154.09 L294.62,154.58 L294.82,155.06 L295.01,155.54 L295.20,156.03 L295.39,156.51 L295.58,157.00 L295.77,157.49 L295.96,157.98 L296.14,158.48 L296.32,158.97 L296.51,159.47 L296.69,159.96 L296.87,160.46 L297.05,160.96 L297.22,161.47 L297.40,161.97 L297.58,162.48 L297.75,162.98 L297.92,163.49 L298.09,164.00 L298.26,164.51 L298.43,165.03 L298.59,165.54 L298.76,166.06 L298.92,166.58 L299.08,167.10 L299.24,167.62 L299.40,168.15 L299.56,168.68 L299.71,169.20 L299.87,169.73 L300.02,170.27 L300.17,170.80 L300.32,171.34 L300.47,171.87 L300.61,172.41 L300.76,172.96 L300.90,173.50 L301.04,174.04 L301.18,174.59 L301.32,175.14 L301.45,175.69 L301.59,176.25 L301.72,176.81 L301.85,177.36 L301.98,177.92 L302.10,178.49 L302.23,179.05 L302.35,179.62 L302.47,180.19 L302.59,180.76 L302.71,181.34 L302.82,181.91 L302.94,182.49 L303.05,183.07 L303.15,183.66 L303.26,184.24 L303.37,184.83 L303.47,185.43 L303.57,186.02 L303.67,186.62 L303.76,187.22 L303.85,187.82 L303.94,188.43 L304.03,189.03 L304.12,189.65 L304.20,190.26 L304.28,190.88 L304.36,191.50 L304.44,192.12 L304.51,192.75 L304.58,193.38 L304.65,194.01 L304.71,194.64 L304.78,195.28 L304.84,195.93 L304.89,196.57 L304.95,197.22 L305.00,197.88 L305.05,198.53 L305.09,199.19 L305.13,199.86 L305.17,200.53 L305.20,201.20 L305.23,201.88 L305.26,202.56 L305.29,203.24 L305.31,203.93 L305.32,204.62 L305.34,205.32 L305.35,206.02 L305.35,206.73 L305.35,207.44 L305.35,208.16 L305.34,208.88 L305.33,209.61 L305.32,210.34 L305.29,211.08 L305.27,211.83 L305.24,212.57 L305.20,213.33 L305.16,214.09 L305.12,214.86 L305.07,215.64 L305.01,216.42 L304.95,217.21 L304.88,218.00 L304.80,218.80 L304.72,219.61 L304.63,220.43 L304.54,221.26 L304.44,222.10 L304.33,222.94 L304.21,223.79 L304.08,224.66 L303.95,225.53 L303.81,226.41 L303.65,227.31 L303.49,228.22 L303.32,229.13 L303.14,230.07 L302.94,231.01 L302.74,231.97 L302.52,232.94 L302.29,233.93 L302.04,234.94 L301.78,235.96 L301.51,237.01 L301.21,238.07 L300.90,239.15 L300.57,240.26 L300.21,241.40 L299.84,242.56 L299.43,243.76 L299.00,244.99 L298.54,246.25 L298.04,247.56 L297.50,248.92 L296.91,250.33 L296.27,251.81 L295.56,253.37 L294.78,255.01 L293.90,256.77 L292.90,258.68 L291.72,260.80 L290.29,263.22 L288.41,266.17 L285.29,270.60 L282.04,274.72" style="stroke-width: 1; stroke: rgb(0, 0, 0); stroke-opacity: 1;"/><path d=" M47.78,78.36 L48.13,78.66 L48.48,78.95 L48.84,79.25 L49.19,79.54 L49.54,79.84 L49.89,80.13 L50.24,80.43 L50.59,80.72 L50.94,81.02 L51.30,81.31 L51.65,81.61 L52.00,81.90 L52.35,82.20 L52.70,82.49 L53.05,82.79 L53.40,83.08 L53.76,83.38 L54.11,83.67 L54.46,83.97 L54.81,84.26 L55.16,84.55 L55.51,84.85 L55.86,85.14 L56.22,85.44 L56.57,85.73 L56.92,86.03 L57.27,86.32 L57.62,86.62 L57.97,86.91 L58.32,87.21 L58.68,87.50 L59.03,87.80 L59.38,88.09 L59.73,88.39 L60.08,88.68 L60.43,88.98 L60.78,89.27 L61.14,89.57 L61.49,89.86 L61.84,90.16 L62.19,90.45 L62.54,90.75 L62.89,91.04 L63.24,91.34 L63.60,91.63 L63.95,91.93 L64.30,92.22 L64.65,92.52 L65.00,92.81 L65.35,93.11 L65.70,93.40 L66.06,93.70 L66.41,93.99 L66.76,94.29 L67.11,94.58 L67.46,94.88 L67.81,95.17 L68.16,95.46 L68.51,95.76 L68.87,96.05 L69.22,96.35 L69.57,96.64 L69.92,96.94 L70.27,97.23 L70.62,97.53 L70.97,97.82 L71.33,98.12 L71.68,98.41 L72.03,98.71 L72.38,99.00 L72.73,99.30 L73.08,99.59 L73.43,99.89 L73.79,100.18 L74.14,100.48 L74.49,100.77 L74.84,101.07 L75.19,101.36 L75.54,101.66 L75.89,101.95 L76.25,102.25 L76.60,102.54 L76.95,102.84 L77.30,103.13 L77.65,103.43 L78.00,103.72 L78.35,104.02 L78.71,104.31 L79.06,104.61 L79.41,104.90 L79.76,105.20 L80.11,105.49 L80.46,105.79 L80.81,106.08 L81.17,106.37 L81.52,106.67 L81.87,106.96 L82.22,107.26 L82.57,107.55 L82.92,107.85 L83.27,108.14 L83.63,108.44 L83.98,108.73 L84.33,109.03 L84.68,109.32 L85.03,109.62 L85.38,109.91 L85.73,110.21 L86.09,110.50 L86.44,110.80 L86.79,111.09 L87.14,111.39 L87.49,111.68 L87.84,111.98 L88.19,112.27 L88.55,112.57 L88.90,112.86 L89.25,113.16 L89.60,113.45 L89.95,113.75 L90.30,114.04 L90.65,114.34 L91.00,114.63 L91.36,114.93 L91.71,115.22 L92.06,115.52 L92.41,115.81 L92.76,116.11 L93.11,116.40 L93.46,116.70 L93.82,116.99 L94.17,117.28 L94.52,117.58 L94.87,117.87 L95.22,118.17 L95.57,118.46 L95.92,118.76 L96.28,119.05 L96.63,119.35 L96.98,119.64 L97.33,119.94 L97.68,120.23 L98.03,120.53 L98.38,120.82 L98.74,121.12 L99.09,121.41 L99.44,121.71 L99.79,122.00 L100.14,122.30 L100.49,122.59 L100.84,122.89 L101.20,123.18 L101.55,123.48 L101.90,123.77 L102.25,124.07 L102.60,124.36 L102.95,124.66 L103.30,124.95 L103.66,125.25 L104.01,125.54 L104.36,125.84 L104.71,126.13 L105.06,126.43 L105.41,126.72 L105.76,127.02 L106.12,127.31 L106.47,127.61 L106.82,127.90 L107.17,128.19 L107.52,128.49 L107.87,128.78 L108.22,129.08 L108.58,129.37 L108.93,129.67 L109.28,129.96 L109.63,130.26 L109.98,130.55 L110.33,130.85 L110.68,131.14 L111.04,131.44 L111.39,131.73 L111.74,132.03 L112.09,132.32 L112.44,132.62 L112.79,132.91 L113.14,133.21 L113.49,133.50 L113.85,133.80 L114.20,134.09 L114.55,134.39 L114.90,134.68 L115.25,134.98 L115.60,135.27 L115.95,135.57 L116.31,135.86 L116.66,136.16 L117.01,136.45 L117.36,136.75 L117.71,137.04 L118.06,137.34 L118.41,137.63 L118.77,137.93 L119.12,138.22 L119.47,138.52 L119.82,138.81 L120.17,139.10 L120.52,139.40 L120.87,139.69 L121.23,139.99 L121.58,140.28 L121.93,140.58 L122.28,140.87 L122.63,141.17 L122.98,141.46 L123.33,141.76 L123.69,142.05 L124.04,142.35 L124.39,142.64 L124.74,142.94 L125.09,143.23 L125.44,143.53 L125.79,143.82 L126.15,144.12 L126.50,144.41 L126.85,144.71 L127.20,145.00 L127.55,145.30 L127.90,145.59 L128.25,145.89 L128.61,146.18 L128.96,146.48 L129.31,146.77 L129.66,147.07 L130.01,147.36 L130.36,147.66 L130.71,147.95 L131.07,148.25 L131.42,148.54 L131.77,148.84 L132.12,149.13 L132.47,149.43 L132.82,149.72 L133.17,150.01 L133.52,150.31 L133.88,150.60 L134.23,150.90 L134.58,151.19 L134.93,151.49 L135.28,151.78 L135.63,152.08 L135.98,152.37 L136.34,152.67 L136.69,152.96 L137.04,153.26 L137.39,153.55 L137.74,153.85 L138.09,154.14 L138.44,154.44 L138.80,154.73 L139.15,155.03 L139.50,155.32 L139.85,155.62 L140.20,155.91 L140.55,156.21 L140.90,156.50 L141.26,156.80 L141.61,157.09 L141.96,157.39 L142.31,157.68 L142.66,157.98 L143.01,158.27 L143.36,158.57 L143.72,158.86 L144.07,159.16 L144.42,159.45 L144.77,159.75 L145.12,160.04 L145.47,160.33 L145.82,160.63 L146.18,160.92 L146.53,161.22 L146.88,161.51 L147.23,161.81 L147.58,162.10 L147.93,162.40 L148.28,162.69 L148.64,162.99 L148.99,163.28 L149.34,163.58 L149.69,163.87 L150.04,164.17 L150.39,164.46 L150.74,164.76 L151.10,165.05 L151.45,165.35 L151.80,165.64 L152.15,165.94 L152.50,166.23 L152.85,166.53 L153.20,166.82 L153.56,167.12 L153.91,167.41 L154.26,167.71 L154.61,168.00 L154.96,168.30 L155.31,168.59 L155.66,168.89 L156.01,169.18 L156.37,169.48 L156.72,169.77 L157.07,170.07 L157.42,170.36 L157.77,170.66 L158.12,170.95 L158.47,171.24 L158.83,171.54 L159.18,171.83 L159.53,172.13 L159.88,172.42 L160.23,172.72 L160.58,173.01 L160.93,173.31 L161.29,173.60 L161.64,173.90 L161.99,174.19 L162.34,174.49 L162.69,174.78 L163.04,175.08 L163.39,175.37 L163.75,175.67 L164.10,175.96 L164.45,176.26 L164.80,176.55 L165.15,176.85 L165.50,177.14 L165.85,177.44 L166.21,177.73 L166.56,178.03 L166.91,178.32 L167.26,178.62 L167.61,178.91 L167.96,179.21 L168.31,179.50 L168.67,179.80 L169.02,180.09 L169.37,180.39 L169.72,180.68 L170.07,180.98 L170.42,181.27 L170.77,181.57 L171.13,181.86 L171.48,182.15 L171.83,182.45 L172.18,182.74 L172.53,183.04 L172.88,183.33 L173.23,183.63 L173.59,183.92 L173.94,184.22 L174.29,184.51 L174.64,184.81 L174.99,185.10 L175.34,185.40 L175.69,185.69 L176.05,185.99 L176.40,186.28 L176.75,186.58 L177.10,186.87 L177.45,187.17 L177.80,187.46 L178.15,187.76 L178.50,188.05 L178.86,188.35 L179.21,188.64 L179.56,188.94 L179.91,189.23 L180.26,189.53 L180.61,189.82 L180.96,190.12 L181.32,190.41 L181.67,190.71 L182.02,191.00 L182.37,191.30 L182.72,191.59 L183.07,191.89 L183.42,192.18 L183.78,192.48 L184.13,192.77 L184.48,193.06 L184.83,193.36 L185.18,193.65 L185.53,193.95 L185.88,194.24 L186.24,194.54 L186.59,194.83 L186.94,195.13 L187.29,195.42 L187.64,195.72 L187.99,196.01 L188.34,196.31 L188.70,196.60 L189.05,196.90 L189.40,197.19 L189.75,197.49 L190.10,197.78 L190.45,198.08 L190.80,198.37 L191.16,198.67 L191.51,198.96 L191.86,199.26 L192.21,199.55 L192.56,199.85 L192.91,200.14 L193.26,200.44 L193.62,200.73 L193.97,201.03 L194.32,201.32 L194.67,201.62 L195.02,201.91 L195.37,202.21 L195.72,202.50 L196.08,202.80 L196.43,203.09 L196.78,203.39 L197.13,203.68 L197.48,203.97 L197.83,204.27 L198.18,204.56 L198.53,204.86 L198.89,205.15 L199.24,205.45 L199.59,205.74 L199.94,206.04 L200.29,206.33 L200.64,206.63 L200.99,206.92 L201.35,207.22 L201.70,207.51 L202.05,207.81 L202.40,208.10 L202.75,208.40 L203.10,208.69 L203.45,208.99 L203.81,209.28 L204.16,209.58 L204.51,209.87 L204.86,210.17 L205.21,210.46 L205.56,210.76 L205.91,211.05 L206.27,211.35 L206.62,211.64 L206.97,211.94 L207.32,212.23 L207.67,212.53 L208.02,212.82 L208.37,213.12 L208.73,213.41 L209.08,213.71 L209.43,214.00 L209.78,214.30 L210.13,214.59 L210.48,214.88 L210.83,215.18 L211.19,215.47 L211.54,215.77 L211.89,216.06 L212.24,216.36 L212.59,216.65 L212.94,216.95 L213.29,217.24 L213.65,217.54 L214.00,217.83 L214.35,218.13 L214.70,218.42 L215.05,218.72 L215.40,219.01 L215.75,219.31 L216.11,219.60 L216.46,219.90 L216.81,220.19 L217.16,220.49 L217.51,220.78 L217.86,221.08 L218.21,221.37 L218.57,221.67 L218.92,221.96 L219.27,222.26 L219.62,222.55 L219.97,222.85 L220.32,223.14 L220.67,223.44 L221.02,223.73 L221.38,224.03 L221.73,224.32 L222.08,224.62 L222.43,224.91 L222.78,225.21 L223.13,225.50 L223.48,225.79 L223.84,226.09 L224.19,226.38 L224.54,226.68 L224.89,226.97 L225.24,227.27 L225.59,227.56 L225.94,227.86 L226.30,228.15 L226.65,228.45 L227.00,228.74 L227.35,229.04 L227.70,229.33 L228.05,229.63 L228.40,229.92 L228.76,230.22 L229.11,230.51 L229.46,230.81 L229.81,231.10 L230.16,231.40 L230.51,231.69 L230.86,231.99 L231.22,232.28 L231.57,232.58 L231.92,232.87 L232.27,233.17 L232.62,233.46 L232.97,233.76 L233.32,234.05 L233.68,234.35 L234.03,234.64 L234.38,234.94 L234.73,235.23 L235.08,235.53 L235.43,235.82 L235.78,236.12 L236.14,236.41 L236.49,236.70 L236.84,237.00 L237.19,237.29 L237.54,237.59 L237.89,237.88 L238.24,238.18 L238.60,238.47 L238.95,238.77 L239.30,239.06 L239.65,239.36 L240.00,239.65 L240.35,239.95 L240.70,240.24 L241.06,240.54 L241.41,240.83 L241.76,241.13 L242.11,241.42 L242.46,241.72 L242.81,242.01 L243.16,242.31 L243.51,242.60 L243.87,242.90 L244.22,243.19 L244.57,243.49 L244.92,243.78 L245.27,244.08 L245.62,244.37 L245.97,244.67 L246.33,244.96 L246.68,245.26 L247.03,245.55 L247.38,245.85 L247.73,246.14 L248.08,246.44 L248.43,246.73 L248.79,247.03 L249.14,247.32 L249.49,247.61 L249.84,247.91 L250.19,248.20 L250.54,248.50 L250.89,248.79 L251.25,249.09 L251.60,249.38 L251.95,249.68 L252.30,249.97 L252.65,250.27 L253.00,250.56 L253.35,250.86 L253.71,251.15 L254.06,251.45 L254.41,251.74 L254.76,252.04 L255.11,252.33 L255.46,252.63 L255.81,252.92 L256.17,253.22 L256.52,253.51 L256.87,253.81 L257.22,254.10 L257.57,254.40 L257.92,254.69 L258.27,254.99 L258.63,255.28 L258.98,255.58 L259.33,255.87 L259.68,256.17 L260.03,256.46 L260.38,256.76 L260.73,257.05 L261.09,257.35 L261.44,257.64 L261.79,257.93 L262.14,258.23 L262.49,258.52 L262.84,258.82 L263.19,259.11 L263.54,259.41 L263.90,259.70 L264.25,260.00 L264.60,260.29 L264.95,260.59 L265.30,260.88 L265.65,261.18 L266.00,261.47 L266.36,261.77 L266.71,262.06 L267.06,262.36 L267.41,262.65 L267.76,262.95 L268.11,263.24 L268.46,263.54 L268.82,263.83 L269.17,264.13 L269.52,264.42 L269.87,264.72 L270.22,265.01 L270.57,265.31 L270.92,265.60 L271.28,265.90 L271.63,266.19 L271.98,266.49 L272.33,266.78 L272.68,267.08 L273.03,267.37 L273.38,267.67 L273.74,267.96 L274.09,268.26 L274.44,268.55 L274.79,268.84 L275.14,269.14 L275.49,269.43 L275.84,269.73 L276.20,270.02 L276.55,270.32 L276.90,270.61 L277.25,270.91 L277.60,271.20 L277.95,271.50 L278.30,271.79 L278.66,272.09 L279.01,272.38 L279.36,272.68 L279.71,272.97 L280.06,273.27 L280.41,273.56 L280.76,273.86 L281.12,274.15 L281.47,274.45 L281.82,274.74 L281.94,274.84" style="stroke-width: 1; stroke: rgb(0, 0, 0); stroke-opacity: 1;"/><g><circle cx="280.0475377219227" cy="273.2566396248853" r="1.5" style="stroke-width: 3; stroke: rgb(0, 0, 0); stroke-opacity: 1; fill: rgb(0, 0, 0); fill-opacity: 1;"/></g><g><circle cx="78.6635754351394" cy="62.517551087102845" r="1.5" style="stroke-width: 3; stroke: rgb(0, 0, 0); stroke-opacity: 1; fill: rgb(0, 0, 0); fill-opacity: 1;"/><circle cx="109.60398076875795" cy="52.22725667477175" r="1.5" style="stroke-width: 3; stroke: rgb(0, 0, 0); stroke-opacity: 1; fill: rgb(0, 0, 0); fill-opacity: 1;"/><circle cx="144.3949876318418" cy="50.63951645621654" r="1.5" style="stroke-width: 3; stroke: rgb(0, 0, 0); stroke-opacity: 1; fill: rgb(0, 0, 0); fill-opacity: 1;"/><circle cx="175.29114552834503" cy="56.35178096622866" r="1.5" style="stroke-width: 3; stroke: rgb(0, 0, 0); stroke-opacity: 1; fill: rgb(0, 0, 0); fill-opacity: 1;"/><circle cx="185.8155846039777" cy="59.759069768002405" r="1.5" style="stroke-width: 3; stroke: rgb(0, 0, 0); stroke-opacity: 1; fill: rgb(0, 0, 0); fill-opacity: 1;"/><circle cx="207.05918447924313" cy="68.99989153744971" r="1.5" style="stroke-width: 3; stroke: rgb(0, 0, 0); stroke-opacity: 1; fill: rgb(0, 0, 0); fill-opacity: 1;"/><circle cx="222.12039341844962" cy="77.63368647566824" r="1.5" style="stroke-width: 3; stroke: rgb(0, 0, 0); stroke-opacity: 1; fill: rgb(0, 0, 0); fill-opacity: 1;"/><circle cx="249.2333839514964" cy="98.48777220259669" r="1.5" style="stroke-width: 3; stroke: rgb(0, 0, 0); stroke-opacity: 1; fill: rgb(0, 0, 0); fill-opacity: 1;"/><circle cx="275.5030594515621" cy="128.32179508986798" r="1.5" style="stroke-width: 3; stroke: rgb(0, 0, 0); stroke-opacity: 1; fill: rgb(0, 0, 0); fill-opacity: 1;"/><circle cx="303.41062212105055" cy="163.72745245392048" r="1.5" style="stroke-width: 3; stroke: rgb(0, 0, 0); stroke-opacity: 1; fill: rgb(0, 0, 0); fill-opacity: 1;"/><circle cx="300.0294064485705" cy="170.29794143126344" r="1.5" style="stroke-width: 3; stroke: rgb(0, 0, 0); stroke-opacity: 1; fill: rgb(0, 0, 0); fill-opacity: 1;"/><circle cx="305.51655890134714" cy="181.88203481786053" r="1.5" style="stroke-width: 3; stroke: rgb(0, 0, 0); stroke-opacity: 1; fill: rgb(0, 0, 0); fill-opacity: 1;"/><circle cx="299.8116185071507" cy="189.39128287555212" r="1.5" style="stroke-width: 3; stroke: rgb(0, 0, 0); stroke-opacity: 1; fill: rgb(0, 0, 0); fill-opacity: 1;"/><circle cx="299.7537839952433" cy="198.12565629800838" r="1.5" style="stroke-width: 3; stroke: rgb(0, 0, 0); stroke-opacity: 1; fill: rgb(0, 0, 0); fill-opacity: 1;"/><circle cx="303.59740490603815" cy="203.88395427665301" r="1.5" style="stroke-width: 3; stroke: rgb(0, 0, 0); stroke-opacity: 1; fill: rgb(0, 0, 0); fill-opacity: 1;"/><circle cx="303.75854594149524" cy="214.73240766387408" r="1.5" style="stroke-width: 3; stroke: rgb(0, 0, 0); stroke-opacity: 1; fill: rgb(0, 0, 0); fill-opacity: 1;"/><circle cx="303.05055109092655" cy="230.49678897078047" r="1.5" style="stroke-width: 3; stroke: rgb(0, 0, 0); stroke-opacity: 1; fill: rgb(0, 0, 0); fill-opacity: 1;"/><circle cx="301.78006938375825" cy="246.71686677985062" r="1.5" style="stroke-width: 3; stroke: rgb(0, 0, 0); stroke-opacity: 1; fill: rgb(0, 0, 0); fill-opacity: 1;"/><circle cx="288.7440428111606" cy="268.19113234594886" r="1.5" style="stroke-width: 3; stroke: rgb(0, 0, 0); stroke-opacity: 1; fill: rgb(0, 0, 0); fill-opacity: 1;"/></g><g><circle cx="272.05336168129304" cy="286.58933220904237" r="1.5" style="stroke-width: 3; stroke: rgb(0, 0, 0); stroke-opacity: 1; fill: rgb(0, 0, 0); fill-opacity: 1;"/><circle cx="266.9851646788705" cy="294.5872285034937" r="1.5" style="stroke-width: 3; stroke: rgb(0, 0, 0); stroke-opacity: 1; fill: rgb(0, 0, 0); fill-opacity: 1;"/><circle cx="260.50879451703196" cy="299.3195072382936" r="1.5" style="stroke-width: 3; stroke: rgb(0, 0, 0); stroke-opacity: 1; fill: rgb(0, 0, 0); fill-opacity: 1;"/><circle cx="252.8573891025017" cy="308.54193462948444" r="1.5" style="stroke-width: 3; stroke: rgb(0, 0, 0); stroke-opacity: 1; fill: rgb(0, 0, 0); fill-opacity: 1;"/><circle cx="241.93173663249166" cy="306.75280604179807" r="1.5" style="stroke-width: 3; stroke: rgb(0, 0, 0); stroke-opacity: 1; fill: rgb(0, 0, 0); fill-opacity: 1;"/><circle cx="232.52151758384997" cy="309.1381923687467" r="1.5" style="stroke-width: 3; stroke: rgb(0, 0, 0); stroke-opacity: 1; fill: rgb(0, 0, 0); fill-opacity: 1;"/><circle cx="221.31765926492645" cy="305.02231212095063" r="1.5" style="stroke-width: 3; stroke: rgb(0, 0, 0); stroke-opacity: 1; fill: rgb(0, 0, 0); fill-opacity: 1;"/><circle cx="211.1181041536772" cy="309.10753842132175" r="1.5" style="stroke-width: 3; stroke: rgb(0, 0, 0); stroke-opacity: 1; fill: rgb(0, 0, 0); fill-opacity: 1;"/><circle cx="197.09835881207331" cy="309.86579341923624" r="1.5" style="stroke-width: 3; stroke: rgb(0, 0, 0); stroke-opacity: 1; fill: rgb(0, 0, 0); fill-opacity: 1;"/><circle cx="186.27570924336956" cy="312.8896528890409" r="1.5" style="stroke-width: 3; stroke: rgb(0, 0, 0); stroke-opacity: 1; fill: rgb(0, 0, 0); fill-opacity: 1;"/><circle cx="172.11605013023987" cy="310.3019835555221" r="1.5" style="stroke-width: 3; stroke: rgb(0, 0, 0); stroke-opacity: 1; fill: rgb(0, 0, 0); fill-opacity: 1;"/><circle cx="157.05566593803627" cy="306.12945209089605" r="1.5" style="stroke-width: 3; stroke: rgb(0, 0, 0); stroke-opacity: 1; fill: rgb(0, 0, 0); fill-opacity: 1;"/><circle cx="139.58272002987644" cy="300.36985334982" r="1.5" style="stroke-width: 3; stroke: rgb(0, 0, 0); stroke-opacity: 1; fill: rgb(0, 0, 0); fill-opacity: 1;"/><circle cx="126.51951226520232" cy="297.2346300677202" r="1.5" style="stroke-width: 3; stroke: rgb(0, 0, 0); stroke-opacity: 1; fill: rgb(0, 0, 0); fill-opacity: 1;"/><circle cx="119.30378833878268" cy="282.9874339436502" r="1.5" style="stroke-width: 3; stroke: rgb(0, 0, 0); stroke-opacity: 1; fill: rgb(0, 0, 0); fill-opacity: 1;"/><circle cx="108.25982976085959" cy="284.53293075769534" r="1.5" style="stroke-width: 3; stroke: rgb(0, 0, 0); stroke-opacity: 1; fill: rgb(0, 0, 0); fill-opacity: 1;"/><circle cx="93.16557150469632" cy="275.68010232900787" r="1.5" style="stroke-width: 3; stroke: rgb(0, 0, 0); stroke-opacity: 1; fill: rgb(0, 0, 0); fill-opacity: 1;"/></g><g><g class="arrow-line"><path class="vector-plot real" stroke-dasharray="" d="  M93.16,150.62 L303.41,163.73" style="stroke: rgb(0, 0, 0); stroke-opacity: 1; stroke-width: 1;"/></g></g><g><g class="arrow-line"><path class="vector-plot real" stroke-dasharray="" d="  M93.16,150.62 L299.75,198.13" style="stroke: rgb(0, 0, 0); stroke-opacity: 1; stroke-width: 1;"/></g></g><g><g class="arrow-line"><path class="vector-plot real" stroke-dasharray="" d="  M93.16,150.62 L303.05,230.5" style="stroke: rgb(0, 0, 0); stroke-opacity: 1; stroke-width: 1;"/></g></g><g><g class="arrow-line"><path class="vector-plot real" stroke-dasharray="" d="  M93.16,150.62 L272.05,286.59" style="stroke: rgb(0, 0, 0); stroke-opacity: 1; stroke-width: 1;"/></g></g><g><g class="arrow-line"><path class="vector-plot real" stroke-dasharray="" d="  M93.16,150.62 L241.93,306.75" style="stroke: rgb(0, 0, 0); stroke-opacity: 1; stroke-width: 1;"/></g></g><g><g class="arrow-line"><path class="vector-plot real" stroke-dasharray="" d="  M93.16,150.62 L197.1,309.87" style="stroke: rgb(0, 0, 0); stroke-opacity: 1; stroke-width: 1;"/></g></g><g><g class="arrow-line"><path class="vector-plot real" stroke-dasharray="" d="  M93.16,150.62 L139.58,300.37" style="stroke: rgb(0, 0, 0); stroke-opacity: 1; stroke-width: 1;"/></g></g></g></g><g class="test-xtl" style="font-family: &quot;Open Sans&quot;, verdana, arial, sans-serif;"/><g class="test-ytl" style="font-family: &quot;Open Sans&quot;, verdana, arial, sans-serif;"/><rect class="real" x="1" y="1" width="331.66666666666674" height="318.9" style="fill: transparent; stroke: none;"/></g></g></g><g class="composite-shape" data-amt="diagram/shapes/plot" transform="matrix(1,0,0,1,180.33333333333331,387.8385416666667)"><g><g/><g><g class="test-plot-expression"><defs><clipPath id="cp4phm07qk0"><rect x="1" y="1" width="317" height="118"/></clipPath></defs><g clip-path="url(#cp4phm07qk0)"><g><g class="arrow-line"><path class="vector-plot real" stroke-dasharray="" d="  M31.15,23.52 L307.88,23.52" style="stroke: rgb(0, 0, 0); stroke-opacity: 1; stroke-width: 1;"/></g></g><g><g class="arrow-line"><path class="vector-plot real" stroke-dasharray="" d="  M77.27,13.28 L77.27,23.52" style="stroke: rgb(0, 0, 0); stroke-opacity: 1; stroke-width: 1;"/></g></g><g><g class="arrow-line"><path class="vector-plot real" stroke-dasharray="" d="  M123.39,13.28 L123.39,23.52" style="stroke: rgb(0, 0, 0); stroke-opacity: 1; stroke-width: 1;"/></g></g><g><g class="arrow-line"><path class="vector-plot real" stroke-dasharray="" d="  M31.15,13.28 L31.15,23.52" style="stroke: rgb(0, 0, 0); stroke-opacity: 1; stroke-width: 1;"/></g></g><g><g class="arrow-line"><path class="vector-plot real" stroke-dasharray="" d="  M169.51,13.28 L169.51,23.52" style="stroke: rgb(0, 0, 0); stroke-opacity: 1; stroke-width: 1;"/></g></g><g><g class="arrow-line"><path class="vector-plot real" stroke-dasharray="" d="  M215.63,13.28 L215.63,23.52" style="stroke: rgb(0, 0, 0); stroke-opacity: 1; stroke-width: 1;"/></g></g><g><g class="arrow-line"><path class="vector-plot real" stroke-dasharray="" d="  M261.76,13.28 L261.76,23.52" style="stroke: rgb(0, 0, 0); stroke-opacity: 1; stroke-width: 1;"/></g></g><g><g class="arrow-line"><path class="vector-plot real" stroke-dasharray="" d="  M307.88,13.28 L307.88,23.52" style="stroke: rgb(0, 0, 0); stroke-opacity: 1; stroke-width: 1;"/></g></g><g><g class="arrow-line"><path class="vector-plot real" stroke-dasharray="" d="  M35.76,18.4 L35.76,23.52" style="stroke: rgb(0, 0, 0); stroke-opacity: 1; stroke-width: 1;"/></g></g><g><g class="arrow-line"><path class="vector-plot real" stroke-dasharray="" d="  M40.38,18.4 L40.38,23.52" style="stroke: rgb(0, 0, 0); stroke-opacity: 1; stroke-width: 1;"/></g></g><g><g class="arrow-line"><path class="vector-plot real" stroke-dasharray="" d="  M44.99,18.4 L44.99,23.52" style="stroke: rgb(0, 0, 0); stroke-opacity: 1; stroke-width: 1;"/></g></g><g><g class="arrow-line"><path class="vector-plot real" stroke-dasharray="" d="  M49.6,18.4 L49.6,23.52" style="stroke: rgb(0, 0, 0); stroke-opacity: 1; stroke-width: 1;"/></g></g><g><g class="arrow-line"><path class="vector-plot real" stroke-dasharray="" d="  M54.21,16.35 L54.21,23.52" style="stroke: rgb(0, 0, 0); stroke-opacity: 1; stroke-width: 1;"/></g></g><g><g class="arrow-line"><path class="vector-plot real" stroke-dasharray="" d="  M58.82,18.4 L58.82,23.52" style="stroke: rgb(0, 0, 0); stroke-opacity: 1; stroke-width: 1;"/></g></g><g><g class="arrow-line"><path class="vector-plot real" stroke-dasharray="" d="  M63.44,18.4 L63.44,23.52" style="stroke: rgb(0, 0, 0); stroke-opacity: 1; stroke-width: 1;"/></g></g><g><g class="arrow-line"><path class="vector-plot real" stroke-dasharray="" d="  M68.05,18.4 L68.05,23.52" style="stroke: rgb(0, 0, 0); stroke-opacity: 1; stroke-width: 1;"/></g></g><g><g class="arrow-line"><path class="vector-plot real" stroke-dasharray="" d="  M72.66,18.4 L72.66,23.52" style="stroke: rgb(0, 0, 0); stroke-opacity: 1; stroke-width: 1;"/></g></g><g><g class="arrow-line"><path class="vector-plot real" stroke-dasharray="" d="  M100.33,16.35 L100.33,23.52" style="stroke: rgb(0, 0, 0); stroke-opacity: 1; stroke-width: 1;"/></g></g><g><g class="arrow-line"><path class="vector-plot real" stroke-dasharray="" d="  M146.45,16.35 L146.45,23.52" style="stroke: rgb(0, 0, 0); stroke-opacity: 1; stroke-width: 1;"/></g></g><g><g class="arrow-line"><path class="vector-plot real" stroke-dasharray="" d="  M192.57,16.35 L192.57,23.52" style="stroke: rgb(0, 0, 0); stroke-opacity: 1; stroke-width: 1;"/></g></g><g><g class="arrow-line"><path class="vector-plot real" stroke-dasharray="" d="  M238.69,16.35 L238.69,23.52" style="stroke: rgb(0, 0, 0); stroke-opacity: 1; stroke-width: 1;"/></g></g><g><g class="arrow-line"><path class="vector-plot real" stroke-dasharray="" d="  M284.82,16.35 L284.82,23.52" style="stroke: rgb(0, 0, 0); stroke-opacity: 1; stroke-width: 1;"/></g></g></g></g><rect class="real" x="1" y="1" width="317" height="118" style="fill: transparent; stroke: none;"/></g></g></g><g/></g><g/><g/><g/></svg>
        <svg xmlns="http://www.w3.org/2000/svg" xmlns:xlink="http://www.w3.org/1999/xlink" width="660" height="430.4921875" style="width:660px;height:430.4921875px;font-family:Asana-Math, Asana;background:transparent;"><g><g><g><g transform="matrix(1,0,0,1,264,31.5)"><path transform="matrix(0.017,0,0,-0.017,0,0)" d="M418 -3L418 27L366 30C311 33 301 44 301 96L301 700L60 598L67 548L217 614L217 96C217 44 206 33 152 30L96 27L96 -3C250 0 250 0 261 0C292 0 402 -3 418 -3ZM667 345C626 326 609 315 587 294C549 256 529 211 529 159C529 56 612 -20 725 -20C855 -20 963 82 963 206C963 286 926 329 812 381C903 443 935 485 935 545C935 631 864 689 758 689C639 689 552 613 552 508C552 440 579 402 667 345ZM783 295C846 267 884 218 884 164C884 80 821 14 740 14C655 14 600 74 600 167C600 240 629 286 703 331ZM722 423C659 454 627 494 627 544C627 610 675 655 746 655C819 655 867 607 867 534C867 477 842 438 777 396ZM1261 689C1106 689 1027 566 1027 324C1027 207 1048 106 1083 57C1118 8 1174 -20 1236 -20C1387 -20 1463 110 1463 366C1463 585 1398 689 1261 689ZM1243 654C1340 654 1379 556 1379 316C1379 103 1341 15 1249 15C1152 15 1111 116 1111 360C1111 571 1148 654 1243 654ZM1696 689C1614 689 1547 622 1547 539C1547 456 1614 389 1697 389C1778 389 1847 457 1847 537C1847 621 1780 689 1696 689ZM1696 649C1757 649 1807 599 1807 537C1807 479 1757 429 1697 429C1636 429 1587 478 1587 539C1587 600 1636 649 1696 649Z" stroke="rgb(0,0,0)" stroke-opacity="1" stroke-width="8" fill="rgb(0,0,0)" fill-opacity="1"></path></g></g></g></g><g><g><g><g transform="matrix(1,0,0,1,149,192.8359375)"><path transform="matrix(0.017,0,0,-0.017,0,0)" d="M16 23L16 -3C203 -3 203 0 239 0C275 0 275 -3 468 -3L468 82C353 77 307 81 122 77L304 270C401 373 431 428 431 503C431 618 353 689 226 689C154 689 105 669 56 619L39 483L68 483L81 529C97 587 133 612 200 612C286 612 341 558 341 473C341 398 299 324 186 204ZM908 603L546 -1L656 -1L996 659L996 689L543 689L543 477L573 477L580 533C588 595 595 603 641 603ZM1261 689C1106 689 1027 566 1027 324C1027 207 1048 106 1083 57C1118 8 1174 -20 1236 -20C1387 -20 1463 110 1463 366C1463 585 1398 689 1261 689ZM1243 654C1340 654 1379 556 1379 316C1379 103 1341 15 1249 15C1152 15 1111 116 1111 360C1111 571 1148 654 1243 654ZM1696 689C1614 689 1547 622 1547 539C1547 456 1614 389 1697 389C1778 389 1847 457 1847 537C1847 621 1780 689 1696 689ZM1696 649C1757 649 1807 599 1807 537C1807 479 1757 429 1697 429C1636 429 1587 478 1587 539C1587 600 1636 649 1696 649Z" stroke="rgb(0,0,0)" stroke-opacity="1" stroke-width="8" fill="rgb(0,0,0)" fill-opacity="1"></path></g></g></g></g><g><g><g><g transform="matrix(1,0,0,1,522.6640625,193.171875)"><path transform="matrix(0.017,0,0,-0.017,0,0)" d="M96 -20C207 16 255 39 309 85C406 168 457 283 457 417C457 586 376 689 244 689C116 689 20 589 20 455C20 340 95 256 199 256C233 256 272 267 290 282L360 340C352 172 243 49 62 5L62 -3ZM240 656C285 656 318 637 340 597C358 565 370 516 370 471C370 379 317 317 240 317C160 317 106 388 106 492C106 593 158 656 240 656ZM762 689C607 689 528 566 528 324C528 207 549 106 584 57C619 8 675 -20 737 -20C888 -20 964 110 964 366C964 585 899 689 762 689ZM744 654C841 654 880 556 880 316C880 103 842 15 750 15C653 15 612 116 612 360C612 571 649 654 744 654ZM1197 689C1115 689 1048 622 1048 539C1048 456 1115 389 1198 389C1279 389 1348 457 1348 537C1348 621 1281 689 1197 689ZM1197 649C1258 649 1308 599 1308 537C1308 479 1258 429 1198 429C1137 429 1088 478 1088 539C1088 600 1137 649 1197 649Z" stroke="rgb(0,0,0)" stroke-opacity="1" stroke-width="8" fill="rgb(0,0,0)" fill-opacity="1"></path></g></g></g></g><g transform="matrix(0.23038942667659015,-0.9730985109821266,0.9730985109821266,0.23038942667659015,149.3684539438185,298.26828640987696)"><g><g><g transform="matrix(1,0,0,1,246.921875,58.96640625)"><path transform="matrix(0.0119,0,0,-0.0119,0,0)" d="M418 -3L418 27L366 30C311 33 301 44 301 96L301 700L60 598L67 548L217 614L217 96C217 44 206 33 152 30L96 27L96 -3C250 0 250 0 261 0C292 0 402 -3 418 -3ZM667 345C626 326 609 315 587 294C549 256 529 211 529 159C529 56 612 -20 725 -20C855 -20 963 82 963 206C963 286 926 329 812 381C903 443 935 485 935 545C935 631 864 689 758 689C639 689 552 613 552 508C552 440 579 402 667 345ZM783 295C846 267 884 218 884 164C884 80 821 14 740 14C655 14 600 74 600 167C600 240 629 286 703 331ZM722 423C659 454 627 494 627 544C627 610 675 655 746 655C819 655 867 607 867 534C867 477 842 438 777 396ZM1094 -20C1205 16 1253 39 1307 85C1404 168 1455 283 1455 417C1455 586 1374 689 1242 689C1114 689 1018 589 1018 455C1018 340 1093 256 1197 256C1231 256 1270 267 1288 282L1358 340C1350 172 1241 49 1060 5L1060 -3ZM1238 656C1283 656 1316 637 1338 597C1356 565 1368 516 1368 471C1368 379 1315 317 1238 317C1158 317 1104 388 1104 492C1104 593 1156 656 1238 656ZM1628 331C1649 512 1738 611 1918 665L1876 689C1780 657 1739 637 1688 593C1585 506 1529 384 1529 247C1529 82 1609 -20 1738 -20C1868 -20 1965 83 1965 219C1965 334 1896 409 1790 409C1713 409 1681 370 1628 331ZM1752 349C1828 349 1879 283 1879 184C1879 80 1828 13 1751 13C1666 13 1620 86 1620 220C1620 255 1624 274 1635 291C1657 325 1704 349 1752 349ZM2120 111C2090 111 2063 83 2063 53C2063 23 2090 -5 2119 -5C2151 -5 2179 22 2179 53C2179 83 2151 111 2120 111ZM2341 -20C2452 16 2500 39 2554 85C2651 168 2702 283 2702 417C2702 586 2621 689 2489 689C2361 689 2265 589 2265 455C2265 340 2340 256 2444 256C2478 256 2517 267 2535 282L2605 340C2597 172 2488 49 2307 5L2307 -3ZM2485 656C2530 656 2563 637 2585 597C2603 565 2615 516 2615 471C2615 379 2562 317 2485 317C2405 317 2351 388 2351 492C2351 593 2403 656 2485 656Z" stroke="rgb(0,0,0)" stroke-opacity="1" stroke-width="8" fill="rgb(0,0,0)" fill-opacity="1"></path></g></g></g></g><g transform="matrix(0.39394190959095066,-0.9191353392552346,0.9191353392552346,0.39394190959095066,134.80604075308761,309.85034201371514)"><g><g><g transform="matrix(1,0,0,1,286.03125,56.96640625)"><path transform="matrix(0.0119,0,0,-0.0119,0,0)" d="M418 -3L418 27L366 30C311 33 301 44 301 96L301 700L60 598L67 548L217 614L217 96C217 44 206 33 152 30L96 27L96 -3C250 0 250 0 261 0C292 0 402 -3 418 -3ZM667 345C626 326 609 315 587 294C549 256 529 211 529 159C529 56 612 -20 725 -20C855 -20 963 82 963 206C963 286 926 329 812 381C903 443 935 485 935 545C935 631 864 689 758 689C639 689 552 613 552 508C552 440 579 402 667 345ZM783 295C846 267 884 218 884 164C884 80 821 14 740 14C655 14 600 74 600 167C600 240 629 286 703 331ZM722 423C659 454 627 494 627 544C627 610 675 655 746 655C819 655 867 607 867 534C867 477 842 438 777 396ZM1094 -20C1205 16 1253 39 1307 85C1404 168 1455 283 1455 417C1455 586 1374 689 1242 689C1114 689 1018 589 1018 455C1018 340 1093 256 1197 256C1231 256 1270 267 1288 282L1358 340C1350 172 1241 49 1060 5L1060 -3ZM1238 656C1283 656 1316 637 1338 597C1356 565 1368 516 1368 471C1368 379 1315 317 1238 317C1158 317 1104 388 1104 492C1104 593 1156 656 1238 656ZM1906 603L1544 -1L1654 -1L1994 659L1994 689L1541 689L1541 477L1571 477L1578 533C1586 595 1593 603 1639 603ZM2120 111C2090 111 2063 83 2063 53C2063 23 2090 -5 2119 -5C2151 -5 2179 22 2179 53C2179 83 2151 111 2120 111ZM2341 -20C2452 16 2500 39 2554 85C2651 168 2702 283 2702 417C2702 586 2621 689 2489 689C2361 689 2265 589 2265 455C2265 340 2340 256 2444 256C2478 256 2517 267 2535 282L2605 340C2597 172 2488 49 2307 5L2307 -3ZM2485 656C2530 656 2563 637 2585 597C2603 565 2615 516 2615 471C2615 379 2562 317 2485 317C2405 317 2351 388 2351 492C2351 593 2403 656 2485 656Z" stroke="rgb(0,0,0)" stroke-opacity="1" stroke-width="8" fill="rgb(0,0,0)" fill-opacity="1"></path></g></g></g></g><g transform="matrix(0.4586495544843145,-0.8886172326549491,0.8886172326549491,0.4586495544843145,136.5165136772345,328.37070554668554)"><g><g><g transform="matrix(1,0,0,1,321.4375,56.40390625)"><path transform="matrix(0.0119,0,0,-0.0119,0,0)" d="M418 -3L418 27L366 30C311 33 301 44 301 96L301 700L60 598L67 548L217 614L217 96C217 44 206 33 152 30L96 27L96 -3C250 0 250 0 261 0C292 0 402 -3 418 -3ZM667 345C626 326 609 315 587 294C549 256 529 211 529 159C529 56 612 -20 725 -20C855 -20 963 82 963 206C963 286 926 329 812 381C903 443 935 485 935 545C935 631 864 689 758 689C639 689 552 613 552 508C552 440 579 402 667 345ZM783 295C846 267 884 218 884 164C884 80 821 14 740 14C655 14 600 74 600 167C600 240 629 286 703 331ZM722 423C659 454 627 494 627 544C627 610 675 655 746 655C819 655 867 607 867 534C867 477 842 438 777 396ZM1094 -20C1205 16 1253 39 1307 85C1404 168 1455 283 1455 417C1455 586 1374 689 1242 689C1114 689 1018 589 1018 455C1018 340 1093 256 1197 256C1231 256 1270 267 1288 282L1358 340C1350 172 1241 49 1060 5L1060 -3ZM1238 656C1283 656 1316 637 1338 597C1356 565 1368 516 1368 471C1368 379 1315 317 1238 317C1158 317 1104 388 1104 492C1104 593 1156 656 1238 656ZM1593 -20C1704 16 1752 39 1806 85C1903 168 1954 283 1954 417C1954 586 1873 689 1741 689C1613 689 1517 589 1517 455C1517 340 1592 256 1696 256C1730 256 1769 267 1787 282L1857 340C1849 172 1740 49 1559 5L1559 -3ZM1737 656C1782 656 1815 637 1837 597C1855 565 1867 516 1867 471C1867 379 1814 317 1737 317C1657 317 1603 388 1603 492C1603 593 1655 656 1737 656ZM2120 111C2090 111 2063 83 2063 53C2063 23 2090 -5 2119 -5C2151 -5 2179 22 2179 53C2179 83 2151 111 2120 111ZM2663 -3L2663 27L2611 30C2556 33 2546 44 2546 96L2546 700L2305 598L2312 548L2462 614L2462 96C2462 44 2451 33 2397 30L2341 27L2341 -3C2495 0 2495 0 2506 0C2537 0 2647 -3 2663 -3Z" stroke="rgb(0,0,0)" stroke-opacity="1" stroke-width="8" fill="rgb(0,0,0)" fill-opacity="1"></path></g></g></g></g><g transform="matrix(0.4006688790952099,-0.9162229255615623,0.9162229255615623,0.4006688790952099,168.62116548439894,373.4814584836359)"><g><g><g transform="matrix(1,0,0,1,353.4609375,62.11484375)"><path transform="matrix(0.0119,0,0,-0.0119,0,0)" d="M418 -3L418 27L366 30C311 33 301 44 301 96L301 700L60 598L67 548L217 614L217 96C217 44 206 33 152 30L96 27L96 -3C250 0 250 0 261 0C292 0 402 -3 418 -3ZM667 345C626 326 609 315 587 294C549 256 529 211 529 159C529 56 612 -20 725 -20C855 -20 963 82 963 206C963 286 926 329 812 381C903 443 935 485 935 545C935 631 864 689 758 689C639 689 552 613 552 508C552 440 579 402 667 345ZM783 295C846 267 884 218 884 164C884 80 821 14 740 14C655 14 600 74 600 167C600 240 629 286 703 331ZM722 423C659 454 627 494 627 544C627 610 675 655 746 655C819 655 867 607 867 534C867 477 842 438 777 396ZM1094 -20C1205 16 1253 39 1307 85C1404 168 1455 283 1455 417C1455 586 1374 689 1242 689C1114 689 1018 589 1018 455C1018 340 1093 256 1197 256C1231 256 1270 267 1288 282L1358 340C1350 172 1241 49 1060 5L1060 -3ZM1238 656C1283 656 1316 637 1338 597C1356 565 1368 516 1368 471C1368 379 1315 317 1238 317C1158 317 1104 388 1104 492C1104 593 1156 656 1238 656ZM1593 -20C1704 16 1752 39 1806 85C1903 168 1954 283 1954 417C1954 586 1873 689 1741 689C1613 689 1517 589 1517 455C1517 340 1592 256 1696 256C1730 256 1769 267 1787 282L1857 340C1849 172 1740 49 1559 5L1559 -3ZM1737 656C1782 656 1815 637 1837 597C1855 565 1867 516 1867 471C1867 379 1814 317 1737 317C1657 317 1603 388 1603 492C1603 593 1655 656 1737 656ZM2120 111C2090 111 2063 83 2063 53C2063 23 2090 -5 2119 -5C2151 -5 2179 22 2179 53C2179 83 2151 111 2120 111ZM2341 -20C2452 16 2500 39 2554 85C2651 168 2702 283 2702 417C2702 586 2621 689 2489 689C2361 689 2265 589 2265 455C2265 340 2340 256 2444 256C2478 256 2517 267 2535 282L2605 340C2597 172 2488 49 2307 5L2307 -3ZM2485 656C2530 656 2563 637 2585 597C2603 565 2615 516 2615 471C2615 379 2562 317 2485 317C2405 317 2351 388 2351 492C2351 593 2403 656 2485 656Z" stroke="rgb(0,0,0)" stroke-opacity="1" stroke-width="8" fill="rgb(0,0,0)" fill-opacity="1"></path></g></g></g></g><g transform="matrix(0.4006688790952099,-0.9162229255615623,0.9162229255615623,0.4006688790952099,176.45497790822333,390.03546507380133)"><g><g><g transform="matrix(1,0,0,1,370.03125,64.40390625)"><path transform="matrix(0.0119,0,0,-0.0119,0,0)" d="M418 -3L418 27L366 30C311 33 301 44 301 96L301 700L60 598L67 548L217 614L217 96C217 44 206 33 152 30L96 27L96 -3C250 0 250 0 261 0C292 0 402 -3 418 -3ZM595 -20C706 16 754 39 808 85C905 168 956 283 956 417C956 586 875 689 743 689C615 689 519 589 519 455C519 340 594 256 698 256C732 256 771 267 789 282L859 340C851 172 742 49 561 5L561 -3ZM739 656C784 656 817 637 839 597C857 565 869 516 869 471C869 379 816 317 739 317C659 317 605 388 605 492C605 593 657 656 739 656ZM1261 689C1106 689 1027 566 1027 324C1027 207 1048 106 1083 57C1118 8 1174 -20 1236 -20C1387 -20 1463 110 1463 366C1463 585 1398 689 1261 689ZM1243 654C1340 654 1379 556 1379 316C1379 103 1341 15 1249 15C1152 15 1111 116 1111 360C1111 571 1148 654 1243 654ZM1760 689C1605 689 1526 566 1526 324C1526 207 1547 106 1582 57C1617 8 1673 -20 1735 -20C1886 -20 1962 110 1962 366C1962 585 1897 689 1760 689ZM1742 654C1839 654 1878 556 1878 316C1878 103 1840 15 1748 15C1651 15 1610 116 1610 360C1610 571 1647 654 1742 654ZM2120 111C2090 111 2063 83 2063 53C2063 23 2090 -5 2119 -5C2151 -5 2179 22 2179 53C2179 83 2151 111 2120 111ZM2525 181L2525 106C2525 46 2514 32 2465 30L2403 27L2403 -3C2536 0 2536 0 2560 0C2584 0 2584 0 2717 -3L2717 27L2669 30C2620 33 2609 46 2609 106L2609 181C2668 181 2689 180 2717 177L2717 248L2609 245L2610 697L2530 667L2247 204L2247 181ZM2525 245L2310 245L2525 597Z" stroke="rgb(0,0,0)" stroke-opacity="1" stroke-width="8" fill="rgb(0,0,0)" fill-opacity="1"></path></g></g></g></g><g transform="matrix(0.4823653341245347,-0.8759701390087028,0.8759701390087028,0.4823653341245347,151.6249493904508,394.01003794713705)"><g><g><g transform="matrix(1,0,0,1,392.8671875,72.97421875)"><path transform="matrix(0.0119,0,0,-0.0119,0,0)" d="M418 -3L418 27L366 30C311 33 301 44 301 96L301 700L60 598L67 548L217 614L217 96C217 44 206 33 152 30L96 27L96 -3C250 0 250 0 261 0C292 0 402 -3 418 -3ZM595 -20C706 16 754 39 808 85C905 168 956 283 956 417C956 586 875 689 743 689C615 689 519 589 519 455C519 340 594 256 698 256C732 256 771 267 789 282L859 340C851 172 742 49 561 5L561 -3ZM739 656C784 656 817 637 839 597C857 565 869 516 869 471C869 379 816 317 739 317C659 317 605 388 605 492C605 593 657 656 739 656ZM1261 689C1106 689 1027 566 1027 324C1027 207 1048 106 1083 57C1118 8 1174 -20 1236 -20C1387 -20 1463 110 1463 366C1463 585 1398 689 1261 689ZM1243 654C1340 654 1379 556 1379 316C1379 103 1341 15 1249 15C1152 15 1111 116 1111 360C1111 571 1148 654 1243 654ZM1915 -3L1915 27L1863 30C1808 33 1798 44 1798 96L1798 700L1557 598L1564 548L1714 614L1714 96C1714 44 1703 33 1649 30L1593 27L1593 -3C1747 0 1747 0 1758 0C1789 0 1899 -3 1915 -3ZM2120 111C2090 111 2063 83 2063 53C2063 23 2090 -5 2119 -5C2151 -5 2179 22 2179 53C2179 83 2151 111 2120 111ZM2261 23L2261 -3C2448 -3 2448 0 2484 0C2520 0 2520 -3 2713 -3L2713 82C2598 77 2552 81 2367 77L2549 270C2646 373 2676 428 2676 503C2676 618 2598 689 2471 689C2399 689 2350 669 2301 619L2284 483L2313 483L2326 529C2342 587 2378 612 2445 612C2531 612 2586 558 2586 473C2586 398 2544 324 2431 204Z" stroke="rgb(0,0,0)" stroke-opacity="1" stroke-width="8" fill="rgb(0,0,0)" fill-opacity="1"></path></g></g></g></g><g transform="matrix(0.5271041217277412,-0.8498007089062861,0.8498007089062861,0.5271041217277412,135.8502559294302,399.84361785825826)"><g><g><g transform="matrix(1,0,0,1,410.859375,82.12265625)"><path transform="matrix(0.0119,0,0,-0.0119,0,0)" d="M418 -3L418 27L366 30C311 33 301 44 301 96L301 700L60 598L67 548L217 614L217 96C217 44 206 33 152 30L96 27L96 -3C250 0 250 0 261 0C292 0 402 -3 418 -3ZM595 -20C706 16 754 39 808 85C905 168 956 283 956 417C956 586 875 689 743 689C615 689 519 589 519 455C519 340 594 256 698 256C732 256 771 267 789 282L859 340C851 172 742 49 561 5L561 -3ZM739 656C784 656 817 637 839 597C857 565 869 516 869 471C869 379 816 317 739 317C659 317 605 388 605 492C605 593 657 656 739 656ZM1261 689C1106 689 1027 566 1027 324C1027 207 1048 106 1083 57C1118 8 1174 -20 1236 -20C1387 -20 1463 110 1463 366C1463 585 1398 689 1261 689ZM1243 654C1340 654 1379 556 1379 316C1379 103 1341 15 1249 15C1152 15 1111 116 1111 360C1111 571 1148 654 1243 654ZM1513 23L1513 -3C1700 -3 1700 0 1736 0C1772 0 1772 -3 1965 -3L1965 82C1850 77 1804 81 1619 77L1801 270C1898 373 1928 428 1928 503C1928 618 1850 689 1723 689C1651 689 1602 669 1553 619L1536 483L1565 483L1578 529C1594 587 1630 612 1697 612C1783 612 1838 558 1838 473C1838 398 1796 324 1683 204ZM2120 111C2090 111 2063 83 2063 53C2063 23 2090 -5 2119 -5C2151 -5 2179 22 2179 53C2179 83 2151 111 2120 111ZM2663 -3L2663 27L2611 30C2556 33 2546 44 2546 96L2546 700L2305 598L2312 548L2462 614L2462 96C2462 44 2451 33 2397 30L2341 27L2341 -3C2495 0 2495 0 2506 0C2537 0 2647 -3 2663 -3Z" stroke="rgb(0,0,0)" stroke-opacity="1" stroke-width="8" fill="rgb(0,0,0)" fill-opacity="1"></path></g></g></g></g><g transform="matrix(0.6148359349708398,-0.7886550406030087,0.7886550406030087,0.6148359349708398,96.1905869329969,400.67687286519134)"><g><g><g transform="matrix(1,0,0,1,441.9765625,106.12265625)"><path transform="matrix(0.0119,0,0,-0.0119,0,0)" d="M418 -3L418 27L366 30C311 33 301 44 301 96L301 700L60 598L67 548L217 614L217 96C217 44 206 33 152 30L96 27L96 -3C250 0 250 0 261 0C292 0 402 -3 418 -3ZM595 -20C706 16 754 39 808 85C905 168 956 283 956 417C956 586 875 689 743 689C615 689 519 589 519 455C519 340 594 256 698 256C732 256 771 267 789 282L859 340C851 172 742 49 561 5L561 -3ZM739 656C784 656 817 637 839 597C857 565 869 516 869 471C869 379 816 317 739 317C659 317 605 388 605 492C605 593 657 656 739 656ZM1261 689C1106 689 1027 566 1027 324C1027 207 1048 106 1083 57C1118 8 1174 -20 1236 -20C1387 -20 1463 110 1463 366C1463 585 1398 689 1261 689ZM1243 654C1340 654 1379 556 1379 316C1379 103 1341 15 1249 15C1152 15 1111 116 1111 360C1111 571 1148 654 1243 654ZM1959 224C1959 345 1852 366 1805 374C1885 436 1915 482 1915 541C1915 630 1841 689 1730 689C1662 689 1617 670 1569 622L1540 498L1571 498L1589 554C1600 588 1663 622 1715 622C1780 622 1833 569 1833 506C1833 431 1774 368 1703 368C1695 368 1684 369 1671 370L1656 371L1644 318L1651 312C1689 329 1708 334 1735 334C1818 334 1866 281 1866 190C1866 88 1805 21 1712 21C1666 21 1625 36 1595 64C1571 86 1558 109 1539 163L1512 153C1533 92 1541 56 1547 6C1600 -12 1644 -20 1681 -20C1804 -20 1959 87 1959 224ZM2120 111C2090 111 2063 83 2063 53C2063 23 2090 -5 2119 -5C2151 -5 2179 22 2179 53C2179 83 2151 111 2120 111ZM2663 -3L2663 27L2611 30C2556 33 2546 44 2546 96L2546 700L2305 598L2312 548L2462 614L2462 96C2462 44 2451 33 2397 30L2341 27L2341 -3C2495 0 2495 0 2506 0C2537 0 2647 -3 2663 -3Z" stroke="rgb(0,0,0)" stroke-opacity="1" stroke-width="8" fill="rgb(0,0,0)" fill-opacity="1"></path></g></g></g></g><g transform="matrix(0.6443905984530086,-0.7646965127587371,0.7646965127587371,0.6443905984530086,68.77674390543439,421.89636042970744)"><g><g><g transform="matrix(1,0,0,1,471.6796875,141.26328125)"><path transform="matrix(0.0119,0,0,-0.0119,0,0)" d="M418 -3L418 27L366 30C311 33 301 44 301 96L301 700L60 598L67 548L217 614L217 96C217 44 206 33 152 30L96 27L96 -3C250 0 250 0 261 0C292 0 402 -3 418 -3ZM595 -20C706 16 754 39 808 85C905 168 956 283 956 417C956 586 875 689 743 689C615 689 519 589 519 455C519 340 594 256 698 256C732 256 771 267 789 282L859 340C851 172 742 49 561 5L561 -3ZM739 656C784 656 817 637 839 597C857 565 869 516 869 471C869 379 816 317 739 317C659 317 605 388 605 492C605 593 657 656 739 656ZM1261 689C1106 689 1027 566 1027 324C1027 207 1048 106 1083 57C1118 8 1174 -20 1236 -20C1387 -20 1463 110 1463 366C1463 585 1398 689 1261 689ZM1243 654C1340 654 1379 556 1379 316C1379 103 1341 15 1249 15C1152 15 1111 116 1111 360C1111 571 1148 654 1243 654ZM1777 181L1777 106C1777 46 1766 32 1717 30L1655 27L1655 -3C1788 0 1788 0 1812 0C1836 0 1836 0 1969 -3L1969 27L1921 30C1872 33 1861 46 1861 106L1861 181C1920 181 1941 180 1969 177L1969 248L1861 245L1862 697L1782 667L1499 204L1499 181ZM1777 245L1562 245L1777 597ZM2120 111C2090 111 2063 83 2063 53C2063 23 2090 -5 2119 -5C2151 -5 2179 22 2179 53C2179 83 2151 111 2120 111ZM2413 345C2372 326 2355 315 2333 294C2295 256 2275 211 2275 159C2275 56 2358 -20 2471 -20C2601 -20 2709 82 2709 206C2709 286 2672 329 2558 381C2649 443 2681 485 2681 545C2681 631 2610 689 2504 689C2385 689 2298 613 2298 508C2298 440 2325 402 2413 345ZM2529 295C2592 267 2630 218 2630 164C2630 80 2567 14 2486 14C2401 14 2346 74 2346 167C2346 240 2375 286 2449 331ZM2468 423C2405 454 2373 494 2373 544C2373 610 2421 655 2492 655C2565 655 2613 607 2613 534C2613 477 2588 438 2523 396Z" stroke="rgb(0,0,0)" stroke-opacity="1" stroke-width="8" fill="rgb(0,0,0)" fill-opacity="1"></path></g></g></g></g><g transform="matrix(0.998166626538801,0.06052590903199942,-0.06052590903199942,0.998166626538801,13.077209738915826,-30.86390659061277)"><g><g><g transform="matrix(1,0,0,1,504.12109375,204.69296875)"><path transform="matrix(0.0119,0,0,-0.0119,0,0)" d="M418 -3L418 27L366 30C311 33 301 44 301 96L301 700L60 598L67 548L217 614L217 96C217 44 206 33 152 30L96 27L96 -3C250 0 250 0 261 0C292 0 402 -3 418 -3ZM667 345C626 326 609 315 587 294C549 256 529 211 529 159C529 56 612 -20 725 -20C855 -20 963 82 963 206C963 286 926 329 812 381C903 443 935 485 935 545C935 631 864 689 758 689C639 689 552 613 552 508C552 440 579 402 667 345ZM783 295C846 267 884 218 884 164C884 80 821 14 740 14C655 14 600 74 600 167C600 240 629 286 703 331ZM722 423C659 454 627 494 627 544C627 610 675 655 746 655C819 655 867 607 867 534C867 477 842 438 777 396ZM1129 331C1150 512 1239 611 1419 665L1377 689C1281 657 1240 637 1189 593C1086 506 1030 384 1030 247C1030 82 1110 -20 1239 -20C1369 -20 1466 83 1466 219C1466 334 1397 409 1291 409C1214 409 1182 370 1129 331ZM1253 349C1329 349 1380 283 1380 184C1380 80 1329 13 1252 13C1167 13 1121 86 1121 220C1121 255 1125 274 1136 291C1158 325 1205 349 1253 349ZM1513 23L1513 -3C1700 -3 1700 0 1736 0C1772 0 1772 -3 1965 -3L1965 82C1850 77 1804 81 1619 77L1801 270C1898 373 1928 428 1928 503C1928 618 1850 689 1723 689C1651 689 1602 669 1553 619L1536 483L1565 483L1578 529C1594 587 1630 612 1697 612C1783 612 1838 558 1838 473C1838 398 1796 324 1683 204Z" stroke="rgb(0,0,0)" stroke-opacity="1" stroke-width="8" fill="rgb(0,0,0)" fill-opacity="1"></path></g></g></g></g><g transform="matrix(0.9916486682069655,0.1289686738838216,-0.1289686738838216,0.9916486682069655,35.09063800825743,-65.07263547952448)"><g><g><g transform="matrix(1,0,0,1,508.12109375,242.67734375)"><path transform="matrix(0.0119,0,0,-0.0119,0,0)" d="M418 -3L418 27L366 30C311 33 301 44 301 96L301 700L60 598L67 548L217 614L217 96C217 44 206 33 152 30L96 27L96 -3C250 0 250 0 261 0C292 0 402 -3 418 -3ZM667 345C626 326 609 315 587 294C549 256 529 211 529 159C529 56 612 -20 725 -20C855 -20 963 82 963 206C963 286 926 329 812 381C903 443 935 485 935 545C935 631 864 689 758 689C639 689 552 613 552 508C552 440 579 402 667 345ZM783 295C846 267 884 218 884 164C884 80 821 14 740 14C655 14 600 74 600 167C600 240 629 286 703 331ZM722 423C659 454 627 494 627 544C627 610 675 655 746 655C819 655 867 607 867 534C867 477 842 438 777 396ZM1129 331C1150 512 1239 611 1419 665L1377 689C1281 657 1240 637 1189 593C1086 506 1030 384 1030 247C1030 82 1110 -20 1239 -20C1369 -20 1466 83 1466 219C1466 334 1397 409 1291 409C1214 409 1182 370 1129 331ZM1253 349C1329 349 1380 283 1380 184C1380 80 1329 13 1252 13C1167 13 1121 86 1121 220C1121 255 1125 274 1136 291C1158 325 1205 349 1253 349ZM1628 331C1649 512 1738 611 1918 665L1876 689C1780 657 1739 637 1688 593C1585 506 1529 384 1529 247C1529 82 1609 -20 1738 -20C1868 -20 1965 83 1965 219C1965 334 1896 409 1790 409C1713 409 1681 370 1628 331ZM1752 349C1828 349 1879 283 1879 184C1879 80 1828 13 1751 13C1666 13 1620 86 1620 220C1620 255 1624 274 1635 291C1657 325 1704 349 1752 349Z" stroke="rgb(0,0,0)" stroke-opacity="1" stroke-width="8" fill="rgb(0,0,0)" fill-opacity="1"></path></g></g></g></g><g transform="matrix(0.9489861361329366,0.31531779751146216,-0.31531779751146216,0.9489861361329366,112.61220749168376,-149.01161866190245)"><g><g><g transform="matrix(1,0,0,1,504.94921875,277.78671875)"><path transform="matrix(0.0119,0,0,-0.0119,0,0)" d="M418 -3L418 27L366 30C311 33 301 44 301 96L301 700L60 598L67 548L217 614L217 96C217 44 206 33 152 30L96 27L96 -3C250 0 250 0 261 0C292 0 402 -3 418 -3ZM667 345C626 326 609 315 587 294C549 256 529 211 529 159C529 56 612 -20 725 -20C855 -20 963 82 963 206C963 286 926 329 812 381C903 443 935 485 935 545C935 631 864 689 758 689C639 689 552 613 552 508C552 440 579 402 667 345ZM783 295C846 267 884 218 884 164C884 80 821 14 740 14C655 14 600 74 600 167C600 240 629 286 703 331ZM722 423C659 454 627 494 627 544C627 610 675 655 746 655C819 655 867 607 867 534C867 477 842 438 777 396ZM1407 603L1045 -1L1155 -1L1495 659L1495 689L1042 689L1042 477L1072 477L1079 533C1087 595 1094 603 1140 603ZM1760 689C1605 689 1526 566 1526 324C1526 207 1547 106 1582 57C1617 8 1673 -20 1735 -20C1886 -20 1962 110 1962 366C1962 585 1897 689 1760 689ZM1742 654C1839 654 1878 556 1878 316C1878 103 1840 15 1748 15C1651 15 1610 116 1610 360C1610 571 1647 654 1742 654Z" stroke="rgb(0,0,0)" stroke-opacity="1" stroke-width="8" fill="rgb(0,0,0)" fill-opacity="1"></path></g></g></g></g><g transform="matrix(0.7955792336667403,0.6058495547231525,-0.6058495547231525,0.7955792336667403,302.2706464327788,-219.194694265748)"><g><g><g transform="matrix(1,0,0,1,464.07421875,342.59140625)"><path transform="matrix(0.0119,0,0,-0.0119,0,0)" d="M418 -3L418 27L366 30C311 33 301 44 301 96L301 700L60 598L67 548L217 614L217 96C217 44 206 33 152 30L96 27L96 -3C250 0 250 0 261 0C292 0 402 -3 418 -3ZM667 345C626 326 609 315 587 294C549 256 529 211 529 159C529 56 612 -20 725 -20C855 -20 963 82 963 206C963 286 926 329 812 381C903 443 935 485 935 545C935 631 864 689 758 689C639 689 552 613 552 508C552 440 579 402 667 345ZM783 295C846 267 884 218 884 164C884 80 821 14 740 14C655 14 600 74 600 167C600 240 629 286 703 331ZM722 423C659 454 627 494 627 544C627 610 675 655 746 655C819 655 867 607 867 534C867 477 842 438 777 396ZM1407 603L1045 -1L1155 -1L1495 659L1495 689L1042 689L1042 477L1072 477L1079 533C1087 595 1094 603 1140 603ZM1777 181L1777 106C1777 46 1766 32 1717 30L1655 27L1655 -3C1788 0 1788 0 1812 0C1836 0 1836 0 1969 -3L1969 27L1921 30C1872 33 1861 46 1861 106L1861 181C1920 181 1941 180 1969 177L1969 248L1861 245L1862 697L1782 667L1499 204L1499 181ZM1777 245L1562 245L1777 597Z" stroke="rgb(0,0,0)" stroke-opacity="1" stroke-width="8" fill="rgb(0,0,0)" fill-opacity="1"></path></g></g></g></g><g transform="matrix(0.764696512758737,0.6443905984530087,-0.6443905984530087,0.764696512758737,337.33287968466857,-199.16266736260252)"><g><g><g transform="matrix(1,0,0,1,429.49609375,366.58359375)"><path transform="matrix(0.0119,0,0,-0.0119,0,0)" d="M418 -3L418 27L366 30C311 33 301 44 301 96L301 700L60 598L67 548L217 614L217 96C217 44 206 33 152 30L96 27L96 -3C250 0 250 0 261 0C292 0 402 -3 418 -3ZM667 345C626 326 609 315 587 294C549 256 529 211 529 159C529 56 612 -20 725 -20C855 -20 963 82 963 206C963 286 926 329 812 381C903 443 935 485 935 545C935 631 864 689 758 689C639 689 552 613 552 508C552 440 579 402 667 345ZM783 295C846 267 884 218 884 164C884 80 821 14 740 14C655 14 600 74 600 167C600 240 629 286 703 331ZM722 423C659 454 627 494 627 544C627 610 675 655 746 655C819 655 867 607 867 534C867 477 842 438 777 396ZM1166 345C1125 326 1108 315 1086 294C1048 256 1028 211 1028 159C1028 56 1111 -20 1224 -20C1354 -20 1462 82 1462 206C1462 286 1425 329 1311 381C1402 443 1434 485 1434 545C1434 631 1363 689 1257 689C1138 689 1051 613 1051 508C1051 440 1078 402 1166 345ZM1282 295C1345 267 1383 218 1383 164C1383 80 1320 14 1239 14C1154 14 1099 74 1099 167C1099 240 1128 286 1202 331ZM1221 423C1158 454 1126 494 1126 544C1126 610 1174 655 1245 655C1318 655 1366 607 1366 534C1366 477 1341 438 1276 396ZM1513 23L1513 -3C1700 -3 1700 0 1736 0C1772 0 1772 -3 1965 -3L1965 82C1850 77 1804 81 1619 77L1801 270C1898 373 1928 428 1928 503C1928 618 1850 689 1723 689C1651 689 1602 669 1553 619L1536 483L1565 483L1578 529C1594 587 1630 612 1697 612C1783 612 1838 558 1838 473C1838 398 1796 324 1683 204Z" stroke="rgb(0,0,0)" stroke-opacity="1" stroke-width="8" fill="rgb(0,0,0)" fill-opacity="1"></path></g></g></g></g><g transform="matrix(0.6602638683996462,0.7510337036950704,-0.7510337036950704,0.6602638683996462,408.7667976806591,-170.72928786152318)"><g><g><g transform="matrix(1,0,0,1,381.21484375,370.71640625)"><path transform="matrix(0.0119,0,0,-0.0119,0,0)" d="M418 -3L418 27L366 30C311 33 301 44 301 96L301 700L60 598L67 548L217 614L217 96C217 44 206 33 152 30L96 27L96 -3C250 0 250 0 261 0C292 0 402 -3 418 -3ZM667 345C626 326 609 315 587 294C549 256 529 211 529 159C529 56 612 -20 725 -20C855 -20 963 82 963 206C963 286 926 329 812 381C903 443 935 485 935 545C935 631 864 689 758 689C639 689 552 613 552 508C552 440 579 402 667 345ZM783 295C846 267 884 218 884 164C884 80 821 14 740 14C655 14 600 74 600 167C600 240 629 286 703 331ZM722 423C659 454 627 494 627 544C627 610 675 655 746 655C819 655 867 607 867 534C867 477 842 438 777 396ZM1166 345C1125 326 1108 315 1086 294C1048 256 1028 211 1028 159C1028 56 1111 -20 1224 -20C1354 -20 1462 82 1462 206C1462 286 1425 329 1311 381C1402 443 1434 485 1434 545C1434 631 1363 689 1257 689C1138 689 1051 613 1051 508C1051 440 1078 402 1166 345ZM1282 295C1345 267 1383 218 1383 164C1383 80 1320 14 1239 14C1154 14 1099 74 1099 167C1099 240 1128 286 1202 331ZM1221 423C1158 454 1126 494 1126 544C1126 610 1174 655 1245 655C1318 655 1366 607 1366 534C1366 477 1341 438 1276 396ZM1628 331C1649 512 1738 611 1918 665L1876 689C1780 657 1739 637 1688 593C1585 506 1529 384 1529 247C1529 82 1609 -20 1738 -20C1868 -20 1965 83 1965 219C1965 334 1896 409 1790 409C1713 409 1681 370 1628 331ZM1752 349C1828 349 1879 283 1879 184C1879 80 1828 13 1751 13C1666 13 1620 86 1620 220C1620 255 1624 274 1635 291C1657 325 1704 349 1752 349Z" stroke="rgb(0,0,0)" stroke-opacity="1" stroke-width="8" fill="rgb(0,0,0)" fill-opacity="1"></path></g></g></g></g><g transform="matrix(0.6602638683996462,0.7510337036950704,-0.7510337036950704,0.6602638683996462,352.86052350658423,-105.0313620795909)"><g><g><g transform="matrix(1,0,0,1,280.64453125,341.77109375)"><path transform="matrix(0.0119,0,0,-0.0119,0,0)" d="M418 -3L418 27L366 30C311 33 301 44 301 96L301 700L60 598L67 548L217 614L217 96C217 44 206 33 152 30L96 27L96 -3C250 0 250 0 261 0C292 0 402 -3 418 -3ZM667 345C626 326 609 315 587 294C549 256 529 211 529 159C529 56 612 -20 725 -20C855 -20 963 82 963 206C963 286 926 329 812 381C903 443 935 485 935 545C935 631 864 689 758 689C639 689 552 613 552 508C552 440 579 402 667 345ZM783 295C846 267 884 218 884 164C884 80 821 14 740 14C655 14 600 74 600 167C600 240 629 286 703 331ZM722 423C659 454 627 494 627 544C627 610 675 655 746 655C819 655 867 607 867 534C867 477 842 438 777 396ZM1094 -20C1205 16 1253 39 1307 85C1404 168 1455 283 1455 417C1455 586 1374 689 1242 689C1114 689 1018 589 1018 455C1018 340 1093 256 1197 256C1231 256 1270 267 1288 282L1358 340C1350 172 1241 49 1060 5L1060 -3ZM1238 656C1283 656 1316 637 1338 597C1356 565 1368 516 1368 471C1368 379 1315 317 1238 317C1158 317 1104 388 1104 492C1104 593 1156 656 1238 656ZM1760 689C1605 689 1526 566 1526 324C1526 207 1547 106 1582 57C1617 8 1673 -20 1735 -20C1886 -20 1962 110 1962 366C1962 585 1897 689 1760 689ZM1742 654C1839 654 1878 556 1878 316C1878 103 1840 15 1748 15C1651 15 1610 116 1610 360C1610 571 1647 654 1742 654Z" stroke="rgb(0,0,0)" stroke-opacity="1" stroke-width="8" fill="rgb(0,0,0)" fill-opacity="1"></path></g></g></g></g><g><g><g><g transform="matrix(1,0,0,1,209,397.8921875)"><path transform="matrix(0.0119,0,0,-0.0119,0,0)" d="M263 689C108 689 29 566 29 324C29 207 50 106 85 57C120 8 176 -20 238 -20C389 -20 465 110 465 366C465 585 400 689 263 689ZM245 654C342 654 381 556 381 316C381 103 343 15 251 15C154 15 113 116 113 360C113 571 150 654 245 654ZM603 470C660 543 698 610 732 696L719 709C683 697 673 694 622 679C616 599 592 533 544 456L559 446ZM880 470C937 543 975 610 1009 696L996 709C960 697 950 694 899 679C893 599 869 533 821 456L836 446Z" stroke="rgb(0,0,0)" stroke-opacity="1" stroke-width="8" fill="rgb(0,0,0)" fill-opacity="1"></path></g></g></g></g><g><g><g><g transform="matrix(1,0,0,1,255.328125,397.8921875)"><path transform="matrix(0.0119,0,0,-0.0119,0,0)" d="M16 23L16 -3C203 -3 203 0 239 0C275 0 275 -3 468 -3L468 82C353 77 307 81 122 77L304 270C401 373 431 428 431 503C431 618 353 689 226 689C154 689 105 669 56 619L39 483L68 483L81 529C97 587 133 612 200 612C286 612 341 558 341 473C341 398 299 324 186 204ZM603 470C660 543 698 610 732 696L719 709C683 697 673 694 622 679C616 599 592 533 544 456L559 446ZM880 470C937 543 975 610 1009 696L996 709C960 697 950 694 899 679C893 599 869 533 821 456L836 446Z" stroke="rgb(0,0,0)" stroke-opacity="1" stroke-width="8" fill="rgb(0,0,0)" fill-opacity="1"></path></g></g></g></g><g><g><g><g transform="matrix(1,0,0,1,300.328125,397.8921875)"><path transform="matrix(0.0119,0,0,-0.0119,0,0)" d="M280 181L280 106C280 46 269 32 220 30L158 27L158 -3C291 0 291 0 315 0C339 0 339 0 472 -3L472 27L424 30C375 33 364 46 364 106L364 181C423 181 444 180 472 177L472 248L364 245L365 697L285 667L2 204L2 181ZM280 245L65 245L280 597ZM603 470C660 543 698 610 732 696L719 709C683 697 673 694 622 679C616 599 592 533 544 456L559 446ZM880 470C937 543 975 610 1009 696L996 709C960 697 950 694 899 679C893 599 869 533 821 456L836 446Z" stroke="rgb(0,0,0)" stroke-opacity="1" stroke-width="8" fill="rgb(0,0,0)" fill-opacity="1"></path></g></g></g></g><g><g><g><g transform="matrix(1,0,0,1,346.6640625,398.228125)"><path transform="matrix(0.0119,0,0,-0.0119,0,0)" d="M131 331C152 512 241 611 421 665L379 689C283 657 242 637 191 593C88 506 32 384 32 247C32 82 112 -20 241 -20C371 -20 468 83 468 219C468 334 399 409 293 409C216 409 184 370 131 331ZM255 349C331 349 382 283 382 184C382 80 331 13 254 13C169 13 123 86 123 220C123 255 127 274 138 291C160 325 207 349 255 349ZM603 470C660 543 698 610 732 696L719 709C683 697 673 694 622 679C616 599 592 533 544 456L559 446ZM880 470C937 543 975 610 1009 696L996 709C960 697 950 694 899 679C893 599 869 533 821 456L836 446Z" stroke="rgb(0,0,0)" stroke-opacity="1" stroke-width="8" fill="rgb(0,0,0)" fill-opacity="1"></path></g></g></g></g><g><g><g><g transform="matrix(1,0,0,1,393.328125,397.8921875)"><path transform="matrix(0.0119,0,0,-0.0119,0,0)" d="M168 345C127 326 110 315 88 294C50 256 30 211 30 159C30 56 113 -20 226 -20C356 -20 464 82 464 206C464 286 427 329 313 381C404 443 436 485 436 545C436 631 365 689 259 689C140 689 53 613 53 508C53 440 80 402 168 345ZM284 295C347 267 385 218 385 164C385 80 322 14 241 14C156 14 101 74 101 167C101 240 130 286 204 331ZM223 423C160 454 128 494 128 544C128 610 176 655 247 655C320 655 368 607 368 534C368 477 343 438 278 396ZM603 470C660 543 698 610 732 696L719 709C683 697 673 694 622 679C616 599 592 533 544 456L559 446ZM880 470C937 543 975 610 1009 696L996 709C960 697 950 694 899 679C893 599 869 533 821 456L836 446Z" stroke="rgb(0,0,0)" stroke-opacity="1" stroke-width="8" fill="rgb(0,0,0)" fill-opacity="1"></path></g></g></g></g><g><g><g><g transform="matrix(1,0,0,1,437,397.8921875)"><path transform="matrix(0.0119,0,0,-0.0119,0,0)" d="M418 -3L418 27L366 30C311 33 301 44 301 96L301 700L60 598L67 548L217 614L217 96C217 44 206 33 152 30L96 27L96 -3C250 0 250 0 261 0C292 0 402 -3 418 -3ZM762 689C607 689 528 566 528 324C528 207 549 106 584 57C619 8 675 -20 737 -20C888 -20 964 110 964 366C964 585 899 689 762 689ZM744 654C841 654 880 556 880 316C880 103 842 15 750 15C653 15 612 116 612 360C612 571 649 654 744 654ZM1102 470C1159 543 1197 610 1231 696L1218 709C1182 697 1172 694 1121 679C1115 599 1091 533 1043 456L1058 446ZM1379 470C1436 543 1474 610 1508 696L1495 709C1459 697 1449 694 1398 679C1392 599 1368 533 1320 456L1335 446Z" stroke="rgb(0,0,0)" stroke-opacity="1" stroke-width="8" fill="rgb(0,0,0)" fill-opacity="1"></path></g></g></g></g><g><g><g><g transform="matrix(1,0,0,1,482.6640625,397.8921875)"><path transform="matrix(0.0119,0,0,-0.0119,0,0)" d="M418 -3L418 27L366 30C311 33 301 44 301 96L301 700L60 598L67 548L217 614L217 96C217 44 206 33 152 30L96 27L96 -3C250 0 250 0 261 0C292 0 402 -3 418 -3ZM515 23L515 -3C702 -3 702 0 738 0C774 0 774 -3 967 -3L967 82C852 77 806 81 621 77L803 270C900 373 930 428 930 503C930 618 852 689 725 689C653 689 604 669 555 619L538 483L567 483L580 529C596 587 632 612 699 612C785 612 840 558 840 473C840 398 798 324 685 204ZM1102 470C1159 543 1197 610 1231 696L1218 709C1182 697 1172 694 1121 679C1115 599 1091 533 1043 456L1058 446ZM1379 470C1436 543 1474 610 1508 696L1495 709C1459 697 1449 694 1398 679C1392 599 1368 533 1320 456L1335 446Z" stroke="rgb(0,0,0)" stroke-opacity="1" stroke-width="8" fill="rgb(0,0,0)" fill-opacity="1"></path></g></g></g></g><g><g><g><text x="333.6640625" y="414.5" style="white-space:pre;stroke:none;fill:rgb(0,0,0);fill-opacity:1;font-size:10.5px;font-family:Arial, Helvetica, sans-serif;font-weight:400;font-style:normal;dominant-baseline:text-before-edge;text-decoration:none solid rgb(0, 0, 0);">SCALE</text></g></g></g></svg>
</svg>
