<svg xmlns="http://www.w3.org/2000/svg" xmlns:xlink="http://www.w3.org/1999/xlink" x="0" y="0" width="662" height="302" style="
        width:662px;
        height:302px;
        background: transparent;
        fill: none;
">
        
        
        <svg xmlns="http://www.w3.org/2000/svg" class="role-diagram-draw-area"><g class="shapes-region" style="stroke: black; fill: none;"><g class="composite-shape"><path class="real" d=" M296.83,229.67 L366.83,229.67 L366.83,334.53 L296.83,334.53 Z" style="stroke-width: 1; stroke: rgb(0, 0, 0); fill: none; fill-opacity: 1;"/></g><g class="composite-shape"><path class="real" d=" M110.67,71.77 C110.67,77.53 106,82.2 100.23,82.2 C94.47,82.2 89.8,77.53 89.8,71.77 C89.8,66 94.47,61.33 100.23,61.33 L559.71,61.33 C561.06,60.75 562.54,60.43 564.1,60.43 C570.23,60.43 575.2,65.4 575.2,71.53 C575.2,77.66 570.23,82.63 564.1,82.63 C557.97,82.63 553,77.66 553,71.53 C553,70.47 553.15,69.44 553.43,68.47 L341.81,209.99 C342.99,211.85 343.67,214.06 343.67,216.43 C343.67,223.11 338.25,228.53 331.57,228.53 C324.89,228.53 319.47,223.11 319.47,216.43 C319.47,213.82 320.29,211.41 321.7,209.43 L109.88,67.78 C110.39,69.01 110.67,70.36 110.67,71.77 Z" style="stroke-width: 1; stroke: rgb(0, 0, 0); fill: none; fill-opacity: 1; stroke-dasharray: 6, 6;"/></g><g class="arrow-line"><path class="connection real" stroke-dasharray="" d="  M100.5,61.27 L563.48,61.03" style="stroke: rgb(0, 0, 0); stroke-width: 1; fill: none; fill-opacity: 1;"/></g><g class="composite-shape"><path class="real" d=" M77.4,163.38 C77.4,156.7 82.82,151.28 89.5,151.28 C96.18,151.28 101.6,156.7 101.6,163.38 C101.6,170.06 96.18,175.48 89.5,175.48 C82.82,175.48 77.4,170.06 77.4,163.38 Z" style="stroke-width: 1; stroke: rgb(0, 0, 0); fill: none; fill-opacity: 1; stroke-dasharray: 6, 6;"/></g><g class="arrow-line"><path class="connection real" stroke-dasharray="" d="  M89.8,71.77 L89.5,151.28" style="stroke: rgb(0, 0, 0); stroke-width: 1; fill: none; fill-opacity: 1;"/></g><g class="composite-shape"><path class="real" d=" M77.1,235.09 C77.1,228.41 82.52,222.99 89.2,222.99 C95.88,222.99 101.3,228.41 101.3,235.09 C101.3,241.78 95.88,247.19 89.2,247.19 C82.52,247.19 77.1,241.78 77.1,235.09 Z" style="stroke-width: 1; stroke: rgb(0, 0, 0); fill: rgb(0, 0, 0); fill-opacity: 1;"/></g><g class="arrow-line"><path class="connection real" stroke-dasharray="6 6" d="  M89.5,175.48 L89.2,222.99" style="stroke: rgb(0, 0, 0); stroke-width: 1; fill: none; fill-opacity: 1;"/></g><g class="composite-shape"><path class="real" d=" M562.9,161.88 C562.9,155.2 568.32,149.78 575,149.78 C581.68,149.78 587.1,155.2 587.1,161.88 C587.1,168.56 581.68,173.98 575,173.98 C568.32,173.98 562.9,168.56 562.9,161.88 Z" style="stroke-width: 1; stroke: rgb(0, 0, 0); fill: none; fill-opacity: 1; stroke-dasharray: 6, 6;"/></g><g class="arrow-line"><path class="connection real" stroke-dasharray="" d="  M575.3,70.27 L575,149.78" style="stroke: rgb(0, 0, 0); stroke-width: 1; fill: none; fill-opacity: 1;"/></g><g class="composite-shape"><path class="real" d=" M562.6,233.59 C562.6,226.91 568.02,221.49 574.7,221.49 C581.38,221.49 586.8,226.91 586.8,233.59 C586.8,240.28 581.38,245.69 574.7,245.69 C568.02,245.69 562.6,240.28 562.6,233.59 Z" style="stroke-width: 1; stroke: rgb(0, 0, 0); fill: rgb(0, 0, 0); fill-opacity: 1;"/></g><g class="arrow-line"><path class="connection real" stroke-dasharray="6 6" d="  M575,173.98 L574.7,221.49" style="stroke: rgb(0, 0, 0); stroke-width: 1; fill: none; fill-opacity: 1;"/></g><g class="composite-shape"><path class="real" d=" M319.32,61.15 C319.32,54.47 324.99,49.05 331.99,49.05 C338.98,49.05 344.65,54.47 344.65,61.15 C344.65,67.83 338.98,73.25 331.99,73.25 C324.99,73.25 319.32,67.83 319.32,61.15 Z" style="stroke-width: 1; stroke: rgb(0, 0, 0); fill: rgb(0, 0, 0); fill-opacity: 1;"/></g><g class="composite-shape"><path class="real" d=" M319.47,216.43 C319.47,209.75 324.89,204.33 331.57,204.33 C338.25,204.33 343.67,209.75 343.67,216.43 C343.67,223.11 338.25,228.53 331.57,228.53 C324.89,228.53 319.47,223.11 319.47,216.43 Z" style="stroke-width: 1; stroke: rgb(0, 0, 0); fill: none; fill-opacity: 1; stroke-dasharray: 6, 6;"/></g><g class="composite-shape"><path class="real" d=" M90.07,71.7 C90.07,65.94 94.74,61.27 100.5,61.27 C106.26,61.27 110.93,65.94 110.93,71.7 C110.93,77.46 106.26,82.13 100.5,82.13 C94.74,82.13 90.07,77.46 90.07,71.7 Z" style="stroke-width: 1; stroke: rgb(0, 0, 0); fill: none; fill-opacity: 1;"/></g><g class="composite-shape"><path class="real" d=" M553.67,72.2 C553.67,66.44 558.34,61.77 564.1,61.77 C569.86,61.77 574.53,66.44 574.53,72.2 C574.53,77.96 569.86,82.63 564.1,82.63 C558.34,82.63 553.67,77.96 553.67,72.2 Z" style="stroke-width: 1; stroke: rgb(0, 0, 0); fill: none; fill-opacity: 1;"/></g><g/></g><g/><g/><g/></svg>
        <svg xmlns="http://www.w3.org/2000/svg" xmlns:xlink="http://www.w3.org/1999/xlink" width="660" height="300" style="width:660px;height:300px;font-family:Asana-Math, Asana;background:transparent;"><g><g><g><g transform="matrix(1,0,0,1,320.5,43.5)"><path transform="matrix(0.017,0,0,-0.017,0,0)" d="M16 23L16 -3C203 -3 203 0 239 0C275 0 275 -3 468 -3L468 82C353 77 307 81 122 77L304 270C401 373 431 428 431 503C431 618 353 689 226 689C154 689 105 669 56 619L39 483L68 483L81 529C97 587 133 612 200 612C286 612 341 558 341 473C341 398 299 324 186 204ZM1229 103L1203 86C1174 67 1152 56 1142 56C1135 56 1129 65 1129 76C1129 86 1131 95 1136 116L1211 413C1215 430 1218 446 1218 454C1218 471 1208 482 1192 482C1163 482 1125 464 1064 421C1001 376 966 341 917 272L947 409C951 429 954 444 954 451C954 470 944 482 928 482C898 482 852 460 797 418C753 384 733 363 668 275L701 408C705 424 707 439 707 451C707 470 698 482 684 482C663 482 625 461 551 408L523 388L530 368C567 391 602 414 609 414C620 414 627 404 627 389C627 338 586 145 545 2L548 -9L616 6L638 108C662 219 689 278 744 338C786 384 831 414 859 414C866 414 870 406 870 393C870 358 848 244 807 69L791 2L796 -9L865 6L886 113C902 194 936 269 980 318C1035 379 1085 414 1117 414C1125 414 1130 405 1130 389C1130 365 1127 351 1105 264C1065 105 1049 84 1049 31C1049 6 1060 -9 1079 -9C1105 -9 1141 12 1239 85Z" stroke="rgb(0,0,0)" stroke-opacity="1" stroke-width="8" fill="rgb(0,0,0)" fill-opacity="1"></path></g></g></g></g><g><g><g><g transform="matrix(1,0,0,1,110,240.5)"><path transform="matrix(0.017,0,0,-0.017,0,0)" d="M730 103L704 86C675 67 653 56 643 56C636 56 630 65 630 76C630 86 632 95 637 116L712 413C716 430 719 446 719 454C719 471 709 482 693 482C664 482 626 464 565 421C502 376 467 341 418 272L448 409C452 429 455 444 455 451C455 470 445 482 429 482C399 482 353 460 298 418C254 384 234 363 169 275L202 408C206 424 208 439 208 451C208 470 199 482 185 482C164 482 126 461 52 408L24 388L31 368C68 391 103 414 110 414C121 414 128 404 128 389C128 338 87 145 46 2L49 -9L117 6L139 108C163 219 190 278 245 338C287 384 332 414 360 414C367 414 371 406 371 393C371 358 349 244 308 69L292 2L297 -9L366 6L387 113C403 194 437 269 481 318C536 379 586 414 618 414C626 414 631 405 631 389C631 365 628 351 606 264C566 105 550 84 550 31C550 6 561 -9 580 -9C606 -9 642 12 740 85Z" stroke="rgb(0,0,0)" stroke-opacity="1" stroke-width="8" fill="rgb(0,0,0)" fill-opacity="1"></path></g></g></g></g><g><g><g><g transform="matrix(1,0,0,1,540.5,240)"><path transform="matrix(0.017,0,0,-0.017,0,0)" d="M730 103L704 86C675 67 653 56 643 56C636 56 630 65 630 76C630 86 632 95 637 116L712 413C716 430 719 446 719 454C719 471 709 482 693 482C664 482 626 464 565 421C502 376 467 341 418 272L448 409C452 429 455 444 455 451C455 470 445 482 429 482C399 482 353 460 298 418C254 384 234 363 169 275L202 408C206 424 208 439 208 451C208 470 199 482 185 482C164 482 126 461 52 408L24 388L31 368C68 391 103 414 110 414C121 414 128 404 128 389C128 338 87 145 46 2L49 -9L117 6L139 108C163 219 190 278 245 338C287 384 332 414 360 414C367 414 371 406 371 393C371 358 349 244 308 69L292 2L297 -9L366 6L387 113C403 194 437 269 481 318C536 379 586 414 618 414C626 414 631 405 631 389C631 365 628 351 606 264C566 105 550 84 550 31C550 6 561 -9 580 -9C606 -9 642 12 740 85Z" stroke="rgb(0,0,0)" stroke-opacity="1" stroke-width="8" fill="rgb(0,0,0)" fill-opacity="1"></path></g></g></g></g></svg>
</svg>
