<svg xmlns="http://www.w3.org/2000/svg" xmlns:xlink="http://www.w3.org/1999/xlink" x="0" y="0" width="662" height="212.6640625" style="
        width:662px;
        height:212.6640625px;
        background: transparent;
        fill: none;
">
        
        
        <svg xmlns="http://www.w3.org/2000/svg" class="role-diagram-draw-area"><g class="shapes-region" style="stroke: black; fill: none;"><g class="composite-shape" data-amt="diagram/shapes/plot" transform="matrix(1,0,0,1,133.33333333333343,1.372395833333485)"><g><g/><g><g class="test-plot-expression"><defs><clipPath id="cplw1gy0c1r"><rect x="1" y="1" width="390.99999999999994" height="203.96093750000023"/></clipPath></defs><g clip-path="url(#cplw1gy0c1r)"><path d=" M35.55,93.55 L35.97,93.05 L36.39,92.55 L36.81,92.05 L37.23,91.55 L37.65,91.05 L38.07,90.56 L38.49,90.06 L38.91,89.57 L39.33,89.08 L39.75,88.59 L40.17,88.10 L40.59,87.62 L41.00,87.13 L41.42,86.65 L41.84,86.17 L42.26,85.69 L42.68,85.21 L43.10,84.73 L43.52,84.26 L43.94,83.78 L44.36,83.31 L44.78,82.84 L45.20,82.37 L45.62,81.90 L46.04,81.44 L46.46,80.97 L46.88,80.51 L47.30,80.05 L47.72,79.59 L48.14,79.13 L48.56,78.67 L48.98,78.22 L49.40,77.77 L49.82,77.31 L50.24,76.86 L50.66,76.41 L51.08,75.97 L51.50,75.52 L51.92,75.08 L52.34,74.63 L52.76,74.19 L53.18,73.75 L53.60,73.31 L54.02,72.88 L54.44,72.44 L54.86,72.01 L55.28,71.57 L55.70,71.14 L56.12,70.72 L56.54,70.29 L56.96,69.86 L57.38,69.44 L57.80,69.01 L58.22,68.59 L58.64,68.17 L59.06,67.75 L59.48,67.34 L59.90,66.92 L60.32,66.51 L60.74,66.10 L61.16,65.69 L61.58,65.28 L62.00,64.87 L62.42,64.46 L62.84,64.06 L63.26,63.66 L63.68,63.25 L64.10,62.85 L64.52,62.46 L64.94,62.06 L65.36,61.66 L65.78,61.27 L66.20,60.88 L66.61,60.49 L67.03,60.10 L67.45,59.71 L67.87,59.33 L68.29,58.94 L68.71,58.56 L69.13,58.18 L69.55,57.80 L69.97,57.42 L70.39,57.04 L70.81,56.67 L71.23,56.29 L71.65,55.92 L72.07,55.55 L72.49,55.18 L72.91,54.81 L73.33,54.45 L73.75,54.08 L74.17,53.72 L74.59,53.36 L75.01,53.00 L75.43,52.64 L75.85,52.28 L76.27,51.93 L76.69,51.58 L77.11,51.22 L77.53,50.87 L77.95,50.52 L78.37,50.18 L78.79,49.83 L79.21,49.49 L79.63,49.14 L80.05,48.80 L80.47,48.46 L80.89,48.12 L81.31,47.79 L81.73,47.45 L82.15,47.12 L82.57,46.79 L82.99,46.46 L83.41,46.13 L83.83,45.80 L84.25,45.47 L84.67,45.15 L85.09,44.83 L85.51,44.51 L85.93,44.19 L86.35,43.87 L86.77,43.55 L87.19,43.24 L87.61,42.92 L88.03,42.61 L88.45,42.30 L88.87,41.99 L89.29,41.68 L89.71,41.38 L90.13,41.07 L90.55,40.77 L90.97,40.47 L91.39,40.17 L91.81,39.87 L92.22,39.57 L92.64,39.28 L93.06,38.99 L93.48,38.69 L93.90,38.40 L94.32,38.11 L94.74,37.83 L95.16,37.54 L95.58,37.26 L96.00,36.97 L96.42,36.69 L96.84,36.41 L97.26,36.14 L97.68,35.86 L98.10,35.58 L98.52,35.31 L98.94,35.04 L99.36,34.77 L99.78,34.50 L100.20,34.23 L100.62,33.97 L101.04,33.70 L101.46,33.44 L101.88,33.18 L102.30,32.92 L102.72,32.66 L103.14,32.40 L103.56,32.15 L103.98,31.89 L104.40,31.64 L104.82,31.39 L105.24,31.14 L105.66,30.90 L106.08,30.65 L106.50,30.41 L106.92,30.16 L107.34,29.92 L107.76,29.68 L108.18,29.44 L108.60,29.21 L109.02,28.97 L109.44,28.74 L109.86,28.51 L110.28,28.28 L110.70,28.05 L111.12,27.82 L111.54,27.59 L111.96,27.37 L112.38,27.15 L112.80,26.93 L113.22,26.71 L113.64,26.49 L114.06,26.27 L114.48,26.06 L114.90,25.84 L115.32,25.63 L115.74,25.42 L116.16,25.21 L116.58,25.01 L117.00,24.80 L117.42,24.60 L117.83,24.39 L118.25,24.19 L118.67,23.99 L119.09,23.79 L119.51,23.60 L119.93,23.40 L120.35,23.21 L120.77,23.02 L121.19,22.83 L121.61,22.64 L122.03,22.45 L122.45,22.27 L122.87,22.08 L123.29,21.90 L123.71,21.72 L124.13,21.54 L124.55,21.36 L124.97,21.18 L125.39,21.01 L125.81,20.83 L126.23,20.66 L126.65,20.49 L127.07,20.32 L127.49,20.16 L127.91,19.99 L128.33,19.83 L128.75,19.66 L129.17,19.50 L129.59,19.34 L130.01,19.19 L130.43,19.03 L130.85,18.87 L131.27,18.72 L131.69,18.57 L132.11,18.42 L132.53,18.27 L132.95,18.12 L133.37,17.98 L133.79,17.83 L134.21,17.69 L134.63,17.55 L135.05,17.41 L135.47,17.27 L135.89,17.13 L136.31,17.00 L136.73,16.87 L137.15,16.73 L137.57,16.60 L137.99,16.48 L138.41,16.35 L138.83,16.22 L139.25,16.10 L139.67,15.98 L140.09,15.86 L140.51,15.74 L140.93,15.62 L141.35,15.50 L141.77,15.39 L142.19,15.27 L142.61,15.16 L143.03,15.05 L143.44,14.94 L143.86,14.84 L144.28,14.73 L144.70,14.63 L145.12,14.52 L145.54,14.42 L145.96,14.32 L146.38,14.22 L146.80,14.13 L147.22,14.03 L147.64,13.94 L148.06,13.85 L148.48,13.76 L148.90,13.67 L149.32,13.58 L149.74,13.50 L150.16,13.41 L150.58,13.33 L151.00,13.25 L151.42,13.17 L151.84,13.09 L152.26,13.02 L152.68,12.94 L153.10,12.87 L153.52,12.80 L153.94,12.72 L154.36,12.66 L154.78,12.59 L155.20,12.52 L155.62,12.46 L156.04,12.40 L156.46,12.34 L156.88,12.28 L157.30,12.22 L157.72,12.16 L158.14,12.11 L158.56,12.05 L158.98,12.00 L159.40,11.95 L159.82,11.90 L160.24,11.86 L160.66,11.81 L161.08,11.77 L161.50,11.72 L161.92,11.68 L162.34,11.64 L162.76,11.61 L163.18,11.57 L163.60,11.54 L164.02,11.50 L164.44,11.47 L164.86,11.44 L165.28,11.41 L165.70,11.38 L166.12,11.36 L166.54,11.33 L166.96,11.31 L167.38,11.29 L167.80,11.27 L168.22,11.25 L168.64,11.24 L169.05,11.22 L169.47,11.21 L169.89,11.20 L170.31,11.19 L170.73,11.18 L171.15,11.17 L171.57,11.17 L171.99,11.16 L172.41,11.16 L172.83,11.16 L173.25,11.16 L173.67,11.16 L174.09,11.17 L174.51,11.17 L174.93,11.18 L175.35,11.19 L175.77,11.20 L176.19,11.21 L176.61,11.22 L177.03,11.24 L177.45,11.25 L177.87,11.27 L178.29,11.29 L178.71,11.31 L179.13,11.33 L179.55,11.35 L179.97,11.38 L180.39,11.41 L180.81,11.44 L181.23,11.47 L181.65,11.50 L182.07,11.53 L182.49,11.56 L182.91,11.60 L183.33,11.64 L183.75,11.68 L184.17,11.72 L184.59,11.76 L185.01,11.80 L185.43,11.85 L185.85,11.90 L186.27,11.94 L186.69,11.99 L187.11,12.05 L187.53,12.10 L187.95,12.15 L188.37,12.21 L188.79,12.27 L189.21,12.33 L189.63,12.39 L190.05,12.45 L190.47,12.51 L190.89,12.58 L191.31,12.64 L191.73,12.71 L192.15,12.78 L192.57,12.85 L192.99,12.93 L193.41,13.00 L193.83,13.08 L194.25,13.16 L194.66,13.24 L195.08,13.32 L195.50,13.40 L195.92,13.48 L196.34,13.57 L196.76,13.65 L197.18,13.74 L197.60,13.83 L198.02,13.92 L198.44,14.02 L198.86,14.11 L199.28,14.21 L199.70,14.31 L200.12,14.41 L200.54,14.51 L200.96,14.61 L201.38,14.71 L201.80,14.82 L202.22,14.92 L202.64,15.03 L203.06,15.14 L203.48,15.25 L203.90,15.37 L204.32,15.48 L204.74,15.60 L205.16,15.72 L205.58,15.84 L206.00,15.96 L206.42,16.08 L206.84,16.20 L207.26,16.33 L207.68,16.45 L208.10,16.58 L208.52,16.71 L208.94,16.84 L209.36,16.98 L209.78,17.11 L210.20,17.25 L210.62,17.39 L211.04,17.53 L211.46,17.67 L211.88,17.81 L212.30,17.95 L212.72,18.10 L213.14,18.24 L213.56,18.39 L213.98,18.54 L214.40,18.70 L214.82,18.85 L215.24,19.00 L215.66,19.16 L216.08,19.32 L216.50,19.48 L216.92,19.64 L217.34,19.80 L217.76,19.96 L218.18,20.13 L218.60,20.30 L219.02,20.46 L219.44,20.63 L219.86,20.81 L220.27,20.98 L220.69,21.15 L221.11,21.33 L221.53,21.51 L221.95,21.69 L222.37,21.87 L222.79,22.05 L223.21,22.23 L223.63,22.42 L224.05,22.61 L224.47,22.80 L224.89,22.99 L225.31,23.18 L225.73,23.37 L226.15,23.56 L226.57,23.76 L226.99,23.96 L227.41,24.16 L227.83,24.36 L228.25,24.56 L228.67,24.77 L229.09,24.97 L229.51,25.18 L229.93,25.39 L230.35,25.60 L230.77,25.81 L231.19,26.02 L231.61,26.24 L232.03,26.45 L232.45,26.67 L232.87,26.89 L233.29,27.11 L233.71,27.33 L234.13,27.56 L234.55,27.78 L234.97,28.01 L235.39,28.24 L235.81,28.47 L236.23,28.70 L236.65,28.93 L237.07,29.17 L237.49,29.40 L237.91,29.64 L238.33,29.88 L238.75,30.12 L239.17,30.37 L239.59,30.61 L240.01,30.85 L240.43,31.10 L240.85,31.35 L241.27,31.60 L241.69,31.85 L242.11,32.11 L242.53,32.36 L242.95,32.62 L243.37,32.87 L243.79,33.13 L244.21,33.39 L244.63,33.66 L245.05,33.92 L245.47,34.19 L245.88,34.45 L246.30,34.72 L246.72,34.99 L247.14,35.26 L247.56,35.54 L247.98,35.81 L248.40,36.09 L248.82,36.37 L249.24,36.65 L249.66,36.93 L250.08,37.21 L250.50,37.49 L250.92,37.78 L251.34,38.07 L251.76,38.36 L252.18,38.65 L252.60,38.94 L253.02,39.23 L253.44,39.53 L253.86,39.82 L254.28,40.12 L254.70,40.42 L255.12,40.72 L255.54,41.02 L255.96,41.33 L256.38,41.63 L256.80,41.94 L257.22,42.25 L257.64,42.56 L258.06,42.87 L258.48,43.18 L258.90,43.50 L259.32,43.82 L259.74,44.13 L260.16,44.45 L260.58,44.77 L261.00,45.10 L261.42,45.42 L261.84,45.75 L262.26,46.07 L262.68,46.40 L263.10,46.73 L263.52,47.06 L263.94,47.40 L264.36,47.73 L264.78,48.07 L265.20,48.41 L265.62,48.75 L266.04,49.09 L266.46,49.43 L266.88,49.77 L267.30,50.12 L267.72,50.47 L268.14,50.82 L268.56,51.17 L268.98,51.52 L269.40,51.87 L269.82,52.23 L270.24,52.58 L270.66,52.94 L271.08,53.30 L271.49,53.66 L271.91,54.02 L272.33,54.39 L272.75,54.75 L273.17,55.12 L273.59,55.49 L274.01,55.86 L274.43,56.23 L274.85,56.60 L275.27,56.98 L275.69,57.36 L276.11,57.73 L276.53,58.11 L276.95,58.49 L277.37,58.88 L277.79,59.26 L278.21,59.65 L278.63,60.03 L279.05,60.42 L279.47,60.81 L279.89,61.21 L280.31,61.60 L280.73,61.99 L281.15,62.39 L281.57,62.79 L281.99,63.19 L282.41,63.59 L282.83,63.99 L283.25,64.40 L283.67,64.80 L284.09,65.21 L284.51,65.62 L284.93,66.03 L285.35,66.44 L285.77,66.85 L286.19,67.27 L286.61,67.69 L287.03,68.10 L287.45,68.52 L287.87,68.94 L288.29,69.37 L288.71,69.79 L289.13,70.22 L289.55,70.64 L289.97,71.07 L290.39,71.50 L290.81,71.93 L291.23,72.37 L291.65,72.80 L292.07,73.24 L292.49,73.68 L292.91,74.12 L293.33,74.56 L293.75,75.00 L294.17,75.45 L294.59,75.89 L295.01,76.34 L295.43,76.79 L295.85,77.24 L296.27,77.69 L296.69,78.14 L297.10,78.60 L297.52,79.06 L297.94,79.51 L298.36,79.97 L298.78,80.43 L299.20,80.90 L299.62,81.36 L300.04,81.83 L300.46,82.29 L300.88,82.76 L301.30,83.23 L301.72,83.71 L302.14,84.18 L302.56,84.65 L302.98,85.13 L303.40,85.61 L303.82,86.09 L304.24,86.57 L304.66,87.05 L305.08,87.54 L305.50,88.02 L305.92,88.51 L306.34,89.00 L306.76,89.49 L307.18,89.98 L307.60,90.47 L308.02,90.97 L308.44,91.47 L308.86,91.96 L309.28,92.46 L309.70,92.97 L310.12,93.47 L310.54,93.97 L310.96,94.48 L311.38,94.99 L311.80,95.49 L312.22,96.01 L312.64,96.52 L313.06,97.03 L313.48,97.55 L313.90,98.06 L314.32,98.58 L314.74,99.10 L315.16,99.62 L315.58,100.14 L316.00,100.67 L316.42,101.19 L316.84,101.72 L317.26,102.25 L317.68,102.78 L318.10,103.31 L318.52,103.85 L318.94,104.38 L319.36,104.92 L319.78,105.46 L320.20,106.00 L320.62,106.54 L321.04,107.08 L321.46,107.63 L321.88,108.17 L322.30,108.72 L322.71,109.27 L323.13,109.82 L323.55,110.37 L323.97,110.92 L324.39,111.48 L324.81,112.04 L325.23,112.59 L325.65,113.15 L326.07,113.72 L326.49,114.28 L326.91,114.84 L327.33,115.41 L327.75,115.98 L328.17,116.54 L328.59,117.12 L329.01,117.69 L329.43,118.26 L329.85,118.84 L330.27,119.41 L330.69,119.99 L331.11,120.57 L331.53,121.15 L331.95,121.74 L332.37,122.32 L332.79,122.91 L333.21,123.49 L333.63,124.08 L334.05,124.67 L334.47,125.26 L334.89,125.86 L335.31,126.45 L335.73,127.05 L336.15,127.65 L336.57,128.25 L336.99,128.85 L337.41,129.45 L337.83,130.06 L338.25,130.66 L338.67,131.27 L339.09,131.88 L339.51,132.49 L339.93,133.10 L340.35,133.72 L340.77,134.33 L341.19,134.95 L341.61,135.57 L342.03,136.19 L342.45,136.81 L342.87,137.43 L343.29,138.06 L343.71,138.68 L344.13,139.31 L344.55,139.94 L344.97,140.57 L345.39,141.20 L345.81,141.83 L346.23,142.47 L346.65,143.11 L347.07,143.74 L347.49,144.38 L347.91,145.03 L348.32,145.67 L348.74,146.31 L349.16,146.96 L349.58,147.61 L350.00,148.26 L350.42,148.91 L350.84,149.56 L351.26,150.21 L351.68,150.87 L352.10,151.52 L352.52,152.18 L352.94,152.84 L353.36,153.50 L353.78,154.17 L354.20,154.83 L354.62,155.50 L355.04,156.17 L355.46,156.83 L355.88,157.51 L356.30,158.18 L356.72,158.85 L357.14,159.53 L357.56,160.20 L357.98,160.88 L358.40,161.56 L358.82,162.24 L359.24,162.93 L359.66,163.61 L360.08,164.30 L360.50,164.98 L360.92,165.67 L361.34,166.36 L361.76,167.06 L362.18,167.75 L362.60,168.45 L363.02,169.14 L363.44,169.84 L363.86,170.54 L364.28,171.24 L364.70,171.94 L365.12,172.65" style="stroke-width: 2; stroke: rgb(0, 0, 0); stroke-opacity: 1; stroke-dasharray: 7.5, 6;"/><g><g class="arrow-line"><path class="vector-plot real" stroke-dasharray="" d="  M21.81,93.55 L310.19,93.55" style="stroke: rgb(0, 0, 0); stroke-opacity: 1; stroke-width: 2;"/></g></g><g><g class="arrow-line"><path class="vector-plot real" stroke-dasharray="" d="  M35.55,93.55 L86.63,32.25" style="stroke: rgb(0, 0, 0); stroke-opacity: 1; stroke-width: 3;"/><g stroke="none" fill="rgb(0,0,0)" fill-opacity="1" transform="matrix(-0.6402437805056017,0.7681717916741637,-0.7681717916741637,-0.6402437805056017,90.47565298370627,27.638157953381437)" style="stroke: none; fill: rgb(0, 0, 0); stroke-width: 3;"><path d=" M19.2,-4.8 L0,0 L19.2,4.8 Z"/></g></g></g><g><g class="arrow-line"><path class="vector-plot real" stroke-dasharray="" d="  M310.19,93.55 L310.19,172.65" style="stroke: rgb(0, 0, 0); stroke-opacity: 1; stroke-width: 2;"/></g></g><g><g class="arrow-line"><path class="vector-plot real" stroke-dasharray="" d="  M310.19,172.65 L378.85,172.65" style="stroke: rgb(0, 0, 0); stroke-opacity: 1; stroke-width: 2;"/></g></g><g><g class="arrow-line"><path class="vector-plot real" stroke-dasharray="" d="  M314.19,186.38 L361.12,186.38" style="stroke: rgb(0, 0, 0); stroke-opacity: 1; stroke-width: 2;"/><g stroke="none" fill="rgb(0,0,0)" fill-opacity="1" transform="matrix(-1,1.2246467991473532e-16,-1.2246467991473532e-16,-1,365.11842401913907,186.38167961186156)" style="stroke: none; fill: rgb(0, 0, 0); stroke-width: 2;"><path d=" M15.6,-3.9 L0,0 L15.6,3.9 Z"/></g><g stroke="none" fill="rgb(0,0,0)" fill-opacity="1" transform="matrix(1,0,0,1,310.1898698120525,186.38167961186156)" style="stroke: none; fill: rgb(0, 0, 0); stroke-width: 2;"><path d=" M15.6,-3.9 L0,0 L15.6,3.9 Z"/></g></g></g></g></g><rect class="real" x="1" y="1" width="390.99999999999994" height="203.96093750000023" style="fill: transparent; stroke: none;"/></g></g></g><g/></g><g/><g/><g/></svg>
        <svg xmlns="http://www.w3.org/2000/svg" xmlns:xlink="http://www.w3.org/1999/xlink" width="660" height="210.6640625" style="width:660px;height:210.6640625px;font-family:Asana-Math, Asana;background:transparent;"><g><g><g><g transform="matrix(1,0,0,1,465.1640625,204.328125)"><path transform="matrix(0.017,0,0,-0.017,0,0)" d="M483 722L471 733C419 707 383 698 311 691L307 670L355 670C379 670 389 663 389 646C389 638 388 629 387 622L359 468C329 477 302 482 277 482C208 482 114 410 68 323C37 265 17 170 17 86C17 21 32 -11 61 -11C88 -11 125 6 159 33C213 77 246 116 313 217L290 126C279 82 274 50 274 24C274 3 283 -9 300 -9C317 -9 341 3 375 28L456 88L446 107L402 76C388 66 372 59 363 59C355 59 349 68 349 82C349 90 350 99 357 128ZM114 59C98 59 89 73 89 98C89 224 135 380 184 418C197 428 216 433 243 433C287 433 316 427 349 410L337 351C300 171 159 59 114 59Z" stroke="rgb(0,0,0)" stroke-opacity="1" stroke-width="8" fill="rgb(0,0,0)" fill-opacity="1"></path></g></g></g></g></svg>
</svg>
