<svg xmlns="http://www.w3.org/2000/svg" xmlns:xlink="http://www.w3.org/1999/xlink" x="0" y="0" width="662" height="302" style="
        width:662px;
        height:302px;
        background: transparent;
        fill: none;
">
        
        
        <svg xmlns="http://www.w3.org/2000/svg" class="role-diagram-draw-area"><g class="shapes-region" style="stroke: black; fill: none;"><g class="arrow-line"><path class="connection real" stroke-dasharray="" d="  M331.83,23.67 L331.83,65.54" style="stroke: rgb(0, 0, 0); stroke-width: 2; fill: none; fill-opacity: 1;"/></g><g class="arrow-line"><path class="connection real" stroke-dasharray="" d="  M211.33,23.67 L452.33,23.67" style="stroke: rgb(0, 0, 0); stroke-width: 2; fill: none; fill-opacity: 1;"/></g><g class="composite-shape"><path class="real" d=" M317.39,65.54 C317.39,57.57 323.86,51.11 331.83,51.11 C339.81,51.11 346.27,57.57 346.27,65.54 C346.27,73.52 339.81,79.98 331.83,79.98 C323.86,79.98 317.39,73.52 317.39,65.54 Z" style="stroke-width: 2; stroke: rgb(0, 0, 0); fill: none; fill-opacity: 1;"/></g><g class="composite-shape"><defs><!-- react-text: 5869 --> <!-- /react-text --><pattern id="_pgfcg9drsfrz" x="0" y="0" width="29.698484809834998" height="29.698484809834998" patternTransform="rotate(45,0,0)" patternUnits="userSpaceOnUse"><path d="M0,0 L0,29.698484809834998" style="stroke: rgb(0, 0, 0); stroke-opacity: 1; stroke-width: 2; fill: none;"/><path d="M14.849242404917499,0 L14.849242404917499,29.698484809834998" style="stroke: rgb(0, 0, 0); stroke-opacity: 1; stroke-width: 2; fill: none;"/><path d="M29.698484809834998,0 L29.698484809834998,29.698484809834998" style="stroke: rgb(0, 0, 0); stroke-opacity: 1; stroke-width: 2; fill: none;"/></pattern></defs><path class="real" d=" M211.33,14.21 L452.33,14.21 L452.33,23.67 L211.33,23.67 Z" style="stroke-width: 1; stroke: none; fill: url(&quot;#_pgfcg9drsfrz&quot;); fill-opacity: 1; stroke-opacity: 1;"/></g><g class="arrow-line"><path class="connection real" stroke-dasharray="" d="  M317.39,65.54 L317.39,144.21" style="stroke: rgb(0, 0, 0); stroke-width: 2; fill: none; fill-opacity: 1;"/></g><g class="arrow-line"><path class="connection real" stroke-dasharray="" d="  M346.27,65.54 L346.27,182.88" style="stroke: rgb(0, 0, 0); stroke-width: 2; fill: none; fill-opacity: 1;"/></g><g class="arrow-line"><path class="connection real" stroke-dasharray="" d="  M317.39,144.21 L243.76,167.54" style="stroke: rgb(0, 0, 0); stroke-width: 2; fill: none; fill-opacity: 1;"/></g><g class="arrow-line"><path class="connection real" stroke-dasharray="" d="  M391.03,167.54 L317.39,144.21" style="stroke: rgb(0, 0, 0); stroke-width: 2; fill: none; fill-opacity: 1;"/></g><g class="arrow-line"><path class="connection real" stroke-dasharray="" d="  M243.76,167.54 L243.76,233.54" style="stroke: rgb(0, 0, 0); stroke-width: 2; fill: none; fill-opacity: 1;"/></g><g class="arrow-line"><path class="connection real" stroke-dasharray="" d="  M391.03,167.54 L391.03,233.54" style="stroke: rgb(0, 0, 0); stroke-width: 2; fill: none; fill-opacity: 1;"/></g><g class="arrow-line"><path class="connection real" stroke-dasharray="" d="  M391.03,233.54 L243.76,233.54" style="stroke: rgb(0, 0, 0); stroke-width: 2; fill: none; fill-opacity: 1;"/></g><g class="shape"><path class="real" d=" M301,170.21 C309,169.54 309.67,190.21 313.67,199.54 C317.67,208.88 318.33,234.21 305.67,232.21 C293,230.21 293,218.21 295.67,205.54 C298.33,192.88 293,170.88 301,170.21 Z" style="stroke: rgb(0, 0, 0); stroke-width: 2; fill: none; fill-opacity: 1;"/></g><g class="arrow-line"><path class="connection real" stroke-dasharray="" d="  M296.33,226.67 C295,234.88 291.67,240.21 292.33,250.88" style="stroke: rgb(0, 0, 0); stroke-width: 2; fill: none; fill-opacity: 1;"/></g><g class="arrow-line"><path class="connection real" stroke-dasharray="" d="  M313.67,228 C315.67,234.88 317.67,239.54 318.33,250.21" style="stroke: rgb(0, 0, 0); stroke-width: 2; fill: none; fill-opacity: 1;"/></g><g class="arrow-line"><path class="connection real" stroke-dasharray="" d="  M296.33,191.33 C286.33,203.54 283.67,216.21 284.33,226.88" style="stroke: rgb(0, 0, 0); stroke-width: 2; fill: none; fill-opacity: 1;"/></g><g class="arrow-line"><path class="connection real" stroke-dasharray="" d="  M310.33,191.54 C331,196.21 355,178.21 346.27,182.88" style="stroke: rgb(0, 0, 0); stroke-width: 2; fill: none; fill-opacity: 1;"/></g><g class="arrow-line"><path class="connection real" stroke-dasharray="" d="  M346.27,182.88 C345.77,201.48 346.2,218.16 353,223.54 C359.8,228.93 370.62,226.1 376.33,225.54 C382.04,224.99 355.62,227.08 352.29,228.79 C348.96,230.5 362.86,229.1 377.67,229.54" style="stroke: rgb(0, 0, 0); stroke-width: 2; fill: none; fill-opacity: 1;"/></g><g/></g><g/><g/><g/></svg>
        <svg xmlns="http://www.w3.org/2000/svg" xmlns:xlink="http://www.w3.org/1999/xlink" width="660" height="300" style="width:660px;height:300px;font-family:Asana-Math, Asana;background:transparent;"><g><g><g><text x="281.828125" y="270.1640625" style="white-space:pre;stroke:none;fill:rgb(0,0,0);fill-opacity:1;font-size:17px;font-family:Arial, Helvetica, sans-serif;font-weight:400;font-style:normal;dominant-baseline:text-before-edge;text-decoration:none solid rgb(0, 0, 0);">Figure 5</text></g><g><text x="347.59375" y="270.1640625" style="white-space:pre;stroke:none;fill:rgb(0,0,0);fill-opacity:1;font-size:17px;font-family:Arial, Helvetica, sans-serif;font-weight:400;font-style:normal;dominant-baseline:text-before-edge;text-decoration:none solid rgb(0, 0, 0);">-</text></g><g><text x="356.65625" y="270.1640625" style="white-space:pre;stroke:none;fill:rgb(0,0,0);fill-opacity:1;font-size:17px;font-family:Arial, Helvetica, sans-serif;font-weight:400;font-style:normal;dominant-baseline:text-before-edge;text-decoration:none solid rgb(0, 0, 0);">11</text></g></g></g></svg>
</svg>
