<svg xmlns="http://www.w3.org/2000/svg" xmlns:xlink="http://www.w3.org/1999/xlink" x="0" y="0" width="662" height="245" style="
        width:662px;
        height:245px;
        background: transparent;
        fill: none;
">
        
        
        <svg xmlns="http://www.w3.org/2000/svg" class="role-diagram-draw-area"><g class="shapes-region" style="stroke: black; fill: none;"><g class="composite-shape"><path class="real" d=" M231.5,176.89 C231.5,161.76 259.03,149.5 293,149.5 C326.97,149.5 354.5,161.76 354.5,176.89 C354.5,192.01 326.97,204.27 293,204.27 C259.03,204.27 231.5,192.01 231.5,176.89 Z" style="stroke-width: 1; stroke: rgb(0, 0, 0); fill: none; fill-opacity: 1; stroke-dasharray: 6, 6;"/></g><g class="composite-shape"><path class="real" d=" M354.48,176.28 C354.49,176.48 354.5,176.68 354.5,176.89 C354.5,192.01 326.97,204.27 293,204.27 C259.03,204.27 231.5,192.01 231.5,176.89 C231.5,176.85 231.5,176.81 231.5,176.77 L293,176.89 Z" style="stroke-width: 1; stroke: none; fill: none; fill-opacity: 1;"/><path class="real" d=" M354.48,176.28 C354.49,176.48 354.5,176.68 354.5,176.89 C354.5,192.01 326.97,204.27 293,204.27 C259.03,204.27 231.5,192.01 231.5,176.89 C231.5,176.85 231.5,176.81 231.5,176.77" style="stroke-width: 1; stroke: rgb(0, 0, 0); fill: none; fill-opacity: 1;"/></g><g class="arrow-line"><path class="connection real" stroke-dasharray="" d="  M293,30.77 L293,176.89" style="stroke: rgb(0, 0, 0); stroke-width: 1; fill: none; fill-opacity: 1;"/></g><g class="arrow-line"><path class="connection real" stroke-dasharray="" d="  M293,30.77 L231.5,176.89" style="stroke: rgb(0, 0, 0); stroke-width: 1; fill: none; fill-opacity: 1;"/></g><g class="arrow-line"><path class="connection real" stroke-dasharray="" d="  M293,30.77 L354.5,176.89" style="stroke: rgb(0, 0, 0); stroke-width: 1; fill: none; fill-opacity: 1;"/></g><g class="arrow-line"><path class="connection real" stroke-dasharray="" d="  M293,176.89 L351.5,176.89" style="stroke: rgb(0, 0, 0); stroke-width: 1; fill: none; fill-opacity: 1;"/><g stroke="none" transform="matrix(-1,1.2246467991473532e-16,-1.2246467991473532e-16,-1,354.5,176.88671875)" style="stroke: none; stroke-width: 1; fill: rgb(0, 0, 0);" fill="#000"><path d=" M8.93,-4.29 L0,0 L8.93,4.29 Z"/></g></g><g class="arrow-line"><path class="connection real" stroke-dasharray="" d="  M358.5,176.89 L428,176.77" style="stroke: rgb(0, 0, 0); stroke-width: 1; fill: none; fill-opacity: 1;"/></g><g class="arrow-line"><path class="connection real" stroke-dasharray="" d="  M296.5,30.77 L429,30.77" style="stroke: rgb(0, 0, 0); stroke-width: 1; fill: none; fill-opacity: 1;"/></g><g class="arrow-line"><path class="connection real" stroke-dasharray="" d="  M385.02,34 L385.98,173.77" style="stroke: rgb(0, 0, 0); stroke-width: 1; fill: none; fill-opacity: 1;"/><g stroke="none" transform="matrix(-0.006806731520561552,-0.9999768339346702,0.9999768339346702,-0.006806731520561552,386,176.77343750000006)" style="stroke: none; stroke-width: 1; fill: rgb(0, 0, 0);" fill="#000"><path d=" M8.93,-4.29 L0,0 L8.93,4.29 Z"/></g><g stroke="none" fill="#000" transform="matrix(0.006806731520561874,0.9999768339346702,-0.9999768339346702,0.006806731520561874,385,31)" style="stroke: none; fill: rgb(0, 0, 0); stroke-width: 1;"><path d=" M8.93,-4.29 L0,0 L8.93,4.29 Z"/></g></g><g class="composite-shape"><path class="real" d=" M325.24,102.55 C325.25,102.66 325.25,102.76 325.25,102.86 C325.25,110.98 310.81,117.57 293,117.57 C275.19,117.57 260.75,110.98 260.75,102.86 C260.75,102.75 260.75,102.64 260.76,102.53 L293,102.86 Z" style="stroke-width: 5; stroke: none; fill: none; fill-opacity: 1;"/><path class="real" d=" M325.24,102.55 C325.25,102.66 325.25,102.76 325.25,102.86 C325.25,110.98 310.81,117.57 293,117.57 C275.19,117.57 260.75,110.98 260.75,102.86 C260.75,102.75 260.75,102.64 260.76,102.53" style="stroke-width: 5; stroke: rgb(0, 0, 0); fill: none; fill-opacity: 1;"/></g><g class="composite-shape"><path class="real" d=" M260.76,103.83 C260.76,96.24 275.19,90.09 293,90.09 C310.81,90.09 325.24,96.24 325.24,103.83 C325.24,111.42 310.81,117.57 293,117.57 C275.19,117.57 260.76,111.42 260.76,103.83 Z" style="stroke-width: 5; stroke: rgb(0, 0, 0); fill: none; fill-opacity: 1; stroke-dasharray: 12, 6;"/></g><g/></g><g/><g/><g/></svg>
        <svg xmlns="http://www.w3.org/2000/svg" xmlns:xlink="http://www.w3.org/1999/xlink" width="660" height="243" style="width:660px;height:243px;font-family:Asana-Math, Asana;background:transparent;"><g><g><g><g transform="matrix(1,0,0,1,391.5,108)"><path transform="matrix(0.017,0,0,-0.017,0,0)" d="M236 722L224 733C179 711 138 697 64 691L60 670L108 670C126 670 142 667 142 647C142 641 142 632 140 622L98 388C78 272 36 80 10 2L17 -9L86 7C94 64 108 164 148 236C193 317 296 414 338 414C349 414 360 407 360 393C360 375 355 342 345 303L294 107C288 85 281 55 281 31C281 6 291 -9 312 -9C344 -9 412 41 471 85L461 103L435 86C412 71 386 56 374 56C367 56 361 65 361 76C361 88 364 101 368 116L432 372C438 398 443 423 443 447C443 464 437 482 411 482C376 482 299 437 231 374C198 343 172 308 144 273L140 275Z" stroke="rgb(0,0,0)" stroke-opacity="1" stroke-width="8" fill="rgb(0,0,0)" fill-opacity="1"></path></g></g></g></g><g><g><g><g transform="matrix(1,0,0,1,312,192)"><path transform="matrix(0.017,0,0,-0.017,0,0)" d="M368 365C371 403 376 435 384 476C373 481 369 482 364 482C333 482 302 458 266 407C227 351 188 291 172 256L204 408C208 425 210 438 210 450C210 470 202 482 187 482C166 482 128 461 54 408L26 388L33 368L65 389C93 407 104 412 113 412C123 412 130 403 130 390C130 332 87 126 47 -2L57 -9C72 -4 88 -1 111 4L124 6L150 126C168 209 191 262 235 319C269 363 296 384 318 384C333 384 343 379 354 365Z" stroke="rgb(0,0,0)" stroke-opacity="1" stroke-width="8" fill="rgb(0,0,0)" fill-opacity="1"></path></g></g></g></g></svg>
</svg>
