<svg xmlns="http://www.w3.org/2000/svg" xmlns:xlink="http://www.w3.org/1999/xlink" x="0" y="0" width="662" height="395.3046875" style="
        width:662px;
        height:395.3046875px;
        background: transparent;
        fill: none;
">
        
        
        <svg xmlns="http://www.w3.org/2000/svg" class="role-diagram-draw-area"><g class="shapes-region" style="stroke: black; fill: none;"><g class="composite-shape" data-amt="diagram/shapes/plot" transform="matrix(1,0,0,1,49.66666666666663,1.0104166666667425)"><g><g/><g><g class="test-plot-expression"><defs><clipPath id="cpfu3gygfs3"><rect x="1" y="1" width="562.0000000000001" height="381.33333333333326"/></clipPath></defs><g clip-path="url(#cpfu3gygfs3)"><path d=" M93.57,347.77 L93.74,347.30 L93.91,346.84 L94.08,346.37 L94.25,345.90 L94.42,345.44 L94.59,344.97 L94.76,344.51 L94.93,344.04 L95.10,343.58 L95.27,343.12 L95.44,342.66 L95.61,342.19 L95.78,341.73 L95.95,341.27 L96.12,340.81 L96.29,340.35 L96.46,339.89 L96.63,339.43 L96.80,338.97 L96.97,338.51 L97.14,338.05 L97.31,337.59 L97.48,337.14 L97.65,336.68 L97.82,336.22 L97.99,335.77 L98.16,335.31 L98.33,334.85 L98.50,334.40 L98.67,333.94 L98.84,333.49 L99.01,333.04 L99.18,332.58 L99.35,332.13 L99.52,331.68 L99.69,331.22 L99.86,330.77 L100.03,330.32 L100.20,329.87 L100.37,329.42 L100.54,328.97 L100.71,328.52 L100.88,328.07 L101.05,327.62 L101.22,327.17 L101.39,326.73 L101.56,326.28 L101.73,325.83 L101.90,325.39 L102.07,324.94 L102.24,324.49 L102.41,324.05 L102.58,323.60 L102.75,323.16 L102.92,322.72 L103.09,322.27 L103.26,321.83 L103.43,321.39 L103.60,320.94 L103.77,320.50 L103.94,320.06 L104.11,319.62 L104.28,319.18 L104.45,318.74 L104.62,318.30 L104.79,317.86 L104.96,317.42 L105.13,316.98 L105.30,316.54 L105.47,316.11 L105.64,315.67 L105.81,315.23 L105.98,314.80 L106.15,314.36 L106.32,313.92 L106.49,313.49 L106.66,313.05 L106.83,312.62 L107.00,312.19 L107.17,311.75 L107.34,311.32 L107.51,310.89 L107.68,310.45 L107.85,310.02 L108.02,309.59 L108.19,309.16 L108.36,308.73 L108.53,308.30 L108.70,307.87 L108.87,307.44 L109.04,307.01 L109.21,306.58 L109.38,306.16 L109.55,305.73 L109.72,305.30 L109.89,304.88 L110.06,304.45 L110.23,304.02 L110.40,303.60 L110.57,303.17 L110.74,302.75 L110.91,302.32 L111.08,301.90 L111.25,301.48 L111.42,301.06 L111.59,300.63 L111.76,300.21 L111.93,299.79 L112.10,299.37 L112.27,298.95 L112.44,298.53 L112.61,298.11 L112.78,297.69 L112.95,297.27 L113.12,296.85 L113.29,296.43 L113.46,296.01 L113.63,295.60 L113.80,295.18 L113.97,294.76 L114.14,294.35 L114.31,293.93 L114.48,293.52 L114.65,293.10 L114.82,292.69 L114.99,292.27 L115.16,291.86 L115.34,291.45 L115.51,291.04 L115.68,290.62 L115.85,290.21 L116.02,289.80 L116.19,289.39 L116.36,288.98 L116.53,288.57 L116.70,288.16 L116.87,287.75 L117.04,287.34 L117.21,286.93 L117.38,286.53 L117.55,286.12 L117.72,285.71 L117.89,285.30 L118.06,284.90 L118.23,284.49 L118.40,284.09 L118.57,283.68 L118.74,283.28 L118.91,282.87 L119.08,282.47 L119.25,282.07 L119.42,281.66 L119.59,281.26 L119.76,280.86 L119.93,280.46 L120.10,280.06 L120.27,279.66 L120.44,279.26 L120.61,278.86 L120.78,278.46 L120.95,278.06 L121.12,277.66 L121.29,277.26 L121.46,276.86 L121.63,276.47 L121.80,276.07 L121.97,275.67 L122.14,275.28 L122.31,274.88 L122.48,274.49 L122.65,274.09 L122.82,273.70 L122.99,273.30 L123.16,272.91 L123.33,272.52 L123.50,272.12 L123.67,271.73 L123.84,271.34 L124.01,270.95 L124.18,270.56 L124.35,270.17 L124.52,269.78 L124.69,269.39 L124.86,269.00 L125.03,268.61 L125.20,268.22 L125.37,267.83 L125.54,267.45 L125.71,267.06 L125.88,266.67 L126.05,266.29 L126.22,265.90 L126.39,265.51 L126.56,265.13 L126.73,264.74 L126.90,264.36 L127.07,263.98 L127.24,263.59 L127.41,263.21 L127.58,262.83 L127.75,262.45 L127.92,262.07 L128.09,261.68 L128.26,261.30 L128.43,260.92 L128.60,260.54 L128.77,260.16 L128.94,259.78 L129.11,259.41 L129.28,259.03 L129.45,258.65 L129.62,258.27 L129.79,257.90 L129.96,257.52 L130.13,257.14 L130.30,256.77 L130.47,256.39 L130.64,256.02 L130.81,255.64 L130.98,255.27 L131.15,254.90 L131.32,254.52 L131.49,254.15 L131.66,253.78 L131.83,253.41 L132.00,253.04 L132.17,252.66 L132.34,252.29 L132.51,251.92 L132.68,251.55 L132.85,251.19 L133.02,250.82 L133.19,250.45 L133.36,250.08 L133.53,249.71 L133.70,249.35 L133.87,248.98 L134.04,248.61 L134.21,248.25 L134.38,247.88 L134.55,247.52 L134.72,247.15 L134.89,246.79 L135.06,246.42 L135.23,246.06 L135.40,245.70 L135.57,245.34 L135.74,244.97 L135.91,244.61 L136.08,244.25 L136.25,243.89 L136.42,243.53 L136.59,243.17 L136.76,242.81 L136.93,242.45 L137.10,242.09 L137.27,241.73 L137.44,241.38 L137.61,241.02 L137.78,240.66 L137.95,240.31 L138.12,239.95 L138.29,239.59 L138.46,239.24 L138.63,238.88 L138.80,238.53 L138.97,238.18 L139.14,237.82 L139.31,237.47 L139.48,237.12 L139.65,236.76 L139.82,236.41 L139.99,236.06 L140.16,235.71 L140.33,235.36 L140.50,235.01 L140.67,234.66 L140.84,234.31 L141.01,233.96 L141.18,233.61 L141.35,233.27 L141.52,232.92 L141.69,232.57 L141.86,232.22 L142.03,231.88 L142.20,231.53 L142.37,231.19 L142.54,230.84 L142.71,230.50 L142.88,230.15 L143.05,229.81 L143.22,229.47 L143.39,229.12 L143.56,228.78 L143.73,228.44 L143.90,228.10 L144.07,227.76 L144.24,227.42 L144.41,227.08 L144.58,226.74 L144.75,226.40 L144.92,226.06 L145.09,225.72 L145.26,225.38 L145.43,225.04 L145.60,224.70 L145.77,224.37 L145.94,224.03 L146.11,223.70 L146.28,223.36 L146.45,223.02 L146.62,222.69 L146.79,222.36 L146.96,222.02 L147.13,221.69 L147.30,221.35 L147.47,221.02 L147.64,220.69 L147.82,220.36 L147.99,220.03 L148.16,219.70 L148.33,219.37 L148.50,219.04 L148.67,218.71 L148.84,218.38 L149.01,218.05 L149.18,217.72 L149.35,217.39 L149.52,217.06 L149.69,216.74 L149.86,216.41 L150.03,216.08 L150.20,215.76 L150.37,215.43 L150.54,215.11 L150.71,214.78 L150.88,214.46 L151.05,214.13 L151.22,213.81 L151.39,213.49 L151.56,213.17 L151.73,212.84 L151.90,212.52 L152.07,212.20 L152.24,211.88 L152.41,211.56 L152.58,211.24 L152.75,210.92 L152.92,210.60 L153.09,210.28 L153.26,209.96 L153.43,209.65 L153.60,209.33 L153.77,209.01 L153.94,208.70 L154.11,208.38 L154.28,208.06 L154.45,207.75 L154.62,207.43 L154.79,207.12 L154.96,206.81 L155.13,206.49 L155.30,206.18 L155.47,205.87 L155.64,205.55 L155.81,205.24 L155.98,204.93 L156.15,204.62 L156.32,204.31 L156.49,204.00 L156.66,203.69 L156.83,203.38 L157.00,203.07 L157.17,202.76 L157.34,202.46 L157.51,202.15 L157.68,201.84 L157.85,201.53 L158.02,201.23 L158.19,200.92 L158.36,200.62 L158.53,200.31 L158.70,200.01 L158.87,199.70 L159.04,199.40 L159.21,199.10 L159.38,198.79 L159.55,198.49 L159.72,198.19 L159.89,197.89 L160.06,197.59 L160.23,197.28 L160.40,196.98 L160.57,196.68 L160.74,196.38 L160.91,196.09 L161.08,195.79 L161.25,195.49 L161.42,195.19 L161.59,194.89 L161.76,194.60 L161.93,194.30 L162.10,194.00 L162.27,193.71 L162.44,193.41 L162.61,193.12 L162.78,192.82 L162.95,192.53 L163.12,192.24 L163.29,191.94 L163.46,191.65 L163.63,191.36 L163.80,191.07 L163.97,190.77 L164.14,190.48 L164.31,190.19 L164.48,189.90 L164.65,189.61 L164.82,189.32 L164.99,189.04 L165.16,188.75 L165.33,188.46 L165.50,188.17 L165.67,187.88 L165.84,187.60 L166.01,187.31 L166.18,187.02 L166.35,186.74 L166.52,186.45 L166.69,186.17 L166.86,185.89 L167.03,185.60 L167.20,185.32 L167.37,185.04 L167.54,184.75 L167.71,184.47 L167.88,184.19 L168.05,183.91 L168.22,183.63 L168.39,183.35 L168.56,183.07 L168.73,182.79 L168.90,182.51 L169.07,182.23 L169.24,181.95 L169.41,181.67 L169.58,181.40 L169.75,181.12 L169.92,180.84 L170.09,180.57 L170.26,180.29 L170.43,180.02 L170.60,179.74 L170.77,179.47 L170.94,179.19 L171.11,178.92 L171.28,178.65 L171.45,178.37 L171.62,178.10 L171.79,177.83 L171.96,177.56 L172.13,177.29 L172.30,177.02 L172.47,176.75 L172.64,176.48 L172.81,176.21 L172.98,175.94 L173.15,175.67 L173.32,175.40 L173.49,175.13 L173.66,174.87 L173.83,174.60 L174.00,174.33 L174.17,174.07 L174.34,173.80 L174.51,173.54 L174.68,173.27 L174.85,173.01 L175.02,172.74 L175.19,172.48 L175.36,172.22 L175.53,171.96 L175.70,171.69 L175.87,171.43 L176.04,171.17 L176.21,170.91 L176.38,170.65 L176.55,170.39 L176.72,170.13 L176.89,169.87 L177.06,169.61 L177.23,169.35 L177.40,169.10 L177.57,168.84 L177.74,168.58 L177.91,168.32 L178.08,168.07 L178.25,167.81 L178.42,167.56 L178.59,167.30 L178.76,167.05 L178.93,166.79 L179.10,166.54 L179.27,166.29 L179.44,166.03 L179.61,165.78 L179.78,165.53 L179.95,165.28 L180.12,165.03 L180.30,164.78 L180.47,164.53 L180.64,164.28 L180.81,164.03 L180.98,163.78 L181.15,163.53 L181.32,163.28 L181.49,163.03 L181.66,162.79 L181.83,162.54 L182.00,162.29 L182.17,162.05 L182.34,161.80 L182.51,161.56 L182.68,161.31 L182.85,161.07 L183.02,160.83 L183.19,160.58 L183.36,160.34 L183.53,160.10 L183.70,159.85 L183.87,159.61 L184.04,159.37 L184.21,159.13 L184.38,158.89 L184.55,158.65 L184.72,158.41 L184.89,158.17 L185.06,157.93 L185.23,157.69 L185.40,157.46 L185.57,157.22 L185.74,156.98 L185.91,156.75 L186.08,156.51 L186.25,156.27 L186.42,156.04 L186.59,155.80 L186.76,155.57 L186.93,155.34 L187.10,155.10 L187.27,154.87 L187.44,154.64 L187.61,154.40 L187.78,154.17 L187.95,153.94 L188.12,153.71 L188.29,153.48 L188.46,153.25 L188.63,153.02 L188.80,152.79 L188.97,152.56 L189.14,152.33 L189.31,152.10 L189.48,151.88 L189.65,151.65 L189.82,151.42 L189.99,151.20 L190.16,150.97 L190.33,150.74 L190.50,150.52 L190.67,150.29 L190.84,150.07 L191.01,149.85 L191.18,149.62 L191.35,149.40 L191.52,149.18 L191.69,148.95 L191.86,148.73 L192.03,148.51 L192.20,148.29 L192.37,148.07 L192.54,147.85 L192.71,147.63 L192.88,147.41 L193.05,147.19 L193.22,146.97 L193.39,146.76 L193.56,146.54 L193.73,146.32 L193.90,146.11 L194.07,145.89 L194.24,145.67 L194.41,145.46 L194.58,145.24 L194.75,145.03 L194.92,144.82 L195.09,144.60 L195.26,144.39 L195.43,144.18 L195.60,143.96 L195.77,143.75 L195.94,143.54 L196.11,143.33 L196.28,143.12 L196.45,142.91 L196.62,142.70 L196.79,142.49 L196.96,142.28 L197.13,142.07 L197.30,141.86 L197.47,141.66 L197.64,141.45 L197.81,141.24 L197.98,141.03 L198.15,140.83 L198.32,140.62 L198.49,140.42 L198.66,140.21 L198.83,140.01 L199.00,139.81 L199.17,139.60 L199.34,139.40 L199.51,139.20 L199.68,138.99 L199.85,138.79 L200.02,138.59 L200.19,138.39 L200.36,138.19 L200.53,137.99 L200.70,137.79 L200.87,137.59 L201.04,137.39 L201.21,137.19 L201.38,137.00 L201.55,136.80 L201.72,136.60 L201.89,136.41 L202.06,136.21 L202.23,136.01 L202.40,135.82 L202.57,135.62 L202.74,135.43 L202.91,135.23 L203.08,135.04 L203.25,134.85 L203.42,134.65 L203.59,134.46 L203.76,134.27 L203.93,134.08 L204.10,133.89 L204.27,133.70 L204.44,133.51 L204.61,133.32 L204.78,133.13 L204.95,132.94 L205.12,132.75 L205.29,132.56 L205.46,132.37 L205.63,132.19 L205.80,132.00 L205.97,131.81 L206.14,131.63 L206.31,131.44 L206.48,131.26 L206.65,131.07 L206.82,130.89 L206.99,130.70 L207.16,130.52 L207.33,130.34 L207.50,130.15 L207.67,129.97 L207.84,129.79 L208.01,129.61 L208.18,129.43 L208.35,129.25 L208.52,129.07 L208.69,128.89 L208.86,128.71 L209.03,128.53 L209.20,128.35 L209.37,128.17 L209.54,128.00 L209.71,127.82 L209.88,127.64 L210.05,127.47 L210.22,127.29 L210.39,127.12 L210.56,126.94 L210.73,126.77 L210.90,126.59 L211.07,126.42 L211.24,126.25 L211.41,126.07 L211.58,125.90 L211.75,125.73 L211.92,125.56 L212.09,125.39 L212.26,125.22 L212.43,125.04 L212.60,124.87 L212.77,124.71 L212.95,124.54 L213.12,124.37 L213.29,124.20 L213.46,124.03 L213.63,123.86 L213.80,123.70 L213.97,123.53 L214.14,123.37 L214.31,123.20 L214.48,123.03 L214.65,122.87 L214.82,122.71 L214.99,122.54 L215.16,122.38 L215.33,122.22 L215.50,122.05 L215.67,121.89 L215.84,121.73 L216.01,121.57 L216.18,121.41 L216.35,121.25 L216.52,121.09 L216.69,120.93 L216.86,120.77 L217.03,120.61 L217.20,120.45 L217.37,120.29 L217.54,120.13 L217.71,119.98 L217.88,119.82 L218.05,119.66 L218.22,119.51 L218.39,119.35 L218.56,119.20 L218.73,119.04 L218.90,118.89 L219.07,118.74 L219.24,118.58 L219.41,118.43 L219.58,118.28 L219.75,118.13 L219.92,117.97 L220.09,117.82 L220.26,117.67 L220.43,117.52 L220.60,117.37 L220.77,117.22 L220.94,117.07 L221.11,116.93 L221.28,116.78 L221.45,116.63 L221.62,116.48 L221.79,116.33 L221.96,116.19 L222.13,116.04 L222.30,115.90 L222.47,115.75 L222.64,115.61 L222.81,115.46 L222.98,115.32 L223.15,115.18 L223.32,115.03 L223.49,114.89 L223.66,114.75 L223.83,114.61 L224.00,114.46 L224.17,114.32 L224.34,114.18 L224.51,114.04 L224.68,113.90 L224.85,113.76 L225.02,113.62 L225.19,113.49 L225.36,113.35 L225.53,113.21 L225.70,113.07 L225.87,112.94 L226.04,112.80 L226.21,112.67 L226.38,112.53 L226.55,112.39 L226.72,112.26 L226.89,112.13 L227.06,111.99 L227.23,111.86 L227.40,111.73 L227.57,111.59 L227.74,111.46 L227.91,111.33 L228.08,111.20 L228.25,111.07 L228.42,110.94 L228.59,110.81 L228.76,110.68 L228.93,110.55 L229.10,110.42 L229.27,110.29 L229.44,110.17 L229.61,110.04 L229.78,109.91 L229.95,109.78 L230.12,109.66 L230.29,109.53 L230.46,109.41 L230.63,109.28 L230.80,109.16 L230.97,109.03 L231.14,108.91 L231.31,108.79 L231.48,108.67 L231.65,108.54 L231.82,108.42 L231.99,108.30 L232.16,108.18 L232.33,108.06 L232.50,107.94 L232.67,107.82 L232.84,107.70 L233.01,107.58 L233.18,107.46 L233.35,107.34 L233.52,107.23 L233.69,107.11 L233.86,106.99 L234.03,106.88 L234.20,106.76 L234.37,106.65 L234.54,106.53 L234.71,106.42 L234.88,106.30 L235.05,106.19 L235.22,106.07 L235.39,105.96 L235.56,105.85 L235.73,105.74 L235.90,105.63 L236.07,105.51 L236.24,105.40 L236.41,105.29 L236.58,105.18 L236.75,105.07 L236.92,104.97 L237.09,104.86 L237.26,104.75 L237.43,104.64 L237.60,104.53 L237.77,104.43 L237.94,104.32 L238.11,104.21 L238.28,104.11 L238.45,104.00 L238.62,103.90 L238.79,103.79 L238.96,103.69 L239.13,103.59 L239.30,103.48 L239.47,103.38 L239.64,103.28 L239.81,103.18 L239.98,103.08 L240.15,102.97 L240.32,102.87 L240.49,102.77 L240.66,102.67 L240.83,102.57 L241.00,102.48 L241.17,102.38 L241.34,102.28 L241.51,102.18 L241.68,102.08 L241.85,101.99 L242.02,101.89 L242.19,101.80 L242.36,101.70 L242.53,101.61 L242.70,101.51 L242.87,101.42 L243.04,101.32 L243.21,101.23 L243.38,101.14 L243.55,101.04 L243.72,100.95 L243.89,100.86 L244.06,100.77 L244.23,100.68 L244.40,100.59 L244.57,100.50 L244.74,100.41 L244.91,100.32 L245.08,100.23 L245.25,100.14 L245.43,100.05 L245.60,99.97 L245.77,99.88 L245.94,99.79 L246.11,99.71 L246.28,99.62 L246.45,99.54 L246.62,99.45 L246.79,99.37 L246.96,99.28 L247.13,99.20 L247.30,99.12 L247.47,99.03 L247.64,98.95 L247.81,98.87 L247.98,98.79 L248.15,98.71 L248.32,98.63 L248.49,98.55 L248.66,98.47 L248.83,98.39 L249.00,98.31 L249.17,98.23 L249.34,98.15 L249.51,98.08 L249.68,98.00 L249.85,97.92 L250.02,97.85 L250.19,97.77 L250.36,97.69 L250.53,97.62 L250.70,97.54 L250.87,97.47 L251.04,97.40 L251.21,97.32 L251.38,97.25 L251.55,97.18 L251.72,97.11 L251.89,97.03 L252.06,96.96 L252.23,96.89 L252.40,96.82 L252.57,96.75 L252.74,96.68 L252.91,96.61 L253.08,96.54 L253.25,96.48 L253.42,96.41 L253.59,96.34 L253.76,96.27 L253.93,96.21 L254.10,96.14 L254.27,96.08 L254.44,96.01 L254.61,95.95 L254.78,95.88 L254.95,95.82 L255.12,95.75 L255.29,95.69 L255.46,95.63 L255.63,95.57 L255.80,95.50 L255.97,95.44 L256.14,95.38 L256.31,95.32 L256.48,95.26 L256.65,95.20 L256.82,95.14 L256.99,95.08 L257.16,95.02 L257.33,94.97 L257.50,94.91 L257.67,94.85 L257.84,94.79 L258.01,94.74 L258.18,94.68 L258.35,94.63 L258.52,94.57 L258.69,94.52 L258.86,94.46 L259.03,94.41 L259.20,94.36 L259.37,94.30 L259.54,94.25 L259.71,94.20 L259.88,94.15 L260.05,94.10 L260.22,94.04 L260.39,93.99 L260.56,93.94 L260.73,93.89 L260.90,93.85 L261.07,93.80 L261.24,93.75 L261.41,93.70 L261.58,93.65 L261.75,93.61 L261.92,93.56 L262.09,93.51 L262.26,93.47 L262.43,93.42 L262.60,93.38 L262.77,93.33 L262.94,93.29 L263.11,93.25 L263.28,93.20 L263.45,93.16 L263.62,93.12 L263.79,93.08 L263.96,93.03 L264.13,92.99 L264.30,92.95 L264.47,92.91 L264.64,92.87 L264.81,92.83 L264.98,92.79 L265.15,92.76 L265.32,92.72 L265.49,92.68 L265.66,92.64 L265.83,92.61 L266.00,92.57 L266.17,92.53 L266.34,92.50 L266.51,92.46 L266.68,92.43 L266.85,92.39 L267.02,92.36 L267.19,92.33 L267.36,92.29 L267.53,92.26 L267.70,92.23 L267.87,92.20 L268.04,92.17 L268.21,92.14 L268.38,92.11 L268.55,92.08 L268.72,92.05 L268.89,92.02 L269.06,91.99 L269.23,91.96 L269.40,91.93 L269.57,91.91 L269.74,91.88 L269.91,91.85 L270.08,91.83 L270.25,91.80 L270.42,91.77 L270.59,91.75 L270.76,91.73 L270.93,91.70 L271.10,91.68 L271.27,91.65 L271.44,91.63 L271.61,91.61 L271.78,91.59 L271.95,91.57 L272.12,91.54 L272.29,91.52 L272.46,91.50 L272.63,91.48 L272.80,91.47 L272.97,91.45 L273.14,91.43 L273.31,91.41 L273.48,91.39 L273.65,91.37 L273.82,91.36 L273.99,91.34 L274.16,91.33 L274.33,91.31 L274.50,91.29 L274.67,91.28 L274.84,91.27 L275.01,91.25 L275.18,91.24 L275.35,91.23 L275.52,91.21 L275.69,91.20 L275.86,91.19 L276.03,91.18 L276.20,91.17 L276.37,91.16 L276.54,91.15 L276.71,91.14 L276.88,91.13 L277.05,91.12 L277.22,91.11 L277.39,91.10 L277.56,91.10 L277.73,91.09 L277.91,91.08 L278.08,91.08 L278.25,91.07 L278.42,91.07 L278.59,91.06 L278.76,91.06 L278.93,91.05 L279.10,91.05 L279.27,91.04 L279.44,91.04 L279.61,91.04 L279.78,91.04 L279.95,91.04 L280.12,91.04 L280.29,91.03 L280.46,91.03" style="stroke-width: 2; stroke: rgb(0, 0, 0); stroke-opacity: 1; stroke-dasharray: 7.5, 6;"/><g><g class="arrow-line"><path class="vector-plot real" stroke-dasharray="" d="  M263.45,89.03 L263.45,43.67" style="stroke: rgb(0, 0, 0); stroke-opacity: 1; stroke-width: 1;"/><g stroke="none" fill="rgb(0,0,0)" fill-opacity="1" transform="matrix(3.061616997868383e-16,1,-1,3.061616997868383e-16,263.45042179856125,41.67250262237678)" style="stroke: none; fill: rgb(0, 0, 0); stroke-width: 1;"><path d=" M12,-3 L0,0 L12,3 Z"/></g><g stroke="none" fill="rgb(0,0,0)" fill-opacity="1" transform="matrix(-1.8369701987210297e-16,-1,1,-1.8369701987210297e-16,263.45042179856125,91.03458220036771)" style="stroke: none; fill: rgb(0, 0, 0); stroke-width: 1;"><path d=" M12,-3 L0,0 L12,3 Z"/></g></g></g><g><g class="arrow-line"><path class="vector-plot real" stroke-dasharray="" d="  M329.82,41.67 L552.54,75.68" style="stroke: rgb(0, 0, 0); stroke-opacity: 1; stroke-width: 2;"/></g></g><g><g class="arrow-line"><path class="vector-plot real" stroke-dasharray="" d="  M333.9,345.77 L333.9,43.67" style="stroke: rgb(0, 0, 0); stroke-opacity: 1; stroke-width: 1;"/><g stroke="none" transform="matrix(3.061616997868383e-16,1,-1,3.061616997868383e-16,333.89915405994793,41.67250262237678)" style="stroke: none; stroke-width: 1; fill: rgb(0, 0, 0);" fill="rgb(0,0,0)" fill-opacity="1"><path d=" M12,-3 L0,0 L12,3 Z"/></g><g stroke="none" transform="matrix(-1.8369701987210297e-16,-1,1,-1.8369701987210297e-16,333.89915405994793,347.7690738329606)" style="stroke: none; stroke-width: 1; fill: rgb(0, 0, 0);" fill="rgb(0,0,0)" fill-opacity="1"><path d=" M12,-3 L0,0 L12,3 Z"/></g></g></g><g><g class="arrow-line"><path class="vector-plot real" stroke-dasharray="" d="  M144.41,7.66 L416.5,7.66" style="stroke: rgb(0, 0, 0); stroke-opacity: 1; stroke-width: 2;"/></g></g><g><g class="arrow-line"><path class="vector-plot real" stroke-dasharray="" d="  M8.37,347.77 L552.54,347.77" style="stroke: rgb(0, 0, 0); stroke-opacity: 1; stroke-width: 2;"/></g></g><path d=" M102.87,322.20 L102.90,322.21 L102.93,322.22 L102.96,322.23 L102.99,322.24 L103.01,322.25 L103.04,322.26 L103.07,322.27 L103.10,322.28 L103.12,322.29 L103.15,322.30 L103.18,322.31 L103.21,322.32 L103.23,322.34 L103.26,322.35 L103.29,322.36 L103.32,322.37 L103.34,322.38 L103.37,322.39 L103.40,322.40 L103.43,322.41 L103.45,322.42 L103.48,322.43 L103.51,322.44 L103.54,322.45 L103.56,322.46 L103.59,322.47 L103.62,322.48 L103.65,322.50 L103.67,322.51 L103.70,322.52 L103.73,322.53 L103.76,322.54 L103.78,322.55 L103.81,322.56 L103.84,322.57 L103.86,322.58 L103.89,322.60 L103.92,322.61 L103.95,322.62 L103.97,322.63 L104.00,322.64 L104.03,322.65 L104.06,322.66 L104.08,322.67 L104.11,322.69 L104.14,322.70 L104.16,322.71 L104.19,322.72 L104.22,322.73 L104.25,322.74 L104.27,322.75 L104.30,322.77 L104.33,322.78 L104.35,322.79 L104.38,322.80 L104.41,322.81 L104.44,322.82 L104.46,322.84 L104.49,322.85 L104.52,322.86 L104.54,322.87 L104.57,322.88 L104.60,322.90 L104.62,322.91 L104.65,322.92 L104.68,322.93 L104.71,322.94 L104.73,322.96 L104.76,322.97 L104.79,322.98 L104.81,322.99 L104.84,323.00 L104.87,323.02 L104.89,323.03 L104.92,323.04 L104.95,323.05 L104.97,323.07 L105.00,323.08 L105.03,323.09 L105.05,323.10 L105.08,323.12 L105.11,323.13 L105.13,323.14 L105.16,323.15 L105.19,323.17 L105.21,323.18 L105.24,323.19 L105.27,323.20 L105.29,323.22 L105.32,323.23 L105.35,323.24 L105.37,323.25 L105.40,323.27 L105.43,323.28 L105.45,323.29 L105.48,323.31 L105.51,323.32 L105.53,323.33 L105.56,323.35 L105.59,323.36 L105.61,323.37 L105.64,323.38 L105.67,323.40 L105.69,323.41 L105.72,323.42 L105.74,323.44 L105.77,323.45 L105.80,323.46 L105.82,323.48 L105.85,323.49 L105.88,323.50 L105.90,323.52 L105.93,323.53 L105.95,323.54 L105.98,323.56 L106.01,323.57 L106.03,323.58 L106.06,323.60 L106.09,323.61 L106.11,323.62 L106.14,323.64 L106.16,323.65 L106.19,323.67 L106.22,323.68 L106.24,323.69 L106.27,323.71 L106.30,323.72 L106.32,323.73 L106.35,323.75 L106.37,323.76 L106.40,323.78 L106.43,323.79 L106.45,323.80 L106.48,323.82 L106.50,323.83 L106.53,323.85 L106.56,323.86 L106.58,323.87 L106.61,323.89 L106.63,323.90 L106.66,323.92 L106.68,323.93 L106.71,323.94 L106.74,323.96 L106.76,323.97 L106.79,323.99 L106.81,324.00 L106.84,324.02 L106.86,324.03 L106.89,324.05 L106.92,324.06 L106.94,324.07 L106.97,324.09 L106.99,324.10 L107.02,324.12 L107.04,324.13 L107.07,324.15 L107.10,324.16 L107.12,324.18 L107.15,324.19 L107.17,324.21 L107.20,324.22 L107.22,324.24 L107.25,324.25 L107.27,324.26 L107.30,324.28 L107.33,324.29 L107.35,324.31 L107.38,324.32 L107.40,324.34 L107.43,324.35 L107.45,324.37 L107.48,324.38 L107.50,324.40 L107.53,324.41 L107.55,324.43 L107.58,324.45 L107.60,324.46 L107.63,324.48 L107.66,324.49 L107.68,324.51 L107.71,324.52 L107.73,324.54 L107.76,324.55 L107.78,324.57 L107.81,324.58 L107.83,324.60 L107.86,324.61 L107.88,324.63 L107.91,324.65 L107.93,324.66 L107.96,324.68 L107.98,324.69 L108.01,324.71 L108.03,324.72 L108.06,324.74 L108.08,324.75 L108.11,324.77 L108.13,324.79 L108.16,324.80 L108.18,324.82 L108.21,324.83 L108.23,324.85 L108.26,324.87 L108.28,324.88 L108.31,324.90 L108.33,324.91 L108.36,324.93 L108.38,324.95 L108.40,324.96 L108.43,324.98 L108.45,324.99 L108.48,325.01 L108.50,325.03 L108.53,325.04 L108.55,325.06 L108.58,325.07 L108.60,325.09 L108.63,325.11 L108.65,325.12 L108.68,325.14 L108.70,325.16 L108.72,325.17 L108.75,325.19 L108.77,325.21 L108.80,325.22 L108.82,325.24 L108.85,325.26 L108.87,325.27 L108.90,325.29 L108.92,325.30 L108.94,325.32 L108.97,325.34 L108.99,325.35 L109.02,325.37 L109.04,325.39 L109.07,325.41 L109.09,325.42 L109.11,325.44 L109.14,325.46 L109.16,325.47 L109.19,325.49 L109.21,325.51 L109.23,325.52 L109.26,325.54 L109.28,325.56 L109.31,325.57 L109.33,325.59 L109.36,325.61 L109.38,325.63 L109.40,325.64 L109.43,325.66 L109.45,325.68 L109.48,325.69 L109.50,325.71 L109.52,325.73 L109.55,325.75 L109.57,325.76 L109.59,325.78 L109.62,325.80 L109.64,325.82 L109.67,325.83 L109.69,325.85 L109.71,325.87 L109.74,325.89 L109.76,325.90 L109.78,325.92 L109.81,325.94 L109.83,325.96 L109.86,325.97 L109.88,325.99 L109.90,326.01 L109.93,326.03 L109.95,326.04 L109.97,326.06 L110.00,326.08 L110.02,326.10 L110.04,326.12 L110.07,326.13 L110.09,326.15 L110.11,326.17 L110.14,326.19 L110.16,326.21 L110.18,326.22 L110.21,326.24 L110.23,326.26 L110.25,326.28 L110.28,326.30 L110.30,326.31 L110.32,326.33 L110.35,326.35 L110.37,326.37 L110.39,326.39 L110.42,326.40 L110.44,326.42 L110.46,326.44 L110.49,326.46 L110.51,326.48 L110.53,326.50 L110.56,326.51 L110.58,326.53 L110.60,326.55 L110.62,326.57 L110.65,326.59 L110.67,326.61 L110.69,326.63 L110.72,326.64 L110.74,326.66 L110.76,326.68 L110.79,326.70 L110.81,326.72 L110.83,326.74 L110.85,326.76 L110.88,326.78 L110.90,326.79 L110.92,326.81 L110.94,326.83 L110.97,326.85 L110.99,326.87 L111.01,326.89 L111.04,326.91 L111.06,326.93 L111.08,326.95 L111.10,326.96 L111.13,326.98 L111.15,327.00 L111.17,327.02 L111.19,327.04 L111.22,327.06 L111.24,327.08 L111.26,327.10 L111.28,327.12 L111.30,327.14 L111.33,327.16 L111.35,327.17 L111.37,327.19 L111.39,327.21 L111.42,327.23 L111.44,327.25 L111.46,327.27 L111.48,327.29 L111.51,327.31 L111.53,327.33 L111.55,327.35 L111.57,327.37 L111.59,327.39 L111.62,327.41 L111.64,327.43 L111.66,327.45 L111.68,327.47 L111.70,327.49 L111.73,327.51 L111.75,327.53 L111.77,327.55 L111.79,327.56 L111.81,327.58 L111.84,327.60 L111.86,327.62 L111.88,327.64 L111.90,327.66 L111.92,327.68 L111.94,327.70 L111.97,327.72 L111.99,327.74 L112.01,327.76 L112.03,327.78 L112.05,327.80 L112.07,327.82 L112.10,327.84 L112.12,327.86 L112.14,327.88 L112.16,327.90 L112.18,327.92 L112.20,327.94 L112.23,327.96 L112.25,327.99 L112.27,328.01 L112.29,328.03 L112.31,328.05 L112.33,328.07 L112.35,328.09 L112.38,328.11 L112.40,328.13 L112.42,328.15 L112.44,328.17 L112.46,328.19 L112.48,328.21 L112.50,328.23 L112.52,328.25 L112.55,328.27 L112.57,328.29 L112.59,328.31 L112.61,328.33 L112.63,328.35 L112.65,328.37 L112.67,328.39 L112.69,328.42 L112.71,328.44 L112.73,328.46 L112.76,328.48 L112.78,328.50 L112.80,328.52 L112.82,328.54 L112.84,328.56 L112.86,328.58 L112.88,328.60 L112.90,328.62 L112.92,328.64 L112.94,328.67 L112.96,328.69 L112.98,328.71 L113.00,328.73 L113.03,328.75 L113.05,328.77 L113.07,328.79 L113.09,328.81 L113.11,328.83 L113.13,328.86 L113.15,328.88 L113.17,328.90 L113.19,328.92 L113.21,328.94 L113.23,328.96 L113.25,328.98 L113.27,329.00 L113.29,329.03 L113.31,329.05 L113.33,329.07 L113.35,329.09 L113.37,329.11 L113.39,329.13 L113.41,329.15 L113.43,329.18 L113.45,329.20 L113.47,329.22 L113.49,329.24 L113.51,329.26 L113.53,329.28 L113.55,329.31 L113.57,329.33 L113.59,329.35 L113.61,329.37 L113.63,329.39 L113.65,329.41 L113.67,329.44 L113.69,329.46 L113.71,329.48 L113.73,329.50 L113.75,329.52 L113.77,329.55 L113.79,329.57 L113.81,329.59 L113.83,329.61 L113.85,329.63 L113.87,329.66 L113.89,329.68 L113.91,329.70 L113.93,329.72 L113.95,329.74 L113.97,329.77 L113.99,329.79 L114.01,329.81 L114.03,329.83 L114.05,329.85 L114.07,329.88 L114.09,329.90 L114.10,329.92 L114.12,329.94 L114.14,329.97 L114.16,329.99 L114.18,330.01 L114.20,330.03 L114.22,330.05 L114.24,330.08 L114.26,330.10 L114.28,330.12 L114.30,330.14 L114.32,330.17 L114.34,330.19 L114.35,330.21 L114.37,330.23 L114.39,330.26 L114.41,330.28 L114.43,330.30 L114.45,330.32 L114.47,330.35 L114.49,330.37 L114.51,330.39 L114.52,330.42 L114.54,330.44 L114.56,330.46 L114.58,330.48 L114.60,330.51 L114.62,330.53 L114.64,330.55 L114.66,330.58 L114.67,330.60 L114.69,330.62 L114.71,330.64 L114.73,330.67 L114.75,330.69 L114.77,330.71 L114.79,330.74 L114.80,330.76 L114.82,330.78 L114.84,330.80 L114.86,330.83 L114.88,330.85 L114.90,330.87 L114.91,330.90 L114.93,330.92 L114.95,330.94 L114.97,330.97 L114.99,330.99 L115.01,331.01 L115.02,331.04 L115.04,331.06 L115.06,331.08 L115.08,331.11 L115.10,331.13 L115.11,331.15 L115.13,331.18 L115.15,331.20 L115.17,331.22 L115.19,331.25 L115.20,331.27 L115.22,331.29 L115.24,331.32 L115.26,331.34 L115.28,331.36 L115.29,331.39 L115.31,331.41 L115.33,331.43 L115.35,331.46 L115.36,331.48 L115.38,331.51 L115.40,331.53 L115.42,331.55 L115.43,331.58 L115.45,331.60 L115.47,331.62 L115.49,331.65 L115.50,331.67 L115.52,331.70 L115.54,331.72 L115.56,331.74 L115.57,331.77 L115.59,331.79 L115.61,331.81 L115.63,331.84 L115.64,331.86 L115.66,331.89 L115.68,331.91 L115.69,331.93 L115.71,331.96 L115.73,331.98 L115.75,332.01 L115.76,332.03 L115.78,332.05 L115.80,332.08 L115.81,332.10 L115.83,332.13 L115.85,332.15 L115.86,332.17 L115.88,332.20 L115.90,332.22 L115.92,332.25 L115.93,332.27 L115.95,332.30 L115.97,332.32 L115.98,332.34 L116.00,332.37 L116.02,332.39 L116.03,332.42 L116.05,332.44 L116.07,332.47 L116.08,332.49 L116.10,332.52 L116.12,332.54 L116.13,332.56 L116.15,332.59 L116.16,332.61 L116.18,332.64 L116.20,332.66 L116.21,332.69 L116.23,332.71 L116.25,332.74 L116.26,332.76 L116.28,332.78 L116.30,332.81 L116.31,332.83 L116.33,332.86 L116.34,332.88 L116.36,332.91 L116.38,332.93 L116.39,332.96 L116.41,332.98 L116.42,333.01 L116.44,333.03 L116.46,333.06 L116.47,333.08 L116.49,333.11 L116.50,333.13 L116.52,333.16 L116.54,333.18 L116.55,333.21 L116.57,333.23 L116.58,333.26 L116.60,333.28 L116.61,333.31 L116.63,333.33 L116.65,333.36 L116.66,333.38 L116.68,333.41 L116.69,333.43 L116.71,333.46 L116.72,333.48 L116.74,333.51 L116.75,333.53 L116.77,333.56 L116.79,333.58 L116.80,333.61 L116.82,333.63 L116.83,333.66 L116.85,333.68 L116.86,333.71 L116.88,333.73 L116.89,333.76 L116.91,333.78 L116.92,333.81 L116.94,333.83 L116.95,333.86 L116.97,333.88 L116.98,333.91 L117.00,333.94 L117.01,333.96 L117.03,333.99 L117.04,334.01 L117.06,334.04 L117.07,334.06 L117.09,334.09 L117.10,334.11 L117.12,334.14 L117.13,334.16 L117.15,334.19 L117.16,334.22 L117.18,334.24 L117.19,334.27 L117.21,334.29 L117.22,334.32 L117.23,334.34 L117.25,334.37 L117.26,334.40 L117.28,334.42 L117.29,334.45 L117.31,334.47 L117.32,334.50 L117.34,334.52 L117.35,334.55 L117.36,334.58 L117.38,334.60 L117.39,334.63 L117.41,334.65 L117.42,334.68 L117.44,334.70 L117.45,334.73 L117.46,334.76 L117.48,334.78 L117.49,334.81 L117.51,334.83 L117.52,334.86 L117.53,334.89 L117.55,334.91 L117.56,334.94 L117.58,334.96 L117.59,334.99 L117.60,335.02 L117.62,335.04 L117.63,335.07 L117.64,335.09 L117.66,335.12 L117.67,335.15 L117.69,335.17 L117.70,335.20 L117.71,335.23 L117.73,335.25 L117.74,335.28 L117.75,335.30 L117.77,335.33 L117.78,335.36 L117.79,335.38 L117.81,335.41 L117.82,335.44 L117.83,335.46 L117.85,335.49 L117.86,335.51 L117.87,335.54 L117.89,335.57 L117.90,335.59 L117.91,335.62 L117.93,335.65 L117.94,335.67 L117.95,335.70 L117.97,335.73 L117.98,335.75 L117.99,335.78 L118.01,335.80 L118.02,335.83 L118.03,335.86 L118.04,335.88 L118.06,335.91 L118.07,335.94 L118.08,335.96 L118.10,335.99 L118.11,336.02 L118.12,336.04 L118.13,336.07 L118.15,336.10 L118.16,336.12 L118.17,336.15 L118.18,336.18 L118.20,336.20 L118.21,336.23 L118.22,336.26 L118.23,336.28 L118.25,336.31 L118.26,336.34 L118.27,336.36 L118.28,336.39 L118.30,336.42 L118.31,336.44 L118.32,336.47 L118.33,336.50 L118.34,336.52 L118.36,336.55 L118.37,336.58 L118.38,336.61 L118.39,336.63 L118.41,336.66 L118.42,336.69 L118.43,336.71 L118.44,336.74 L118.45,336.77 L118.47,336.79 L118.48,336.82 L118.49,336.85 L118.50,336.88 L118.51,336.90 L118.52,336.93 L118.54,336.96 L118.55,336.98 L118.56,337.01 L118.57,337.04 L118.58,337.06 L118.59,337.09 L118.61,337.12 L118.62,337.15 L118.63,337.17 L118.64,337.20 L118.65,337.23 L118.66,337.25 L118.67,337.28 L118.69,337.31 L118.70,337.34 L118.71,337.36 L118.72,337.39 L118.73,337.42 L118.74,337.45 L118.75,337.47 L118.76,337.50 L118.78,337.53 L118.79,337.55 L118.80,337.58 L118.81,337.61 L118.82,337.64 L118.83,337.66 L118.84,337.69 L118.85,337.72 L118.86,337.75 L118.87,337.77 L118.89,337.80 L118.90,337.83 L118.91,337.86 L118.92,337.88 L118.93,337.91 L118.94,337.94 L118.95,337.97 L118.96,337.99 L118.97,338.02 L118.98,338.05 L118.99,338.08 L119.00,338.10 L119.01,338.13 L119.02,338.16 L119.03,338.19 L119.04,338.21 L119.05,338.24 L119.06,338.27 L119.07,338.30 L119.09,338.32 L119.10,338.35 L119.11,338.38 L119.12,338.41 L119.13,338.44 L119.14,338.46 L119.15,338.49 L119.16,338.52 L119.17,338.55 L119.18,338.57 L119.19,338.60 L119.20,338.63 L119.21,338.66 L119.22,338.69 L119.23,338.71 L119.24,338.74 L119.25,338.77 L119.25,338.80 L119.26,338.82 L119.27,338.85 L119.28,338.88 L119.29,338.91 L119.30,338.94 L119.31,338.96 L119.32,338.99 L119.33,339.02 L119.34,339.05 L119.35,339.08 L119.36,339.10 L119.37,339.13 L119.38,339.16 L119.39,339.19 L119.40,339.22 L119.41,339.24 L119.42,339.27 L119.43,339.30 L119.43,339.33 L119.44,339.36 L119.45,339.38 L119.46,339.41 L119.47,339.44 L119.48,339.47 L119.49,339.50 L119.50,339.52 L119.51,339.55 L119.52,339.58 L119.52,339.61 L119.53,339.64 L119.54,339.66 L119.55,339.69 L119.56,339.72 L119.57,339.75 L119.58,339.78 L119.59,339.81 L119.59,339.83 L119.60,339.86 L119.61,339.89 L119.62,339.92 L119.63,339.95 L119.64,339.97 L119.65,340.00 L119.65,340.03 L119.66,340.06 L119.67,340.09 L119.68,340.12 L119.69,340.14 L119.70,340.17 L119.70,340.20 L119.71,340.23 L119.72,340.26 L119.73,340.29 L119.74,340.31 L119.74,340.34 L119.75,340.37 L119.76,340.40 L119.77,340.43 L119.78,340.46 L119.78,340.49 L119.79,340.51 L119.80,340.54 L119.81,340.57 L119.82,340.60 L119.82,340.63 L119.83,340.66 L119.84,340.68 L119.85,340.71 L119.85,340.74 L119.86,340.77 L119.87,340.80 L119.88,340.83 L119.88,340.86 L119.89,340.88 L119.90,340.91 L119.91,340.94 L119.91,340.97 L119.92,341.00 L119.93,341.03 L119.94,341.06 L119.94,341.08 L119.95,341.11 L119.96,341.14 L119.96,341.17 L119.97,341.20 L119.98,341.23 L119.99,341.26 L119.99,341.28 L120.00,341.31 L120.01,341.34 L120.01,341.37 L120.02,341.40 L120.03,341.43 L120.03,341.46 L120.04,341.48 L120.05,341.51 L120.05,341.54 L120.06,341.57 L120.07,341.60 L120.07,341.63 L120.08,341.66 L120.09,341.69 L120.09,341.71 L120.10,341.74 L120.11,341.77 L120.11,341.80 L120.12,341.83 L120.13,341.86 L120.13,341.89 L120.14,341.92 L120.15,341.94 L120.15,341.97 L120.16,342.00 L120.17,342.03 L120.17,342.06 L120.18,342.09 L120.18,342.12 L120.19,342.15 L120.20,342.18 L120.20,342.20 L120.21,342.23 L120.21,342.26 L120.22,342.29 L120.23,342.32 L120.23,342.35 L120.24,342.38 L120.24,342.41 L120.25,342.44 L120.25,342.46 L120.26,342.49 L120.27,342.52 L120.27,342.55 L120.28,342.58 L120.28,342.61 L120.29,342.64 L120.29,342.67 L120.30,342.70 L120.31,342.73 L120.31,342.75 L120.32,342.78 L120.32,342.81 L120.33,342.84 L120.33,342.87 L120.34,342.90 L120.34,342.93 L120.35,342.96 L120.35,342.99 L120.36,343.02 L120.36,343.04 L120.37,343.07 L120.37,343.10 L120.38,343.13 L120.38,343.16 L120.39,343.19 L120.39,343.22 L120.40,343.25 L120.40,343.28 L120.41,343.31 L120.41,343.34 L120.42,343.36 L120.42,343.39 L120.43,343.42 L120.43,343.45 L120.44,343.48 L120.44,343.51 L120.45,343.54 L120.45,343.57 L120.46,343.60 L120.46,343.63 L120.46,343.66 L120.47,343.68 L120.47,343.71 L120.48,343.74 L120.48,343.77 L120.49,343.80 L120.49,343.83 L120.49,343.86 L120.50,343.89 L120.50,343.92 L120.51,343.95 L120.51,343.98 L120.52,344.01 L120.52,344.03 L120.52,344.06 L120.53,344.09 L120.53,344.12 L120.54,344.15 L120.54,344.18 L120.54,344.21 L120.55,344.24 L120.55,344.27 L120.55,344.30 L120.56,344.33 L120.56,344.36 L120.57,344.39 L120.57,344.42 L120.57,344.44 L120.58,344.47 L120.58,344.50 L120.58,344.53 L120.59,344.56 L120.59,344.59 L120.59,344.62 L120.60,344.65 L120.60,344.68 L120.60,344.71 L120.61,344.74 L120.61,344.77 L120.61,344.80 L120.62,344.83 L120.62,344.85 L120.62,344.88 L120.63,344.91 L120.63,344.94 L120.63,344.97 L120.64,345.00 L120.64,345.03 L120.64,345.06 L120.64,345.09 L120.65,345.12 L120.65,345.15 L120.65,345.18 L120.66,345.21 L120.66,345.24 L120.66,345.27 L120.66,345.29 L120.67,345.32 L120.67,345.35 L120.67,345.38 L120.67,345.41 L120.68,345.44 L120.68,345.47 L120.68,345.50 L120.68,345.53 L120.69,345.56 L120.69,345.59 L120.69,345.62 L120.69,345.65 L120.70,345.68 L120.70,345.71 L120.70,345.74 L120.70,345.77 L120.71,345.79 L120.71,345.82 L120.71,345.85 L120.71,345.88 L120.71,345.91 L120.72,345.94 L120.72,345.97 L120.72,346.00 L120.72,346.03 L120.72,346.06 L120.73,346.09 L120.73,346.12 L120.73,346.15 L120.73,346.18 L120.73,346.21 L120.73,346.24 L120.74,346.27 L120.74,346.30 L120.74,346.32 L120.74,346.35 L120.74,346.38 L120.74,346.41 L120.74,346.44 L120.75,346.47 L120.75,346.50 L120.75,346.53 L120.75,346.56 L120.75,346.59 L120.75,346.62 L120.75,346.65 L120.76,346.68 L120.76,346.71 L120.76,346.74 L120.76,346.77 L120.76,346.80 L120.76,346.83 L120.76,346.85 L120.76,346.88 L120.76,346.91 L120.76,346.94 L120.77,346.97 L120.77,347.00 L120.77,347.03 L120.77,347.06 L120.77,347.09 L120.77,347.12 L120.77,347.15 L120.77,347.18 L120.77,347.21 L120.77,347.24 L120.77,347.27 L120.77,347.30 L120.77,347.33 L120.77,347.36 L120.77,347.39 L120.77,347.42 L120.78,347.44 L120.78,347.47 L120.78,347.50 L120.78,347.53 L120.78,347.56 L120.78,347.59 L120.78,347.62 L120.78,347.65 L120.78,347.68 L120.78,347.71 L120.78,347.74 L120.78,347.77 L120.78,347.77" style="stroke-width: 1; stroke: rgb(0, 0, 0); stroke-opacity: 1;"/><g><g class="arrow-line"><path class="vector-plot real" stroke-dasharray="" d="  M93.57,347.77 L160.22,164.64" style="stroke: rgb(0, 0, 0); stroke-opacity: 1; stroke-width: 2;"/><g stroke="none" fill="rgb(0,0,0)" fill-opacity="1" transform="matrix(-0.34202014332566805,0.9396926207859086,-0.9396926207859086,-0.34202014332566805,161.5898210073761,160.88164770550222)" style="stroke: none; fill: rgb(0, 0, 0); stroke-width: 2;"><path d=" M15.6,-3.9 L0,0 L15.6,3.9 Z"/></g></g></g><g><g class="arrow-line"><path class="vector-plot real" stroke-dasharray="" d="  M280.46,91.03 L280.46,41.67" style="stroke: rgb(0, 0, 0); stroke-opacity: 1; stroke-width: 1;"/></g></g><g><g class="arrow-line"><path class="vector-plot real" stroke-dasharray="" d="  M280.46,41.67 L246.45,7.66" style="stroke: rgb(0, 0, 0); stroke-opacity: 1; stroke-width: 2;"/></g></g><g><g class="arrow-line"><path class="vector-plot real" stroke-dasharray="" d="  M280.46,41.67 L314.47,7.66" style="stroke: rgb(0, 0, 0); stroke-opacity: 1; stroke-width: 2;"/></g></g><path d=" M280.46,91.03 L280.52,91.03 L280.59,91.03 L280.66,91.03 L280.73,91.03 L280.80,91.03 L280.87,91.03 L280.94,91.03 L281.01,91.03 L281.07,91.03 L281.14,91.03 L281.21,91.03 L281.28,91.03 L281.35,91.03 L281.42,91.03 L281.49,91.02 L281.56,91.02 L281.63,91.02 L281.69,91.02 L281.76,91.02 L281.83,91.02 L281.90,91.01 L281.97,91.01 L282.04,91.01 L282.11,91.01 L282.18,91.00 L282.24,91.00 L282.31,91.00 L282.38,91.00 L282.45,90.99 L282.52,90.99 L282.59,90.99 L282.66,90.99 L282.73,90.98 L282.79,90.98 L282.86,90.98 L282.93,90.97 L283.00,90.97 L283.07,90.97 L283.14,90.96 L283.21,90.96 L283.28,90.95 L283.34,90.95 L283.41,90.95 L283.48,90.94 L283.55,90.94 L283.62,90.93 L283.69,90.93 L283.76,90.92 L283.82,90.92 L283.89,90.91 L283.96,90.91 L284.03,90.90 L284.10,90.90 L284.17,90.89 L284.24,90.89 L284.30,90.88 L284.37,90.88 L284.44,90.87 L284.51,90.87 L284.58,90.86 L284.65,90.86 L284.72,90.85 L284.78,90.84 L284.85,90.84 L284.92,90.83 L284.99,90.83 L285.06,90.82 L285.13,90.81 L285.20,90.81 L285.26,90.80 L285.33,90.79 L285.40,90.79 L285.47,90.78 L285.54,90.77 L285.61,90.77 L285.67,90.76 L285.74,90.75 L285.81,90.74 L285.88,90.74 L285.95,90.73 L286.02,90.72 L286.09,90.71 L286.15,90.70 L286.22,90.70 L286.29,90.69 L286.36,90.68 L286.43,90.67 L286.50,90.66 L286.56,90.66 L286.63,90.65 L286.70,90.64 L286.77,90.63 L286.84,90.62 L286.90,90.61 L286.97,90.60 L287.04,90.59 L287.11,90.58 L287.18,90.57 L287.25,90.57 L287.31,90.56 L287.38,90.55 L287.45,90.54 L287.52,90.53 L287.59,90.52 L287.65,90.51 L287.72,90.50 L287.79,90.49 L287.86,90.48 L287.93,90.47 L287.99,90.46 L288.06,90.45 L288.13,90.43 L288.20,90.42 L288.27,90.41 L288.33,90.40 L288.40,90.39 L288.47,90.38 L288.54,90.37 L288.61,90.36 L288.67,90.35 L288.74,90.33 L288.81,90.32 L288.88,90.31 L288.94,90.30 L289.01,90.29 L289.08,90.28 L289.15,90.26 L289.22,90.25 L289.28,90.24 L289.35,90.23 L289.42,90.21 L289.49,90.20 L289.55,90.19 L289.62,90.18 L289.69,90.16 L289.76,90.15 L289.82,90.14 L289.89,90.12 L289.96,90.11 L290.03,90.10 L290.09,90.08 L290.16,90.07 L290.23,90.06 L290.30,90.04 L290.36,90.03 L290.43,90.02 L290.50,90.00 L290.57,89.99 L290.63,89.97 L290.70,89.96 L290.77,89.95 L290.84,89.93 L290.90,89.92 L290.97,89.90 L291.04,89.89 L291.10,89.87 L291.17,89.86 L291.24,89.84 L291.31,89.83 L291.37,89.81 L291.44,89.80 L291.51,89.78 L291.57,89.77 L291.64,89.75 L291.71,89.73 L291.77,89.72 L291.84,89.70 L291.91,89.69 L291.98,89.67 L292.04,89.66 L292.11,89.64 L292.18,89.62 L292.24,89.61 L292.31,89.59 L292.38,89.57 L292.44,89.56 L292.51,89.54 L292.58,89.52 L292.64,89.51 L292.71,89.49 L292.78,89.47 L292.84,89.45 L292.91,89.44 L292.98,89.42 L293.04,89.40 L293.11,89.39 L293.18,89.37 L293.24,89.35 L293.31,89.33 L293.38,89.31 L293.44,89.30 L293.51,89.28 L293.57,89.26 L293.64,89.24 L293.71,89.22 L293.77,89.20 L293.84,89.19 L293.91,89.17 L293.97,89.15 L294.04,89.13 L294.10,89.11 L294.17,89.09 L294.24,89.07 L294.30,89.05 L294.37,89.03 L294.43,89.01 L294.50,88.99 L294.57,88.97 L294.63,88.96 L294.70,88.94 L294.76,88.92 L294.83,88.90 L294.90,88.88 L294.96,88.86 L295.03,88.83 L295.09,88.81 L295.16,88.79 L295.22,88.77 L295.29,88.75 L295.36,88.73 L295.42,88.71 L295.49,88.69 L295.55,88.67 L295.62,88.65 L295.68,88.63 L295.75,88.61 L295.81,88.58 L295.88,88.56 L295.94,88.54 L296.01,88.52 L296.08,88.50 L296.14,88.48 L296.21,88.45 L296.27,88.43 L296.34,88.41 L296.40,88.39 L296.47,88.37 L296.53,88.34 L296.60,88.32 L296.66,88.30 L296.73,88.28 L296.79,88.25 L296.86,88.23 L296.92,88.21 L296.99,88.18 L297.05,88.16 L297.12,88.14 L297.18,88.11 L297.25,88.09 L297.31,88.07 L297.37,88.04 L297.44,88.02 L297.50,88.00 L297.57,87.97 L297.63,87.95 L297.70,87.93 L297.76,87.90 L297.83,87.88 L297.89,87.85 L297.95,87.83 L298.02,87.80 L298.08,87.78 L298.15,87.76 L298.21,87.73 L298.28,87.71 L298.34,87.68 L298.40,87.66 L298.47,87.63 L298.53,87.61 L298.60,87.58 L298.66,87.56 L298.72,87.53 L298.79,87.50 L298.85,87.48 L298.92,87.45 L298.98,87.43 L299.04,87.40 L299.11,87.38 L299.17,87.35 L299.23,87.32 L299.30,87.30 L299.36,87.27 L299.43,87.24 L299.49,87.22 L299.55,87.19 L299.62,87.16 L299.68,87.14 L299.74,87.11 L299.81,87.08 L299.87,87.06 L299.93,87.03 L300.00,87.00 L300.06,86.98 L300.12,86.95 L300.18,86.92 L300.25,86.89 L300.31,86.87 L300.37,86.84 L300.44,86.81 L300.50,86.78 L300.56,86.75 L300.63,86.73 L300.69,86.70 L300.75,86.67 L300.81,86.64 L300.88,86.61 L300.94,86.58 L301.00,86.56 L301.06,86.53 L301.13,86.50 L301.19,86.47 L301.25,86.44 L301.31,86.41 L301.38,86.38 L301.44,86.35 L301.50,86.32 L301.56,86.29 L301.62,86.26 L301.69,86.24 L301.75,86.21 L301.81,86.18 L301.87,86.15 L301.94,86.12 L302.00,86.09 L302.06,86.06 L302.12,86.03 L302.18,86.00 L302.24,85.97 L302.31,85.94 L302.37,85.90 L302.43,85.87 L302.49,85.84 L302.55,85.81 L302.61,85.78 L302.68,85.75 L302.74,85.72 L302.80,85.69 L302.86,85.66 L302.92,85.63 L302.98,85.59 L303.04,85.56 L303.10,85.53 L303.17,85.50 L303.23,85.47 L303.29,85.44 L303.35,85.41 L303.41,85.37 L303.47,85.34 L303.53,85.31 L303.59,85.28 L303.65,85.24 L303.71,85.21 L303.77,85.18 L303.83,85.15 L303.90,85.11 L303.96,85.08 L304.02,85.05 L304.08,85.02 L304.14,84.98 L304.20,84.95 L304.26,84.92 L304.32,84.88 L304.38,84.85 L304.44,84.82 L304.50,84.78 L304.56,84.75 L304.62,84.72 L304.68,84.68 L304.74,84.65 L304.80,84.61 L304.86,84.58 L304.92,84.55 L304.98,84.51 L305.04,84.48 L305.10,84.44 L305.16,84.41 L305.22,84.38 L305.28,84.34 L305.34,84.31 L305.39,84.27 L305.45,84.24 L305.51,84.20 L305.57,84.17 L305.63,84.13 L305.69,84.10 L305.75,84.06 L305.81,84.03 L305.87,83.99 L305.93,83.96 L305.99,83.92 L306.04,83.88 L306.10,83.85 L306.16,83.81 L306.22,83.78 L306.28,83.74 L306.34,83.70 L306.40,83.67 L306.46,83.63 L306.51,83.60 L306.57,83.56 L306.63,83.52 L306.69,83.49 L306.75,83.45 L306.81,83.41 L306.86,83.38 L306.92,83.34 L306.98,83.30 L307.04,83.27 L307.10,83.23 L307.15,83.19 L307.21,83.15 L307.27,83.12 L307.33,83.08 L307.38,83.04 L307.44,83.00 L307.50,82.97 L307.56,82.93 L307.61,82.89 L307.67,82.85 L307.73,82.82 L307.79,82.78 L307.84,82.74 L307.90,82.70 L307.96,82.66 L308.02,82.62 L308.07,82.59 L308.13,82.55 L308.19,82.51 L308.24,82.47 L308.30,82.43 L308.36,82.39 L308.41,82.35 L308.47,82.31 L308.53,82.28 L308.58,82.24 L308.64,82.20 L308.70,82.16 L308.75,82.12 L308.81,82.08 L308.87,82.04 L308.92,82.00 L308.98,81.96 L309.03,81.92 L309.09,81.88 L309.15,81.84 L309.20,81.80 L309.26,81.76 L309.31,81.72 L309.37,81.68 L309.43,81.64 L309.48,81.60 L309.54,81.56 L309.59,81.52 L309.65,81.48 L309.70,81.44 L309.76,81.40 L309.81,81.36 L309.87,81.31 L309.92,81.27 L309.98,81.23 L310.03,81.19 L310.09,81.15 L310.14,81.11 L310.20,81.07 L310.25,81.03 L310.31,80.98 L310.36,80.94 L310.42,80.90 L310.47,80.86 L310.53,80.82 L310.58,80.77 L310.64,80.73 L310.69,80.69 L310.75,80.65 L310.80,80.61 L310.85,80.56 L310.91,80.52 L310.96,80.48 L311.02,80.44 L311.07,80.39 L311.12,80.35 L311.18,80.31 L311.23,80.27 L311.29,80.22 L311.34,80.18 L311.39,80.14 L311.45,80.09 L311.50,80.05 L311.55,80.01 L311.61,79.96 L311.66,79.92 L311.71,79.88 L311.77,79.83 L311.82,79.79 L311.87,79.75 L311.93,79.70 L311.98,79.66 L312.03,79.61 L312.09,79.57 L312.14,79.53 L312.19,79.48 L312.24,79.44 L312.30,79.39 L312.35,79.35 L312.40,79.30 L312.45,79.26 L312.51,79.21 L312.56,79.17 L312.61,79.12 L312.66,79.08 L312.71,79.04 L312.77,78.99 L312.82,78.95 L312.87,78.90 L312.92,78.85 L312.97,78.81 L313.03,78.76 L313.08,78.72 L313.13,78.67 L313.18,78.63 L313.23,78.58 L313.28,78.54 L313.34,78.49 L313.39,78.44 L313.44,78.40 L313.49,78.35 L313.54,78.31 L313.59,78.26 L313.64,78.21 L313.69,78.17 L313.74,78.12 L313.79,78.08 L313.85,78.03 L313.90,77.98 L313.95,77.94 L314.00,77.89 L314.05,77.84 L314.10,77.80 L314.15,77.75 L314.20,77.70 L314.25,77.65 L314.30,77.61 L314.35,77.56 L314.40,77.51 L314.45,77.47 L314.50,77.42 L314.55,77.37 L314.60,77.32 L314.65,77.27 L314.70,77.23 L314.75,77.18 L314.80,77.13 L314.85,77.08 L314.89,77.04 L314.94,76.99 L314.99,76.94 L315.04,76.89 L315.09,76.84 L315.14,76.79 L315.19,76.75 L315.24,76.70 L315.29,76.65 L315.34,76.60 L315.38,76.55 L315.43,76.50 L315.48,76.45 L315.53,76.41 L315.58,76.36 L315.63,76.31 L315.67,76.26 L315.72,76.21 L315.77,76.16 L315.82,76.11 L315.87,76.06 L315.92,76.01 L315.96,75.96 L316.01,75.91 L316.06,75.86 L316.11,75.81 L316.15,75.76 L316.20,75.72 L316.25,75.67 L316.30,75.62 L316.34,75.57 L316.39,75.52 L316.44,75.47 L316.48,75.41 L316.53,75.36 L316.58,75.31 L316.63,75.26 L316.67,75.21 L316.72,75.16 L316.77,75.11 L316.81,75.06 L316.86,75.01 L316.90,74.96 L316.95,74.91 L317.00,74.86 L317.04,74.81 L317.09,74.76 L317.14,74.71 L317.18,74.65 L317.23,74.60 L317.27,74.55 L317.32,74.50 L317.37,74.45 L317.41,74.40 L317.46,74.35 L317.50,74.29 L317.55,74.24 L317.59,74.19 L317.64,74.14 L317.68,74.09 L317.73,74.04 L317.77,73.98 L317.82,73.93 L317.86,73.88 L317.91,73.83 L317.95,73.78 L318.00,73.72 L318.04,73.67 L318.09,73.62 L318.13,73.57 L318.18,73.51 L318.22,73.46 L318.26,73.41 L318.31,73.35 L318.35,73.30 L318.40,73.25 L318.44,73.20 L318.48,73.14 L318.53,73.09 L318.57,73.04 L318.62,72.98 L318.66,72.93 L318.70,72.88 L318.75,72.82 L318.79,72.77 L318.83,72.72 L318.88,72.66 L318.92,72.61 L318.96,72.56 L319.01,72.50 L319.05,72.45 L319.09,72.40 L319.13,72.34 L319.18,72.29 L319.22,72.23 L319.26,72.18 L319.30,72.13 L319.35,72.07 L319.39,72.02 L319.43,71.96 L319.47,71.91 L319.52,71.85 L319.56,71.80 L319.60,71.74 L319.64,71.69 L319.68,71.64 L319.73,71.58 L319.77,71.53 L319.81,71.47 L319.85,71.42 L319.89,71.36 L319.93,71.31 L319.97,71.25 L320.02,71.20 L320.06,71.14 L320.10,71.09 L320.14,71.03 L320.18,70.98 L320.22,70.92 L320.26,70.86 L320.30,70.81 L320.34,70.75 L320.38,70.70 L320.42,70.64 L320.46,70.59 L320.50,70.53 L320.54,70.47 L320.58,70.42 L320.62,70.36 L320.66,70.31 L320.70,70.25 L320.74,70.19 L320.78,70.14 L320.82,70.08 L320.86,70.03 L320.90,69.97 L320.94,69.91 L320.98,69.86 L321.02,69.80 L321.06,69.74 L321.10,69.69 L321.14,69.63 L321.18,69.57 L321.21,69.52 L321.25,69.46 L321.29,69.40 L321.33,69.35 L321.37,69.29 L321.41,69.23 L321.45,69.18 L321.48,69.12 L321.52,69.06 L321.56,69.00 L321.60,68.95 L321.64,68.89 L321.67,68.83 L321.71,68.77 L321.75,68.72 L321.79,68.66 L321.83,68.60 L321.86,68.54 L321.90,68.49 L321.94,68.43 L321.98,68.37 L322.01,68.31 L322.05,68.25 L322.09,68.20 L322.12,68.14 L322.16,68.08 L322.20,68.02 L322.23,67.96 L322.27,67.91 L322.31,67.85 L322.34,67.79 L322.38,67.73 L322.42,67.67 L322.45,67.61 L322.49,67.55 L322.52,67.50 L322.56,67.44 L322.60,67.38 L322.63,67.32 L322.67,67.26 L322.70,67.20 L322.74,67.14 L322.77,67.08 L322.81,67.03 L322.84,66.97 L322.88,66.91 L322.92,66.85 L322.95,66.79 L322.99,66.73 L323.02,66.67 L323.05,66.61 L323.09,66.55 L323.12,66.49 L323.16,66.43 L323.19,66.37 L323.23,66.31 L323.26,66.25 L323.30,66.19 L323.33,66.13 L323.36,66.07 L323.40,66.02 L323.43,65.96 L323.47,65.90 L323.50,65.84 L323.53,65.78 L323.57,65.72 L323.60,65.66 L323.63,65.60 L323.67,65.53 L323.70,65.47 L323.73,65.41 L323.77,65.35 L323.80,65.29 L323.83,65.23 L323.86,65.17 L323.90,65.11 L323.93,65.05 L323.96,64.99 L324.00,64.93 L324.03,64.87 L324.06,64.81 L324.09,64.75 L324.12,64.69 L324.16,64.63 L324.19,64.57 L324.22,64.50 L324.25,64.44 L324.28,64.38 L324.32,64.32 L324.35,64.26 L324.38,64.20 L324.41,64.14 L324.44,64.08 L324.47,64.01 L324.50,63.95 L324.53,63.89 L324.57,63.83 L324.60,63.77 L324.63,63.71 L324.66,63.65 L324.69,63.58 L324.72,63.52 L324.75,63.46 L324.78,63.40 L324.81,63.34 L324.84,63.28 L324.87,63.21 L324.90,63.15 L324.93,63.09 L324.96,63.03 L324.99,62.97 L325.02,62.90 L325.05,62.84 L325.08,62.78 L325.11,62.72 L325.14,62.65 L325.17,62.59 L325.19,62.53 L325.22,62.47 L325.25,62.41 L325.28,62.34 L325.31,62.28 L325.34,62.22 L325.37,62.16 L325.40,62.09 L325.42,62.03 L325.45,61.97 L325.48,61.90 L325.51,61.84 L325.54,61.78 L325.57,61.72 L325.59,61.65 L325.62,61.59 L325.65,61.53 L325.68,61.46 L325.70,61.40 L325.73,61.34 L325.76,61.28 L325.79,61.21 L325.81,61.15 L325.84,61.09 L325.87,61.02 L325.89,60.96 L325.92,60.90 L325.95,60.83 L325.97,60.77 L326.00,60.71 L326.03,60.64 L326.05,60.58 L326.08,60.51 L326.11,60.45 L326.13,60.39 L326.16,60.32 L326.18,60.26 L326.21,60.20 L326.24,60.13 L326.26,60.07 L326.29,60.00 L326.31,59.94 L326.34,59.88 L326.36,59.81 L326.39,59.75 L326.41,59.69 L326.44,59.62 L326.46,59.56 L326.49,59.49 L326.51,59.43 L326.54,59.36 L326.56,59.30 L326.59,59.24 L326.61,59.17 L326.64,59.11 L326.66,59.04 L326.68,58.98 L326.71,58.91 L326.73,58.85 L326.76,58.78 L326.78,58.72 L326.80,58.66 L326.83,58.59 L326.85,58.53 L326.87,58.46 L326.90,58.40 L326.92,58.33 L326.94,58.27 L326.97,58.20 L326.99,58.14 L327.01,58.07 L327.04,58.01 L327.06,57.94 L327.08,57.88 L327.10,57.81 L327.13,57.75 L327.15,57.68 L327.17,57.62 L327.19,57.55 L327.22,57.49 L327.24,57.42 L327.26,57.36 L327.28,57.29 L327.30,57.23 L327.32,57.16 L327.35,57.10 L327.37,57.03 L327.39,56.97 L327.41,56.90 L327.43,56.83 L327.45,56.77 L327.47,56.70 L327.49,56.64 L327.52,56.57 L327.54,56.51 L327.56,56.44 L327.58,56.38 L327.60,56.31 L327.62,56.24 L327.64,56.18 L327.66,56.11 L327.68,56.05 L327.70,55.98 L327.72,55.92 L327.74,55.85 L327.76,55.78 L327.78,55.72 L327.80,55.65 L327.82,55.59 L327.84,55.52 L327.86,55.45 L327.87,55.39 L327.89,55.32 L327.91,55.26 L327.93,55.19 L327.95,55.12 L327.97,55.06 L327.99,54.99 L328.01,54.92 L328.02,54.86 L328.04,54.79 L328.06,54.73 L328.08,54.66 L328.10,54.59 L328.12,54.53 L328.13,54.46 L328.15,54.39 L328.17,54.33 L328.19,54.26 L328.20,54.19 L328.22,54.13 L328.24,54.06 L328.26,53.99 L328.27,53.93 L328.29,53.86 L328.31,53.79 L328.32,53.73 L328.34,53.66 L328.36,53.59 L328.37,53.53 L328.39,53.46 L328.41,53.39 L328.42,53.33 L328.44,53.26 L328.45,53.19 L328.47,53.13 L328.49,53.06 L328.50,52.99 L328.52,52.92 L328.53,52.86 L328.55,52.79 L328.56,52.72 L328.58,52.66 L328.60,52.59 L328.61,52.52 L328.63,52.46 L328.64,52.39 L328.66,52.32 L328.67,52.25 L328.69,52.19 L328.70,52.12 L328.71,52.05 L328.73,51.98 L328.74,51.92 L328.76,51.85 L328.77,51.78 L328.79,51.72 L328.80,51.65 L328.81,51.58 L328.83,51.51 L328.84,51.45 L328.85,51.38 L328.87,51.31 L328.88,51.24 L328.89,51.18 L328.91,51.11 L328.92,51.04 L328.93,50.97 L328.95,50.91 L328.96,50.84 L328.97,50.77 L328.98,50.70 L329.00,50.64 L329.01,50.57 L329.02,50.50 L329.03,50.43 L329.05,50.36 L329.06,50.30 L329.07,50.23 L329.08,50.16 L329.09,50.09 L329.11,50.03 L329.12,49.96 L329.13,49.89 L329.14,49.82 L329.15,49.75 L329.16,49.69 L329.17,49.62 L329.19,49.55 L329.20,49.48 L329.21,49.41 L329.22,49.35 L329.23,49.28 L329.24,49.21 L329.25,49.14 L329.26,49.07 L329.27,49.01 L329.28,48.94 L329.29,48.87 L329.30,48.80 L329.31,48.73 L329.32,48.67 L329.33,48.60 L329.34,48.53 L329.35,48.46 L329.36,48.39 L329.37,48.33 L329.38,48.26 L329.39,48.19 L329.39,48.12 L329.40,48.05 L329.41,47.98 L329.42,47.92 L329.43,47.85 L329.44,47.78 L329.45,47.71 L329.46,47.64 L329.46,47.58 L329.47,47.51 L329.48,47.44 L329.49,47.37 L329.50,47.30 L329.50,47.23 L329.51,47.17 L329.52,47.10 L329.53,47.03 L329.53,46.96 L329.54,46.89 L329.55,46.82 L329.56,46.75 L329.56,46.69 L329.57,46.62 L329.58,46.55 L329.58,46.48 L329.59,46.41 L329.60,46.34 L329.60,46.28 L329.61,46.21 L329.62,46.14 L329.62,46.07 L329.63,46.00 L329.63,45.93 L329.64,45.86 L329.65,45.80 L329.65,45.73 L329.66,45.66 L329.66,45.59 L329.67,45.52 L329.67,45.45 L329.68,45.38 L329.68,45.32 L329.69,45.25 L329.69,45.18 L329.70,45.11 L329.70,45.04 L329.71,44.97 L329.71,44.90 L329.72,44.84 L329.72,44.77 L329.73,44.70 L329.73,44.63 L329.73,44.56 L329.74,44.49 L329.74,44.42 L329.74,44.35 L329.75,44.29 L329.75,44.22 L329.76,44.15 L329.76,44.08 L329.76,44.01 L329.77,43.94 L329.77,43.87 L329.77,43.80 L329.77,43.74 L329.78,43.67 L329.78,43.60 L329.78,43.53 L329.79,43.46 L329.79,43.39 L329.79,43.32 L329.79,43.25 L329.79,43.19 L329.80,43.12 L329.80,43.05 L329.80,42.98 L329.80,42.91 L329.80,42.84 L329.81,42.77 L329.81,42.70 L329.81,42.64 L329.81,42.57 L329.81,42.50 L329.81,42.43 L329.81,42.36 L329.81,42.29 L329.81,42.22 L329.82,42.15 L329.82,42.09 L329.82,42.02 L329.82,41.95 L329.82,41.88 L329.82,41.81 L329.82,41.74 L329.82,41.67 L329.82,41.67" style="stroke-width: 2; stroke: rgb(0, 0, 0); stroke-opacity: 1; stroke-dasharray: 7.5, 6;"/><g><g class="arrow-line"><path class="vector-plot real" stroke-dasharray="" d="  M329.82,41.67 L484.52,41.67" style="stroke: rgb(0, 0, 0); stroke-opacity: 1; stroke-width: 2;"/></g></g><g><g class="arrow-line"><path class="vector-plot real" stroke-dasharray="" d="  M416.5,7.66 L552.54,75.68" style="stroke: rgb(0, 0, 0); stroke-opacity: 1; stroke-width: 2;"/></g></g><g><g class="arrow-line"><path class="vector-plot real" stroke-dasharray="" d="  M552.54,347.77 L552.54,75.68" style="stroke: rgb(0, 0, 0); stroke-opacity: 1; stroke-width: 2;"/></g></g><g><g class="arrow-line"><path class="vector-plot real" stroke-dasharray="" d="  M280.46,41.67 L280.46,7.66" style="stroke: rgb(0, 0, 0); stroke-opacity: 1; stroke-width: 1;"/></g></g><g><g class="arrow-line"><path class="vector-plot real" stroke-dasharray="" d="  M263.45,24.67 L297.46,24.67" style="stroke: rgb(0, 0, 0); stroke-opacity: 1; stroke-width: 1;"/></g></g><g><circle cx="280.4557868658159" cy="91.03458220036771" r="2.5" style="stroke-width: 3; stroke: rgb(0, 0, 0); stroke-opacity: 1; fill: rgb(0, 0, 0); fill-opacity: 1;"/></g><g><circle cx="280.4557868658159" cy="41.67250262237678" r="4" style="stroke-width: 3; stroke: rgb(0, 0, 0); stroke-opacity: 1; fill: rgb(0, 0, 0); fill-opacity: 1;"/></g><g><g class="arrow-line"><path class="vector-plot real" stroke-dasharray="" d="  M327.82,364.77 L95.57,364.77" style="stroke: rgb(0, 0, 0); stroke-opacity: 1; stroke-width: 1;"/><g stroke="none" fill="rgb(0,0,0)" fill-opacity="1" transform="matrix(1,-2.4492935982947064e-16,2.4492935982947064e-16,1,93.56836073835744,364.77443890021533)" style="stroke: none; fill: rgb(0, 0, 0); stroke-width: 1;"><path d=" M12,-3 L0,0 L12,3 Z"/></g><g stroke="none" fill="rgb(0,0,0)" fill-opacity="1" transform="matrix(-1,1.2246467991473532e-16,-1.2246467991473532e-16,-1,329.8178664438068,364.7744389002153)" style="stroke: none; fill: rgb(0, 0, 0); stroke-width: 1;"><path d=" M12,-3 L0,0 L12,3 Z"/></g></g></g></g></g><rect class="real" x="1" y="1" width="562.0000000000001" height="381.33333333333326" style="fill: transparent; stroke: none;"/></g></g></g><g/></g><g/><g/><g/></svg>
        <svg xmlns="http://www.w3.org/2000/svg" xmlns:xlink="http://www.w3.org/1999/xlink" width="660" height="393.3046875" style="width:660px;height:393.3046875px;font-family:Asana-Math, Asana;background:transparent;"><g><g><g><g transform="matrix(1,0,0,1,391.1640625,205.328125)"><path transform="matrix(0.017,0,0,-0.017,0,0)" d="M236 722L224 733C179 711 138 697 64 691L60 670L108 670C126 670 142 667 142 647C142 641 142 632 140 622L98 388C78 272 36 80 10 2L17 -9L86 7C94 64 108 164 148 236C193 317 296 414 338 414C349 414 360 407 360 393C360 375 355 342 345 303L294 107C288 85 281 55 281 31C281 6 291 -9 312 -9C344 -9 412 41 471 85L461 103L435 86C412 71 386 56 374 56C367 56 361 65 361 76C361 88 364 101 368 116L432 372C438 398 443 423 443 447C443 464 437 482 411 482C376 482 299 437 231 374C198 343 172 308 144 273L140 275Z" stroke="rgb(0,0,0)" stroke-opacity="1" stroke-width="8" fill="rgb(0,0,0)" fill-opacity="1"></path></g></g></g></g><g><g><g><g transform="matrix(1,0,0,1,174.5,166.6640625)"><path transform="matrix(0.017,0,0,-0.017,0,0)" d="M310 96L239 624C237 646 241 661 281 662L323 664L323 692L282 691C245 690 217 689 199 689C181 689 153 690 116 691L75 692L75 664L100 662C144 659 152 651 159 614L247 -8L296 -8L674 611C699 651 707 658 736 662L754 664L754 692L724 691C697 690 674 689 658 689C648 689 621 690 580 691L534 692L534 664L560 662C598 659 617 649 617 630C617 619 613 608 601 588Z" stroke="rgb(0,0,0)" stroke-opacity="1" stroke-width="8" fill="rgb(0,0,0)" fill-opacity="1"></path></g></g></g></g><g><g><g><g transform="matrix(1,0,0,1,173.828125,334.6640625)"><path transform="matrix(0.017,0,0,-0.017,0,0)" d="M237 -16C473 -16 572 316 576 504C578 618 546 702 419 702C159 702 72 412 69 199C67 80 101 -16 237 -16ZM401 676C536 676 506 491 485 381L169 381C194 485 272 676 401 676ZM253 13C102 13 147 261 163 349L479 349C454 237 396 13 253 13Z" stroke="rgb(0,0,0)" stroke-opacity="1" stroke-width="8" fill="rgb(0,0,0)" fill-opacity="1"></path></g></g></g></g><g><g><g><g transform="matrix(1,0,0,1,255.1640625,383.6640625)"><path transform="matrix(0.017,0,0,-0.017,0,0)" d="M9 1C24 -7 40 -11 52 -11C85 -11 124 18 155 65L231 182L242 113C255 28 278 -11 314 -11C336 -11 368 6 400 35L449 79L440 98C404 68 379 53 363 53C348 53 335 63 325 83C316 102 305 139 300 168L282 269L317 318C364 383 391 406 422 406C438 406 450 398 455 383L469 387L484 472C472 479 463 482 454 482C414 482 374 446 312 354L275 299L269 347C257 446 230 482 171 482C145 482 123 474 114 461L56 378L73 368C103 402 123 416 142 416C175 416 197 375 214 277L225 215L185 153C142 86 108 54 80 54C65 54 54 58 52 63L41 91L21 88C21 53 13 27 9 1Z" stroke="rgb(0,0,0)" stroke-opacity="1" stroke-width="8" fill="rgb(0,0,0)" fill-opacity="1"></path></g></g></g></g><g><g><g><g transform="matrix(1,0,0,1,299.1640625,75.328125)"><path transform="matrix(0.017,0,0,-0.017,0,0)" d="M368 365C371 403 376 435 384 476C373 481 369 482 364 482C333 482 302 458 266 407C227 351 188 291 172 256L204 408C208 425 210 438 210 450C210 470 202 482 187 482C166 482 128 461 54 408L26 388L33 368L65 389C93 407 104 412 113 412C123 412 130 403 130 390C130 332 87 126 47 -2L57 -9C72 -4 88 -1 111 4L124 6L150 126C168 209 191 262 235 319C269 363 296 384 318 384C333 384 343 379 354 365Z" stroke="rgb(0,0,0)" stroke-opacity="1" stroke-width="8" fill="rgb(0,0,0)" fill-opacity="1"></path></g></g></g></g></svg>
</svg>
