<svg xmlns="http://www.w3.org/2000/svg" xmlns:xlink="http://www.w3.org/1999/xlink" x="0" y="0" width="662" height="285.5" style="
        width:662px;
        height:285.5px;
        background: transparent;
        fill: none;
">
        
        
        <svg xmlns="http://www.w3.org/2000/svg" class="role-diagram-draw-area"><g class="shapes-region" style="stroke: black; fill: none;"><g class="composite-shape"><path class="real" d=" M403,43.5 L403,225.5 L357.64,225.5 C358.83,227.74 359.5,230.29 359.5,233 C359.5,241.84 352.34,249 343.5,249 C334.66,249 327.5,241.84 327.5,233 C327.5,230.29 328.17,227.74 329.36,225.5 L203.64,225.5 C204.83,227.74 205.5,230.29 205.5,233 C205.5,241.84 198.34,249 189.5,249 C180.66,249 173.5,241.84 173.5,233 C173.5,230.29 174.17,227.74 175.36,225.5 L139,225.5 L139,43.5 L403,43.5 Z" style="stroke-width: 3; stroke: rgb(0, 0, 0); fill: none; fill-opacity: 1;"/></g><g class="composite-shape"><path class="real" d=" M606,54.25 C606,53.84 606.34,53.5 606.75,53.5 C607.16,53.5 607.5,53.84 607.5,54.25 C607.5,54.66 607.16,55 606.75,55 C606.34,55 606,54.66 606,54.25 Z" style="stroke-width: 3; stroke: rgb(0, 0, 0); fill: rgb(0, 0, 0); fill-opacity: 1;"/></g><g class="composite-shape"><path class="real" d=" M607.5,29.25 C621.31,29.25 632.5,40.44 632.5,54.25 C632.5,68.06 621.31,79.25 607.5,79.25 C595.67,79.25 585.76,71.04 583.16,60 L403,60 L403,48.5 L583.16,48.5 C585.76,37.46 595.67,29.25 607.5,29.25 Z" style="stroke-width: 3; stroke: rgb(0, 0, 0); fill: none; fill-opacity: 1;"/></g><g class="composite-shape"><path class="real" d=" M606.75,48.5 C609.93,48.5 612.5,51.07 612.5,54.25 L612.5,54.25 C612.5,57.43 609.93,60 606.75,60 L403,60 C403,60 403,60 403,60 L403,48.5 C403,48.5 403,48.5 403,48.5 Z" style="stroke-width: 3; stroke: rgb(0, 0, 0); fill: none; fill-opacity: 1;"/></g><g class="composite-shape"><path class="real" d=" M606,54.25 C606,53.84 606.34,53.5 606.75,53.5 C607.16,53.5 607.5,53.84 607.5,54.25 C607.5,54.66 607.16,55 606.75,55 C606.34,55 606,54.66 606,54.25 Z" style="stroke-width: 3; stroke: rgb(0, 0, 0); fill: rgb(0, 0, 0); fill-opacity: 1;"/></g><g class="arrow-line"><path class="connection real" stroke-dasharray="" d="  M216.5,29.25 L607.5,29.25" style="stroke: rgb(0, 0, 0); stroke-width: 3; fill: none; fill-opacity: 1;"/></g><g class="composite-shape"><path class="real" d=" M173.5,233 C173.5,224.16 180.66,217 189.5,217 C198.34,217 205.5,224.16 205.5,233 C205.5,241.84 198.34,249 189.5,249 C180.66,249 173.5,241.84 173.5,233 Z" style="stroke-width: 3; stroke: rgb(0, 0, 0); fill: none; fill-opacity: 1;"/></g><g class="composite-shape"><path class="real" d=" M327.5,233 C327.5,224.16 334.66,217 343.5,217 C352.34,217 359.5,224.16 359.5,233 C359.5,241.84 352.34,249 343.5,249 C334.66,249 327.5,241.84 327.5,233 Z" style="stroke-width: 3; stroke: rgb(0, 0, 0); fill: none; fill-opacity: 1;"/></g><g class="composite-shape"><path class="real" d=" M163.5,7.5 L216.5,7.5 L216.5,32.5 L163.5,32.5 Z" style="stroke-width: 2; stroke: rgb(0, 0, 0); fill: none; fill-opacity: 1;"/></g><g class="composite-shape"><path class="real" d=" M166.25,38 C166.25,34.96 168.71,32.5 171.75,32.5 C174.79,32.5 177.25,34.96 177.25,38 C177.25,41.04 174.79,43.5 171.75,43.5 C168.71,43.5 166.25,41.04 166.25,38 Z" style="stroke-width: 1; stroke: rgb(0, 0, 0); fill: none; fill-opacity: 1;"/></g><g class="composite-shape"><path class="real" d=" M200.25,38 C200.25,34.96 202.71,32.5 205.75,32.5 C208.79,32.5 211.25,34.96 211.25,38 C211.25,41.04 208.79,43.5 205.75,43.5 C202.71,43.5 200.25,41.04 200.25,38 Z" style="stroke-width: 1; stroke: rgb(0, 0, 0); fill: none; fill-opacity: 1;"/></g><g class="grouped-shape"><g class="arrow-line"><path class="connection real" stroke-dasharray="" d="  M563.01,124.01 L624.29,72.59" style="stroke: rgb(0, 0, 0); stroke-width: 3; fill: none; fill-opacity: 1;"/></g><g class="composite-shape"><path class="real" d=" M573.03,135.18 L549.67,154.79 L530.07,131.42 L553.43,111.82 Z" style="stroke-width: 2; stroke: rgb(0, 0, 0); fill: none; fill-opacity: 1;"/></g></g><g class="arrow-line"><path class="connection real" stroke-dasharray="" d="  M33.5,134 L132.5,134" style="stroke: rgb(0, 0, 0); stroke-width: 3; fill: none; fill-opacity: 1;"/><g stroke="none" fill="#000" transform="matrix(-1,1.2246467991473532e-16,-1.2246467991473532e-16,-1,138.49999999999997,134.00000000000003)" style="stroke: none; fill: rgb(0, 0, 0); stroke-width: 3;"><path d=" M19.2,-4.8 L0,0 L19.2,4.8 Z"/></g></g><g/></g><g/><g/><g/></svg>
        <svg xmlns="http://www.w3.org/2000/svg" xmlns:xlink="http://www.w3.org/1999/xlink" width="660" height="283.5" style="width:660px;height:283.5px;font-family:Asana-Math, Asana;background:transparent;"><g><g><g><g transform="matrix(1,0,0,1,180.5,25)"><path transform="matrix(0.017,0,0,-0.017,0,0)" d="M730 103L704 86C675 67 653 56 643 56C636 56 630 65 630 76C630 86 632 95 637 116L712 413C716 430 719 446 719 454C719 471 709 482 693 482C664 482 626 464 565 421C502 376 467 341 418 272L448 409C452 429 455 444 455 451C455 470 445 482 429 482C399 482 353 460 298 418C254 384 234 363 169 275L202 408C206 424 208 439 208 451C208 470 199 482 185 482C164 482 126 461 52 408L24 388L31 368C68 391 103 414 110 414C121 414 128 404 128 389C128 338 87 145 46 2L49 -9L117 6L139 108C163 219 190 278 245 338C287 384 332 414 360 414C367 414 371 406 371 393C371 358 349 244 308 69L292 2L297 -9L366 6L387 113C403 194 437 269 481 318C536 379 586 414 618 414C626 414 631 405 631 389C631 365 628 351 606 264C566 105 550 84 550 31C550 6 561 -9 580 -9C606 -9 642 12 740 85Z" stroke="rgb(0,0,0)" stroke-opacity="1" stroke-width="8" fill="rgb(0,0,0)" fill-opacity="1"></path></g></g><g><g><g><g><g transform="matrix(1,0,0,1,194.21875,28.5015625)"><path transform="matrix(0.0119,0,0,-0.0119,0,0)" d="M418 -3L418 27L366 30C311 33 301 44 301 96L301 700L60 598L67 548L217 614L217 96C217 44 206 33 152 30L96 27L96 -3C250 0 250 0 261 0C292 0 402 -3 418 -3Z" stroke="rgb(0,0,0)" stroke-opacity="1" stroke-width="8" fill="rgb(0,0,0)" fill-opacity="1"></path></g></g></g></g></g></g></g><g><g><g><g transform="matrix(1,0,0,1,541.5,137.5)"><path transform="matrix(0.017,0,0,-0.017,0,0)" d="M730 103L704 86C675 67 653 56 643 56C636 56 630 65 630 76C630 86 632 95 637 116L712 413C716 430 719 446 719 454C719 471 709 482 693 482C664 482 626 464 565 421C502 376 467 341 418 272L448 409C452 429 455 444 455 451C455 470 445 482 429 482C399 482 353 460 298 418C254 384 234 363 169 275L202 408C206 424 208 439 208 451C208 470 199 482 185 482C164 482 126 461 52 408L24 388L31 368C68 391 103 414 110 414C121 414 128 404 128 389C128 338 87 145 46 2L49 -9L117 6L139 108C163 219 190 278 245 338C287 384 332 414 360 414C367 414 371 406 371 393C371 358 349 244 308 69L292 2L297 -9L366 6L387 113C403 194 437 269 481 318C536 379 586 414 618 414C626 414 631 405 631 389C631 365 628 351 606 264C566 105 550 84 550 31C550 6 561 -9 580 -9C606 -9 642 12 740 85Z" stroke="rgb(0,0,0)" stroke-opacity="1" stroke-width="8" fill="rgb(0,0,0)" fill-opacity="1"></path></g></g><g><g><g><g><g transform="matrix(1,0,0,1,555.21875,141.0015625)"><path transform="matrix(0.0119,0,0,-0.0119,0,0)" d="M16 23L16 -3C203 -3 203 0 239 0C275 0 275 -3 468 -3L468 82C353 77 307 81 122 77L304 270C401 373 431 428 431 503C431 618 353 689 226 689C154 689 105 669 56 619L39 483L68 483L81 529C97 587 133 612 200 612C286 612 341 558 341 473C341 398 299 324 186 204Z" stroke="rgb(0,0,0)" stroke-opacity="1" stroke-width="8" fill="rgb(0,0,0)" fill-opacity="1"></path></g></g></g></g></g></g></g><g><g><g><g transform="matrix(1,0,0,1,257,141)"><path transform="matrix(0.017,0,0,-0.017,0,0)" d="M937 664L950 695C922 699 775 701 773 692L688 536L442 114L292 692C269 686 146 690 125 692L122 664L148 662C200 658 218 648 218 622C218 616 72 100 70 93C54 41 39 28 -16 23L-19 -3L20 -2C54 -1 79 0 93 0C107 0 133 -1 168 -2L203 -3L206 25L168 28C136 30 119 40 119 55C119 65 121 78 126 96L250 560L399 -18L422 -18L479 86L718 500L770 587L733 67C729 39 717 32 666 28L635 25L632 -3L679 -2C721 -1 751 0 766 0C782 0 812 -1 853 -2L899 -3L902 25L865 28C829 31 811 42 811 63L812 100L853 631C855 650 870 660 899 662Z" stroke="rgb(0,0,0)" stroke-opacity="1" stroke-width="8" fill="rgb(0,0,0)" fill-opacity="1"></path></g></g></g></g><g><g><g><g transform="matrix(1,0,0,1,41.5,128)"><path transform="matrix(0.017,0,0,-0.017,0,0)" d="M286 646L392 650C454 650 494 641 495 626L503 537L527 537C530 600 537 651 548 689C526 691 498 692 481 692L440 691L275 689L246 689C221 689 181 690 143 691L94 692L91 664L147 662C171 661 182 652 182 635C182 621 178 589 173 559L98 125C81 33 81 32 40 28L4 25L0 -3L34 -2C74 -1 106 0 127 0C145 0 174 -1 213 -2L265 -3L268 25L204 28C177 29 168 37 168 57C168 63 169 74 170 78L206 301L323 301C350 301 381 300 429 298L455 297L474 342L470 349C389 345 329 343 251 343L214 343L260 614C263 630 264 635 269 646Z" stroke="rgb(0,0,0)" stroke-opacity="1" stroke-width="8" fill="rgb(0,0,0)" fill-opacity="1"></path></g></g></g></g><g><g><g><text x="297" y="262.5" style="white-space:pre;stroke:none;fill:rgb(0,0,0);fill-opacity:1;font-size:15px;font-family:Arial, Helvetica, sans-serif;font-weight:400;font-style:normal;dominant-baseline:text-before-edge;text-decoration:none solid rgb(0, 0, 0);">Figure 5-4</text></g></g></g></svg>
</svg>
