<svg xmlns="http://www.w3.org/2000/svg" xmlns:xlink="http://www.w3.org/1999/xlink" x="0" y="0" width="702" height="86.65625" style="
        width:702px;
        height:86.65625px;
        background: transparent;
        fill: none;
">
        
        
        <svg xmlns="http://www.w3.org/2000/svg" class="role-diagram-draw-area" style="overflow: visible;"><g class="shapes-region" style="stroke: black; fill: none;"><g class="composite-shape" data-amt="diagram/shapes/plot" transform="matrix(1,0,0,1,1.3333333333333712,-101.66666666666652)"><g><g/><g><g class="test-plot-expression"><defs><clipPath id="cpny4pk0swydg-full-view"><rect x="1" y="1" width="655.6666666666666" height="268"/></clipPath></defs><g clip-path="url(#cpny4pk0swydg-full-view)"><path d=" M82.48,143.30 L82.93,143.21 L83.38,143.12 L83.84,143.03 L84.29,142.94 L84.74,142.85 L85.19,142.76 L85.65,142.67 L86.10,142.58 L86.55,142.49 L87.00,142.40 L87.45,142.31 L87.91,142.22 L88.36,142.13 L88.81,142.04 L89.26,141.96 L89.72,141.87 L90.17,141.78 L90.62,141.69 L91.07,141.60 L91.52,141.51 L91.98,141.43 L92.43,141.34 L92.88,141.25 L93.33,141.16 L93.79,141.07 L94.24,140.99 L94.69,140.90 L95.14,140.81 L95.59,140.72 L96.05,140.64 L96.50,140.55 L96.95,140.46 L97.40,140.38 L97.86,140.29 L98.31,140.20 L98.76,140.12 L99.21,140.03 L99.66,139.95 L100.12,139.86 L100.57,139.77 L101.02,139.69 L101.47,139.60 L101.93,139.52 L102.38,139.43 L102.83,139.35 L103.28,139.26 L103.74,139.18 L104.19,139.09 L104.64,139.01 L105.09,138.92 L105.54,138.84 L106.00,138.75 L106.45,138.67 L106.90,138.58 L107.35,138.50 L107.81,138.41 L108.26,138.33 L108.71,138.25 L109.16,138.16 L109.61,138.08 L110.07,138.00 L110.52,137.91 L110.97,137.83 L111.42,137.75 L111.88,137.66 L112.33,137.58 L112.78,137.50 L113.23,137.42 L113.68,137.33 L114.14,137.25 L114.59,137.17 L115.04,137.09 L115.49,137.00 L115.95,136.92 L116.40,136.84 L116.85,136.76 L117.30,136.68 L117.75,136.59 L118.21,136.51 L118.66,136.43 L119.11,136.35 L119.56,136.27 L120.02,136.19 L120.47,136.11 L120.92,136.03 L121.37,135.95 L121.82,135.87 L122.28,135.79 L122.73,135.71 L123.18,135.63 L123.63,135.55 L124.09,135.47 L124.54,135.39 L124.99,135.31 L125.44,135.23 L125.89,135.15 L126.35,135.07 L126.80,134.99 L127.25,134.91 L127.70,134.83 L128.16,134.75 L128.61,134.67 L129.06,134.59 L129.51,134.52 L129.96,134.44 L130.42,134.36 L130.87,134.28 L131.32,134.20 L131.77,134.13 L132.23,134.05 L132.68,133.97 L133.13,133.89 L133.58,133.81 L134.03,133.74 L134.49,133.66 L134.94,133.58 L135.39,133.51 L135.84,133.43 L136.30,133.35 L136.75,133.28 L137.20,133.20 L137.65,133.12 L138.11,133.05 L138.56,132.97 L139.01,132.89 L139.46,132.82 L139.91,132.74 L140.37,132.67 L140.82,132.59 L141.27,132.51 L141.72,132.44 L142.18,132.36 L142.63,132.29 L143.08,132.21 L143.53,132.14 L143.98,132.06 L144.44,131.99 L144.89,131.91 L145.34,131.84 L145.79,131.77 L146.25,131.69 L146.70,131.62 L147.15,131.54 L147.60,131.47 L148.05,131.40 L148.51,131.32 L148.96,131.25 L149.41,131.18 L149.86,131.10 L150.32,131.03 L150.77,130.96 L151.22,130.88 L151.67,130.81 L152.12,130.74 L152.58,130.66 L153.03,130.59 L153.48,130.52 L153.93,130.45 L154.39,130.37 L154.84,130.30 L155.29,130.23 L155.74,130.16 L156.19,130.09 L156.65,130.02 L157.10,129.94 L157.55,129.87 L158.00,129.80 L158.46,129.73 L158.91,129.66 L159.36,129.59 L159.81,129.52 L160.26,129.45 L160.72,129.38 L161.17,129.31 L161.62,129.24 L162.07,129.17 L162.53,129.10 L162.98,129.03 L163.43,128.96 L163.88,128.89 L164.33,128.82 L164.79,128.75 L165.24,128.68 L165.69,128.61 L166.14,128.54 L166.60,128.47 L167.05,128.40 L167.50,128.33 L167.95,128.26 L168.40,128.19 L168.86,128.13 L169.31,128.06 L169.76,127.99 L170.21,127.92 L170.67,127.85 L171.12,127.78 L171.57,127.72 L172.02,127.65 L172.47,127.58 L172.93,127.51 L173.38,127.45 L173.83,127.38 L174.28,127.31 L174.74,127.25 L175.19,127.18 L175.64,127.11 L176.09,127.05 L176.55,126.98 L177.00,126.91 L177.45,126.85 L177.90,126.78 L178.35,126.71 L178.81,126.65 L179.26,126.58 L179.71,126.52 L180.16,126.45 L180.62,126.39 L181.07,126.32 L181.52,126.25 L181.97,126.19 L182.42,126.12 L182.88,126.06 L183.33,125.99 L183.78,125.93 L184.23,125.87 L184.69,125.80 L185.14,125.74 L185.59,125.67 L186.04,125.61 L186.49,125.54 L186.95,125.48 L187.40,125.42 L187.85,125.35 L188.30,125.29 L188.76,125.23 L189.21,125.16 L189.66,125.10 L190.11,125.04 L190.56,124.97 L191.02,124.91 L191.47,124.85 L191.92,124.79 L192.37,124.72 L192.83,124.66 L193.28,124.60 L193.73,124.54 L194.18,124.47 L194.63,124.41 L195.09,124.35 L195.54,124.29 L195.99,124.23 L196.44,124.17 L196.90,124.10 L197.35,124.04 L197.80,123.98 L198.25,123.92 L198.70,123.86 L199.16,123.80 L199.61,123.74 L200.06,123.68 L200.51,123.62 L200.97,123.56 L201.42,123.50 L201.87,123.44 L202.32,123.38 L202.77,123.32 L203.23,123.26 L203.68,123.20 L204.13,123.14 L204.58,123.08 L205.04,123.02 L205.49,122.96 L205.94,122.90 L206.39,122.84 L206.84,122.78 L207.30,122.72 L207.75,122.67 L208.20,122.61 L208.65,122.55 L209.11,122.49 L209.56,122.43 L210.01,122.37 L210.46,122.32 L210.92,122.26 L211.37,122.20 L211.82,122.14 L212.27,122.09 L212.72,122.03 L213.18,121.97 L213.63,121.91 L214.08,121.86 L214.53,121.80 L214.99,121.74 L215.44,121.69 L215.89,121.63 L216.34,121.57 L216.79,121.52 L217.25,121.46 L217.70,121.41 L218.15,121.35 L218.60,121.29 L219.06,121.24 L219.51,121.18 L219.96,121.13 L220.41,121.07 L220.86,121.02 L221.32,120.96 L221.77,120.91 L222.22,120.85 L222.67,120.80 L223.13,120.74 L223.58,120.69 L224.03,120.63 L224.48,120.58 L224.93,120.52 L225.39,120.47 L225.84,120.42 L226.29,120.36 L226.74,120.31 L227.20,120.26 L227.65,120.20 L228.10,120.15 L228.55,120.10 L229.00,120.04 L229.46,119.99 L229.91,119.94 L230.36,119.88 L230.81,119.83 L231.27,119.78 L231.72,119.73 L232.17,119.67 L232.62,119.62 L233.07,119.57 L233.53,119.52 L233.98,119.46 L234.43,119.41 L234.88,119.36 L235.34,119.31 L235.79,119.26 L236.24,119.21 L236.69,119.16 L237.14,119.10 L237.60,119.05 L238.05,119.00 L238.50,118.95 L238.95,118.90 L239.41,118.85 L239.86,118.80 L240.31,118.75 L240.76,118.70 L241.21,118.65 L241.67,118.60 L242.12,118.55 L242.57,118.50 L243.02,118.45 L243.48,118.40 L243.93,118.35 L244.38,118.30 L244.83,118.25 L245.29,118.20 L245.74,118.16 L246.19,118.11 L246.64,118.06 L247.09,118.01 L247.55,117.96 L248.00,117.91 L248.45,117.86 L248.90,117.82 L249.36,117.77 L249.81,117.72 L250.26,117.67 L250.71,117.63 L251.16,117.58 L251.62,117.53 L252.07,117.48 L252.52,117.44 L252.97,117.39 L253.43,117.34 L253.88,117.29 L254.33,117.25 L254.78,117.20 L255.23,117.16 L255.69,117.11 L256.14,117.06 L256.59,117.02 L257.04,116.97 L257.50,116.92 L257.95,116.88 L258.40,116.83 L258.85,116.79 L259.30,116.74 L259.76,116.70 L260.21,116.65 L260.66,116.61 L261.11,116.56 L261.57,116.52 L262.02,116.47 L262.47,116.43 L262.92,116.38 L263.37,116.34 L263.83,116.29 L264.28,116.25 L264.73,116.21 L265.18,116.16 L265.64,116.12 L266.09,116.07 L266.54,116.03 L266.99,115.99 L267.44,115.94 L267.90,115.90 L268.35,115.86 L268.80,115.81 L269.25,115.77 L269.71,115.73 L270.16,115.69 L270.61,115.64 L271.06,115.60 L271.51,115.56 L271.97,115.52 L272.42,115.47 L272.87,115.43 L273.32,115.39 L273.78,115.35 L274.23,115.31 L274.68,115.27 L275.13,115.22 L275.58,115.18 L276.04,115.14 L276.49,115.10 L276.94,115.06 L277.39,115.02 L277.85,114.98 L278.30,114.94 L278.75,114.90 L279.20,114.86 L279.65,114.82 L280.11,114.78 L280.56,114.74 L281.01,114.70 L281.46,114.66 L281.92,114.62 L282.37,114.58 L282.82,114.54 L283.27,114.50 L283.73,114.46 L284.18,114.42 L284.63,114.38 L285.08,114.34 L285.53,114.30 L285.99,114.26 L286.44,114.23 L286.89,114.19 L287.34,114.15 L287.80,114.11 L288.25,114.07 L288.70,114.03 L289.15,114.00 L289.60,113.96 L290.06,113.92 L290.51,113.88 L290.96,113.85 L291.41,113.81 L291.87,113.77 L292.32,113.74 L292.77,113.70 L293.22,113.66 L293.67,113.62 L294.13,113.59 L294.58,113.55 L295.03,113.52 L295.48,113.48 L295.94,113.44 L296.39,113.41 L296.84,113.37 L297.29,113.34 L297.74,113.30 L298.20,113.26 L298.65,113.23 L299.10,113.19 L299.55,113.16 L300.01,113.12 L300.46,113.09 L300.91,113.05 L301.36,113.02 L301.81,112.98 L302.27,112.95 L302.72,112.91 L303.17,112.88 L303.62,112.85 L304.08,112.81 L304.53,112.78 L304.98,112.74 L305.43,112.71 L305.88,112.68 L306.34,112.64 L306.79,112.61 L307.24,112.58 L307.69,112.54 L308.15,112.51 L308.60,112.48 L309.05,112.45 L309.50,112.41 L309.95,112.38 L310.41,112.35 L310.86,112.32 L311.31,112.28 L311.76,112.25 L312.22,112.22 L312.67,112.19 L313.12,112.16 L313.57,112.12 L314.02,112.09 L314.48,112.06 L314.93,112.03 L315.38,112.00 L315.83,111.97 L316.29,111.94 L316.74,111.91 L317.19,111.88 L317.64,111.84 L318.10,111.81 L318.55,111.78 L319.00,111.75 L319.45,111.72 L319.90,111.69 L320.36,111.66 L320.81,111.63 L321.26,111.60 L321.71,111.57 L322.17,111.54 L322.62,111.52 L323.07,111.49 L323.52,111.46 L323.97,111.43 L324.43,111.40 L324.88,111.37 L325.33,111.34 L325.78,111.31 L326.24,111.29 L326.69,111.26 L327.14,111.23 L327.59,111.20 L328.04,111.17 L328.50,111.14 L328.95,111.12 L329.40,111.09 L329.85,111.06 L330.31,111.03 L330.76,111.01 L331.21,110.98 L331.66,110.95 L332.11,110.93 L332.57,110.90 L333.02,110.87 L333.47,110.85 L333.92,110.82 L334.38,110.79 L334.83,110.77 L335.28,110.74 L335.73,110.72 L336.18,110.69 L336.64,110.66 L337.09,110.64 L337.54,110.61 L337.99,110.59 L338.45,110.56 L338.90,110.54 L339.35,110.51 L339.80,110.49 L340.25,110.46 L340.71,110.44 L341.16,110.41 L341.61,110.39 L342.06,110.36 L342.52,110.34 L342.97,110.32 L343.42,110.29 L343.87,110.27 L344.32,110.24 L344.78,110.22 L345.23,110.20 L345.68,110.17 L346.13,110.15 L346.59,110.13 L347.04,110.10 L347.49,110.08 L347.94,110.06 L348.39,110.03 L348.85,110.01 L349.30,109.99 L349.75,109.97 L350.20,109.94 L350.66,109.92 L351.11,109.90 L351.56,109.88 L352.01,109.86 L352.46,109.84 L352.92,109.81 L353.37,109.79 L353.82,109.77 L354.27,109.75 L354.73,109.73 L355.18,109.71 L355.63,109.69 L356.08,109.67 L356.54,109.64 L356.99,109.62 L357.44,109.60 L357.89,109.58 L358.34,109.56 L358.80,109.54 L359.25,109.52 L359.70,109.50 L360.15,109.48 L360.61,109.46 L361.06,109.44 L361.51,109.42 L361.96,109.41 L362.41,109.39 L362.87,109.37 L363.32,109.35 L363.77,109.33 L364.22,109.31 L364.68,109.29 L365.13,109.27 L365.58,109.26 L366.03,109.24 L366.48,109.22 L366.94,109.20 L367.39,109.18 L367.84,109.17 L368.29,109.15 L368.75,109.13 L369.20,109.11 L369.65,109.10 L370.10,109.08 L370.55,109.06 L371.01,109.04 L371.46,109.03 L371.91,109.01 L372.36,108.99 L372.82,108.98 L373.27,108.96 L373.72,108.94 L374.17,108.93 L374.62,108.91 L375.08,108.90 L375.53,108.88 L375.98,108.86 L376.43,108.85 L376.89,108.83 L377.34,108.82 L377.79,108.80 L378.24,108.79 L378.69,108.77 L379.15,108.76 L379.60,108.74 L380.05,108.73 L380.50,108.71 L380.96,108.70 L381.41,108.68 L381.86,108.67 L382.31,108.66 L382.76,108.64 L383.22,108.63 L383.67,108.61 L384.12,108.60 L384.57,108.59 L385.03,108.57 L385.48,108.56 L385.93,108.55 L386.38,108.53 L386.83,108.52 L387.29,108.51 L387.74,108.50 L388.19,108.48 L388.64,108.47 L389.10,108.46 L389.55,108.45 L390.00,108.43 L390.45,108.42 L390.91,108.41 L391.36,108.40 L391.81,108.39 L392.26,108.37 L392.71,108.36 L393.17,108.35 L393.62,108.34 L394.07,108.33 L394.52,108.32 L394.98,108.31 L395.43,108.30 L395.88,108.29 L396.33,108.28 L396.78,108.27 L397.24,108.26 L397.69,108.24 L398.14,108.23 L398.59,108.22 L399.05,108.22 L399.50,108.21 L399.95,108.20 L400.40,108.19 L400.85,108.18 L401.31,108.17 L401.76,108.16 L402.21,108.15 L402.66,108.14 L403.12,108.13 L403.57,108.12 L404.02,108.11 L404.47,108.11 L404.92,108.10 L405.38,108.09 L405.83,108.08 L406.28,108.07 L406.73,108.07 L407.19,108.06 L407.64,108.05 L408.09,108.04 L408.54,108.03 L408.99,108.03 L409.45,108.02 L409.90,108.01 L410.35,108.01 L410.80,108.00 L411.26,107.99 L411.71,107.99 L412.16,107.98 L412.61,107.97 L413.06,107.97 L413.52,107.96 L413.97,107.95 L414.42,107.95 L414.87,107.94 L415.33,107.94 L415.78,107.93 L416.23,107.93 L416.68,107.92 L417.13,107.92 L417.59,107.91 L418.04,107.91 L418.49,107.90 L418.94,107.90 L419.40,107.89 L419.85,107.89 L420.30,107.88 L420.75,107.88 L421.20,107.87 L421.66,107.87 L422.11,107.87 L422.56,107.86 L423.01,107.86 L423.47,107.85 L423.92,107.85 L424.37,107.85 L424.82,107.84 L425.27,107.84 L425.73,107.84 L426.18,107.83 L426.63,107.83 L427.08,107.83 L427.54,107.83 L427.99,107.82 L428.44,107.82 L428.89,107.82 L429.35,107.82 L429.80,107.82 L430.25,107.81 L430.70,107.81 L431.15,107.81 L431.61,107.81 L432.06,107.81 L432.51,107.81 L432.96,107.80 L433.42,107.80 L433.87,107.80 L434.32,107.80 L434.77,107.80 L435.22,107.80 L435.68,107.80 L436.13,107.80 L436.58,107.80 L437.03,107.80 L437.49,107.80 L437.94,107.80 L438.39,107.80 L438.84,107.80 L439.29,107.80 L439.75,107.80 L440.20,107.80 L440.65,107.80 L441.10,107.80 L441.56,107.80 L442.01,107.80 L442.46,107.81 L442.91,107.81 L443.36,107.81 L443.82,107.81 L444.27,107.81 L444.72,107.81 L445.17,107.82 L445.63,107.82 L446.08,107.82 L446.53,107.82 L446.98,107.82 L447.43,107.83 L447.89,107.83 L448.34,107.83 L448.79,107.83 L449.24,107.84 L449.70,107.84 L450.15,107.84 L450.60,107.85 L451.05,107.85 L451.50,107.85 L451.96,107.86 L452.41,107.86 L452.86,107.87 L453.31,107.87 L453.77,107.87 L454.22,107.88 L454.67,107.88 L455.12,107.89 L455.57,107.89 L456.03,107.90 L456.48,107.90 L456.93,107.91 L457.38,107.91 L457.84,107.92 L458.29,107.92 L458.74,107.93 L459.19,107.93 L459.64,107.94 L460.10,107.94 L460.55,107.95 L461.00,107.95 L461.45,107.96 L461.91,107.97 L462.36,107.97 L462.81,107.98 L463.26,107.99 L463.72,107.99 L464.17,108.00 L464.62,108.01 L465.07,108.01 L465.52,108.02 L465.98,108.03 L466.43,108.03 L466.88,108.04 L467.33,108.05 L467.79,108.06 L468.24,108.07 L468.69,108.07 L469.14,108.08 L469.59,108.09 L470.05,108.10 L470.50,108.11 L470.95,108.11 L471.40,108.12 L471.86,108.13 L472.31,108.14 L472.76,108.15 L473.21,108.16 L473.66,108.17 L474.12,108.18 L474.57,108.19 L475.02,108.20 L475.47,108.21 L475.93,108.22 L476.38,108.22 L476.83,108.23 L477.28,108.24 L477.73,108.26 L478.19,108.27 L478.64,108.28 L479.09,108.29 L479.54,108.30 L480.00,108.31 L480.45,108.32 L480.90,108.33 L481.35,108.34 L481.80,108.35 L482.26,108.36 L482.71,108.37 L483.16,108.39 L483.61,108.40 L484.07,108.41 L484.52,108.42 L484.97,108.43 L485.42,108.45 L485.87,108.46 L486.33,108.47 L486.78,108.48 L487.23,108.50 L487.68,108.51 L488.14,108.52 L488.59,108.53 L489.04,108.55 L489.49,108.56 L489.94,108.57 L490.40,108.59 L490.85,108.60 L491.30,108.61 L491.75,108.63 L492.21,108.64 L492.66,108.66 L493.11,108.67 L493.56,108.68 L494.01,108.70 L494.47,108.71 L494.92,108.73 L495.37,108.74 L495.82,108.76 L496.28,108.77 L496.73,108.79 L497.18,108.80 L497.63,108.82 L498.08,108.83 L498.54,108.85 L498.99,108.86 L499.44,108.88 L499.89,108.90 L500.35,108.91 L500.80,108.93 L501.25,108.94 L501.70,108.96 L502.16,108.98 L502.61,108.99 L503.06,109.01 L503.51,109.03 L503.96,109.04 L504.42,109.06 L504.87,109.08 L505.32,109.10 L505.77,109.11 L506.23,109.13 L506.68,109.15 L507.13,109.17 L507.58,109.18 L508.03,109.20 L508.49,109.22 L508.94,109.24 L509.39,109.26 L509.84,109.27 L510.30,109.29 L510.75,109.31 L511.20,109.33 L511.65,109.35 L512.10,109.37 L512.56,109.39 L513.01,109.41 L513.46,109.42 L513.91,109.44 L514.37,109.46 L514.82,109.48 L515.27,109.50 L515.72,109.52 L516.17,109.54 L516.63,109.56 L517.08,109.58 L517.53,109.60 L517.98,109.62 L518.44,109.64 L518.89,109.67 L519.34,109.69 L519.79,109.71 L520.24,109.73 L520.70,109.75 L521.15,109.77 L521.60,109.79 L522.05,109.81 L522.51,109.84 L522.96,109.86 L523.41,109.88 L523.86,109.90 L524.31,109.92 L524.77,109.94 L525.22,109.97 L525.67,109.99 L526.12,110.01 L526.58,110.03 L527.03,110.06 L527.48,110.08 L527.93,110.10 L528.38,110.13 L528.84,110.15 L529.29,110.17 L529.74,110.20 L530.19,110.22 L530.65,110.24 L531.10,110.27 L531.55,110.29 L532.00,110.32 L532.45,110.34 L532.91,110.36 L533.36,110.39 L533.81,110.41 L534.26,110.44 L534.72,110.46 L535.17,110.49 L535.62,110.51 L536.07,110.54 L536.53,110.56 L536.98,110.59 L537.43,110.61 L537.88,110.64 L538.33,110.66 L538.79,110.69 L539.24,110.72 L539.69,110.74 L540.14,110.77 L540.60,110.79 L541.05,110.82 L541.50,110.85 L541.95,110.87 L542.40,110.90 L542.86,110.93 L543.31,110.95 L543.76,110.98 L544.21,111.01 L544.67,111.03 L545.12,111.06 L545.57,111.09 L546.02,111.12 L546.47,111.14 L546.93,111.17 L547.38,111.20 L547.83,111.23 L548.28,111.26 L548.74,111.29 L549.19,111.31 L549.64,111.34 L550.09,111.37 L550.54,111.40 L551.00,111.43 L551.45,111.46 L551.90,111.49 L552.35,111.52 L552.81,111.54 L553.26,111.57 L553.71,111.60 L554.16,111.63 L554.61,111.66 L555.07,111.69 L555.52,111.72 L555.97,111.75 L556.42,111.78 L556.88,111.81 L557.33,111.84 L557.78,111.88 L558.23,111.91 L558.68,111.94 L559.14,111.97 L559.59,112.00 L560.04,112.03 L560.49,112.06 L560.95,112.09 L561.40,112.12 L561.85,112.16 L562.30,112.19 L562.75,112.22 L563.21,112.25 L563.66,112.28 L564.11,112.32 L564.56,112.35 L565.02,112.38 L565.47,112.41 L565.92,112.45 L566.37,112.48 L566.82,112.51 L567.28,112.54 L567.73,112.58 L568.18,112.61 L568.63,112.64 L569.09,112.68 L569.54,112.71 L569.99,112.74 L570.44,112.78 L570.90,112.81 L571.35,112.85 L571.80,112.88 L572.25,112.91 L572.70,112.95 L573.16,112.98 L573.61,113.02 L574.06,113.05 L574.51,113.09 L574.97,113.12 L575.42,113.16 L575.87,113.19 L576.32,113.23 L576.77,113.26 L577.23,113.30 L577.68,113.34 L578.13,113.37 L578.58,113.41 L579.04,113.44 L579.49,113.48" style="stroke-width: 2; stroke: rgb(0, 0, 0); stroke-opacity: 1;"/><g><g class="arrow-line"><path class="vector-plot real" stroke-dasharray="" d="  M579.49,143.3 L579.49,113.48" style="stroke: rgb(0, 0, 0); stroke-opacity: 1; stroke-width: 1;"/></g></g><g><g class="arrow-line"><path class="vector-plot real" stroke-dasharray="" d="  M82.48,143.3 L579.49,143.3" style="stroke: rgb(0, 0, 0); stroke-opacity: 1; stroke-width: 1;"/></g></g><g><g class="arrow-line"><path class="vector-plot real" stroke-dasharray="" d="  M82.48,161.05 L579.49,161.05" style="stroke: rgb(0, 0, 0); stroke-opacity: 1; stroke-width: 1;"/><g stroke="rgb(0,0,0)" stroke-opacity="1" transform="matrix(-1,1.2246467991473532e-16,-1.2246467991473532e-16,-1,579.4874974278962,161.0496474127766)" style="stroke: rgb(0, 0, 0); stroke-width: 1;"><path d=" M0,5.59 L0,-5.59"/></g><g stroke="rgb(0,0,0)" stroke-opacity="1" transform="matrix(-1,1.2246467991473532e-16,-1.2246467991473532e-16,-1,82.47999719675171,161.0496474127766)" style="stroke: rgb(0, 0, 0); stroke-width: 1;"><path d=" M0,5.59 L0,-5.59"/></g></g></g><g><g class="arrow-line"><path class="vector-plot real" stroke-dasharray="" d="  M82.48,143.3 L220.56,115.68" style="stroke: rgb(0, 0, 0); stroke-opacity: 1; stroke-width: 2;"/><g stroke="none" fill="rgb(0,0,0)" fill-opacity="1" transform="matrix(-0.9805804445574352,0.19611729080206755,-0.19611729080206755,-0.9805804445574352,224.48214011993582,114.89895096274174)" style="stroke: none; fill: rgb(0, 0, 0); stroke-width: 2;"><path d=" M15.6,-3.9 L0,0 L15.6,3.9 Z"/></g></g></g><g><g class="arrow-line"><path class="vector-plot real" stroke-dasharray="" d="  M597.24,143.3 L597.24,113.48" style="stroke: rgb(0, 0, 0); stroke-opacity: 1; stroke-width: 1;"/><g stroke="rgb(0,0,0)" stroke-opacity="1" transform="matrix(3.061616997868383e-16,1,-1,3.061616997868383e-16,597.2377652932943,113.47892953350993)" style="stroke: rgb(0, 0, 0); stroke-width: 1;"><path d=" M0,5.59 L0,-5.59"/></g><g stroke="rgb(0,0,0)" stroke-opacity="1" transform="matrix(3.061616997868383e-16,1,-1,3.061616997868383e-16,597.2377652932943,143.29937954737858)" style="stroke: rgb(0, 0, 0); stroke-width: 1;"><path d=" M0,5.59 L0,-5.59"/></g></g></g></g></g><rect class="real" x="1" y="1" width="655.6666666666666" height="268" style="fill: transparent; stroke: none;"/></g></g></g><g/></g><g/><g/><g/></svg>
        <svg xmlns="http://www.w3.org/2000/svg" xmlns:xlink="http://www.w3.org/1999/xlink" width="700" height="84.65625" style="width:700px;height:84.65625px;font-family:Asana-Math, Asana;background:transparent;"><g><g><g><g transform="matrix(1,0,0,1,95,24.15625)"><path transform="matrix(0.017,0,0,-0.017,0,0)" d="M310 96L239 624C237 646 241 661 281 662L323 664L323 692L282 691C245 690 217 689 199 689C181 689 153 690 116 691L75 692L75 664L100 662C144 659 152 651 159 614L247 -8L296 -8L674 611C699 651 707 658 736 662L754 664L754 692L724 691C697 690 674 689 658 689C648 689 621 690 580 691L534 692L534 664L560 662C598 659 617 649 617 630C617 619 613 608 601 588Z" stroke="rgb(0,0,0)" stroke-opacity="1" stroke-width="8" fill="rgb(0,0,0)" fill-opacity="1"></path></g></g></g></g><g><g><g><g transform="matrix(1,0,0,1,167.6640625,40.15625)"><path transform="matrix(0.017,0,0,-0.017,0,0)" d="M237 -16C473 -16 572 316 576 504C578 618 546 702 419 702C159 702 72 412 69 199C67 80 101 -16 237 -16ZM401 676C536 676 506 491 485 381L169 381C194 485 272 676 401 676ZM253 13C102 13 147 261 163 349L479 349C454 237 396 13 253 13Z" stroke="rgb(0,0,0)" stroke-opacity="1" stroke-width="8" fill="rgb(0,0,0)" fill-opacity="1"></path></g></g></g></g><g><g><g><g transform="matrix(1,0,0,1,325,77.15625)"><path transform="matrix(0.017,0,0,-0.017,0,0)" d="M349 664L352 692L238 689C222 689 204 689 161 690L97 692L94 664L141 662C165 661 176 653 176 635L81 55C77 37 65 30 21 23L16 -3L57 -2C88 -1 150 0 170 0C170 0 467 -1 467 -1C467 -1 500 0 500 0C499 25 510 103 523 165L492 165L475 103C466 71 457 54 448 49C435 44 371 39 304 39C255 39 228 40 162 46C165 64 256 605 256 613C263 651 270 658 307 661Z" stroke="rgb(0,0,0)" stroke-opacity="1" stroke-width="8" fill="rgb(0,0,0)" fill-opacity="1"></path></g></g></g></g><g><g><g><g transform="matrix(1,0,0,1,609,32.8203125)"><path transform="matrix(0.017,0,0,-0.017,0,0)" d="M236 722L224 733C179 711 138 697 64 691L60 670L108 670C126 670 142 667 142 647C142 641 142 632 140 622L98 388C78 272 36 80 10 2L17 -9L86 7C94 64 108 164 148 236C193 317 296 414 338 414C349 414 360 407 360 393C360 375 355 342 345 303L294 107C288 85 281 55 281 31C281 6 291 -9 312 -9C344 -9 412 41 471 85L461 103L435 86C412 71 386 56 374 56C367 56 361 65 361 76C361 88 364 101 368 116L432 372C438 398 443 423 443 447C443 464 437 482 411 482C376 482 299 437 231 374C198 343 172 308 144 273L140 275Z" stroke="rgb(0,0,0)" stroke-opacity="1" stroke-width="8" fill="rgb(0,0,0)" fill-opacity="1"></path></g></g></g></g></svg>
</svg>
