<svg xmlns="http://www.w3.org/2000/svg" xmlns:xlink="http://www.w3.org/1999/xlink" x="0" y="0" width="662" height="437.9921875" style="
        width:662px;
        height:437.9921875px;
        background: transparent;
        fill: none;
">
        
        
        <svg xmlns="http://www.w3.org/2000/svg" class="role-diagram-draw-area"><g class="shapes-region" style="stroke: black; fill: none;"><g class="composite-shape"><path class="real" d=" M212.67,32 L486.33,32 L486.33,47.54 L212.67,47.54 Z" style="stroke-width: 2; stroke: rgb(0, 0, 0); fill: none; fill-opacity: 1;"/></g><g class="composite-shape"><path class="real" d=" M464.6,8.93 L464.6,387.54 L449.07,387.54 L449.07,8.93 Z" style="stroke-width: 2; stroke: rgb(0, 0, 0); fill: none; fill-opacity: 1;"/></g><g class="composite-shape"><path class="real" d=" M232.13,154.6 C232.13,138.99 244.79,126.33 260.4,126.33 C276.01,126.33 288.67,138.99 288.67,154.6 C288.67,170.21 276.01,182.87 260.4,182.87 C244.79,182.87 232.13,170.21 232.13,154.6 Z" style="stroke-width: 2; stroke: rgb(0, 0, 0); fill: none; fill-opacity: 1;"/></g><g class="composite-shape"><path class="real" d=" M288.67,87.54 C288.67,71.92 301.32,59.27 316.93,59.27 C332.55,59.27 345.2,71.92 345.2,87.54 C345.2,103.15 332.55,115.8 316.93,115.8 C301.32,115.8 288.67,103.15 288.67,87.54 Z" style="stroke-width: 2; stroke: rgb(0, 0, 0); fill: none; fill-opacity: 1;"/></g><g class="arrow-line"><path class="connection real" stroke-dasharray="" d="  M232.13,154.6 L232.13,48.2" style="stroke: rgb(0, 0, 0); stroke-width: 2; fill: none; fill-opacity: 1;"/></g><g class="arrow-line"><path class="connection real" stroke-dasharray="" d="  M288.67,154.6 L288.67,87.54" style="stroke: rgb(0, 0, 0); stroke-width: 2; fill: none; fill-opacity: 1;"/></g><g class="arrow-line"><path class="connection real" stroke-dasharray="" d="  M316.93,47.54 L316.93,87.54" style="stroke: rgb(0, 0, 0); stroke-width: 2; fill: none; fill-opacity: 1;"/></g><g class="arrow-line"><path class="connection real" stroke-dasharray="" d="  M260.4,220.87 L260.4,154.6" style="stroke: rgb(0, 0, 0); stroke-width: 2; fill: none; fill-opacity: 1;"/></g><g class="arrow-line"><path class="connection real" stroke-dasharray="" d="  M345.2,259.54 L345.2,87.54" style="stroke: rgb(0, 0, 0); stroke-width: 2; fill: none; fill-opacity: 1;"/></g><g class="shape"><path class="real" d=" M260.4,220.87 C281.13,215.54 285.67,186.2 298.33,198.87 C311,211.54 267,223.54 270.33,249.54 C273.67,275.54 209,293.54 205.67,262.87 C202.33,232.2 239.67,226.2 260.4,220.87 Z" style="stroke: rgb(0, 0, 0); stroke-width: 2; fill: none; fill-opacity: 1;"/></g><g class="arrow-line"><path class="connection real" stroke-dasharray="" d="  M171.67,232.2 C195.67,241.54 179,234.2 207.67,249.54" style="stroke: rgb(0, 0, 0); stroke-width: 2; fill: none; fill-opacity: 1;"/></g><g class="arrow-line"><path class="connection real" stroke-dasharray="" d="  M239.67,277.54 C238.33,296.87 239,291.54 235,308.87" style="stroke: rgb(0, 0, 0); stroke-width: 2; fill: none; fill-opacity: 1;"/></g><g class="arrow-line"><path class="connection real" stroke-dasharray="" d="  M285,222.2 C295,240.2 298.33,240.2 297,250.2" style="stroke: rgb(0, 0, 0); stroke-width: 2; fill: none; fill-opacity: 1;"/></g><g class="arrow-line"><path class="connection real" stroke-dasharray="" d="  M276.33,183.54 C277.67,200.2 274.33,200.2 274.33,211.54" style="stroke: rgb(0, 0, 0); stroke-width: 2; fill: none; fill-opacity: 1;"/></g><g class="shape"><path class="real" d=" M316.33,234.87 C326.33,228.2 329.87,260.2 345.2,259.54 C360.54,258.87 403.67,288.2 385.67,312.2 C367.67,336.2 317,288.2 319.87,271.54 C322.74,254.87 306.33,241.54 316.33,234.87 Z" style="stroke: rgb(0, 0, 0); stroke-width: 2; fill: none; fill-opacity: 1;"/></g><g class="arrow-line"><path class="connection real" stroke-dasharray="" d="  M415.67,268.87 C404.33,276.87 397,284.87 384.33,283.54" style="stroke: rgb(0, 0, 0); stroke-width: 2; fill: none; fill-opacity: 1;"/></g><g class="arrow-line"><path class="connection real" stroke-dasharray="" d="  M361.67,316.87 C360.33,336.2 358.33,331.54 358.33,349.54" style="stroke: rgb(0, 0, 0); stroke-width: 2; fill: none; fill-opacity: 1;"/></g><g class="arrow-line"><path class="connection real" stroke-dasharray="" d="  M290.33,258.87 C299.67,263.54 310.33,266.87 319,266.2" style="stroke: rgb(0, 0, 0); stroke-width: 2; fill: none; fill-opacity: 1;"/></g><g class="arrow-line"><path class="connection real" stroke-dasharray="" d="  M333,250.87 C334.33,236.87 337.67,224.87 333.67,213.54" style="stroke: rgb(0, 0, 0); stroke-width: 2; fill: none; fill-opacity: 1;"/></g><g/></g><g/><g/><g/></svg>
        <svg xmlns="http://www.w3.org/2000/svg" xmlns:xlink="http://www.w3.org/1999/xlink" width="660" height="435.9921875" style="width:660px;height:435.9921875px;font-family:Asana-Math, Asana;background:transparent;"><g><g><g><g transform="matrix(1,0,0,1,175.1640625,260.328125)"><path transform="matrix(0.017,0,0,-0.017,0,0)" d="M23 692L23 662L68 659C113 656 121 643 121 569L121 120C121 41 116 33 70 30L22 27L22 -3C81 -1 116 0 168 0C220 0 256 -1 315 -3L315 27L267 30C221 33 216 41 216 120L216 642C251 650 280 654 314 654C422 654 480 604 480 509C480 419 419 356 332 356C311 356 296 358 270 366L280 330C304 325 318 324 338 324C475 324 580 417 580 537C580 633 502 692 375 692C358 692 307 689 205 689C183 689 183 689 23 692Z" stroke="rgb(0,0,0)" stroke-opacity="1" stroke-width="0" fill="rgb(0,0,0)" fill-opacity="1"></path></g></g></g></g><g><g><g><g transform="matrix(1,0,0,1,370.5,258.328125)"><path transform="matrix(0.017,0,0,-0.017,0,0)" d="M216 327C244 329 274 330 319 330C393 330 420 327 438 318L446 293L451 234L481 234C478 327 478 327 478 345C478 361 478 361 481 461L451 461L446 409C445 400 442 391 438 383C420 375 392 372 326 372C284 372 250 373 216 375L216 642C246 649 264 650 323 650C371 650 427 644 458 636C482 630 485 625 485 602L485 537L520 537C520 597 525 645 536 689C487 691 457 692 414 692L307 691C258 689 223 689 198 689C169 689 169 689 22 692L22 662L70 659C116 656 121 648 121 569L121 120C121 41 116 33 70 30L22 27L22 -3C81 -1 116 0 168 0C220 0 256 -1 315 -3L315 27L267 30C221 33 216 41 216 120Z" stroke="rgb(0,0,0)" stroke-opacity="1" stroke-width="0" fill="rgb(0,0,0)" fill-opacity="1"></path></g></g></g></g><g><g><g><g transform="matrix(1,0,0,1,185.828125,315.6640625)"><path transform="matrix(0.017,0,0,-0.017,0,0)" d="M96 -20C207 16 255 39 309 85C406 168 457 283 457 417C457 586 376 689 244 689C116 689 20 589 20 455C20 340 95 256 199 256C233 256 272 267 290 282L360 340C352 172 243 49 62 5L62 -3ZM240 656C285 656 318 637 340 597C358 565 370 516 370 471C370 379 317 317 240 317C160 317 106 388 106 492C106 593 158 656 240 656ZM762 689C607 689 528 566 528 324C528 207 549 106 584 57C619 8 675 -20 737 -20C888 -20 964 110 964 366C964 585 899 689 762 689ZM744 654C841 654 880 556 880 316C880 103 842 15 750 15C653 15 612 116 612 360C612 571 649 654 744 654ZM1270 661L1326 661C1344 661 1351 650 1351 620L1351 102C1351 39 1348 32 1314 30L1268 27L1268 -3C1368 0 1368 0 1394 0C1422 0 1427 0 1516 -3L1516 27L1472 30C1438 32 1435 39 1435 102L1435 240L1700 -12L1796 17L1796 40C1772 40 1743 57 1711 88L1521 281L1650 382C1695 417 1722 429 1754 429L1758 429L1758 459L1658 459L1435 261L1435 718L1426 726C1382 709 1349 701 1270 689ZM1857 289C1857 215 1903 164 1977 156L1898 95C1888 80 1883 67 1883 52C1883 24 1901 8 1949 -6L1862 -53C1848 -61 1834 -98 1834 -129C1834 -220 1923 -283 2050 -283C2201 -283 2320 -188 2320 -66C2320 6 2272 56 2202 56L2042 56C1990 56 1966 68 1966 95C1966 118 1995 135 2012 152C2022 151 2028 150 2036 150C2097 150 2240 197 2240 324C2240 344 2237 357 2229 378L2321 378L2346 419L2342 431L2200 427C2163 457 2127 469 2078 469C2003 469 1857 424 1857 289ZM2042 435C2110 435 2156 379 2156 294C2156 229 2114 184 2053 184C1986 184 1941 236 1941 313C1941 390 1978 435 2042 435ZM2089 -14C2202 -14 2241 -37 2241 -102C2241 -188 2162 -252 2057 -252C1970 -252 1910 -201 1910 -127C1910 -82 1936 -41 1976 -24C1992 -16 2020 -14 2089 -14Z" stroke="rgb(0,0,0)" stroke-opacity="1" stroke-width="0" fill="rgb(0,0,0)" fill-opacity="1"></path></g></g></g></g><g><g><g><g transform="matrix(1,0,0,1,387.828125,337.6640625)"><path transform="matrix(0.017,0,0,-0.017,0,0)" d="M131 331C152 512 241 611 421 665L379 689C283 657 242 637 191 593C88 506 32 384 32 247C32 82 112 -20 241 -20C371 -20 468 83 468 219C468 334 399 409 293 409C216 409 184 370 131 331ZM255 349C331 349 382 283 382 184C382 80 331 13 254 13C169 13 123 86 123 220C123 255 127 274 138 291C160 325 207 349 255 349ZM762 689C607 689 528 566 528 324C528 207 549 106 584 57C619 8 675 -20 737 -20C888 -20 964 110 964 366C964 585 899 689 762 689ZM744 654C841 654 880 556 880 316C880 103 842 15 750 15C653 15 612 116 612 360C612 571 649 654 744 654ZM1270 661L1326 661C1344 661 1351 650 1351 620L1351 102C1351 39 1348 32 1314 30L1268 27L1268 -3C1368 0 1368 0 1394 0C1422 0 1427 0 1516 -3L1516 27L1472 30C1438 32 1435 39 1435 102L1435 240L1700 -12L1796 17L1796 40C1772 40 1743 57 1711 88L1521 281L1650 382C1695 417 1722 429 1754 429L1758 429L1758 459L1658 459L1435 261L1435 718L1426 726C1382 709 1349 701 1270 689ZM1857 289C1857 215 1903 164 1977 156L1898 95C1888 80 1883 67 1883 52C1883 24 1901 8 1949 -6L1862 -53C1848 -61 1834 -98 1834 -129C1834 -220 1923 -283 2050 -283C2201 -283 2320 -188 2320 -66C2320 6 2272 56 2202 56L2042 56C1990 56 1966 68 1966 95C1966 118 1995 135 2012 152C2022 151 2028 150 2036 150C2097 150 2240 197 2240 324C2240 344 2237 357 2229 378L2321 378L2346 419L2342 431L2200 427C2163 457 2127 469 2078 469C2003 469 1857 424 1857 289ZM2042 435C2110 435 2156 379 2156 294C2156 229 2114 184 2053 184C1986 184 1941 236 1941 313C1941 390 1978 435 2042 435ZM2089 -14C2202 -14 2241 -37 2241 -102C2241 -188 2162 -252 2057 -252C1970 -252 1910 -201 1910 -127C1910 -82 1936 -41 1976 -24C1992 -16 2020 -14 2089 -14Z" stroke="rgb(0,0,0)" stroke-opacity="1" stroke-width="0" fill="rgb(0,0,0)" fill-opacity="1"></path></g></g></g></g><g><g><g><g transform="matrix(1,0,0,1,283.1640625,421.6640625)"><path transform="matrix(0.017,0,0,-0.017,0,0)" d="M216 327C244 329 274 330 319 330C393 330 420 327 438 318L446 293L451 234L481 234C478 327 478 327 478 345C478 361 478 361 481 461L451 461L446 409C445 400 442 391 438 383C420 375 392 372 326 372C284 372 250 373 216 375L216 642C246 649 264 650 323 650C371 650 427 644 458 636C482 630 485 625 485 602L485 537L520 537C520 597 525 645 536 689C487 691 457 692 414 692L307 691C258 689 223 689 198 689C169 689 169 689 22 692L22 662L70 659C116 656 121 648 121 569L121 120C121 41 116 33 70 30L22 27L22 -3C81 -1 116 0 168 0C220 0 256 -1 315 -3L315 27L267 30C221 33 216 41 216 120ZM743 465L734 469C683 448 631 434 578 428L578 400L615 400C655 400 659 393 659 327L659 102C659 39 656 32 622 30L576 27L576 -3C676 0 676 0 701 0C726 0 726 0 826 -3L826 27L780 30C746 32 743 39 743 102ZM697 687C667 687 641 661 641 631C641 602 667 576 696 576C725 576 752 602 752 631C752 659 725 687 697 687ZM900 289C900 215 946 164 1020 156L941 95C931 80 926 67 926 52C926 24 944 8 992 -6L905 -53C891 -61 877 -98 877 -129C877 -220 966 -283 1093 -283C1244 -283 1363 -188 1363 -66C1363 6 1315 56 1245 56L1085 56C1033 56 1009 68 1009 95C1009 118 1038 135 1055 152C1065 151 1071 150 1079 150C1140 150 1283 197 1283 324C1283 344 1280 357 1272 378L1364 378L1389 419L1385 431L1243 427C1206 457 1170 469 1121 469C1046 469 900 424 900 289ZM1085 435C1153 435 1199 379 1199 294C1199 229 1157 184 1096 184C1029 184 984 236 984 313C984 390 1021 435 1085 435ZM1132 -14C1245 -14 1284 -37 1284 -102C1284 -188 1205 -252 1100 -252C1013 -252 953 -201 953 -127C953 -82 979 -41 1019 -24C1035 -16 1063 -14 1132 -14ZM1683 49C1603 49 1583 94 1583 170L1583 465L1574 469C1523 448 1471 434 1418 428L1418 400L1455 400C1495 400 1499 393 1499 327L1499 159C1499 70 1504 -12 1640 -12C1685 -12 1725 2 1752 27L1819 89C1819 60 1818 44 1815 -3C1882 0 1883 0 1898 0C1912 0 1912 0 1981 -3L1981 27L1940 30C1906 32 1903 38 1903 102L1903 465L1894 469C1843 448 1791 434 1738 428L1738 400L1775 400C1815 400 1819 393 1819 327L1819 164C1819 126 1770 49 1683 49ZM2025 400L2062 400C2102 400 2106 393 2106 327L2106 102C2106 39 2103 32 2069 30L2023 27L2023 -3C2095 -1 2121 0 2146 0C2166 0 2166 0 2289 -3L2289 27L2237 30C2192 33 2190 36 2190 102L2190 274C2190 334 2230 384 2279 384C2309 384 2330 370 2346 338L2367 338L2376 458C2365 465 2347 469 2329 469C2299 469 2267 453 2246 428L2190 362L2190 465L2181 469C2130 448 2078 434 2025 428ZM2646 -20C2711 -20 2801 18 2813 36L2833 70L2820 80C2756 42 2733 33 2690 33C2625 33 2571 62 2543 111C2524 144 2517 172 2515 230C2536 227 2566 226 2600 226C2686 226 2795 234 2842 244C2843 258 2844 267 2844 279C2844 394 2770 469 2658 469C2621 469 2576 464 2536 440C2454 392 2422 323 2422 219C2422 25 2557 -20 2646 -20ZM2755 267C2731 264 2680 261 2629 261C2586 261 2543 264 2517 270C2517 317 2521 339 2534 365C2555 409 2598 436 2646 436C2679 436 2705 423 2723 396C2745 363 2752 334 2755 267ZM3582 253C3582 366 3501 446 3387 446C3339 446 3303 443 3250 396L3250 605L3555 604L3555 689L3198 690L3198 322L3218 316C3265 363 3292 377 3341 377C3437 377 3497 309 3497 201C3497 90 3433 25 3324 25C3270 25 3220 43 3206 69L3160 151L3136 137C3159 80 3171 48 3185 4C3213 -11 3253 -20 3296 -20C3424 -20 3582 89 3582 253Z" stroke="rgb(0,0,0)" stroke-opacity="1" stroke-width="0" fill="rgb(0,0,0)" fill-opacity="1"></path></g></g><g><g transform="matrix(1,0,0,1,348.140625,421.6640625)"><path transform="matrix(0.017,0,0,-0.017,0,0)" d="M555 243L555 299L51 299L51 243Z" stroke="rgb(0,0,0)" stroke-opacity="1" stroke-width="0" fill="rgb(0,0,0)" fill-opacity="1"></path></g></g><g><g transform="matrix(1,0,0,1,361.828125,421.6640625)"><path transform="matrix(0.017,0,0,-0.017,0,0)" d="M418 -3L418 27L366 30C311 33 301 44 301 96L301 700L60 598L67 548L217 614L217 96C217 44 206 33 152 30L96 27L96 -3C250 0 250 0 261 0C292 0 402 -3 418 -3ZM762 689C607 689 528 566 528 324C528 207 549 106 584 57C619 8 675 -20 737 -20C888 -20 964 110 964 366C964 585 899 689 762 689ZM744 654C841 654 880 556 880 316C880 103 842 15 750 15C653 15 612 116 612 360C612 571 649 654 744 654Z" stroke="rgb(0,0,0)" stroke-opacity="1" stroke-width="0" fill="rgb(0,0,0)" fill-opacity="1"></path></g></g></g></g></svg>
</svg>
