<svg xmlns="http://www.w3.org/2000/svg" xmlns:xlink="http://www.w3.org/1999/xlink" x="0" y="0" width="662" height="188" style="
        width:662px;
        height:188px;
        background: transparent;
        fill: none;
">
        
        
        <svg xmlns="http://www.w3.org/2000/svg" class="role-diagram-draw-area"><g class="shapes-region" style="stroke: black; fill: none;"><g class="composite-shape"><path class="real" d=" M60.66,70.34 C60.66,37.2 87.52,10.33 120.66,10.33 C153.8,10.33 180.67,37.2 180.67,70.34 C180.67,103.48 153.8,130.34 120.66,130.34 C87.52,130.34 60.66,103.48 60.66,70.34 Z" style="stroke-width: 1; stroke: rgb(0, 0, 0); fill: none; fill-opacity: 1;"/></g><g class="composite-shape"><path class="real" d=" M581,70.34 C581,64.82 585.48,60.34 591,60.34 C596.52,60.34 601,64.82 601,70.34 C601,75.87 596.52,80.34 591,80.34 C585.48,80.34 581,75.87 581,70.34 Z" style="stroke-width: 1; stroke: rgb(0, 0, 0); fill: none; fill-opacity: 1;"/></g><g class="arrow-line"><path class="connection real" stroke-dasharray="" d="  M120.66,70.34 L591,70.34" style="stroke: rgb(0, 0, 0); stroke-width: 1; fill: none; fill-opacity: 1;"/></g><g class="arrow-line"><path class="connection real" stroke-dasharray="" d="  M120.66,150.34 L180.67,150.34" style="stroke: rgb(0, 0, 0); stroke-width: 1; fill: none; fill-opacity: 1;"/><g stroke="#000" transform="matrix(-1,1.2246467991473532e-16,-1.2246467991473532e-16,-1,180.6666666666666,150.33854166666663)" style="stroke: rgb(0, 0, 0); stroke-width: 1;"><path d=" M0,5.59 L0,-5.59"/></g><g stroke="#000" transform="matrix(-1,1.2246467991473532e-16,-1.2246467991473532e-16,-1,120.66145833333319,150.33854166666663)" style="stroke: rgb(0, 0, 0); stroke-width: 1;"><path d=" M0,5.59 L0,-5.59"/></g></g><g class="arrow-line"><path class="connection real" stroke-dasharray="" d="  M120.66,172.34 L591,172.34" style="stroke: rgb(0, 0, 0); stroke-width: 1; fill: none; fill-opacity: 1;"/><g stroke="#000" transform="matrix(-1,1.2246467991473532e-16,-1.2246467991473532e-16,-1,591.0000000000001,172.34375000000003)" style="stroke: rgb(0, 0, 0); stroke-width: 1;"><path d=" M0,5.59 L0,-5.59"/></g><g stroke="#000" transform="matrix(-1,1.2246467991473532e-16,-1.2246467991473532e-16,-1,120.66145833333316,172.33854166666663)" style="stroke: rgb(0, 0, 0); stroke-width: 1;"><path d=" M0,5.59 L0,-5.59"/></g></g><g class="arrow-line"><path class="connection real" stroke-dasharray="6 6" d="  M120.66,70.34 L120.66,172.34" style="stroke: rgb(0, 0, 0); stroke-width: 1; fill: none; fill-opacity: 1;"/></g><g class="arrow-line"><path class="connection real" stroke-dasharray="6 6" d="  M180.67,70.34 L180.67,150.34" style="stroke: rgb(0, 0, 0); stroke-width: 1; fill: none; fill-opacity: 1;"/></g><g class="arrow-line"><path class="connection real" stroke-dasharray="6 6" d="  M591,70.34 L591,172.34" style="stroke: rgb(0, 0, 0); stroke-width: 1; fill: none; fill-opacity: 1;"/></g><g/></g><g/><g/><g/></svg>
        <svg xmlns="http://www.w3.org/2000/svg" xmlns:xlink="http://www.w3.org/1999/xlink" width="660" height="186" style="width:660px;height:186px;font-family:Asana-Math, Asana;background:transparent;"><g><g><g><g transform="matrix(1,0,0,1,146.5,146)"><path transform="matrix(0.017,0,0,-0.017,0,0)" d="M105 664L161 662C185 661 196 653 196 635C196 621 192 589 187 559L112 125C96 34 94 32 54 28L13 25L9 -3L51 -2C98 0 117 0 141 0L238 -3L264 -3L267 25L218 28C191 30 182 38 182 58C182 67 183 76 186 93L287 648C316 654 336 656 363 656C450 656 496 617 496 543C496 448 418 378 314 378L270 378L267 367C401 172 432 124 507 -3C507 -3 592 0 592 0C593 0 607 -1 626 -3L639 -3L639 24C599 29 588 37 559 79L375 354C430 364 459 376 495 402C553 444 584 499 584 560C584 646 520 693 409 691L108 691Z" stroke="rgb(0,0,0)" stroke-opacity="1" stroke-width="8" fill="rgb(0,0,0)" fill-opacity="1"></path></g></g></g></g><g><g><g><g transform="matrix(1,0,0,1,342.5,166)"><path transform="matrix(0.017,0,0,-0.017,0,0)" d="M368 365C371 403 376 435 384 476C373 481 369 482 364 482C333 482 302 458 266 407C227 351 188 291 172 256L204 408C208 425 210 438 210 450C210 470 202 482 187 482C166 482 128 461 54 408L26 388L33 368L65 389C93 407 104 412 113 412C123 412 130 403 130 390C130 332 87 126 47 -2L57 -9C72 -4 88 -1 111 4L124 6L150 126C168 209 191 262 235 319C269 363 296 384 318 384C333 384 343 379 354 365Z" stroke="rgb(0,0,0)" stroke-opacity="1" stroke-width="8" fill="rgb(0,0,0)" fill-opacity="1"></path></g></g><g><g><g><g><text x="349.609375" y="169.54739583333333" style="white-space:pre;stroke:none;fill:rgb(0,0,0);fill-opacity:1;font-size:11.9px;font-family:Asana-Math, Asana;font-weight:400;font-style:normal;dominant-baseline:auto;text-decoration:none solid rgb(0, 0, 0);">♁☾</text></g></g></g></g></g></g></svg>
</svg>
