<svg xmlns="http://www.w3.org/2000/svg" xmlns:xlink="http://www.w3.org/1999/xlink" x="0" y="0" width="662" height="242.5" style="
        width:662px;
        height:242.5px;
        background: transparent;
        fill: none;
">
        
        
        <svg xmlns="http://www.w3.org/2000/svg" class="role-diagram-draw-area"><g class="shapes-region" style="stroke: black; fill: none;"><g class="arrow-line"><path class="connection real" stroke-dasharray="" d="  M439.5,199 L222.5,199" style="stroke: rgb(0, 0, 0); stroke-width: 1; fill: none; fill-opacity: 1;"/></g><g class="composite-shape"><path class="real" d=" M385.28,55.49 C419.02,93.74 439.5,143.98 439.5,199 C439.5,199.09 439.5,199.18 439.5,199.27 L222.5,199 Z" style="stroke-width: 1; stroke: none; fill: none; fill-opacity: 1;"/><path class="real" d=" M385.28,55.49 C419.02,93.74 439.5,143.98 439.5,199 C439.5,199.09 439.5,199.18 439.5,199.27" style="stroke-width: 1; stroke: rgb(0, 0, 0); fill: none; fill-opacity: 1;"/></g><g class="arrow-line"><path class="connection real" stroke-dasharray="" d="  M439.5,6.75 L222.5,199" style="stroke: rgb(0, 0, 0); stroke-width: 1; fill: none; fill-opacity: 1;"/></g><g class="arrow-line"><path class="connection real" stroke-dasharray="" d="  M439.5,6.75 L439.5,199.27" style="stroke: rgb(0, 0, 0); stroke-width: 1; fill: none; fill-opacity: 1;"/></g><g class="arrow-line"><path class="connection real" stroke-dasharray="" d="  M385.28,55.49 L385.28,199.25" style="stroke: rgb(0, 0, 0); stroke-width: 1; fill: none; fill-opacity: 1;"/></g><g class="composite-shape"><path class="real" d=" M245.3,179.5 C249.79,184.74 252.5,191.55 252.5,199 L222.5,199 Z" style="stroke-width: 1; stroke: none; fill: none; fill-opacity: 1;"/><path class="real" d=" M245.3,179.5 C249.79,184.74 252.5,191.55 252.5,199" style="stroke-width: 1; stroke: rgb(0, 0, 0); fill: none; fill-opacity: 1;"/></g><g class="arrow-line"><path class="connection real" stroke-dasharray="" d="  M439.5,211.27 L222.5,211" style="stroke: rgb(0, 0, 0); stroke-width: 1; fill: none; fill-opacity: 1;"/><g stroke="#000" transform="matrix(0.9999992536874144,0.0012217301724647511,-0.0012217301724647511,0.9999992536874144,222.5,211)" style="stroke: rgb(0, 0, 0); stroke-width: 1;"><path d=" M0,5.59 L0,-5.59"/></g><g stroke="#000" transform="matrix(0.9999992536874144,0.0012217301724647511,-0.0012217301724647511,0.9999992536874144,439.4998415091087,211.26511545165076)" style="stroke: rgb(0, 0, 0); stroke-width: 1;"><path d=" M0,5.59 L0,-5.59"/></g></g><g/></g><g/><g/><g/></svg>
        <svg xmlns="http://www.w3.org/2000/svg" xmlns:xlink="http://www.w3.org/1999/xlink" width="660" height="240.5" style="width:660px;height:240.5px;font-family:Asana-Math, Asana;background:transparent;"><g><g><g><g transform="matrix(1,0,0,1,257,191.5)"><path transform="matrix(0.017,0,0,-0.017,0,0)" d="M237 -16C473 -16 572 316 576 504C578 618 546 702 419 702C159 702 72 412 69 199C67 80 101 -16 237 -16ZM401 676C536 676 506 491 485 381L169 381C194 485 272 676 401 676ZM253 13C102 13 147 261 163 349L479 349C454 237 396 13 253 13Z" stroke="rgb(0,0,0)" stroke-opacity="1" stroke-width="8" fill="rgb(0,0,0)" fill-opacity="1"></path></g></g></g></g><g><g><g><g transform="matrix(1,0,0,1,327.5,229)"><path transform="matrix(0.017,0,0,-0.017,0,0)" d="M418 -3L418 27L366 30C311 33 301 44 301 96L301 700L60 598L67 548L217 614L217 96C217 44 206 33 152 30L96 27L96 -3C250 0 250 0 261 0C292 0 402 -3 418 -3Z" stroke="rgb(0,0,0)" stroke-opacity="1" stroke-width="8" fill="rgb(0,0,0)" fill-opacity="1"></path></g></g></g></g></svg>
</svg>
