<svg xmlns="http://www.w3.org/2000/svg" xmlns:xlink="http://www.w3.org/1999/xlink" x="0" y="0" width="662" height="302" style="
        width:662px;
        height:302px;
        background: transparent;
        fill: none;
">
        
        
        <svg xmlns="http://www.w3.org/2000/svg" class="role-diagram-draw-area"><g class="shapes-region" style="stroke: black; fill: none;"><g class="composite-shape"><path class="real" d=" M135,160 C135,140.67 150.67,125 170,125 C189.33,125 205,140.67 205,160 C205,179.33 189.33,195 170,195 C150.67,195 135,179.33 135,160 Z" style="stroke-width: 1; stroke: rgb(0, 0, 0); fill: none; fill-opacity: 1;"/></g><g class="composite-shape"><path class="real" d=" M99.6,99.6 C99.6,80.27 115.27,64.6 134.6,64.6 C153.93,64.6 169.6,80.27 169.6,99.6 C169.6,118.93 153.93,134.6 134.6,134.6 C115.27,134.6 99.6,118.93 99.6,99.6 Z" style="stroke-width: 1; stroke: rgb(0, 0, 0); fill: none; fill-opacity: 1;"/></g><g class="composite-shape"><path class="real" d=" M65,160 C65,140.67 80.67,125 100,125 C119.33,125 135,140.67 135,160 C135,179.33 119.33,195 100,195 C80.67,195 65,179.33 65,160 Z" style="stroke-width: 1; stroke: rgb(0, 0, 0); fill: none; fill-opacity: 1;"/></g><g class="composite-shape"><path class="real" d=" M100,160 C100,140.67 115.67,125 135,125 C154.33,125 170,140.67 170,160 C170,179.33 154.33,195 135,195 C115.67,195 100,179.33 100,160 Z" style="stroke-width: 1; stroke: rgb(0, 0, 0); fill: none; fill-opacity: 1;"/></g><g/></g><g/><g/><g/></svg>
        <svg xmlns="http://www.w3.org/2000/svg" xmlns:xlink="http://www.w3.org/1999/xlink" width="660" height="300" style="width:660px;height:300px;font-family:Asana-Math, Asana;background:transparent;"></svg>
</svg>
